<?xml version="1.0" encoding="UTF-8"?>
<svg version="1.1" xmlns="http://www.w3.org/2000/svg" width="512" height="512">
<path d="M0 0 C4.50665009 2.4364077 7.25035315 5.53069216 9.5625 10.0625 C10.0459243 13.30834886 9.60024624 15.79424047 9 19 C10.2375 18.67386719 11.475 18.34773438 12.75 18.01171875 C70.29148567 3.27816637 131.66674719 10.0965505 185 36 C185.72106934 36.34756348 186.44213867 36.69512695 187.18505859 37.05322266 C211.43242531 48.8876451 232.578349 65.43676451 252 84 C252.74765625 84.70640625 253.4953125 85.4128125 254.265625 86.140625 C259.15221037 90.87330217 263.47499641 95.99094268 267.68261719 101.33203125 C268.60749076 102.503035 269.53837139 103.6693073 270.47363281 104.83203125 C279.41529613 115.96588027 286.94056349 127.59771533 294 140 C294.37463379 140.6408252 294.74926758 141.28165039 295.13525391 141.94189453 C327.20501975 196.82619113 332.4973292 266.44506363 316.72827148 327.17382812 C307.55566827 360.91431079 291.88543302 393.36647101 269 420 C268.1252292 421.05640416 267.25162243 422.11377284 266.37890625 423.171875 C255.73245388 435.96637493 244.18426974 447.80695909 231 458 C230.06671875 458.76183594 229.1334375 459.52367187 228.171875 460.30859375 C214.36708299 471.37012581 199.00627804 480.63137485 182.97021484 488.08056641 C180.94455742 489.0258732 178.93596958 490.0027581 176.92578125 490.98046875 C160.2599895 498.91144413 142.46078005 504.05907676 124.4375 507.875 C123.53628418 508.06602295 122.63506836 508.2570459 121.70654297 508.45385742 C105.94178802 511.58494053 90.40824556 512.37664808 74.375 512.3125 C73.40411438 512.31034485 72.43322876 512.3081897 71.43292236 512.30596924 C57.09414814 512.25491637 43.09453033 511.85949913 29 509 C27.98454102 508.80132324 26.96908203 508.60264648 25.92285156 508.39794922 C-31.50294641 496.91106874 -85.91979943 465.71578208 -122 419 C-123.16015625 417.56527344 -123.16015625 417.56527344 -124.34375 416.1015625 C-164.67879583 365.42747011 -182.71019125 298.83315365 -175.98217773 234.63183594 C-172.22804833 202.67108748 -163.08039636 172.41731494 -148 144 C-147.63181152 143.29166016 -147.26362305 142.58332031 -146.88427734 141.85351562 C-137.94673606 124.71219651 -126.78257192 109.46346058 -114 95 C-113.21882813 94.10796875 -112.43765625 93.2159375 -111.6328125 92.296875 C-103.3854459 82.99361718 -94.72448218 74.74614913 -85 67 C-84.24460937 66.36578125 -83.48921875 65.7315625 -82.7109375 65.078125 C-65.50635007 50.77052995 -45.75026663 39.87217485 -25.4765625 30.59375 C-22.95641041 29.43844432 -20.46597915 28.26460469 -18 27 C-18.99 25.5459375 -18.99 25.5459375 -20 24.0625 C-22.47156455 19.71747193 -22.7331024 15.89926971 -22 11 C-18.30131586 0.68261793 -10.06145023 -1.53437116 0 0 Z " fill="#012D4E" transform="translate(182,0)"/>
<path d="M0 0 C8.95684772 6.35311292 15.34622408 14.8570204 17.640625 25.6796875 C17.74998241 27.44301347 17.80904068 29.20977386 17.83349609 30.97631836 C17.84955902 32.0351976 17.86562195 33.09407684 17.88217163 34.18504333 C17.92697541 39.04531021 17.96772723 43.90544337 17.99072266 48.76586914 C18.00722063 51.31739461 18.03442804 53.86887506 18.07275391 56.42016602 C18.12798898 60.12019567 18.14947356 63.81914279 18.1640625 67.51953125 C18.18673187 68.64294418 18.20940125 69.76635712 18.23275757 70.92381287 C18.20503959 81.49782914 15.15810031 91.682179 8.375 99.96875 C0.49261905 107.74461229 -8.96761782 111.73067079 -19.921875 112.0546875 C-31.0790101 111.92644457 -39.24746108 107.82781982 -47.23046875 100.15234375 C-50.49774398 96.35750848 -52.52079337 92.3067846 -54.359375 87.6796875 C-54.70271881 86.92616501 -55.04606262 86.17264252 -55.39981079 85.39628601 C-56.46383833 82.38394396 -56.6257554 80.04387113 -56.64990234 76.85473633 C-56.66266205 75.70616653 -56.67542175 74.55759674 -56.68856812 73.3742218 C-56.69079376 72.14084579 -56.69301941 70.90746979 -56.6953125 69.63671875 C-56.7019693 68.35794357 -56.7086261 67.0791684 -56.71548462 65.76164246 C-56.72743875 63.05582304 -56.73116766 60.35013106 -56.72998047 57.64428711 C-56.72977801 54.20247332 -56.75701102 50.76149203 -56.79152489 47.31987476 C-56.81932744 44.0088129 -56.81794837 40.69789547 -56.8203125 37.38671875 C-56.83468353 36.1634639 -56.84905457 34.94020905 -56.86386108 33.67988586 C-56.80235019 22.04068638 -53.51477753 13.09347902 -45.359375 4.6796875 C-31.97302946 -6.68225796 -15.43310247 -8.63640503 0 0 Z " fill="#58FBB5" transform="translate(195.359375,307.3203125)"/>
<path d="M0 0 C6.64197385 5.3827663 11.56648156 13.03565709 13.6875 21.3125 C14.12762083 25.75925328 14.13185848 30.18253126 14.12109375 34.6484375 C14.1263356 35.92296783 14.13157745 37.19749817 14.13697815 38.51065063 C14.1433838 41.19882408 14.14353281 43.88614304 14.13354492 46.57421875 C14.12207195 49.99245279 14.14225929 53.40965111 14.17146206 56.82774925 C14.19438958 60.12214888 14.18734965 63.41647693 14.18359375 66.7109375 C14.19482773 67.92478119 14.20606171 69.13862488 14.21763611 70.38925171 C14.12350146 81.97574592 10.81633449 90.94269216 2.6875 99.3125 C-5.52915814 106.16989685 -14.61225411 110.05564356 -25.36328125 109.62890625 C-36.0238887 108.48518545 -44.11032429 103.85568494 -51.5625 96.25 C-61.75629882 83.57245358 -61.06783537 70.00475518 -60.90942383 54.4375 C-60.87501692 50.68934272 -60.88882929 46.94353663 -60.90820312 43.1953125 C-60.90130566 40.78384426 -60.8916342 38.37238202 -60.87890625 35.9609375 C-60.88386612 34.85543549 -60.88882599 33.74993347 -60.89393616 32.6109314 C-60.71205788 20.45591077 -56.89475594 11.10349556 -48.46484375 2.40625 C-34.30844543 -10.87768639 -15.71789274 -10.63001994 0 0 Z " fill="#58FBB5" transform="translate(297.3125,37.6875)"/>
<path d="M0 0 C8.18628441 5.76129073 14.68356392 13.68140443 16.7578125 23.64453125 C16.8628705 25.47979478 16.91616979 27.31832065 16.93481445 29.15649414 C16.95406731 30.81455833 16.95406731 30.81455833 16.97370911 32.50611877 C16.98109604 33.69777145 16.98848297 34.88942413 16.99609375 36.1171875 C17.0041655 37.35061386 17.01223724 38.58404022 17.02055359 39.85484314 C17.03438631 42.46823729 17.04511209 45.08164944 17.05297852 47.69506836 C17.06615286 51.66743656 17.11403257 55.63918594 17.15820312 59.61132812 C17.16833489 62.15494182 17.17684947 64.69856257 17.18359375 67.2421875 C17.20110184 68.41967056 17.21860992 69.59715363 17.23664856 70.81031799 C17.20550527 82.81217167 13.77129499 92.30616164 5.6328125 101.20703125 C-2.12740616 108.7824828 -11.46633993 111.07380901 -21.98388672 111.16577148 C-31.35803534 110.95064846 -38.62501755 107.68455496 -45.7421875 101.45703125 C-55.27309591 91.36548117 -57.54961757 80.46305828 -57.578125 66.9453125 C-57.5847818 65.8332695 -57.5914386 64.7212265 -57.59829712 63.57548523 C-57.60838651 61.22978357 -57.61311529 58.88405342 -57.61279297 56.53833008 C-57.61715275 52.98534742 -57.65347728 49.43362165 -57.69140625 45.88085938 C-57.83269517 17.757189 -57.83269517 17.757189 -48.29296875 6.64453125 C-34.76783808 -6.54569143 -16.72352221 -10.10986447 0 0 Z " fill="#58FCB5" transform="translate(294.2421875,173.35546875)"/>
<path d="M0 0 C7.89642298 6.14166232 12.62586794 12.62760383 15.8125 22.1875 C15.92092678 24.08188285 15.97135122 25.97980081 15.98950195 27.87719727 C16.00875481 29.63030968 16.00875481 29.63030968 16.02839661 31.4188385 C16.03578354 32.68441086 16.04317047 33.94998322 16.05078125 35.25390625 C16.058853 36.55770737 16.06692474 37.86150848 16.07524109 39.20481873 C16.09026138 41.96963368 16.1001002 44.73442304 16.10766602 47.49926758 C16.1186798 51.01731292 16.15302234 54.53471688 16.19283772 58.05253696 C16.2255075 61.43213238 16.22980128 64.81166527 16.23828125 68.19140625 C16.25578934 69.44280899 16.27329742 70.69421173 16.29133606 71.98353577 C16.26360362 83.27159534 13.37024943 91.28781971 6.09375 99.921875 C-2.24980622 108.20828358 -11.84331166 110.6637937 -23.21411133 110.69384766 C-30.6067898 110.50638751 -36.06756756 108.37025697 -42.1875 104.1875 C-42.87199219 103.73117187 -43.55648437 103.27484375 -44.26171875 102.8046875 C-51.05449288 97.64748371 -55.63186056 89.52064429 -57.1875 81.1875 C-57.52266885 76.72670778 -57.56306212 72.27286774 -57.59375 67.80078125 C-57.60515015 66.50738327 -57.61655029 65.21398529 -57.6282959 63.88139343 C-57.64922143 61.14885915 -57.66096731 58.41644084 -57.66796875 55.68383789 C-57.67890276 52.21502474 -57.72691358 48.74779584 -57.78391266 45.27947712 C-57.83056523 41.9324491 -57.83409014 38.58561676 -57.84375 35.23828125 C-57.8684436 34.0097493 -57.89313721 32.78121735 -57.9185791 31.51545715 C-57.86277108 20.56486429 -54.26358786 12.49085588 -47.1875 4.1875 C-32.62686701 -7.94636083 -16.53728425 -9.40355379 0 0 Z " fill="#59FDB6" transform="translate(103.1875,173.8125)"/>
<path d="M0 0 C2.95050084 1.22035641 5.74868417 2.68172037 8.5625 4.1875 C9.78803589 4.8376709 9.78803589 4.8376709 11.03833008 5.50097656 C21.11115852 10.97461428 30.6710271 17.34633317 40 24 C40.67327835 24.37224701 41.3465567 24.74449402 42.04023743 25.12802124 C45.37024291 27.16652788 47.60499931 28.65002749 48.73103333 32.49841309 C49.01059548 35.61269325 49.03041788 38.63175865 48.95703125 41.7578125 C48.95757004 42.89725311 48.95810883 44.03669373 48.95866394 45.21066284 C48.95097347 47.61974569 48.92369014 50.02883489 48.87817383 52.4375 C48.81307638 56.092637 48.81651146 59.74283818 48.83007812 63.3984375 C48.81399382 65.74742747 48.79393696 68.09639425 48.76953125 70.4453125 C48.77024124 71.52386505 48.77095123 72.6024176 48.77168274 73.71365356 C48.49261681 85.12934428 44.50944779 94.56932957 36.609375 102.80078125 C27.39206134 110.56926567 17.7237575 112.78254994 6 112 C-3.97199217 110.2921697 -12.0252747 105.02612129 -18.4296875 97.28125 C-23.35755862 90.12235265 -26.07957317 82.52391599 -26.17700195 73.84936523 C-26.18983719 72.84739609 -26.20267242 71.84542694 -26.21589661 70.81309509 C-26.22328354 69.73910965 -26.23067047 68.66512421 -26.23828125 67.55859375 C-26.246353 66.43993423 -26.25442474 65.32127472 -26.26274109 64.16871643 C-26.27655803 61.80088845 -26.28729084 59.43304075 -26.29516602 57.06518555 C-26.30666241 54.65920113 -26.32707673 52.25324175 -26.35668945 49.84741211 C-26.39964996 46.35513119 -26.41557667 42.86360711 -26.42578125 39.37109375 C-26.44328934 38.31127792 -26.46079742 37.2514621 -26.47883606 36.15953064 C-26.44745471 25.17514025 -23.65474596 15.10707186 -16 7 C-6.94896924 -1.67953323 -6.94896924 -1.67953323 0 0 Z " fill="#58FBB5" transform="translate(365,35)"/>
<path d="M0 0 C9.68409271 5.13915368 15.92524354 12.64014504 19.72187805 22.98904419 C20.80111554 26.8402817 20.72422937 30.58888631 20.6484375 34.5625 C20.64419266 35.41682617 20.63994781 36.27115234 20.63557434 37.15136719 C20.61892578 39.85124682 20.58130098 42.55035011 20.54296875 45.25 C20.52790398 47.09243705 20.51421873 48.93488593 20.50195312 50.77734375 C20.46906781 55.26852339 20.41738331 59.75913056 20.35546875 64.25 C16.7315531 64.90201483 13.10616205 65.54545015 9.48046875 66.1875 C7.96066406 66.46110352 7.96066406 66.46110352 6.41015625 66.74023438 C5.4046875 66.91748047 4.39921875 67.09472656 3.36328125 67.27734375 C2.4520752 67.43968506 1.54086914 67.60202637 0.60205078 67.76928711 C-7.14336774 68.91613093 -14.76437199 69.39544247 -22.58984375 69.34765625 C-23.48573212 69.3462413 -24.38162048 69.34482635 -25.30465698 69.34336853 C-28.12631778 69.33783441 -30.94789501 69.32529489 -33.76953125 69.3125 C-35.69921759 69.30747646 -37.6289052 69.30291506 -39.55859375 69.29882812 C-44.25393775 69.28788669 -48.9492204 69.27066878 -53.64453125 69.25 C-53.7442059 63.47002052 -53.81637708 57.69055312 -53.86425781 51.90991211 C-53.88424043 49.94790926 -53.91143609 47.98596495 -53.94628906 46.02416992 C-54.19658698 31.56210328 -53.91832044 19.46000979 -43.64453125 8.25 C-32.16744528 -3.38911542 -15.07809311 -6.56957763 0 0 Z " fill="#58FCB5" transform="translate(290.64453125,442.75)"/>
<path d="M0 0 C1.17626953 -0.02449219 2.35253906 -0.04898437 3.56445312 -0.07421875 C14.55146662 -0.11148392 14.55146662 -0.11148392 19.1875 4.375 C20.8658974 7.17678073 21.43944415 9.24715507 21.45492554 12.49813843 C21.46345551 13.31113907 21.47198547 14.12413971 21.48077393 14.96177673 C21.47986755 15.844991 21.47896118 16.72820526 21.47802734 17.63818359 C21.48474457 18.57522629 21.49146179 19.51226898 21.49838257 20.47770691 C21.51738529 23.57633767 21.52128791 26.67475209 21.5234375 29.7734375 C21.52986378 31.92811167 21.53659201 34.08278495 21.54360962 36.23745728 C21.55558803 40.75500512 21.55928985 45.27247646 21.55810547 49.79003906 C21.55790224 55.57615241 21.58520659 61.36177484 21.61964989 67.14777184 C21.64189721 71.59848276 21.64594367 76.04907513 21.64488602 80.49983597 C21.64724515 82.63286659 21.65608621 84.76590032 21.67155075 86.89887619 C21.69116667 89.88394207 21.68538968 92.867944 21.67333984 95.85302734 C21.68457886 96.73219315 21.69581787 97.61135895 21.70739746 98.51716614 C21.65169023 103.95336893 20.80455527 107.05771253 17.1875 111.375 C13.98342697 113.72465355 11.08475235 113.92061533 7.1875 113.375 C3.75984676 111.30727415 1.48040588 109.25371765 0.1875 105.375 C0.09622186 102.65179365 0.06148781 99.95470274 0.07397461 97.23168945 C0.07382858 96.40219788 0.07368256 95.5727063 0.0735321 94.71807861 C0.07422908 91.97478628 0.08201147 89.23156173 0.08984375 86.48828125 C0.09170869 84.58684832 0.09313224 82.68541491 0.09413147 80.78398132 C0.09795064 75.77805252 0.10777584 70.7721527 0.11883545 65.76623535 C0.12906244 60.65861402 0.13363185 55.550988 0.13867188 50.44335938 C0.14939862 40.42056018 0.16646788 30.3977825 0.1875 20.375 C-1.27079224 20.41089233 -1.27079224 20.41089233 -2.75854492 20.44750977 C-4.02802979 20.46612061 -5.29751465 20.48473145 -6.60546875 20.50390625 C-7.86641357 20.52783447 -9.1273584 20.5517627 -10.42651367 20.57641602 C-13.8125 20.375 -13.8125 20.375 -17.125 18.3125 C-19.17223791 14.74878957 -19.88485728 12.49936521 -19.8125 8.375 C-14.98885109 -0.75547829 -9.34952872 0.01014599 0 0 Z " fill="#09B19B" transform="translate(81.8125,305.625)"/>
<path d="M0 0 C1.26263672 -0.01933594 2.52527344 -0.03867188 3.82617188 -0.05859375 C14.12684762 -0.00423662 14.12684762 -0.00423662 17.87890625 3.0390625 C21.63018487 7.48154272 21.22275311 11.14846611 21.23950195 16.75292969 C21.24935875 18.172686 21.24935875 18.172686 21.25941467 19.62112427 C21.27917456 22.76304193 21.29081663 25.90491172 21.30078125 29.046875 C21.30485678 30.11874306 21.3089323 31.19061111 21.31313133 32.29496002 C21.33400414 37.96877348 21.34830029 43.64256268 21.35766602 49.31640625 C21.36872939 55.17877416 21.40312527 61.04076237 21.44283772 66.90299606 C21.46897791 71.40859689 21.47735559 75.91410693 21.48094749 80.41977692 C21.48582062 82.58072726 21.49745517 84.74167336 21.51598549 86.90254974 C21.54031983 89.9285034 21.53942204 92.95347074 21.5324707 95.97949219 C21.54528076 96.87115082 21.55809082 97.76280945 21.57128906 98.68148804 C21.52445352 104.27940567 20.72453117 107.3268416 17.0625 111.625 C13.58986727 113.36131636 9.85056987 113.22690402 6.0625 112.625 C3.30680553 110.44340855 1.62661253 108.75322506 0.0625 105.625 C-0.03062908 102.93970138 -0.06328322 100.28055582 -0.05102539 97.59521484 C-0.05117142 96.76586929 -0.05131744 95.93652374 -0.0514679 95.08204651 C-0.05076971 92.33331715 -0.04298171 89.58465506 -0.03515625 86.8359375 C-0.03329174 84.93307533 -0.03186799 83.03021268 -0.03086853 81.12734985 C-0.02704599 76.11318644 -0.01721793 71.09905189 -0.00616455 66.0848999 C0.00405521 60.97066641 0.0086303 55.85642826 0.01367188 50.7421875 C0.02440455 40.70311231 0.04147784 30.66405855 0.0625 20.625 C-1.25814453 20.69460937 -1.25814453 20.69460937 -2.60546875 20.765625 C-4.34763672 20.81976563 -4.34763672 20.81976563 -6.125 20.875 C-7.84783203 20.94460937 -7.84783203 20.94460937 -9.60546875 21.015625 C-13.57729862 20.5499943 -15.12521485 19.40129613 -17.9375 16.625 C-19.07374119 14.35251762 -19.20196843 12.84197236 -19.3125 10.3125 C-19.36148437 9.55324219 -19.41046875 8.79398438 -19.4609375 8.01171875 C-18.86509949 5.29487529 -17.9826753 3.50615763 -15.90820312 1.61743164 C-11.10736071 -0.80023739 -5.23859208 -0.07997851 0 0 Z " fill="#09B19C" transform="translate(451.9375,169.375)"/>
<path d="M0 0 C1.92682617 -0.05607422 1.92682617 -0.05607422 3.89257812 -0.11328125 C5.13072266 -0.12488281 6.36886719 -0.13648438 7.64453125 -0.1484375 C8.77866455 -0.16825684 9.91279785 -0.18807617 11.08129883 -0.20849609 C15.13708987 0.5533793 16.59154833 2.25020521 19.1875 5.375 C20.90034234 8.80068468 20.35323356 12.732322 20.36450195 16.50292969 C20.37435875 17.922686 20.37435875 17.922686 20.38441467 19.37112427 C20.40417456 22.51304193 20.41581663 25.65491172 20.42578125 28.796875 C20.42985678 29.86874306 20.4339323 30.94061111 20.43813133 32.04496002 C20.45900414 37.71877348 20.47330029 43.39256268 20.48266602 49.06640625 C20.49372939 54.92877416 20.52812527 60.79076237 20.56783772 66.65299606 C20.59397791 71.15859689 20.60235559 75.66410693 20.60594749 80.16977692 C20.61082062 82.33072726 20.62245517 84.49167336 20.64098549 86.65254974 C20.66531983 89.6785034 20.66442204 92.70347074 20.6574707 95.72949219 C20.67028076 96.62115082 20.68309082 97.51280945 20.69628906 98.43148804 C20.64945352 104.02940567 19.84953117 107.0768416 16.1875 111.375 C12.71486727 113.11131636 8.97556987 112.97690402 5.1875 112.375 C2.43180553 110.19340855 0.75161253 108.50322506 -0.8125 105.375 C-0.90562908 102.68970138 -0.93828322 100.03055582 -0.92602539 97.34521484 C-0.92617142 96.51586929 -0.92631744 95.68652374 -0.9264679 94.83204651 C-0.92576971 92.08331715 -0.91798171 89.33465506 -0.91015625 86.5859375 C-0.90829174 84.68307533 -0.90686799 82.78021268 -0.90586853 80.87734985 C-0.90204599 75.86318644 -0.89221793 70.84905189 -0.88116455 65.8348999 C-0.87094479 60.72066641 -0.8663697 55.60642826 -0.86132812 50.4921875 C-0.85059545 40.45311231 -0.83352216 30.41405855 -0.8125 20.375 C-2.13314453 20.44460937 -2.13314453 20.44460937 -3.48046875 20.515625 C-5.22263672 20.56976563 -5.22263672 20.56976563 -7 20.625 C-8.72283203 20.69460937 -8.72283203 20.69460937 -10.48046875 20.765625 C-14.45229862 20.2999943 -16.00021485 19.15129613 -18.8125 16.375 C-20.41336627 13.17326746 -20.31167089 9.84922941 -19.8125 6.375 C-14.83320847 -1.42589007 -8.51177617 0.09311739 0 0 Z " fill="#09B19C" transform="translate(175.8125,169.625)"/>
<path d="M0 0 C1.18916016 -0.020625 2.37832031 -0.04125 3.60351562 -0.0625 C4.75142578 -0.06765625 5.89933594 -0.0728125 7.08203125 -0.078125 C8.13237549 -0.0874707 9.18271973 -0.09681641 10.26489258 -0.10644531 C13.64221889 0.30545816 15.47013508 1.23082842 18.1875 3.25 C20.23306653 6.31834979 20.43977774 6.95129581 20.46165466 10.41146851 C20.47661736 11.68156013 20.47661736 11.68156013 20.49188232 12.97731018 C20.492547 13.90309372 20.49321167 14.82887726 20.49389648 15.78271484 C20.50222 16.76023209 20.51054352 17.73774933 20.51911926 18.74488831 C20.54325937 21.98361162 20.5519962 25.2221337 20.55859375 28.4609375 C20.56755681 30.70911725 20.57667859 32.95729637 20.58595276 35.20547485 C20.60245607 39.92150321 20.61014536 44.63746045 20.61303711 49.35351562 C20.61842315 55.39879089 20.65610728 61.44339866 20.70178127 67.48848534 C20.7315121 72.13303065 20.7387598 76.77741445 20.73976326 81.42204666 C20.74397321 83.65081465 20.75643836 85.87958279 20.77728081 88.10825729 C20.80411269 91.225504 20.79939365 94.34119319 20.78686523 97.45849609 C20.80169952 98.38023117 20.81653381 99.30196625 20.83181763 100.25163269 C20.77944323 104.82392528 20.68720567 106.63429844 17.71253967 110.29946899 C16.87927658 110.94314423 16.04601349 111.58681946 15.1875 112.25 C14.8575 112.58 14.5275 112.91 14.1875 113.25 C9.22289862 113.63189241 6.12892466 113.40313973 2.1875 110.25 C-0.47576428 106.48335959 -0.0798132 102.32363574 -0.03955078 97.90136719 C-0.03984283 97.06197601 -0.04013489 96.22258484 -0.04043579 95.35775757 C-0.03904409 92.58735769 -0.02349039 89.81722781 -0.0078125 87.046875 C-0.0040818 85.12445218 -0.0012351 83.20202745 0.00076294 81.27960205 C0.00839492 76.22268412 0.02803973 71.16588128 0.0501709 66.10900879 C0.07063866 60.94768836 0.07976665 55.78634932 0.08984375 50.625 C0.11128599 40.49994946 0.14541674 30.37498431 0.1875 20.25 C-1.27079224 20.29133057 -1.27079224 20.29133057 -2.75854492 20.33349609 C-4.02802979 20.35492676 -5.29751465 20.37635742 -6.60546875 20.3984375 C-8.49688599 20.43976807 -8.49688599 20.43976807 -10.42651367 20.48193359 C-13.7045919 20.2573915 -14.88566864 20.16728148 -17.125 17.875 C-19.61942289 13.99478662 -20.35097136 11.91675179 -19.8125 7.25 C-14.69319864 -1.02111004 -8.88169168 0.03813931 0 0 Z " fill="#09B49D" transform="translate(273.8125,305.75)"/>
<path d="M0 0 C1.27166016 -0.03287109 2.54332031 -0.06574219 3.85351562 -0.09960938 C5.69913086 -0.11024414 5.69913086 -0.11024414 7.58203125 -0.12109375 C8.70456299 -0.13454834 9.82709473 -0.14800293 10.98364258 -0.16186523 C15.05729792 0.60021843 17.71591841 2.14570509 20.1875 5.4375 C21.06604516 8.71954592 20.99798718 11.90719841 20.94799805 15.2890625 C20.95690567 16.27662537 20.96581329 17.26418823 20.97499084 18.28167725 C20.99628252 21.54262569 20.97396086 24.80159996 20.94921875 28.0625 C20.95072105 30.33024294 20.95415079 32.59798536 20.95942688 34.86572266 C20.96375945 39.61712485 20.94691089 44.36784863 20.91479492 49.11914062 C20.87501441 55.20932381 20.88431287 61.29823473 20.90902996 67.38845825 C20.9232127 72.07082547 20.91312641 76.75289552 20.89551735 81.4352417 C20.88966732 83.68071788 20.89097019 85.92622446 20.89954185 88.17169189 C20.90753314 91.31046116 20.88329196 94.44736642 20.8503418 97.5859375 C20.85889191 98.51388123 20.86744202 99.44182495 20.87625122 100.39788818 C20.79416298 104.92835086 20.6579499 106.83460018 17.78865051 110.51171875 C14.35922361 113.05072063 12.4739087 113.15777513 8.34375 112.9375 C4.89378222 112.13750747 3.27822004 110.18157005 1.1875 107.4375 C-0.39366025 104.2751795 0.05812878 100.87908293 0.07397461 97.40771484 C0.07382858 96.57836929 0.07368256 95.74902374 0.0735321 94.89454651 C0.07423029 92.14581715 0.08201829 89.39715506 0.08984375 86.6484375 C0.09170826 84.74557533 0.09313201 82.84271268 0.09413147 80.93984985 C0.09795401 75.92568644 0.10778207 70.91155189 0.11883545 65.8973999 C0.12905521 60.78316641 0.1336303 55.66892826 0.13867188 50.5546875 C0.14940455 40.51561231 0.16647784 30.47655855 0.1875 20.4375 C-0.70743164 20.46505371 -1.60236328 20.49260742 -2.52441406 20.52099609 C-3.69713867 20.54242676 -4.86986328 20.56385742 -6.078125 20.5859375 C-7.82270996 20.62726807 -7.82270996 20.62726807 -9.60253906 20.66943359 C-12.842972 20.43529827 -14.12412752 20.11488394 -16.5625 18.0625 C-19.00046846 15.21820346 -19.73543055 14.30453132 -20.0625 10.625 C-19.7795624 7.01754558 -18.96684322 5.30995763 -16.8125 2.4375 C-11.77426993 -0.92132005 -5.91829102 0.0267527 0 0 Z " fill="#09B49D" transform="translate(367.8125,169.5625)"/>
<path d="M0 0 C4.81185188 2.70107671 7.76507606 5.91063418 9.7890625 11.1171875 C10.37435838 15.04559872 10.37374922 18.92796631 10.35546875 22.89453125 C10.36476662 24.58250572 10.36476662 24.58250572 10.37425232 26.30458069 C10.38133564 28.6772475 10.37820262 31.04996416 10.36547852 33.42260742 C10.3516194 37.03983638 10.38570255 40.65447378 10.42382812 44.27148438 C10.42477947 46.58333396 10.42291965 48.89518677 10.41796875 51.20703125 C10.43122696 52.28121811 10.44448517 53.35540497 10.45814514 54.46214294 C10.37498578 61.21595955 9.33207261 65.96452341 4.7890625 71.1171875 C0.53937931 74.68195987 -3.46804764 75.78292293 -9.00390625 75.5 C-14.16566724 74.6046857 -17.36025394 72.21412156 -20.5859375 68.0546875 C-22.69147058 64.24853155 -23.34090916 61.50255796 -23.40380859 57.22192383 C-23.42790298 55.72940849 -23.42790298 55.72940849 -23.45248413 54.20674133 C-23.49708028 49.65142583 -23.53801038 45.09625449 -23.56103516 40.54077148 C-23.57757567 38.14223515 -23.60484016 35.74374772 -23.64306641 33.34545898 C-23.69799747 29.87978649 -23.71973636 26.41526873 -23.734375 22.94921875 C-23.75704437 21.88435745 -23.77971375 20.81949615 -23.80307007 19.72236633 C-23.78402103 12.96658697 -22.75676719 8.26828778 -18.2109375 3.1171875 C-12.85176932 -1.37956061 -6.59686797 -2.63408509 0 0 Z " fill="#012E4E" transform="translate(89.2109375,188.8828125)"/>
<path d="M0 0 C4.99877131 2.81748928 8.60533165 6.44099496 10.4375 11.9375 C10.53915315 13.51098125 10.58585754 15.08832939 10.59863281 16.66503906 C10.60824036 17.62323547 10.6178479 18.58143188 10.62774658 19.56866455 C10.63199646 20.6030365 10.63624634 21.63740845 10.640625 22.703125 C10.64632507 23.76988464 10.65202515 24.83664429 10.65789795 25.93572998 C10.66734895 28.19526172 10.67388233 30.45480725 10.67773438 32.71435547 C10.6874229 36.16007781 10.71843892 39.60519935 10.75 43.05078125 C10.75653193 45.2473923 10.76178165 47.4440076 10.765625 49.640625 C10.7779718 50.66690002 10.7903186 51.69317505 10.80303955 52.75054932 C10.78035892 60.08735129 9.92196392 64.99537168 5.0625 70.75 C0.573236 74.49105334 -3.43713377 75.5178508 -9.21484375 75.3828125 C-13.49909339 74.57015949 -16.66778941 72.12037182 -19.5625 68.9375 C-23.37583407 63.21897123 -23.01362908 57.59620206 -22.99609375 50.96875 C-23.00395653 49.23824402 -23.00395653 49.23824402 -23.01197815 47.47277832 C-23.0183888 45.03866377 -23.01707379 42.6045182 -23.00854492 40.17041016 C-23.00002927 36.45028495 -23.02882159 32.73169264 -23.06054688 29.01171875 C-23.0621589 26.64322963 -23.06158134 24.27473779 -23.05859375 21.90625 C-23.06982773 20.79672974 -23.08106171 19.68720947 -23.09263611 18.54406738 C-23.03693916 12.36173587 -22.72051536 8.63240997 -18.5625 3.9375 C-12.71839145 -1.24387459 -7.51984996 -2.24276227 0 0 Z " fill="#022F4F" transform="translate(280.5625,189.0625)"/>
<path d="M0 0 C3.77702297 2.63513231 6.60374735 5.7074947 8.6875 9.875 C8.79796187 11.49682538 8.84662713 13.12305065 8.86450195 14.74853516 C8.88375481 16.27119492 8.88375481 16.27119492 8.90339661 17.82461548 C8.91078354 18.926633 8.91817047 20.02865051 8.92578125 21.1640625 C8.933853 22.29645355 8.94192474 23.4288446 8.95024109 24.59555054 C8.96409321 26.99809229 8.97481029 29.40065381 8.98266602 31.80322266 C8.99983238 35.464252 9.04370444 39.1243676 9.08789062 42.78515625 C9.09802149 45.11978503 9.10653636 47.45442149 9.11328125 49.7890625 C9.13078934 50.87893463 9.14829742 51.96880676 9.16633606 53.09170532 C9.1482749 59.47528346 8.56398432 64.6268476 4.6875 69.875 C-0.24936742 73.90509586 -4.40664199 74.52682963 -10.73046875 74.25 C-15.25656871 73.59265417 -17.74385419 71.74821025 -20.63925171 68.29064941 C-24.78893301 62.38741235 -25.04483329 57.2958157 -24.9765625 50.21875 C-24.98373795 48.56619202 -24.98373795 48.56619202 -24.99105835 46.88024902 C-24.99444723 44.56061365 -24.98531617 42.24092986 -24.96435547 39.92138672 C-24.93757802 36.38530253 -24.96414059 32.85239254 -24.99609375 29.31640625 C-24.99278948 27.05468054 -24.98638288 24.7929568 -24.9765625 22.53125 C-24.98668365 21.48207397 -24.99680481 20.43289795 -25.00723267 19.35192871 C-24.9002823 12.60250661 -23.70066504 8.09116431 -19.3125 2.875 C-13.62729929 -2.4135588 -7.08868928 -2.40747938 0 0 Z " fill="#012F4F" transform="translate(183.3125,324.125)"/>
<path d="M0 0 C4.02661617 2.84809436 6.65125023 6.28971428 8.5625 10.8125 C8.83665466 13.17584229 8.83665466 13.17584229 8.86889648 15.82128906 C8.88488388 16.81622375 8.90087128 17.81115845 8.91734314 18.83624268 C8.92270584 19.90606384 8.92806854 20.97588501 8.93359375 22.078125 C8.94713646 23.73917267 8.94713646 23.73917267 8.96095276 25.43377686 C8.97545813 27.77727556 8.9843427 30.12081479 8.98803711 32.46435547 C8.99991034 36.03553293 9.0490767 39.60496957 9.09960938 43.17578125 C9.10907656 45.45572076 9.11631018 47.73567085 9.12109375 50.015625 C9.14062607 51.07734924 9.16015839 52.13907349 9.18028259 53.23297119 C9.13918487 60.04600063 7.99227187 64.54337462 3.5625 69.8125 C-0.94749154 73.92455111 -5.65418324 74.33220038 -11.5703125 74.29296875 C-16.42405302 73.47960351 -19.48770113 70.63467046 -22.4375 66.8125 C-24.09807264 63.27618225 -24.69484043 60.46089595 -24.72802734 56.56665039 C-24.74078705 55.54531509 -24.75354675 54.5239798 -24.76669312 53.47169495 C-24.76891876 52.37888718 -24.77114441 51.28607941 -24.7734375 50.16015625 C-24.7800943 49.02726669 -24.7867511 47.89437714 -24.79360962 46.72715759 C-24.80372298 44.33415346 -24.80842705 41.94112119 -24.80810547 39.5480957 C-24.81248012 35.89161682 -24.84881979 32.23634369 -24.88671875 28.58007812 C-24.89258687 26.25260829 -24.89655629 23.92513273 -24.8984375 21.59765625 C-24.91280853 20.50687271 -24.92717957 19.41608917 -24.94198608 18.29225159 C-24.89270444 10.0870995 -23.29939761 7.02340951 -17.875 0.9375 C-12.77074605 -3.08875629 -5.76108875 -1.9901943 0 0 Z " fill="#012F4F" transform="translate(282.4375,52.1875)"/>
<path d="M0 0 C5.28097404 1.79353835 7.79895251 4.60999202 11 9 C11.97096104 11.91288313 12.14825527 13.85892455 12.19287109 16.89526367 C12.20893402 17.8902739 12.22499695 18.88528412 12.24154663 19.91044617 C12.28614278 24.46576167 12.32707288 29.02093301 12.35009766 33.57641602 C12.36663817 35.97495235 12.39390266 38.37343978 12.43212891 40.77172852 C12.48705997 44.23740101 12.50879886 47.70191877 12.5234375 51.16796875 C12.54610687 52.23283005 12.56877625 53.29769135 12.59213257 54.39482117 C12.57287654 61.22400984 11.44591906 65.72104619 7 71 C2.59071032 75.02023471 -1.7343122 75.34834498 -7.49609375 75.28125 C-12.45046555 74.7247527 -15.13925306 71.97706409 -18.3125 68.375 C-20.74923354 64.94552316 -21.13238866 63.16778062 -21.17700195 59.00292969 C-21.18983719 57.96134705 -21.20267242 56.9197644 -21.21589661 55.84661865 C-21.22328354 54.71645325 -21.23067047 53.58628784 -21.23828125 52.421875 C-21.246353 51.26254456 -21.25442474 50.10321411 -21.26274109 48.90875244 C-21.27659135 46.45073954 -21.28730927 43.99270733 -21.29516602 41.53466797 C-21.31236603 37.77925014 -21.35624391 34.02471531 -21.40039062 30.26953125 C-21.41051841 27.88281898 -21.41903425 25.49609922 -21.42578125 23.109375 C-21.44328934 21.98730652 -21.46079742 20.86523804 -21.47883606 19.70916748 C-21.46154544 13.47871186 -21.21932529 9.71330684 -17 5 C-11.29547523 -0.02541467 -7.4679183 -0.62136762 0 0 Z " fill="#012E4E" transform="translate(381,51)"/>
<path d="M0 0 C1.11052734 -0.00644531 2.22105469 -0.01289063 3.36523438 -0.01953125 C9.63120482 0.06296507 13.73807531 0.32436177 18.4375 4.625 C20.70871709 8.03182564 20.68218887 9.20297184 20.66455078 13.19799805 C20.66439972 14.33895432 20.66424866 15.47991058 20.66409302 16.65544128 C20.65377045 17.88676285 20.64344788 19.11808441 20.6328125 20.38671875 C20.6299826 21.64764847 20.62715271 22.90857819 20.62423706 24.2077179 C20.61493125 27.55660422 20.59696703 30.90521791 20.5748291 34.25402832 C20.55435386 37.67258347 20.54523176 41.0911668 20.53515625 44.50976562 C20.5130818 51.21491919 20.47959362 57.91994385 20.4375 64.625 C18.81027922 64.38988825 17.18580051 64.13580728 15.5625 63.875 C14.65757812 63.73578125 13.75265625 63.5965625 12.8203125 63.453125 C8.21396321 62.32547367 3.84067786 60.38627114 -0.5625 58.625 C-0.5625 46.415 -0.5625 34.205 -0.5625 21.625 C-4.5225 21.625 -8.4825 21.625 -12.5625 21.625 C-18.54934211 18.03289474 -18.54934211 18.03289474 -19.5625 14.625 C-20.51847598 8.03938767 -20.51847598 8.03938767 -18.41796875 4.93164062 C-12.82398077 -0.38332849 -7.43400547 -0.2164824 0 0 Z " fill="#09B19B" transform="translate(175.5625,440.375)"/>
<path d="M0 0 C5.513657 2.37946794 8.36941014 5.97014034 10.8046875 11.38671875 C11.41193668 14.44967245 11.39466459 17.36764334 11.29296875 20.48046875 C11.28589401 21.31259888 11.27881927 22.144729 11.27153015 23.0020752 C11.24378616 25.63124745 11.1810918 28.25820242 11.1171875 30.88671875 C11.09207851 32.68095858 11.06926992 34.47523217 11.04882812 36.26953125 C10.99402599 40.64276707 10.90789885 45.01436848 10.8046875 49.38671875 C-0.23223062 51.64243924 -10.97992503 51.5879919 -22.1953125 51.38671875 C-22.29444534 45.65760303 -22.3669059 39.92899036 -22.41503906 34.19921875 C-22.43511156 32.25153909 -22.46237582 30.30391938 -22.49707031 28.35644531 C-22.54578102 25.55128154 -22.56832491 22.74691688 -22.5859375 19.94140625 C-22.60658264 19.07554901 -22.62722778 18.20969177 -22.64849854 17.31759644 C-22.65051954 11.82969904 -21.85178141 8.73993607 -18.1953125 4.38671875 C-12.43725291 -0.68585756 -7.53908913 -2.10611565 0 0 Z " fill="#012F4F" transform="translate(280.1953125,460.61328125)"/>
<path d="M0 0 C5.41236375 2.36137878 8.67456949 6.37148475 11.6484375 11.3828125 C13.55792026 17.11126079 13.56029465 23.15843755 11.0234375 28.6953125 C7.74598054 34.3792938 2.95417235 37.89291181 -3.21484375 39.9375 C-8.81908008 41.10547613 -13.66402617 40.06069966 -18.6015625 37.2578125 C-23.35539418 33.99370452 -26.51350885 29.89697344 -28.3515625 24.3828125 C-29.09226557 17.54648747 -28.44842172 12.02541922 -24.3515625 6.3828125 C-17.52278354 -0.79288304 -9.56955582 -2.511611 0 0 Z " fill="#05975E" transform="translate(384.3515625,307.6171875)"/>
<path d="M0 0 C4.15786246 2.82391409 6.8585136 6.9670272 9.08203125 11.4140625 C9.77785001 18.82852473 9.68339417 25.31194737 5.08203125 31.4140625 C0.68467438 36.12465575 -3.82545474 38.46334275 -10.23046875 38.7265625 C-15.9618566 38.54597151 -20.54654205 37.52874024 -24.90234375 33.64453125 C-29.99698947 28.13936656 -32.47615925 23.18564031 -32.2265625 15.4921875 C-31.26720948 9.03173426 -27.6762472 4.52541867 -22.6328125 0.6015625 C-15.55721417 -4.29816846 -7.52869683 -3.6654601 0 0 Z " fill="#05975F" transform="translate(186.91796875,104.5859375)"/>
<path d="M0 0 C4.47934719 2.42164707 7.22688949 5.51562783 9.5625 10 C10.3054963 15.09483176 9.73329647 18.66435286 7.25 23.1875 C4.25025641 26.93717949 1.58431117 29.47189628 -3 31 C-8.92219564 31.58060742 -13.2391981 30.49056625 -18 27 C-21.18384437 23.55752402 -22.24232357 20.07489198 -22.4375 15.4375 C-22.22845662 11.34024983 -21.32554642 8.448224 -19 5 C-13.04166744 -0.37703182 -7.92714989 -1.20889036 0 0 Z " fill="#006D65" transform="translate(182,0)"/>
<path d="M0 0 C5.3035228 2.70179463 9.09832298 6.29496895 11 12 C11.39680449 17.25765945 10.89498146 20.56102842 8 25 C4.29675825 28.75383248 1.08447459 30.79956975 -4.25 31.3125 C-10.0313612 30.8307199 -13.46762031 28.65335704 -17.375 24.4375 C-20.20204724 20.19692914 -20.68139328 15.98742024 -20 11 C-15.52702891 2.38538902 -9.42771219 -1.14468006 0 0 Z " fill="#006D65" transform="translate(381,419)"/>
<path d="M0 0 C5.26594344 1.85856827 7.79395768 4.60314196 11 9 C12.67874726 14.03624179 12.5358338 17.70506833 10.5 22.625 C7.89359605 26.70498922 4.41561997 29.11234325 0 31 C-5.46143013 31.97525538 -8.79274506 30.53970343 -13.19921875 27.4765625 C-16.54222046 24.73544613 -18.62677631 22.1615872 -19.375 17.828125 C-19.66611496 12.40610891 -18.61993164 9.20694758 -15 5 C-10.0208594 0.61361423 -6.65759141 -0.67198119 0 0 Z " fill="#006D65" transform="translate(380,368)"/>
<path d="M0 0 C4.03504887 2.33530301 7.18291133 4.54402179 8.8203125 9.046875 C9.55870618 14.73250631 9.11858839 19.20940369 5.8203125 24.046875 C2.12671869 27.77074417 -1.07977911 29.79982695 -6.3671875 30.421875 C-12.23494343 29.84471868 -16.17982117 27.17173298 -20.1796875 22.921875 C-22.21299457 17.07611718 -22.17764967 11.24239178 -19.6171875 5.609375 C-14.2150761 -0.06976776 -7.73619622 -3.38285283 0 0 Z " fill="#006C65" transform="translate(182.1796875,51.953125)"/>
<path d="M0 0 C0.66 0.33 1.32 0.66 2 1 C1.94199219 1.7734375 1.88398438 2.546875 1.82421875 3.34375 C1.50662894 10.67553758 2.00224615 15.46402651 7 21 C7.46148437 21.515625 7.92296875 22.03125 8.3984375 22.5625 C13.85843624 27.44046841 21.03665858 26.89376317 28 27 C26.01445483 32.61786951 22.8671044 35.37272453 17.6875 38.3125 C11.68202868 39.84878336 5.65792535 39.5963945 -0.078125 37.17578125 C-4.81671902 34.27676336 -8.06532357 29.95062908 -10.4375 25 C-11.66784591 18.43815516 -11.56209651 13.7560319 -8.35546875 7.8984375 C-6.06426251 4.68942819 -3.14932533 2.33545474 0 0 Z " fill="#006D65" transform="translate(166,104)"/>
<path d="M0 0 C4.74922569 2.1710746 7.64775861 5.0495612 10.61328125 9.3125 C10.61328125 9.9725 10.61328125 10.6325 10.61328125 11.3125 C9.83984375 11.26609375 9.06640625 11.2196875 8.26953125 11.171875 C1.45289271 10.93565485 -3.80007984 11.14276226 -9.38671875 15.3125 C-14.10490288 20.27900961 -15.60403796 24.26782023 -16.01171875 31.0625 C-16.08648437 32.23296875 -16.16125 33.4034375 -16.23828125 34.609375 C-16.28726562 35.50140625 -16.33625 36.3934375 -16.38671875 37.3125 C-20.30736382 36.0256216 -22.25558993 34.73991099 -24.63671875 31.375 C-25.38695312 30.34052734 -25.38695312 30.34052734 -26.15234375 29.28515625 C-29.07767609 24.61017894 -28.94837451 19.64427438 -28.38671875 14.3125 C-26.37067473 7.65379462 -22.43182841 3.76722466 -16.55859375 0.203125 C-11.51254041 -1.86611989 -5.17762134 -1.49142611 0 0 Z " fill="#006D65" transform="translate(384.38671875,307.6875)"/>
<path d="M0 0 C4.46743334 -0.57673832 8.36003338 -0.93057317 12.375 1.34765625 C16.37724085 4.69511872 19.20666408 7.67331598 20 13 C19.625 16.375 19.625 16.375 19 19 C14.21095138 19.48867843 10.26109036 19.64765771 6.125 16.9375 C2.71927551 14.1323209 1.24830448 11.25892117 0 7 C-0.1875 3.0625 -0.1875 3.0625 0 0 Z " fill="#05965F" transform="translate(172,0)"/>
<path d="M0 0 C6.79106164 -0.60634479 10.72994212 0.62645771 16 5 C19.40808326 8.83409367 19.27352968 12.30125266 19.10546875 17.20703125 C19.07066406 17.79871094 19.03585938 18.39039062 19 19 C14.1393906 19.49598055 10.26883746 19.65196036 6.125 16.8125 C3.3216844 14.4774877 1.33662393 12.45949723 0 9 C-0.22399517 5.98115606 -0.17765351 3.02010969 0 0 Z " fill="#05965F" transform="translate(172,51)"/>
<path d="M0 0 C0.91007812 0.00902344 1.82015625 0.01804687 2.7578125 0.02734375 C3.80582031 0.04474609 3.80582031 0.04474609 4.875 0.0625 C5.19071333 5.32438885 4.77414347 8.61714669 1.875 13.0625 C-2.00752501 16.99806497 -5.16449791 19.02927115 -10.8125 19.125 C-11.905625 19.104375 -12.99875 19.08375 -14.125 19.0625 C-14.7110306 14.52308835 -15.10925305 10.6564216 -12.63671875 6.65234375 C-8.5270313 1.96406676 -6.33101001 -0.08116679 0 0 Z " fill="#05955E" transform="translate(387.125,430.9375)"/>
<path d="M0 0 C0.91007812 0.00902344 1.82015625 0.01804687 2.7578125 0.02734375 C3.80582031 0.04474609 3.80582031 0.04474609 4.875 0.0625 C5.33271308 5.66948525 4.53561767 9.74563714 0.875 14.0625 C-2.77509731 17.20585929 -6.21947593 19.35509929 -11.125 19.375 C-12.115 19.271875 -13.105 19.16875 -14.125 19.0625 C-14.7110306 14.52308835 -15.10925305 10.6564216 -12.63671875 6.65234375 C-8.5270313 1.96406676 -6.33101001 -0.08116679 0 0 Z " fill="#05955E" transform="translate(387.125,379.9375)"/>
</svg>
