<?xml version="1.0" encoding="UTF-8"?>
<svg version="1.1" xmlns="http://www.w3.org/2000/svg" width="512" height="512">
<path d="M0 0 C0.69398195 -0.00465992 1.3879639 -0.00931984 2.10297561 -0.01412097 C4.42784226 -0.02606953 6.75212434 -0.01667642 9.07699585 -0.00736332 C10.76082019 -0.0115363 12.44464172 -0.01701361 14.12845802 -0.02368313 C18.75521631 -0.03816102 23.38179683 -0.03388571 28.00856495 -0.02651632 C32.99841303 -0.0217928 37.98822219 -0.0342872 42.97805786 -0.04453373 C52.75304511 -0.06174256 62.52796813 -0.06255749 72.30296659 -0.05732083 C80.2461433 -0.0532821 88.18930101 -0.05471914 96.13247681 -0.06006908 C97.82717997 -0.06119172 97.82717997 -0.06119172 99.55611956 -0.06233703 C101.85117197 -0.06386848 104.14622438 -0.06540682 106.44127679 -0.066952 C127.97035526 -0.08068435 149.4993974 -0.07523397 171.02847505 -0.06376678 C190.73404895 -0.05383158 210.439529 -0.06677876 230.14508843 -0.09070098 C250.37027909 -0.11506941 270.59542598 -0.12470553 290.82063103 -0.11804825 C302.17900192 -0.11455127 313.53730059 -0.11681972 324.8956604 -0.13429928 C334.5637926 -0.14899297 344.23180172 -0.14969375 353.89993143 -0.13222837 C358.83434284 -0.12369299 363.76853411 -0.12163059 368.70293427 -0.13687992 C373.21818545 -0.15066142 377.73302653 -0.14604859 382.24825358 -0.12664068 C383.8834314 -0.12286022 385.51864155 -0.12586118 387.15379071 -0.13625234 C389.37408108 -0.14936095 391.5929431 -0.13789577 393.81317139 -0.12025452 C395.04704779 -0.12014718 396.28092419 -0.12003984 397.55219078 -0.11992925 C402.68880082 0.64610117 405.75354953 3.13379115 409.21908569 6.88031673 C412.92211031 12.36627913 412.1615549 18.73289205 412.21908569 25.13031673 C412.2480896 26.18992611 412.27709351 27.24953548 412.30697632 28.34125423 C412.35949813 34.85395834 411.83048375 40.01356166 407.90658569 45.38031673 C403.32253114 49.35316402 401.28425453 49.46922119 394.90658569 50.38031673 C394.90658569 55.66031673 394.90658569 60.94031673 394.90658569 66.38031673 C397.09589722 66.35936947 399.28520874 66.3384222 401.54086304 66.31684017 C408.8050523 66.25031868 416.06925564 66.20628142 423.33366966 66.17306805 C427.73460486 66.15226568 432.13522582 66.12408397 436.53598022 66.07855892 C440.78946613 66.0348368 445.04265133 66.01112446 449.29634476 66.00080776 C450.91254021 65.99346338 452.52872073 65.97912236 454.14478683 65.95739651 C466.76421801 65.79461808 476.41482675 67.11475033 485.92611694 76.08734798 C493.49948896 84.85572939 494.14356797 94.13983766 494.20175171 105.21137142 C494.21322724 106.73002122 494.23360859 108.24863211 494.26327515 109.76703548 C494.43005238 118.30901139 494.57104397 125.87866861 489.90658569 133.38031673 C489.46057007 134.17824642 489.01455444 134.97617611 488.55502319 135.79828548 C483.41316355 142.94326223 476.30616977 146.99488921 467.90658569 149.38031673 C464.41369629 149.62082577 464.41369629 149.62082577 460.52426147 149.60736752 C459.45493126 149.6078056 459.45493126 149.6078056 458.36399841 149.60825253 C456.02650437 149.60686812 453.689336 149.59134934 451.35189819 149.57562923 C449.72379734 149.57189593 448.09569424 149.56905046 446.46759033 149.56705379 C442.19652022 149.55944229 437.92558758 149.53981529 433.65457153 149.51764584 C428.52251018 149.49352306 423.39040268 149.48439459 418.25830078 149.47273922 C410.47430033 149.45338931 402.69060114 149.41504957 394.90658569 149.38031673 C394.90658569 165.55031673 394.90658569 181.72031673 394.90658569 198.38031673 C400.63775757 198.32230892 406.36892944 198.26430111 412.27377319 198.20453548 C415.91963509 198.17896682 419.56538537 198.15489586 423.21127319 198.13617611 C428.98950354 198.10636654 434.76733513 198.07122496 440.54525757 198.00311947 C445.20723953 197.94851601 449.86879347 197.91883682 454.53107071 197.90593052 C456.3035874 197.89674122 458.0760825 197.87879709 459.84841537 197.85166645 C478.50284401 197.57764339 478.50284401 197.57764339 485.90658569 203.38031673 C492.37679962 210.28784909 494.20705143 216.32980774 494.17401123 225.6214819 C494.17854234 226.55524298 494.18307346 227.48900407 494.18774188 228.45106095 C494.2004074 231.58158251 494.1987641 234.71193058 494.19711304 237.84247494 C494.20309695 240.08636353 494.20990217 242.33025006 494.21746826 244.57413387 C494.23514965 250.67129892 494.23982455 256.76840785 494.24109983 262.86559606 C494.24299844 267.95505116 494.25035555 273.04449319 494.25744402 278.13394326 C494.27280324 289.4558242 494.27878122 300.77767037 494.27743332 312.09955821 C494.27731345 313.11819799 494.27731345 313.11819799 494.27719116 314.15741634 C494.2771094 314.83734114 494.27702764 315.51726593 494.2769434 316.2177945 C494.27613068 327.23432523 494.29526549 338.25071917 494.3234679 349.26721034 C494.352214 360.58562562 494.36564118 371.90395348 494.36428034 383.22241372 C494.36377035 389.57415017 494.36947425 395.92573183 494.39063644 402.27743626 C494.40999848 408.25205208 494.41015695 414.22636514 494.39560318 420.20099163 C494.39351146 422.39233053 494.3982375 424.58368828 494.4103241 426.77499485 C494.42577081 429.76975244 494.41647169 432.76346539 494.40106201 435.75820065 C494.4164927 437.05467139 494.4164927 437.05467139 494.43223512 438.37733346 C494.3548142 445.20009178 492.45985174 450.3496543 488.04721069 455.58734798 C487.42330444 456.11715267 486.79939819 456.64695736 486.15658569 457.19281673 C485.54299194 457.73551205 484.92939819 458.27820736 484.29721069 458.83734798 C476.49958096 463.87013188 469.12423469 463.81114482 460.09017944 463.76850033 C458.7029784 463.77257148 457.31578059 463.7779164 455.92858887 463.7844305 C452.18062939 463.79804548 448.43291913 463.79282972 444.6849556 463.78329325 C440.75158293 463.77566633 436.81823074 463.78275065 432.88485718 463.78745174 C426.28105868 463.7929005 419.67736104 463.78574086 413.07357788 463.77143002 C405.45270041 463.75510515 397.83206377 463.76039429 390.21119213 463.77690923 C383.65297741 463.79054926 377.09483494 463.79243149 370.5366106 463.78459322 C366.62627531 463.7799305 362.716053 463.77925309 358.8057251 463.78920269 C355.12840447 463.79790685 351.45139256 463.79178808 347.77410507 463.77451992 C345.79093595 463.76869973 343.80774053 463.77754111 341.82458496 463.78690243 C333.37357354 463.72703946 326.29002384 463.02473563 319.65658569 457.25531673 C318.72072632 456.47801205 318.72072632 456.47801205 317.76596069 455.68500423 C311.44445691 447.84952686 311.3453259 439.67012848 311.45248413 429.95624447 C311.45371144 428.49335205 311.45317214 427.03045727 311.4510231 425.56756592 C311.4501252 421.67278361 311.4731987 417.77849932 311.50146484 413.88383389 C311.5243544 410.22057799 311.52532321 406.55743926 311.52816772 402.89411068 C311.54910307 392.20194751 311.60494814 381.50987571 311.65658569 370.81781673 C311.73908569 346.91344173 311.82158569 323.00906673 311.90658569 298.38031673 C199.04658569 298.87531673 199.04658569 298.87531673 83.90658569 299.38031673 C88.19658569 303.34031673 92.48658569 307.30031673 96.90658569 311.38031673 C101.21908569 315.69281673 101.21908569 315.69281673 103.09017944 317.59516048 C104.92610996 319.3995051 106.82713764 321.08063063 108.78158569 322.75531673 C111.97341078 325.49653122 114.94961546 328.38717561 117.90658569 331.38031673 C120.82285172 334.33214698 123.75264404 337.18420532 126.90658569 339.88031673 C130.98281788 343.3648378 134.70209442 347.16113655 138.46908569 350.97406673 C140.55659204 353.03481018 142.67827792 354.97547299 144.90658569 356.88031673 C148.98281788 360.3648378 152.70209442 364.16113655 156.46908569 367.97406673 C158.55659204 370.03481018 160.67827792 371.97547299 162.90658569 373.88031673 C166.98281788 377.3648378 170.70209442 381.16113655 174.46908569 384.97406673 C176.55659204 387.03481018 178.67827792 388.97547299 180.90658569 390.88031673 C184.98281788 394.3648378 188.70209442 398.16113655 192.46908569 401.97406673 C194.55659204 404.03481018 196.67827792 405.97547299 198.90658569 407.88031673 C202.98281788 411.3648378 206.70209442 415.16113655 210.46908569 418.97406673 C212.55659204 421.03481018 214.67827792 422.97547299 216.90658569 424.88031673 C220.98281788 428.3648378 224.70209442 432.16113655 228.46908569 435.97406673 C230.55659204 438.03481018 232.67827792 439.97547299 234.90658569 441.88031673 C238.98281788 445.3648378 242.70209442 449.16113655 246.46908569 452.97406673 C248.55659204 455.03481018 250.67827792 456.97547299 252.90658569 458.88031673 C256.98281788 462.3648378 260.70209442 466.16113655 264.46908569 469.97406673 C266.55659204 472.03481018 268.67827792 473.97547299 270.90658569 475.88031673 C274.98281788 479.3648378 278.70209442 483.16113655 282.46908569 486.97406673 C285.15684395 489.62736655 287.96642492 492.07718344 290.83627319 494.52875423 C294.22609543 497.56040658 297.37039722 500.83494509 300.56283569 504.07172298 C302.49226028 505.9722062 304.43332431 507.735505 306.53158569 509.44281673 C307.31533569 510.08219173 308.09908569 510.72156673 308.90658569 511.38031673 C308.90658569 511.71031673 308.90658569 512.04031673 308.90658569 512.38031673 C200.99658569 512.38031673 93.08658569 512.38031673 -18.09341431 512.38031673 C-18.09341431 410.41031673 -18.09341431 308.44031673 -18.09341431 203.38031673 C-11.09341431 209.38031673 -11.09341431 209.38031673 -3.09341431 217.38031673 C-2.76341431 162.27031673 -2.43341431 107.16031673 -2.09341431 50.38031673 C-4.40341431 50.05031673 -6.71341431 49.72031673 -9.09341431 49.38031673 C-11.23794556 48.11078548 -11.23794556 48.11078548 -12.90591431 46.56781673 C-13.46923462 46.06637142 -14.03255493 45.56492611 -14.61294556 45.04828548 C-19.65048043 39.37275147 -18.49937125 32.23509977 -18.53091431 25.06781673 C-18.5637854 23.76135189 -18.59665649 22.45488705 -18.63052368 21.10883236 C-18.69074658 10.33988294 -18.69074658 10.33988294 -15.94107056 6.14984798 C-10.99629095 1.34072762 -6.8329238 0.00569908 0 0 Z M-1.09341431 17.38031673 C-1.09341431 22.66031673 -1.09341431 27.94031673 -1.09341431 33.38031673 C129.25658569 33.38031673 259.60658569 33.38031673 393.90658569 33.38031673 C393.90658569 28.10031673 393.90658569 22.82031673 393.90658569 17.38031673 C263.55658569 17.38031673 133.20658569 17.38031673 -1.09341431 17.38031673 Z M15.90658569 50.38031673 C15.55596069 80.55469173 15.20533569 110.72906673 14.84408569 141.81781673 C14.68931763 151.32134945 14.53454956 160.82488216 14.37509155 170.61640072 C14.31821237 179.18624144 14.31821237 179.18624144 14.28404236 187.75618649 C14.26829167 191.55468033 14.20498554 195.34907669 14.11180115 199.14644527 C12.44234183 223.05797841 12.44234183 223.05797841 21.7143259 243.96801758 C24.54896723 246.57035393 27.46023633 248.80929221 30.68992805 250.89801884 C36.31710994 254.66096343 41.19905002 259.54555036 45.90658569 264.38031673 C49.51374356 268.03187039 53.20110541 271.49354832 57.11752319 274.81000423 C58.90658569 276.38031673 58.90658569 276.38031673 60.39752579 278.44839764 C64.29156771 281.44672141 68.05574813 280.91957805 72.84060669 280.8613348 C74.37094005 280.86646135 74.37094005 280.86646135 75.93218923 280.87169147 C79.3611123 280.87829591 82.78925781 280.85625119 86.21810913 280.8344183 C88.67186973 280.83329038 91.12563167 280.83392259 93.57939148 280.83618832 C98.86746017 280.83710008 104.15528543 280.82573278 109.44329071 280.80323696 C117.08882138 280.77073311 124.73425659 280.76031162 132.37984887 280.75528499 C144.7841603 280.74652979 157.18836654 280.71990814 169.59262085 280.68207455 C181.64242018 280.64536027 193.69219094 280.61704567 205.74203491 280.6000433 C206.48474592 280.5989924 207.22745692 280.59794151 207.99267432 280.59685877 C211.71862535 280.59163863 215.44457657 280.5865838 219.17052794 280.58161116 C250.08262607 280.5401421 280.99458414 280.46858698 311.90658569 280.38031673 C311.90658569 269.82031673 311.90658569 259.26031673 311.90658569 248.38031673 C287.48658569 248.38031673 263.06658569 248.38031673 237.90658569 248.38031673 C237.90658569 242.77031673 237.90658569 237.16031673 237.90658569 231.38031673 C262.32658569 231.38031673 286.74658569 231.38031673 311.90658569 231.38031673 C312.23658569 226.10031673 312.56658569 220.82031673 312.90658569 215.38031673 C288.15658569 215.38031673 263.40658569 215.38031673 237.90658569 215.38031673 C237.90658569 209.77031673 237.90658569 204.16031673 237.90658569 198.38031673 C284.10658569 198.38031673 330.30658569 198.38031673 377.90658569 198.38031673 C377.90658569 182.21031673 377.90658569 166.04031673 377.90658569 149.38031673 C373.7695813 149.50189144 369.6325769 149.62346615 365.37020874 149.74872494 C351.51745539 150.13360887 337.66592651 150.3525376 323.80870342 150.49171829 C315.4265581 150.57977943 307.05218937 150.7205718 298.67391968 150.99530697 C257.48941337 152.31303444 227.47782753 151.79100509 195.13720703 122.96951962 C188.64243197 117.27968735 181.26650873 112.85250873 173.90658569 108.38031673 C176.50117003 105.66269044 179.06786973 103.4474762 182.20932007 101.39105892 C183.05119873 100.83658077 183.89307739 100.28210262 184.76046753 99.71082211 C185.66462402 99.12222408 186.56878052 98.53362606 187.50033569 97.92719173 C188.4428418 97.30813961 189.3853479 96.68908749 190.35641479 96.05127621 C193.37021598 94.07312308 196.38826856 92.10157079 199.40658569 90.13031673 C202.39533925 88.17185079 205.38321595 86.21205213 208.37106323 84.25220394 C210.22700997 83.03553474 212.08364751 81.81991834 213.94113159 80.6055975 C214.80822754 80.0385107 215.67532349 79.47142391 216.56869507 78.88715267 C217.39180553 78.35881329 218.214916 77.8304739 219.06296921 77.28612423 C221.91966174 75.421439 221.91966174 75.421439 224.54024887 73.32300854 C232.5437737 67.29772097 238.61753006 66.23331753 248.48764038 66.38031673 C249.90813394 66.37269113 251.32861226 66.36155598 252.74905396 66.34722042 C256.56698166 66.31845582 260.38323596 66.33815808 264.20110226 66.36723614 C268.20501227 66.38926627 272.20866363 66.36579492 276.21255493 66.34735775 C283.7772244 66.31933107 291.34125708 66.33162971 298.90590787 66.35878181 C307.52521634 66.38772873 316.14425494 66.37116532 324.76356649 66.35097027 C342.47808937 66.31047477 360.1921099 66.32812382 377.90658569 66.38031673 C377.90658569 61.10031673 377.90658569 55.82031673 377.90658569 50.38031673 C258.44658569 50.38031673 138.98658569 50.38031673 15.90658569 50.38031673 Z M246.90658569 83.38031673 C246.90658569 88.66031673 246.90658569 93.94031673 246.90658569 99.38031673 C306.30658569 99.38031673 365.70658569 99.38031673 426.90658569 99.38031673 C426.90658569 94.10031673 426.90658569 88.82031673 426.90658569 83.38031673 C367.50658569 83.38031673 308.10658569 83.38031673 246.90658569 83.38031673 Z M444.90658569 83.38031673 C444.90658569 99.55031673 444.90658569 115.72031673 444.90658569 132.38031673 C459.72392253 133.58957434 459.72392253 133.58957434 471.86752319 127.66156673 C472.56748413 126.77984798 472.56748413 126.77984798 473.28158569 125.88031673 C474.00474976 124.99859798 474.00474976 124.99859798 474.74252319 124.09906673 C477.9338095 119.38710037 477.16816397 113.64823082 477.21908569 108.19281673 C477.2480896 107.17639095 477.27709351 106.15996517 477.30697632 105.11273861 C477.36052406 98.73231929 476.78230803 93.62116545 472.90658569 88.38031673 C463.60501703 80.97702739 458.84853179 83.38031673 444.90658569 83.38031673 Z M216.84408569 98.69281673 C215.79930054 99.3831097 214.75451538 100.07340267 213.67807007 100.78461361 C212.69000366 101.45170345 211.70193726 102.1187933 210.68392944 102.80609798 C209.7686145 103.4188055 208.85329956 104.03151302 207.9102478 104.66278744 C207.24903931 105.22957211 206.58783081 105.79635677 205.90658569 106.38031673 C205.90658569 107.37031673 205.90658569 108.36031673 205.90658569 109.38031673 C207.85290555 111.11842992 207.85290555 111.11842992 210.43002319 112.73578548 C211.36846069 113.35775814 212.30689819 113.9797308 213.27377319 114.62055111 C214.26635132 115.26314877 215.25892944 115.90574642 216.28158569 116.56781673 C217.26642944 117.22201595 218.25127319 117.87621517 219.26596069 118.55023861 C223.74371992 121.95160254 223.74371992 121.95160254 228.90658569 123.38031673 C228.90658569 112.82031673 228.90658569 102.26031673 228.90658569 91.38031673 C225.20769459 91.38031673 219.83362494 96.67696024 216.84408569 98.69281673 Z M246.90658569 116.38031673 C246.90658569 121.66031673 246.90658569 126.94031673 246.90658569 132.38031673 C306.30658569 132.38031673 365.70658569 132.38031673 426.90658569 132.38031673 C426.90658569 127.10031673 426.90658569 121.82031673 426.90658569 116.38031673 C367.50658569 116.38031673 308.10658569 116.38031673 246.90658569 116.38031673 Z M329.90658569 219.38031673 C328.61627986 223.25123424 328.76194333 226.91138496 328.7661438 230.94559383 C328.76317268 231.83076014 328.76020155 232.71592645 328.7571404 233.62791598 C328.74844117 236.60577649 328.74694412 239.58359685 328.74545288 242.56146908 C328.74082562 244.69170372 328.73580109 246.82193753 328.73040771 248.95217037 C328.71727397 254.74759785 328.71083701 260.54301373 328.70639706 266.33845377 C328.70346827 269.95688789 328.69936387 273.57531882 328.69489288 277.19375134 C328.68121621 288.50838849 328.67155003 299.82301839 328.66769099 311.13766325 C328.66320782 324.21134597 328.64564857 337.28492426 328.6166904 350.35857522 C328.59509796 360.45629701 328.58498804 370.55398936 328.58364987 380.65173399 C328.58260022 386.68647912 328.57665817 392.7211261 328.55883026 398.75584698 C328.54239145 404.43079876 328.54017369 410.10557818 328.54896927 415.78054523 C328.54974186 417.86510141 328.54536788 419.9496667 328.53551102 422.03419971 C328.5228567 424.87669769 328.52863281 427.71857917 328.53909302 430.56107235 C328.52700841 431.80266017 328.52700841 431.80266017 328.51467967 433.06933057 C328.55425175 437.65717059 328.93514237 440.64976903 331.90658569 444.38031673 C334.52420297 445.68912537 336.4645662 445.51816447 339.39715576 445.53421688 C340.56369186 445.54281734 341.73022797 445.55141781 342.93211365 445.56027889 C344.86153053 445.56666882 344.86153053 445.56666882 346.82992554 445.57318783 C348.19317332 445.58108817 349.556419 445.58935708 350.91966248 445.5979681 C355.40226238 445.62419225 359.88487166 445.63949434 364.36752319 445.65375423 C365.90964387 445.65911342 367.45176449 445.66449092 368.99388504 445.66988659 C375.40713122 445.69151431 381.82037488 445.71025232 388.2336483 445.72150898 C397.43087943 445.73775745 406.62768871 445.77095769 415.82476079 445.82790983 C422.28850453 445.8665747 428.75213525 445.88613743 435.21599162 445.89142954 C439.0783736 445.89508731 442.94030569 445.90715288 446.80256271 445.93953228 C450.43556417 445.9695535 454.06784214 445.97594673 457.70094109 445.96414852 C459.67069633 445.96382175 461.64040654 445.98832622 463.61000061 446.01352596 C464.78217636 446.00520748 465.95435211 445.996889 467.16204834 445.98831844 C468.18079733 445.99162859 469.19954632 445.99493874 470.24916649 445.99834919 C473.05679162 445.55979171 473.05679162 445.55979171 475.23387337 443.39742374 C477.49709729 439.31519834 477.46368205 436.09442005 477.41452026 431.49860287 C477.42076023 430.60356061 477.42700019 429.70851834 477.43342924 428.78635359 C477.44938579 425.78680782 477.43674446 422.78807168 477.42416382 419.78851986 C477.42958374 417.63828208 477.43670567 415.48804802 477.44540405 413.33782101 C477.4636556 407.49696612 477.45656217 401.65639352 477.44388771 395.81553364 C477.43376961 389.70662703 477.44315008 383.59774479 477.44943237 377.48883724 C477.45671223 367.22947501 477.44711213 356.9702279 477.42807007 346.71088314 C477.40630077 334.84505471 477.4133519 322.97950118 477.43537569 311.11367941 C477.45351998 300.93097055 477.45609274 290.74834451 477.44562101 280.56562471 C477.43938078 274.4817199 477.43856512 268.39794435 477.45176697 262.31404781 C477.46331062 256.59466891 477.45532658 250.87564488 477.43218994 245.15630436 C477.42689495 243.0556316 477.42843007 240.95492903 477.4372406 238.85426807 C477.44814825 235.98978394 477.43449007 233.12644169 477.41452026 230.2620306 C477.42344315 229.42788773 477.43236604 228.59374486 477.44155931 227.73432493 C477.38757308 223.75051135 477.19430902 221.83189389 474.99983978 218.38770962 C471.76341124 215.28403307 469.92244211 215.25199064 465.53663635 215.23314571 C464.39678787 215.22599041 463.25693939 215.21883511 462.08255005 215.21146297 C460.82589539 215.20877407 459.56924072 215.20608517 458.27450562 215.20331478 C456.95575943 215.19674358 455.63701324 215.19017239 454.27830505 215.18340206 C450.65424249 215.16598697 447.03019312 215.15543894 443.40609908 215.14719653 C441.14232068 215.14204746 438.87854639 215.13597169 436.61477089 215.1296854 C429.533178 215.11063192 422.45159555 215.0964011 415.36998194 215.08807343 C407.19312663 215.07829929 399.0165419 215.05197608 390.83978194 215.01157254 C384.52124207 214.98142147 378.20277982 214.96660553 371.8841694 214.96329242 C368.10957454 214.96094077 364.3352687 214.95196592 360.56075096 214.92683125 C357.00907083 214.90356277 353.45787023 214.89931196 349.90613365 214.90959263 C347.98311639 214.91032461 346.06012355 214.89122464 344.13720703 214.87152767 C342.98889908 214.87847149 341.84059113 214.88541531 340.65748596 214.89256954 C339.16392972 214.88898701 339.16392972 214.88898701 337.64020061 214.88533211 C334.11851666 215.52301498 332.44161157 216.89828302 329.90658569 219.38031673 Z M-1.09341431 244.38031673 C-1.09341431 261.87031673 -1.09341431 279.36031673 -1.09341431 297.38031673 C4.51658569 297.38031673 10.12658569 297.38031673 15.90658569 297.38031673 C15.90658569 302.99031673 15.90658569 308.60031673 15.90658569 314.38031673 C10.29658569 314.38031673 4.68658569 314.38031673 -1.09341431 314.38031673 C-1.09341431 319.66031673 -1.09341431 324.94031673 -1.09341431 330.38031673 C4.51658569 330.38031673 10.12658569 330.38031673 15.90658569 330.38031673 C15.90658569 335.99031673 15.90658569 341.60031673 15.90658569 347.38031673 C10.29658569 347.38031673 4.68658569 347.38031673 -1.09341431 347.38031673 C-1.09341431 352.66031673 -1.09341431 357.94031673 -1.09341431 363.38031673 C4.51658569 363.38031673 10.12658569 363.38031673 15.90658569 363.38031673 C15.90658569 368.99031673 15.90658569 374.60031673 15.90658569 380.38031673 C10.29658569 380.38031673 4.68658569 380.38031673 -1.09341431 380.38031673 C-1.09341431 385.66031673 -1.09341431 390.94031673 -1.09341431 396.38031673 C4.51658569 396.38031673 10.12658569 396.38031673 15.90658569 396.38031673 C15.90658569 401.99031673 15.90658569 407.60031673 15.90658569 413.38031673 C10.29658569 413.38031673 4.68658569 413.38031673 -1.09341431 413.38031673 C-1.09341431 418.66031673 -1.09341431 423.94031673 -1.09341431 429.38031673 C4.51658569 429.38031673 10.12658569 429.38031673 15.90658569 429.38031673 C15.90658569 434.99031673 15.90658569 440.60031673 15.90658569 446.38031673 C10.29658569 446.38031673 4.68658569 446.38031673 -1.09341431 446.38031673 C-1.09341431 451.66031673 -1.09341431 456.94031673 -1.09341431 462.38031673 C4.51658569 462.38031673 10.12658569 462.38031673 15.90658569 462.38031673 C15.90658569 467.99031673 15.90658569 473.60031673 15.90658569 479.38031673 C10.29658569 479.38031673 4.68658569 479.38031673 -1.09341431 479.38031673 C-1.09341431 484.66031673 -1.09341431 489.94031673 -1.09341431 495.38031673 C86.68658569 495.38031673 174.46658569 495.38031673 264.90658569 495.38031673 C262.23786612 492.04441727 260.40736186 489.7798953 257.28158569 487.19281673 C253.99893669 484.3921924 250.93682558 481.45251379 247.90658569 478.38031673 C244.99031966 475.42848648 242.06052735 472.57642815 238.90658569 469.88031673 C234.8303535 466.39579567 231.11107696 462.59949692 227.34408569 458.78656673 C225.25657934 456.72582329 223.13489346 454.78516047 220.90658569 452.88031673 C216.8303535 449.39579567 213.11107696 445.59949692 209.34408569 441.78656673 C207.25657934 439.72582329 205.13489346 437.78516047 202.90658569 435.88031673 C198.8303535 432.39579567 195.11107696 428.59949692 191.34408569 424.78656673 C189.25657934 422.72582329 187.13489346 420.78516047 184.90658569 418.88031673 C180.8303535 415.39579567 177.11107696 411.59949692 173.34408569 407.78656673 C171.25657934 405.72582329 169.13489346 403.78516047 166.90658569 401.88031673 C162.8303535 398.39579567 159.11107696 394.59949692 155.34408569 390.78656673 C153.25657934 388.72582329 151.13489346 386.78516047 148.90658569 384.88031673 C144.8303535 381.39579567 141.11107696 377.59949692 137.34408569 373.78656673 C135.25657934 371.72582329 133.13489346 369.78516047 130.90658569 367.88031673 C126.8303535 364.39579567 123.11107696 360.59949692 119.34408569 356.78656673 C117.25657934 354.72582329 115.13489346 352.78516047 112.90658569 350.88031673 C108.8303535 347.39579567 105.11107696 343.59949692 101.34408569 339.78656673 C99.25657934 337.72582329 97.13489346 335.78516047 94.90658569 333.88031673 C90.8303535 330.39579567 87.11107696 326.59949692 83.34408569 322.78656673 C81.25657934 320.72582329 79.13489346 318.78516047 76.90658569 316.88031673 C72.8303535 313.39579567 69.11107696 309.59949692 65.34408569 305.78656673 C63.25657934 303.72582329 61.13489346 301.78516047 58.90658569 299.88031673 C54.8303535 296.39579567 51.11107696 292.59949692 47.34408569 288.78656673 C45.25657934 286.72582329 43.13489346 284.78516047 40.90658569 282.88031673 C36.8303535 279.39579567 33.11107696 275.59949692 29.34408569 271.78656673 C27.25657934 269.72582329 25.13489346 267.78516047 22.90658569 265.88031673 C19.75264404 263.18420532 16.82285172 260.33214698 13.90658569 257.38031673 C7.05357065 250.05509144 7.05357065 250.05509144 -1.09341431 244.38031673 Z " fill="#4B78E6" transform="translate(18.093414306640625,-0.38031673431396484)"/>
<path d="M0 0 C8.99144842 6.74358632 8.99144842 6.74358632 11.78125 9.62109375 C12.39137939 10.24282471 13.00150879 10.86455566 13.63012695 11.50512695 C14.24718506 12.14281006 14.86424316 12.78049316 15.5 13.4375 C19.90425487 17.91975422 24.30759608 22.27690863 29.11328125 26.33203125 C32.4210148 29.25625946 35.4608235 32.45424818 38.5625 35.59375 C40.65000635 37.65449345 42.77169223 39.59515626 45 41.5 C49.07623219 44.98452107 52.79550873 48.78081981 56.5625 52.59375 C58.65000635 54.65449345 60.77169223 56.59515626 63 58.5 C67.07623219 61.98452107 70.79550873 65.78081981 74.5625 69.59375 C76.65000635 71.65449345 78.77169223 73.59515626 81 75.5 C85.07623219 78.98452107 88.79550873 82.78081981 92.5625 86.59375 C94.65000635 88.65449345 96.77169223 90.59515626 99 92.5 C103.07623219 95.98452107 106.79550873 99.78081981 110.5625 103.59375 C112.65000635 105.65449345 114.77169223 107.59515626 117 109.5 C121.07623219 112.98452107 124.79550873 116.78081981 128.5625 120.59375 C131.24767712 123.24450178 134.05393786 125.69238597 136.921875 128.140625 C140.33527696 131.19472149 143.50643054 134.48748609 146.703125 137.765625 C148.90760127 140.0158599 148.90760127 140.0158599 151.296875 141.671875 C151.85890625 142.11015625 152.4209375 142.5484375 153 143 C153 143.66 153 144.32 153 145 C102.51 145 52.02 145 0 145 C0 97.15 0 49.3 0 0 Z M18 41 C18 69.38 18 97.76 18 127 C48.03 127 78.06 127 109 127 C107.35 125.35 105.7 123.7 104 122 C102.83645583 120.82629728 101.67362708 119.65188464 100.51171875 118.4765625 C91.94606355 109.80916344 91.94606355 109.80916344 82.88671875 101.66796875 C79.5789852 98.74374054 76.5391765 95.54575182 73.4375 92.40625 C71.34999365 90.34550655 69.22830777 88.40484374 67 86.5 C62.92376781 83.01547893 59.20449127 79.21918019 55.4375 75.40625 C53.34999365 73.34550655 51.22830777 71.40484374 49 69.5 C44.92656519 66.01787024 41.20964882 62.22444574 37.4453125 58.4140625 C34.71781836 55.72142452 31.87088097 53.22484547 28.95703125 50.73828125 C26.0209545 48.13038873 23.29912349 45.32218803 20.56640625 42.50390625 C19.24168953 40.88457179 19.24168953 40.88457179 18 41 Z " fill="#8247F6" transform="translate(49,318)"/>
<path d="M0 0 C38.28 0 76.56 0 116 0 C116 22.11 116 44.22 116 67 C77.72 67 39.44 67 0 67 C0 44.89 0 22.78 0 0 Z M17 17 C17 27.56 17 38.12 17 49 C44.06 49 71.12 49 99 49 C99 38.44 99 27.88 99 17 C71.94 17 44.88 17 17 17 Z " fill="#576DE9" transform="translate(363,231)"/>
<path d="M0 0 C19.14 0 38.28 0 58 0 C58 5.61 58 11.22 58 17 C44.14 17.33 30.28 17.66 16 18 C10.06 62.55 4.12 107.1 -2 153 C-5.95079122 151.68306959 -7.46244439 149.14616434 -9.875 145.9375 C-10.86063433 144.65391413 -11.84767008 143.37140344 -12.8359375 142.08984375 C-13.3525293 141.41808105 -13.86912109 140.74631836 -14.40136719 140.05419922 C-17.04498663 136.65722091 -19.77363106 133.33065048 -22.5 130 C-27.16971246 124.28109315 -31.7753145 118.51759151 -36.31054688 112.69140625 C-38.42249311 109.98310702 -40.5715305 107.32791263 -42.8125 104.7265625 C-45 102 -45 102 -45 100 C-52.26 100 -59.52 100 -67 100 C-67 94.06 -67 88.12 -67 82 C-41.44936581 79.48439702 -41.44936581 79.48439702 -34.33398438 83.50732422 C-30.17475634 87.21286952 -27.29593181 91.63990789 -24.56976318 96.46092224 C-22.84062124 99.2577937 -20.89917761 101.74254333 -18.82568359 104.29345703 C-18.10835052 105.17921417 -17.39101746 106.06497131 -16.65194702 106.97756958 C-16.1068045 107.64497162 -15.56166199 108.31237366 -15 109 C-14.82682755 107.70818314 -14.65365509 106.41636627 -14.47523499 105.08540344 C-12.8437355 92.91648039 -11.21054409 80.74778546 -9.57569218 68.57931232 C-8.735237 62.32325259 -7.89537994 56.06711377 -7.05688477 49.81079102 C-6.2478044 43.77410956 -5.43715949 37.73764009 -4.62542534 31.70131493 C-4.31587326 29.39729494 -4.00688681 27.09319889 -3.69847298 24.78902626 C-3.26670242 21.56398215 -2.83292906 18.33921335 -2.39868164 15.11450195 C-2.27136658 14.16000153 -2.14405151 13.2055011 -2.01287842 12.22207642 C-1.8937056 11.34013107 -1.77453278 10.45818573 -1.65174866 9.54951477 C-1.54942964 8.78719197 -1.44711061 8.02486917 -1.34169102 7.23944569 C-0.97151095 4.81328253 -0.48131634 2.40658171 0 0 Z " fill="#3B86E1" transform="translate(116,99)"/>
<path d="M0 0 C4.83298806 4.02748053 9.38110004 8.24379413 13.80859375 12.7109375 C14.72597069 13.63043686 14.72597069 13.63043686 15.66188049 14.56851196 C17.58947559 16.50164564 19.51353928 18.43824987 21.4375 20.375 C22.75432404 21.69684699 24.07137926 23.01846372 25.38867188 24.33984375 C28.59512373 27.55724299 31.79841629 30.77775681 35 34 C37.99943905 32.65427113 40.08076179 31.16462899 42.39160156 28.83544922 C43.0319635 28.19493622 43.67232544 27.55442322 44.33209229 26.89450073 C45.01140808 26.20486237 45.69072388 25.515224 46.390625 24.8046875 C47.44754547 23.74352219 47.44754547 23.74352219 48.52581787 22.66091919 C50.7719539 20.40360138 53.01103009 18.13942367 55.25 15.875 C56.77297717 14.34199047 58.29640939 12.80943285 59.8203125 11.27734375 C63.55216815 7.52345427 67.27825351 3.76391086 71 0 C72.04796218 0.84643099 73.08792692 1.70276192 74.125 2.5625 C74.70507812 3.03816406 75.28515625 3.51382813 75.8828125 4.00390625 C78.82159088 6.77459952 81.37148276 9.93339656 84 13 C72.78 24.22 61.56 35.44 50 47 C51.66962694 50.33925388 52.64291923 51.88982537 55.16455078 54.39160156 C55.80506378 55.0319635 56.44557678 55.67232544 57.10549927 56.33209229 C57.79513763 57.01140808 58.484776 57.69072388 59.1953125 58.390625 C59.90275604 59.09523865 60.61019958 59.79985229 61.33908081 60.52581787 C63.59639862 62.7719539 65.86057633 65.01103009 68.125 67.25 C69.65800953 68.77297717 71.19056715 70.29640939 72.72265625 71.8203125 C76.47654573 75.55216815 80.23608914 79.27825351 84 83 C83.15356901 84.04796218 82.29723808 85.08792692 81.4375 86.125 C80.72400391 86.99511719 80.72400391 86.99511719 79.99609375 87.8828125 C77.22540048 90.82159088 74.06660344 93.37148276 71 96 C59.78 84.78 48.56 73.56 37 62 C33.66074612 63.66962694 32.11017463 64.64291923 29.60839844 67.16455078 C28.9680365 67.80506378 28.32767456 68.44557678 27.66790771 69.10549927 C26.98859192 69.79513763 26.30927612 70.484776 25.609375 71.1953125 C24.90476135 71.90275604 24.20014771 72.61019958 23.47418213 73.33908081 C21.2280461 75.59639862 18.98896991 77.86057633 16.75 80.125 C15.22702283 81.65800953 13.70359061 83.19056715 12.1796875 84.72265625 C8.44783185 88.47654573 4.72174649 92.23608914 1 96 C-0.04796218 95.15356901 -1.08792692 94.29723808 -2.125 93.4375 C-2.99511719 92.72400391 -2.99511719 92.72400391 -3.8828125 91.99609375 C-6.82159088 89.22540048 -9.37148276 86.06660344 -12 83 C-0.78 71.78 10.44 60.56 22 49 C20.33037306 45.66074612 19.35708077 44.11017463 16.83544922 41.60839844 C16.19493622 40.9680365 15.55442322 40.32767456 14.89450073 39.66790771 C14.20486237 38.98859192 13.515224 38.30927612 12.8046875 37.609375 C12.09724396 36.90476135 11.38980042 36.20014771 10.66091919 35.47418213 C8.40360138 33.2280461 6.13942367 30.98896991 3.875 28.75 C2.34199047 27.22702283 0.80943285 25.70359061 -0.72265625 24.1796875 C-4.47654573 20.44783185 -8.23608914 16.72174649 -12 13 C-11.0402279 11.87434093 -10.0796177 10.74939642 -9.11865234 9.62475586 C-8.58380219 8.99822617 -8.04895203 8.37169647 -7.49789429 7.72618103 C-5.13334916 5.00126714 -2.58039756 2.51895952 0 0 Z " fill="#4180E3" transform="translate(154,142)"/>
<path d="M0 0 C40.92 0 81.84 0 124 0 C124 5.61 124 11.22 124 17 C83.08 17 42.16 17 0 17 C0 11.39 0 5.78 0 0 Z " fill="#3D84E1" transform="translate(256,165)"/>
<path d="M0 0 C5.94 0 11.88 0 18 0 C18 5.61 18 11.22 18 17 C23.28 17 28.56 17 34 17 C34 22.61 34 28.22 34 34 C28.72 34 23.44 34 18 34 C18 39.61 18 45.22 18 51 C12.06 51 6.12 51 0 51 C0 45.39 0 39.78 0 34 C-5.28 34 -10.56 34 -16 34 C-16 28.39 -16 22.78 -16 17 C-10.72 17 -5.44 17 0 17 C0 11.39 0 5.78 0 0 Z " fill="#6C5BF0" transform="translate(379,313)"/>
<path d="M0 0 C2.56970593 1.32040226 4.23646375 2.98852132 6.2265625 5.078125 C6.93296875 5.81160156 7.639375 6.54507812 8.3671875 7.30078125 C8.89828125 7.86667969 9.429375 8.43257813 9.9765625 9.015625 C11.0820814 8.07971996 12.18591703 7.14182642 13.2890625 6.203125 C13.90394531 5.68105469 14.51882813 5.15898437 15.15234375 4.62109375 C16.83080929 3.14390031 18.41538284 1.61523369 19.9765625 0.015625 C23.65726137 1.55206352 25.96431454 3.79713445 28.7265625 6.640625 C29.52578125 7.45789063 30.325 8.27515625 31.1484375 9.1171875 C31.75171875 9.74367188 32.355 10.37015625 32.9765625 11.015625 C31.56811532 14.23086805 29.87311464 16.33746368 27.3515625 18.765625 C26.71992188 19.37921875 26.08828125 19.9928125 25.4375 20.625 C24.95539063 21.08390625 24.47328125 21.5428125 23.9765625 22.015625 C24.91246754 23.1211439 25.85036108 24.22497953 26.7890625 25.328125 C27.57216797 26.25044922 27.57216797 26.25044922 28.37109375 27.19140625 C29.84828719 28.86987179 31.37695381 30.45444534 32.9765625 32.015625 C31.44408201 35.59965195 29.3091024 38.04412634 26.6015625 40.828125 C25.44527344 42.04435547 25.44527344 42.04435547 24.265625 43.28515625 C21.9765625 45.015625 21.9765625 45.015625 19.921875 45 C17.55305005 43.8013175 16.04883712 42.38053085 14.2265625 40.453125 C13.30617188 39.49212891 13.30617188 39.49212891 12.3671875 38.51171875 C11.90828125 38.01800781 11.449375 37.52429688 10.9765625 37.015625 C7.23019348 38.67080959 5.17461398 40.81299461 2.5390625 43.87109375 C0.9765625 45.015625 0.9765625 45.015625 -0.8828125 45.0078125 C-3.98629758 43.56933584 -5.91128085 41.40852467 -8.2734375 38.953125 C-9.16546875 38.03402344 -10.0575 37.11492187 -10.9765625 36.16796875 C-11.65203125 35.45769531 -12.3275 34.74742187 -13.0234375 34.015625 C-12.08753246 32.9101061 -11.14963892 31.80627047 -10.2109375 30.703125 C-9.42783203 29.78080078 -9.42783203 29.78080078 -8.62890625 28.83984375 C-7.15171281 27.16137821 -5.62304619 25.57680466 -4.0234375 24.015625 C-5.43188468 20.80038195 -7.12688536 18.69378632 -9.6484375 16.265625 C-10.28007812 15.65203125 -10.91171875 15.0384375 -11.5625 14.40625 C-12.04460937 13.94734375 -12.52671875 13.4884375 -13.0234375 13.015625 C-11.49095701 9.43159805 -9.3559774 6.98712366 -6.6484375 4.203125 C-5.87757813 3.39230469 -5.10671875 2.58148438 -4.3125 1.74609375 C-2.0234375 0.015625 -2.0234375 0.015625 0 0 Z " fill="#7F49F6" transform="translate(444.0234375,381.984375)"/>
<path d="M0 0 C16.5 0 33 0 50 0 C50 5.94 50 11.88 50 18 C33.5 18 17 18 0 18 C0 12.06 0 6.12 0 0 Z " fill="#8546F6" transform="translate(363,412)"/>
<path d="M0 0 C16.5 0 33 0 50 0 C50 5.94 50 11.88 50 18 C33.5 18 17 18 0 18 C0 12.06 0 6.12 0 0 Z " fill="#7B4EF4" transform="translate(363,379)"/>
<path d="M0 0 C16.5 0 33 0 50 0 C50 5.61 50 11.22 50 17 C33.5 17 17 17 0 17 C0 11.39 0 5.78 0 0 Z " fill="#6C5BF0" transform="translate(429,330)"/>
</svg>
