<?xml version="1.0" encoding="UTF-8"?>
<svg version="1.1" xmlns="http://www.w3.org/2000/svg" width="512" height="512">
<path d="M0 0 C1.01578125 0.46897705 2.0315625 0.9379541 3.078125 1.42114258 C3.97950195 1.84903076 4.88087891 2.27691895 5.80957031 2.71777344 C10.75261392 4.18947272 14.85056592 2.57325417 19.37890625 0.47973633 C20.74414429 -0.13865112 20.74414429 -0.13865112 22.13696289 -0.76953125 C23.10239014 -1.21063232 24.06781738 -1.6517334 25.0625 -2.10620117 C43.02095836 -10.08124479 61.1963018 -15.79821325 80.5 -19.48120117 C81.33499023 -19.6463623 82.16998047 -19.81152344 83.03027344 -19.98168945 C110.06811249 -25.10225161 141.54318182 -24.98128158 168.5 -19.48120117 C169.48597168 -19.28252441 170.47194336 -19.08384766 171.48779297 -18.87915039 C190.58746596 -14.90563264 209.1120288 -9.08401833 226.84008789 -0.91723633 C231.46393157 1.17941997 236.12484816 2.68129579 241 4.08129883 C250.67072623 6.92760223 257.4395843 11.65187574 262.5 20.51879883 C265.22022245 26.6825897 265.9331945 31.63858077 265.88768005 38.33505249 C265.89575836 39.77417431 265.89575836 39.77417431 265.90399987 41.24236929 C265.91825281 44.44190388 265.91118217 47.64102319 265.90405273 50.84057617 C265.9097577 53.14077587 265.91672245 55.44097274 265.92485046 57.74116516 C265.94278345 63.97880812 265.94161309 70.2163104 265.93590808 76.45397139 C265.93281627 81.66517385 265.93890866 86.87634928 265.94494683 92.0875479 C265.95979366 105.08634246 265.95617821 118.08505809 265.94408352 131.08385237 C265.93415395 142.35750669 265.94708898 153.63099682 265.97101771 164.90462582 C265.99543568 176.49661393 266.00461062 188.08851884 265.99836498 199.6805321 C265.99499646 206.18206577 265.99740371 212.68346382 266.01461601 219.18497849 C266.03009869 225.30000407 266.02611449 231.41471657 266.00731087 237.52972984 C266.00362862 239.77021539 266.00672275 242.01072419 266.01719666 244.25118828 C266.03043294 247.31734353 266.01883502 250.38246632 266.00120544 253.44857788 C266.01081045 254.32836536 266.02041546 255.20815284 266.03031152 256.11460054 C265.91735611 265.70844715 262.26484528 274.60024886 255.5625 281.51879883 C246.48183245 290.09498485 237.49963802 292.92437057 225.13671875 292.88208008 C218.83184438 292.25226986 213.33518184 289.9173574 207.5 287.51879883 C206.51 287.18879883 205.52 286.85879883 204.5 286.51879883 C202.46262501 287.68843517 202.46262501 287.68843517 200.3125 289.45629883 C187.01238133 299.14141431 165.94200092 310.13177538 149.12109375 308.01098633 C141.59221634 307.30672432 141.59221634 307.30672432 134.5 309.51879883 C129.83064958 314.90633713 127.18866147 321.44122117 124.359375 327.91333008 C121.9010195 333.32197247 120.05195684 335.41510255 114.5 337.51879883 C107.52973531 338.70019962 103.13133394 336.16276878 97.0390625 332.83129883 C94.68026113 331.36573222 94.68026113 331.36573222 92.5 331.51879883 C92.29971695 332.10125366 92.0994339 332.6837085 91.89308167 333.28381348 C83.05056252 358.99336518 74.19473375 384.69907732 65.15914917 410.34155273 C64.43234254 412.40585752 63.70732452 414.47079297 62.98416138 416.53637695 C61.97514753 419.41650946 60.95926752 422.29412685 59.94140625 425.17114258 C59.65048096 426.00528183 59.35955566 426.83942108 59.05981445 427.69883728 C54.84279701 439.54437908 49.85741002 448.36615031 38.5 454.51879883 C32.84954377 457.16803682 27.8408963 458.04218686 21.625 457.95629883 C20.83416016 457.94655029 20.04332031 457.93680176 19.22851562 457.92675781 C8.7268577 457.60855844 2.26442654 454.1547438 -5.3046875 446.87036133 C-12.11241836 439.57809447 -14.93277016 431.47471214 -15.875 421.58129883 C-15.22913651 409.81223076 -10.49985046 401.62831418 -3.5 392.51879883 C-2.23395547 390.85245083 -0.96836301 389.18575929 0.296875 387.51879883 C2.38081932 384.77878413 4.46804024 382.04148462 6.56323242 379.31005859 C10.29826204 374.43841367 13.97352496 369.54336002 17.5 364.51879883 C21.60540162 358.67727336 25.90926061 352.99968525 30.25 347.33129883 C35.62830315 340.30176226 40.97901665 333.25429646 46.25 326.14379883 C46.82202148 325.377854 47.39404297 324.61190918 47.98339844 323.82275391 C51.15382835 319.52839231 53.95032029 315.20971441 56.5 310.51879883 C55.2625 310.17848633 55.2625 310.17848633 54 309.83129883 C47.86826623 307.53189867 43.01778383 305.25256785 40 299.20629883 C39.505 297.98942383 39.01 296.77254883 38.5 295.51879883 C38.066875 296.30254883 37.63375 297.08629883 37.1875 297.89379883 C35.5 300.51879883 35.5 300.51879883 32.5 302.51879883 C30.54043579 302.77949524 30.54043579 302.77949524 28.29150391 302.79345703 C27.44697662 302.80298904 26.60244934 302.81252106 25.73233032 302.82234192 C24.82292694 302.82143051 23.91352356 302.8205191 22.9765625 302.81958008 C22.03823578 302.8238652 21.09990906 302.82815033 20.13314819 302.83256531 C18.14769294 302.83830922 16.16221664 302.83880842 14.17675781 302.83447266 C11.1435131 302.83131808 8.11124872 302.85475238 5.078125 302.88012695 C3.14843873 302.88240052 1.21874984 302.88310318 -0.7109375 302.88208008 C-1.61629242 302.89128983 -2.52164734 302.90049957 -3.45443726 302.9099884 C-8.26759895 302.87475208 -11.62519627 302.71620288 -15.5 299.51879883 C-16.50390625 297.39770508 -16.50390625 297.39770508 -17.0625 295.08129883 C-18.03942801 291.09947503 -19.30681041 289.13817066 -22.5 286.51879883 C-24.8334602 285.26627975 -27.07316794 284.1735546 -29.5 283.14379883 C-30.19641602 282.84562256 -30.89283203 282.54744629 -31.61035156 282.24023438 C-77.81709703 263.05863627 -129.63335353 263.7264631 -175.70605469 282.61376953 C-180.11255755 284.46052078 -184.47468277 286.39036553 -188.8125 288.39379883 C-198.97976898 293.05379711 -209.54671708 294.51328059 -220.375 290.89379883 C-230.62067963 286.60595934 -237.93837733 279.35743482 -242.73828125 269.41333008 C-244.08622311 266.06075674 -244.625057 263.00662581 -244.63422108 259.40007591 C-244.63867892 258.58316414 -244.64313676 257.76625237 -244.64772969 256.9245857 C-244.64754533 256.03257636 -244.64736097 255.14056702 -244.64717102 254.2215271 C-244.65084771 253.26961381 -244.6545244 252.31770051 -244.6583125 251.33694136 C-244.66934836 248.13892878 -244.67319303 244.9409487 -244.67700195 241.74291992 C-244.68326669 239.45316464 -244.6899135 237.16341038 -244.69691467 234.87365723 C-244.71795674 227.34652413 -244.7283174 219.81939083 -244.73828125 212.29223633 C-244.74232879 209.7008526 -244.74644571 207.10946899 -244.75063133 204.51808548 C-244.76750036 193.73837963 -244.78213483 182.95867748 -244.78938007 172.1789608 C-244.79128986 169.38289768 -244.79321021 166.58683457 -244.79516602 163.79077148 C-244.79564976 163.09585274 -244.7961335 162.40093399 -244.7966319 161.6849571 C-244.80492801 150.43369352 -244.83025862 139.1825364 -244.86274669 127.93131928 C-244.89585391 116.37111053 -244.91349965 104.81097183 -244.91702431 93.25071394 C-244.91937451 86.76363298 -244.92833131 80.27672032 -244.95348549 73.7896843 C-244.97677603 67.68458747 -244.98099525 61.57976964 -244.97072411 55.47463989 C-244.97022888 53.23737281 -244.97654546 51.00009195 -244.99028015 48.76286697 C-245.00802195 45.70090305 -245.00088112 42.63993788 -244.98774719 39.57797241 C-245.00420106 38.2600349 -245.00420106 38.2600349 -245.02098733 36.91547239 C-244.92076398 27.19133513 -241.37367477 19.46907249 -234.69140625 12.49145508 C-229.6206934 7.92690965 -224.5676982 5.65076691 -217.9375 4.20629883 C-212.99313334 3.09999679 -208.86680591 1.28656325 -204.4375 -1.10620117 C-186.96871187 -10.35794844 -166.84952289 -15.75166743 -147.5 -19.48120117 C-146.68934082 -19.64346191 -145.87868164 -19.80572266 -145.04345703 -19.97290039 C-96.58919771 -29.22820835 -44.22313192 -21.00532325 0 0 Z " fill="#E5F4FE" transform="translate(245.5,38.481201171875)"/>
<path d="M0 0 C12.6553024 2.63975633 23.42033961 5.67711849 31 17 C34.407737 23.69666119 35.58365264 29.60261581 35.50793457 37.0567627 C35.51729451 38.49844779 35.51729451 38.49844779 35.52684355 39.96925783 C35.54269079 43.16270379 35.53020157 46.35537765 35.51757812 49.54882812 C35.5230029 51.84932396 35.53012755 54.14981631 35.53881836 56.45030212 C35.5570121 62.67960866 35.55000031 68.90864941 35.53730202 75.13796043 C35.52715398 81.66624019 35.53657271 88.19449764 35.54284668 94.72277832 C35.55138159 106.38606421 35.53817573 118.04923859 35.51780933 129.71250516 C35.49994001 140.27242642 35.50304465 150.83217176 35.52148438 161.39208984 C35.54292433 173.67578317 35.55084051 185.95936444 35.53903532 198.24307394 C35.53280877 204.7378623 35.53194183 211.23252966 35.54518127 217.72731018 C35.55676106 223.83416836 35.54867468 229.94069527 35.52560425 236.04751778 C35.52032859 238.28477492 35.52181126 240.52206007 35.53065491 242.75930595 C35.54163895 245.82098902 35.5278117 248.88162063 35.50793457 251.9432373 C35.5213189 253.26087216 35.5213189 253.26087216 35.53497362 254.6051259 C35.41480815 264.19373765 31.76114207 273.0852727 25.0625 280 C15.98183245 288.57618602 6.99963802 291.40557174 -5.36328125 291.36328125 C-11.66815562 290.73347103 -17.16481816 288.39855857 -23 286 C-23.99 285.67 -24.98 285.34 -26 285 C-28.03737499 286.16963634 -28.03737499 286.16963634 -30.1875 287.9375 C-43.48761867 297.62261548 -64.55799908 308.61297656 -81.37890625 306.4921875 C-88.90778366 305.7879255 -88.90778366 305.7879255 -96 308 C-100.66935042 313.3875383 -103.31133853 319.92242234 -106.140625 326.39453125 C-108.5989805 331.80317364 -110.44804316 333.89630372 -116 336 C-122.97026469 337.1814008 -127.36866606 334.64396995 -133.4609375 331.3125 C-135.81973887 329.84693339 -135.81973887 329.84693339 -138 330 C-138.20028305 330.58245483 -138.4005661 331.16490967 -138.60691833 331.76501465 C-147.44943748 357.47456635 -156.30526625 383.18027849 -165.34085083 408.82275391 C-166.06765746 410.88705869 -166.79267548 412.95199415 -167.51583862 415.01757812 C-168.52485247 417.89771063 -169.54073248 420.77532802 -170.55859375 423.65234375 C-170.84951904 424.486483 -171.14044434 425.32062225 -171.44018555 426.18003845 C-175.65720299 438.02558025 -180.64258998 446.84735148 -192 453 C-197.65045623 455.64923799 -202.6591037 456.52338803 -208.875 456.4375 C-209.66583984 456.42775146 -210.45667969 456.41800293 -211.27148438 456.40795898 C-221.7731423 456.08975961 -228.23557346 452.63594497 -235.8046875 445.3515625 C-242.61241836 438.05929564 -245.43277016 429.95591331 -246.375 420.0625 C-245.72913651 408.29343193 -240.99985046 400.10951535 -234 391 C-232.73395547 389.333652 -231.46836301 387.66696047 -230.203125 386 C-228.11918068 383.25998531 -226.03195976 380.52268579 -223.93676758 377.79125977 C-220.20173796 372.91961484 -216.52647504 368.0245612 -213 363 C-208.89459838 357.15847453 -204.59073939 351.48088642 -200.25 345.8125 C-194.87169685 338.78296343 -189.52098335 331.73549763 -184.25 324.625 C-183.67797852 323.85905518 -183.10595703 323.09311035 -182.51660156 322.30395508 C-179.34617165 318.00959349 -176.54967971 313.69091558 -174 309 C-175.2375 308.6596875 -175.2375 308.6596875 -176.5 308.3125 C-182.63173377 306.01309984 -187.48221617 303.73376902 -190.5 297.6875 C-190.995 296.470625 -191.49 295.25375 -192 294 C-192.433125 294.78375 -192.86625 295.5675 -193.3125 296.375 C-195 299 -195 299 -198 301 C-199.95956421 301.26069641 -199.95956421 301.26069641 -202.20849609 301.2746582 C-203.05302338 301.28419022 -203.89755066 301.29372223 -204.76766968 301.30354309 C-205.67707306 301.30263168 -206.58647644 301.30172028 -207.5234375 301.30078125 C-208.46176422 301.30506638 -209.40009094 301.3093515 -210.36685181 301.31376648 C-212.35230706 301.31951039 -214.33778336 301.32000959 -216.32324219 301.31567383 C-219.3564869 301.31251925 -222.38875128 301.33595355 -225.421875 301.36132812 C-227.35156127 301.36360169 -229.28125016 301.36430435 -231.2109375 301.36328125 C-232.11629242 301.372491 -233.02164734 301.38170074 -233.95443726 301.39118958 C-238.76759895 301.35595326 -242.12519627 301.19740405 -246 298 C-247.00390625 295.87890625 -247.00390625 295.87890625 -247.5625 293.5625 C-248.53942801 289.5806762 -249.80681041 287.61937183 -253 285 C-255.3334602 283.74748092 -257.57316794 282.65475578 -260 281.625 C-260.69641602 281.32682373 -261.39283203 281.02864746 -262.11035156 280.72143555 C-308.31709703 261.53983744 -360.13335353 262.20766427 -406.20605469 281.0949707 C-410.61255755 282.94172195 -414.97468277 284.8715667 -419.3125 286.875 C-429.47976898 291.53499828 -440.04671708 292.99448176 -450.875 289.375 C-461.12067963 285.08716051 -468.43837733 277.83863599 -473.23828125 267.89453125 C-474.58622311 264.54195792 -475.125057 261.48782698 -475.13422108 257.88127708 C-475.13867892 257.06436531 -475.14313676 256.24745354 -475.14772969 255.40578687 C-475.14754533 254.51377753 -475.14736097 253.6217682 -475.14717102 252.70272827 C-475.15084771 251.75081498 -475.1545244 250.79890168 -475.1583125 249.81814253 C-475.16934836 246.62012995 -475.17319303 243.42214987 -475.17700195 240.22412109 C-475.18326669 237.93436581 -475.1899135 235.64461155 -475.19691467 233.3548584 C-475.21795674 225.8277253 -475.2283174 218.300592 -475.23828125 210.7734375 C-475.24232879 208.18205377 -475.24644571 205.59067016 -475.25063133 202.99928665 C-475.26750036 192.2195808 -475.28213483 181.43987865 -475.28938007 170.66016197 C-475.29128986 167.86409885 -475.29321021 165.06803574 -475.29516602 162.27197266 C-475.29564976 161.57705391 -475.2961335 160.88213516 -475.2966319 160.16615827 C-475.30492801 148.91489469 -475.33025862 137.66373757 -475.36274669 126.41252045 C-475.39585391 114.85231171 -475.41349965 103.292173 -475.41702431 91.73191512 C-475.41937451 85.24483416 -475.42833131 78.75792149 -475.45348549 72.27088547 C-475.47677603 66.16578865 -475.48099525 60.06097081 -475.47072411 53.95584106 C-475.47022888 51.71857398 -475.47654546 49.48129312 -475.49028015 47.24406815 C-475.50802195 44.18210423 -475.50088112 41.12113905 -475.48774719 38.05917358 C-475.50420106 36.74123607 -475.50420106 36.74123607 -475.52098733 35.39667356 C-475.42073732 25.66994992 -471.86821723 17.9714257 -465.20703125 10.9765625 C-459.60248749 5.95727198 -453.37091742 3.24930804 -446 2 C-443.76953125 2.4609375 -443.76953125 2.4609375 -442 3 C-442.639375 3.928125 -443.27875 4.85625 -443.9375 5.8125 C-446.30094013 9.4650893 -447.12423784 11.91262144 -447.13142776 16.16581535 C-447.13526891 17.01865353 -447.13911005 17.8714917 -447.1430676 18.75017345 C-447.14220112 19.68741571 -447.14133463 20.62465797 -447.14044189 21.59030151 C-447.14341302 22.58572374 -447.14638414 23.58114596 -447.1494453 24.60673249 C-447.15814911 27.95771939 -447.15964196 31.30867064 -447.16113281 34.65966797 C-447.16575974 37.05590898 -447.17078423 39.45214926 -447.17617798 41.84838867 C-447.18931482 48.3689991 -447.19578582 54.8896021 -447.20018864 61.41022253 C-447.20295081 65.48093261 -447.20718809 69.55164031 -447.21169281 73.62234879 C-447.22388487 84.8909916 -447.23418468 96.15963251 -447.2375679 107.42828178 C-447.23778747 108.14951576 -447.23800703 108.87074973 -447.23823325 109.61383928 C-447.23845153 110.33680499 -447.23866981 111.0597707 -447.2388947 111.80464447 C-447.23933817 113.26966532 -447.23978473 114.73468618 -447.24023438 116.19970703 C-447.2404558 116.92640898 -447.24067723 117.65311093 -447.24090537 118.40183415 C-447.24485445 130.18030537 -447.26231209 141.95871476 -447.2855939 153.7371621 C-447.30929911 165.82728636 -447.32176935 177.91737959 -447.32293582 190.00752747 C-447.32385299 196.79679934 -447.32961588 203.58599063 -447.34775543 210.37524033 C-447.36475229 216.7593216 -447.36641527 223.14329062 -447.35761642 229.52738953 C-447.35684347 231.87317947 -447.36122251 234.21897748 -447.37107468 236.56474686 C-447.38371746 239.7619261 -447.37795899 242.95855635 -447.36749268 246.1557312 C-447.37554908 247.08851202 -447.38360548 248.02129284 -447.39190602 248.98233974 C-447.3549722 253.79143696 -447.18903958 257.12379473 -444 261 C-440.04488479 262.9775576 -435.08583697 262.66199872 -430.92919922 261.34277344 C-428.88632238 260.42568779 -426.91481417 259.42581745 -424.9375 258.375 C-423.44104744 257.63088395 -421.94229159 256.89138409 -420.44140625 256.15625 C-419.6952002 255.78886719 -418.94899414 255.42148437 -418.18017578 255.04296875 C-370.48499488 232.2261924 -311.59529062 232.89200046 -262.39453125 249.8828125 C-249.04414166 254.7115242 -235.92561754 260.53585417 -223.9921875 268.28515625 C-220.34416144 269.59415384 -217.36546228 268.62050471 -213.91601562 267.05297852 C-211.52255849 265.82820966 -209.16595569 264.54992402 -206.8125 263.25 C-205.12626808 262.33879527 -203.43877184 261.42992622 -201.75 260.5234375 C-200.93789063 260.08741211 -200.12578125 259.65138672 -199.2890625 259.20214844 C-194.95340543 256.9251886 -190.5033927 254.92279688 -186 253 C-186.25910156 252.35675781 -186.51820313 251.71351563 -186.78515625 251.05078125 C-187.18605469 250.04402344 -187.58695312 249.03726563 -188 248 C-188.25507324 247.3611084 -188.51014648 246.7222168 -188.77294922 246.06396484 C-200.10556609 217.38989969 -202.21264131 187.79371976 -189.87988281 158.97460938 C-185.19610193 148.46339411 -179.63696992 139.67500467 -172 131 C-171.21625 129.96875 -170.4325 128.9375 -169.625 127.875 C-155.29837342 112.1839328 -134.70479546 101.34280791 -114 97 C-112.55173828 96.69449219 -112.55173828 96.69449219 -111.07421875 96.3828125 C-83.2627243 91.32617715 -54.32916576 98.20206556 -31 114 C-26.03403586 117.67038522 -21.46175952 121.737999 -17 126 C-16.18015625 126.77730469 -15.3603125 127.55460937 -14.515625 128.35546875 C-9.61712398 133.40161962 -5.87768567 139.04745561 -2.1875 145 C-1.73093018 145.73557129 -1.27436035 146.47114258 -0.80395508 147.22900391 C1.5405563 151.14128022 3.49170373 155.03450872 5.1550293 159.28515625 C5.50389694 160.17211182 5.85276459 161.05906738 6.21220398 161.97290039 C6.47217667 162.64184326 6.73214935 163.31078613 7 164 C7.09351118 144.31987044 7.16401244 124.63978607 7.20724869 104.95948029 C7.22785914 95.82121852 7.25595068 86.68309494 7.30175781 77.54492188 C7.34167209 69.57851934 7.36744384 61.6122169 7.37635398 53.64571714 C7.38156098 49.42889227 7.39376749 45.21235369 7.42292023 40.99562073 C7.45016203 37.02293461 7.45842743 33.05065151 7.45243073 29.07788086 C7.45352706 27.62346707 7.46142891 26.16903917 7.4768219 24.71470642 C7.57870558 14.58812467 6.63027141 7.95632569 0 0 Z " fill="#E97E73" transform="translate(476,40)"/>
<path d="M0 0 C-0.639375 0.928125 -1.27875 1.85625 -1.9375 2.8125 C-4.30094013 6.4650893 -5.12423784 8.91262144 -5.13142776 13.16581535 C-5.13526891 14.01865353 -5.13911005 14.8714917 -5.1430676 15.75017345 C-5.14220112 16.68741571 -5.14133463 17.62465797 -5.14044189 18.59030151 C-5.14341302 19.58572374 -5.14638414 20.58114596 -5.1494453 21.60673249 C-5.15814911 24.95771939 -5.15964196 28.30867064 -5.16113281 31.65966797 C-5.16575974 34.05590898 -5.17078423 36.45214926 -5.17617798 38.84838867 C-5.18931482 45.3689991 -5.19578582 51.8896021 -5.20018864 58.41022253 C-5.20295081 62.48093261 -5.20718809 66.55164031 -5.21169281 70.62234879 C-5.22388487 81.8909916 -5.23418468 93.15963251 -5.2375679 104.42828178 C-5.23778747 105.14951576 -5.23800703 105.87074973 -5.23823325 106.61383928 C-5.23845153 107.33680499 -5.23866981 108.0597707 -5.2388947 108.80464447 C-5.23933817 110.26966532 -5.23978473 111.73468618 -5.24023438 113.19970703 C-5.2404558 113.92640898 -5.24067723 114.65311093 -5.24090537 115.40183415 C-5.24485445 127.18030537 -5.26231209 138.95871476 -5.2855939 150.7371621 C-5.30929911 162.82728636 -5.32176935 174.91737959 -5.32293582 187.00752747 C-5.32385299 193.79679934 -5.32961588 200.58599063 -5.34775543 207.37524033 C-5.36475229 213.7593216 -5.36641527 220.14329062 -5.35761642 226.52738953 C-5.35684347 228.87317947 -5.36122251 231.21897748 -5.37107468 233.56474686 C-5.38371746 236.7619261 -5.37795899 239.95855635 -5.36749268 243.1557312 C-5.37554908 244.08851202 -5.38360548 245.02129284 -5.39190602 245.98233974 C-5.3549722 250.79143696 -5.18903958 254.12379473 -2 258 C1.95511521 259.9775576 6.91416303 259.66199872 11.07080078 258.34277344 C13.11367762 257.42568779 15.08518583 256.42581745 17.0625 255.375 C18.55895256 254.63088395 20.05770841 253.89138409 21.55859375 253.15625 C22.3047998 252.78886719 23.05100586 252.42148437 23.81982422 252.04296875 C71.51500512 229.2261924 130.40470938 229.89200046 179.60546875 246.8828125 C192.95585834 251.7115242 206.07438246 257.53585417 218.0078125 265.28515625 C221.65583856 266.59415384 224.63453772 265.62050471 228.08398438 264.05297852 C230.47743081 262.82821513 232.8339466 261.54972003 235.1875 260.25 C236.87640915 259.33892707 238.56650925 258.43005831 240.2578125 257.5234375 C241.47645996 256.86939941 241.47645996 256.86939941 242.71972656 256.20214844 C254.48415922 250 254.48415922 250 258 250 C259.06658044 251.5392695 260.05130906 253.135401 261 254.75 C274.94943359 277.17284986 298.08574866 293.99691236 323.8515625 300.37890625 C331.19348931 301.82725161 338.59665139 302.9182672 346 304 C334.02027027 328.50675676 334.02027027 328.50675676 329.125 332.125 C320.64827355 334.49848341 316.09162647 332.44250967 308.5390625 328.3125 C306.18026113 326.84693339 306.18026113 326.84693339 304 327 C303.79971695 327.58245483 303.5994339 328.16490967 303.39308167 328.76501465 C294.55056252 354.47456635 285.69473375 380.18027849 276.65914917 405.82275391 C275.93234254 407.88705869 275.20732452 409.95199415 274.48416138 412.01757812 C273.47514753 414.89771063 272.45926752 417.77532802 271.44140625 420.65234375 C271.15048096 421.486483 270.85955566 422.32062225 270.55981445 423.18003845 C266.34279701 435.02558025 261.35741002 443.84735148 250 450 C244.34954377 452.64923799 239.3408963 453.52338803 233.125 453.4375 C232.33416016 453.42775146 231.54332031 453.41800293 230.72851562 453.40795898 C220.2268577 453.08975961 213.76442654 449.63594497 206.1953125 442.3515625 C199.38758164 435.05929564 196.56722984 426.95591331 195.625 417.0625 C196.27086349 405.29343193 201.00014954 397.10951535 208 388 C209.26604453 386.333652 210.53163699 384.66696047 211.796875 383 C213.88081932 380.25998531 215.96804024 377.52268579 218.06323242 374.79125977 C221.79826204 369.91961484 225.47352496 365.0245612 229 360 C233.10540162 354.15847453 237.40926061 348.48088642 241.75 342.8125 C247.12830315 335.78296343 252.47901665 328.73549763 257.75 321.625 C258.32202148 320.85905518 258.89404297 320.09311035 259.48339844 319.30395508 C262.65382835 315.00959349 265.45032029 310.69091558 268 306 C266.7625 305.6596875 266.7625 305.6596875 265.5 305.3125 C259.36826623 303.01309984 254.51778383 300.73376902 251.5 294.6875 C251.005 293.470625 250.51 292.25375 250 291 C249.566875 291.78375 249.13375 292.5675 248.6875 293.375 C247 296 247 296 244 298 C242.04043579 298.26069641 242.04043579 298.26069641 239.79150391 298.2746582 C238.94697662 298.28419022 238.10244934 298.29372223 237.23233032 298.30354309 C236.32292694 298.30263168 235.41352356 298.30172028 234.4765625 298.30078125 C233.53823578 298.30506638 232.59990906 298.3093515 231.63314819 298.31376648 C229.64769294 298.31951039 227.66221664 298.32000959 225.67675781 298.31567383 C222.6435131 298.31251925 219.61124872 298.33595355 216.578125 298.36132812 C214.64843873 298.36360169 212.71874984 298.36430435 210.7890625 298.36328125 C209.88370758 298.372491 208.97835266 298.38170074 208.04556274 298.39118958 C203.23240105 298.35595326 199.87480373 298.19740405 196 295 C194.99609375 292.87890625 194.99609375 292.87890625 194.4375 290.5625 C193.46057199 286.5806762 192.19318959 284.61937183 189 282 C186.6665398 280.74748092 184.42683206 279.65475578 182 278.625 C181.30358398 278.32682373 180.60716797 278.02864746 179.88964844 277.72143555 C133.68290297 258.53983744 81.86664647 259.20766427 35.79394531 278.0949707 C31.38744245 279.94172195 27.02531723 281.8715667 22.6875 283.875 C12.52023102 288.53499828 1.95328292 289.99448176 -8.875 286.375 C-19.12067963 282.08716051 -26.43837733 274.83863599 -31.23828125 264.89453125 C-32.58622311 261.54195792 -33.125057 258.48782698 -33.13422108 254.88127708 C-33.13867892 254.06436531 -33.14313676 253.24745354 -33.14772969 252.40578687 C-33.14754533 251.51377753 -33.14736097 250.6217682 -33.14717102 249.70272827 C-33.15084771 248.75081498 -33.1545244 247.79890168 -33.1583125 246.81814253 C-33.16934836 243.62012995 -33.17319303 240.42214987 -33.17700195 237.22412109 C-33.18326669 234.93436581 -33.1899135 232.64461155 -33.19691467 230.3548584 C-33.21795674 222.8277253 -33.2283174 215.300592 -33.23828125 207.7734375 C-33.24232879 205.18205377 -33.24644571 202.59067016 -33.25063133 199.99928665 C-33.26750036 189.2195808 -33.28213483 178.43987865 -33.28938007 167.66016197 C-33.29128986 164.86409885 -33.29321021 162.06803574 -33.29516602 159.27197266 C-33.29564976 158.57705391 -33.2961335 157.88213516 -33.2966319 157.16615827 C-33.30492801 145.91489469 -33.33025862 134.66373757 -33.36274669 123.41252045 C-33.39585391 111.85231171 -33.41349965 100.292173 -33.41702431 88.73191512 C-33.41937451 82.24483416 -33.42833131 75.75792149 -33.45348549 69.27088547 C-33.47677603 63.16578865 -33.48099525 57.06097081 -33.47072411 50.95584106 C-33.47022888 48.71857398 -33.47654546 46.48129312 -33.49028015 44.24406815 C-33.50802195 41.18210423 -33.50088112 38.12113905 -33.48774719 35.05917358 C-33.50420106 33.74123607 -33.50420106 33.74123607 -33.52098733 32.39667356 C-33.42073732 22.66994992 -29.86821723 14.9714257 -23.20703125 7.9765625 C-17.16637692 2.56670216 -8.23614218 -2.50902345 0 0 Z " fill="#F4B540" transform="translate(34,43)"/>
<path d="M0 0 C2.23323438 1.66020763 4.29131872 3.40301727 6.34765625 5.27734375 C7.57548828 6.36789063 7.57548828 6.36789063 8.828125 7.48046875 C22.86099654 20.64292012 31.51009691 39.43654753 32.52734375 58.67578125 C32.9527143 80.46420618 25.62856821 100.05340367 10.76708984 116.02441406 C2.78461928 124.16756895 -6.95087604 130.35443375 -17.65234375 134.27734375 C-18.71195312 134.66921875 -19.7715625 135.06109375 -20.86328125 135.46484375 C-41.0222164 141.87298208 -62.14939744 139.16250793 -80.79663086 129.68896484 C-99.55633609 119.50413777 -111.27360737 102.63848402 -118.15234375 82.77734375 C-123.17856815 63.16609319 -119.99503243 42.13459637 -110.56640625 24.4609375 C-107.6764601 19.65419033 -104.41563461 15.42751498 -100.65234375 11.27734375 C-99.95238281 10.49617188 -99.25242187 9.715 -98.53125 8.91015625 C-87.39882254 -2.87711988 -73.33971276 -9.39639463 -57.65234375 -12.72265625 C-56.88277344 -12.90699219 -56.11320312 -13.09132812 -55.3203125 -13.28125 C-35.40646092 -16.57592823 -16.63583513 -10.80471766 0 0 Z " fill="#E9F5FE" transform="translate(427.65234375,178.72265625)"/>
<path d="M0 0 C2.72554699 2.64538384 5.24906242 5.28698482 7.625 8.25 C26.55461654 30.44665696 54.28855734 38.95097055 82 43 C70.02027027 67.50675676 70.02027027 67.50675676 65.125 71.125 C56.64827355 73.49848341 52.09162647 71.44250967 44.5390625 67.3125 C42.18026113 65.84693339 42.18026113 65.84693339 40 66 C39.69957542 66.87368225 39.69957542 66.87368225 39.39308167 67.76501465 C30.55056252 93.47456635 21.69473375 119.18027849 12.65914917 144.82275391 C11.93234254 146.88705869 11.20732452 148.95199415 10.48416138 151.01757812 C9.47514753 153.89771063 8.45926752 156.77532802 7.44140625 159.65234375 C7.15048096 160.486483 6.85955566 161.32062225 6.55981445 162.18003845 C2.34279701 174.02558025 -2.64258998 182.84735148 -14 189 C-19.65045623 191.64923799 -24.6591037 192.52338803 -30.875 192.4375 C-31.66583984 192.42775146 -32.45667969 192.41800293 -33.27148438 192.40795898 C-43.7731423 192.08975961 -50.23557346 188.63594497 -57.8046875 181.3515625 C-64.61241836 174.05929564 -67.43277016 165.95591331 -68.375 156.0625 C-67.72913651 144.29343193 -62.99985046 136.10951535 -56 127 C-54.73395547 125.333652 -53.46836301 123.66696047 -52.203125 122 C-50.11918068 119.25998531 -48.03195976 116.52268579 -45.93676758 113.79125977 C-42.20173796 108.91961484 -38.52647504 104.0245612 -35 99 C-30.89459838 93.15847453 -26.59073939 87.48088642 -22.25 81.8125 C-16.87169685 74.78296343 -11.52098335 67.73549763 -6.25 60.625 C-5.39196777 59.47608276 -5.39196777 59.47608276 -4.51660156 58.30395508 C-1.34617165 54.00959349 1.45032029 49.69091558 4 45 C3.175 44.773125 2.35 44.54625 1.5 44.3125 C-3.69348742 42.36494222 -8.22992504 39.93601949 -12 35.8125 C-13.88146737 30.52087302 -13.93514102 25.40391562 -11.88720703 20.1394043 C-10.37311192 17.17352972 -8.75642933 14.30429754 -7.0625 11.4375 C-6.49853516 10.44169922 -5.93457031 9.44589844 -5.35351562 8.41992188 C-1.28931052 1.28931052 -1.28931052 1.28931052 0 0 Z " fill="#FDCD65" transform="translate(298,304)"/>
<path d="M0 0 C12.6553024 2.63975633 23.42033961 5.67711849 31 17 C34.407737 23.69666119 35.58365264 29.60261581 35.50793457 37.0567627 C35.51417453 38.01788609 35.5204145 38.97900949 35.52684355 39.96925783 C35.54269079 43.16270379 35.53020157 46.35537765 35.51757812 49.54882812 C35.5230029 51.84932396 35.53012755 54.14981631 35.53881836 56.45030212 C35.5570121 62.67960866 35.55000031 68.90864941 35.53730202 75.13796043 C35.52715398 81.66624019 35.53657271 88.19449764 35.54284668 94.72277832 C35.55138159 106.38606421 35.53817573 118.04923859 35.51780933 129.71250516 C35.49994001 140.27242642 35.50304465 150.83217176 35.52148438 161.39208984 C35.54292433 173.67578317 35.55084051 185.95936444 35.53903532 198.24307394 C35.53280877 204.7378623 35.53194183 211.23252966 35.54518127 217.72731018 C35.55676106 223.83416836 35.54867468 229.94069527 35.52560425 236.04751778 C35.52032859 238.28477492 35.52181126 240.52206007 35.53065491 242.75930595 C35.54163895 245.82098902 35.5278117 248.88162063 35.50793457 251.9432373 C35.51685746 252.82166054 35.52578034 253.70008378 35.53497362 254.6051259 C35.41480815 264.19373765 31.76114207 273.0852727 25.0625 280 C15.98327069 288.57482768 7.00186175 291.40561425 -5.359375 291.36328125 C-12.26429989 290.6742705 -18.80938391 288.09530805 -25 285 C-24.43884402 281.50586877 -23.48470536 280.28974751 -20.6875 278.1875 C-5.43838865 265.34758398 3.48725899 247.80314762 9 229 C9.35320312 227.865625 9.70640625 226.73125 10.0703125 225.5625 C14.64860222 208.0188016 13.72754241 186.18262724 8 169 C7.90491235 166.91262035 7.87099333 164.82228537 7.86869812 162.73274231 C7.86468994 161.41915741 7.86068176 160.10557251 7.85655212 158.75218201 C7.85702723 157.29287718 7.85756334 155.83357237 7.8581543 154.37426758 C7.85512271 152.84002584 7.85160125 151.305785 7.84762573 149.77154541 C7.83973518 146.4648866 7.83459117 143.15823859 7.83133507 139.85157204 C7.82542406 134.61933213 7.80888197 129.38716022 7.78999329 124.154953 C7.78365576 122.3632975 7.77733014 120.57164196 7.77101612 118.77998638 C7.76785031 117.88265549 7.7646845 116.9853246 7.76142275 116.06080186 C7.71936025 103.87933251 7.68638099 91.69789455 7.67407227 79.51635742 C7.66568526 71.30044452 7.64316967 63.08469972 7.6047166 54.86887091 C7.58497515 50.52248096 7.57254493 46.1763422 7.57755089 41.82990456 C7.58220606 37.73808189 7.56834485 33.64673478 7.54053879 29.55500793 C7.53364122 28.05709074 7.533485 26.55912423 7.54073906 25.06120872 C7.58453893 14.9966137 6.65565385 7.98678462 0 0 Z " fill="#F4B440" transform="translate(476,40)"/>
<path d="M0 0 C2.27012813 0.01074039 4.53946545 0.00000868 6.80957031 -0.01269531 C21.32555239 -0.02863297 35.40729782 1.41553115 49.52050781 4.94824219 C50.56827393 5.20516846 51.61604004 5.46209473 52.69555664 5.72680664 C86.61210007 14.27313058 86.61210007 14.27313058 91.27050781 21.26074219 C91.92804206 28.16485178 91.92804206 28.16485178 89.77050781 31.76074219 C86.31273036 33.83540866 83.16975444 33.70322831 79.27050781 33.26074219 C76.43152683 32.43504589 73.78410619 31.26774085 71.08300781 30.07324219 C61.04491985 25.92910632 50.90416504 23.37793137 40.27050781 21.26074219 C39.47435059 21.09558105 38.67819336 20.93041992 37.85791016 20.76025391 C1.36312436 13.44919986 -39.4831815 17.94583539 -73.625 32.45996094 C-76.53502775 33.56725688 -78.66462656 33.83094975 -81.72949219 33.26074219 C-84.60449219 31.76074219 -84.60449219 31.76074219 -86.72949219 29.26074219 C-87.38690764 26.47101403 -87.51223781 24.02464398 -86.72949219 21.26074219 C-79.23417405 11.70646919 -61.02480787 9.13898132 -49.72949219 6.26074219 C-49.00971191 6.07237793 -48.28993164 5.88401367 -47.54833984 5.68994141 C-45.42454011 5.13685344 -43.29700081 4.60186842 -41.16699219 4.07324219 C-39.94882813 3.7703125 -38.73066406 3.46738281 -37.47558594 3.15527344 C-25.09990834 0.5976525 -12.60147186 -0.07052051 0 0 Z " fill="#71C9E9" transform="translate(139.7294921875,221.7392578125)"/>
<path d="M0 0 C2.27012813 0.01074039 4.53946545 0.00000868 6.80957031 -0.01269531 C21.32555239 -0.02863297 35.40729782 1.41553115 49.52050781 4.94824219 C50.56827393 5.20516846 51.61604004 5.46209473 52.69555664 5.72680664 C84.17604365 13.65929069 84.17604365 13.65929069 91.20800781 20.01074219 C92.82070544 23.42586657 92.23162983 25.67255333 91.27050781 29.26074219 C89.70800781 31.69824219 89.70800781 31.69824219 87.27050781 33.26074219 C81.39098541 33.69232415 77.02939466 32.79218973 71.58300781 30.51074219 C70.17656262 29.9545496 68.76899198 29.4011951 67.36035156 28.85058594 C66.66925293 28.57843262 65.9781543 28.3062793 65.26611328 28.02587891 C45.25399081 20.35301472 24.11508768 17.82918421 2.83300781 17.88574219 C2.05392059 17.88628601 1.27483337 17.88682983 0.47213745 17.88739014 C-25.00401552 17.96853782 -49.12667303 23.04178743 -72.81933594 32.37792969 C-75.99218063 33.34043023 -78.43271091 33.56880962 -81.72949219 33.26074219 C-84.60449219 31.19824219 -84.60449219 31.19824219 -86.72949219 28.26074219 C-87.29199219 24.69824219 -87.29199219 24.69824219 -86.72949219 21.26074219 C-79.11186115 11.71575872 -61.10097769 9.15839069 -49.72949219 6.26074219 C-49.00971191 6.07237793 -48.28993164 5.88401367 -47.54833984 5.68994141 C-45.42454011 5.13685344 -43.29700081 4.60186842 -41.16699219 4.07324219 C-39.94882813 3.7703125 -38.73066406 3.46738281 -37.47558594 3.15527344 C-25.09990834 0.5976525 -12.60147186 -0.07052051 0 0 Z " fill="#71C9E9" transform="translate(139.7294921875,177.7392578125)"/>
<path d="M0 0 C0.76441406 0.00310181 1.52882813 0.00620361 2.31640625 0.00939941 C13.86538865 0.06422816 25.27517763 0.352407 36.6875 2.25 C37.40550781 2.3629541 38.12351562 2.4759082 38.86328125 2.59228516 C54.58638275 5.1634666 78.60934247 9.14714803 90.625 20 C92.25392957 23.44949791 91.71964623 25.63748821 90.6875 29.25 C88.6875 31.75 88.6875 31.75 85.6875 33.25 C78.68306207 33.47993678 72.31074154 30.87419012 65.875 28.4375 C55.27820412 24.5908058 44.80770809 22.01090063 33.6875 20.25 C32.6766333 20.07412354 31.6657666 19.89824707 30.62426758 19.71704102 C20.88141271 18.13895815 11.34096423 17.8919076 1.5 17.9375 C0.27385986 17.94023422 0.27385986 17.94023422 -0.97705078 17.94302368 C-13.02185742 17.98824179 -24.53911919 18.54665875 -36.3125 21.25 C-38.02063527 21.60641929 -39.72897963 21.96183757 -41.4375 22.31640625 C-51.31420434 24.44923443 -60.72749834 27.21435561 -70.09765625 31.01464844 C-74.30844573 32.69040874 -77.69439958 33.82299917 -82.3125 33.25 C-85.1875 31.1875 -85.1875 31.1875 -87.3125 28.25 C-87.875 24.6875 -87.875 24.6875 -87.3125 21.25 C-78.83939911 10.58168895 -55.69033425 6.83929943 -42.8125 4.0625 C-42.10254883 3.90765137 -41.39259766 3.75280273 -40.66113281 3.59326172 C-27.13482323 0.82473644 -13.77216417 -0.10013655 0 0 Z " fill="#71C9E9" transform="translate(140.3125,133.75)"/>
<path d="M0 0 C1.26199219 0.19464844 2.52398437 0.38929687 3.82421875 0.58984375 C47.0630206 7.86084625 47.0630206 7.86084625 56 19 C56.71275184 23.35570567 56.46733908 25.2763782 54.0625 29 C49.76670972 31.80541406 46.88987681 31.0093249 42 30 C38.33278425 28.89058433 34.76974059 27.54322335 31.1875 26.1875 C20.57374124 22.34858983 10.15033114 19.69307883 -1 18 C-1.73508789 17.88430664 -2.47017578 17.76861328 -3.22753906 17.64941406 C-37.95532087 12.42240983 -73.90786526 16.03921121 -106.46044922 29.2590332 C-111.0205913 31.01817823 -114.26915277 31.24738013 -119 30 C-121.32480719 28.43266073 -121.86600521 27.60632643 -122.46875 24.87890625 C-122.4790625 24.11449219 -122.489375 23.35007812 -122.5 22.5625 C-122.54640625 21.41974609 -122.54640625 21.41974609 -122.59375 20.25390625 C-121.68875217 16.81848684 -119.95660357 15.90536674 -117 14 C-114.29004392 12.6912019 -111.51901486 11.64045612 -108.6875 10.625 C-107.86209717 10.32754883 -107.03669434 10.03009766 -106.1862793 9.72363281 C-72.66652211 -1.98138306 -35.1538236 -6.05575076 0 0 Z " fill="#71C9E9" transform="translate(403,92)"/>
<path d="M0 0 C1.56935594 3.13871188 1.35201103 5.53855822 1 9 C-0.9375 12 -0.9375 12 -4 14 C-10.67241202 14.32815141 -16.1952769 11.84715412 -22.29907227 9.44287109 C-31.29293475 5.98661568 -40.5819819 3.94452499 -50 2 C-50.76666992 1.83338867 -51.53333984 1.66677734 -52.32324219 1.49511719 C-87.75261517 -5.99389251 -126.80287782 -1.2696905 -160.2409668 11.85253906 C-165.20234656 13.71618898 -168.71579621 14.50028902 -174 13 C-176.32480719 11.43266073 -176.86600521 10.60632643 -177.46875 7.87890625 C-177.4790625 7.11449219 -177.489375 6.35007812 -177.5 5.5625 C-177.54640625 4.41974609 -177.54640625 4.41974609 -177.59375 3.25390625 C-176.68175046 -0.20809201 -174.99957053 -1.09538838 -172 -3 C-169.01869779 -4.33732069 -165.97199665 -5.40060433 -162.875 -6.4375 C-161.55363037 -6.88754395 -161.55363037 -6.88754395 -160.20556641 -7.34667969 C-114.33971871 -22.68166605 -42.1603363 -29.92557204 0 0 Z " fill="#71C9E9" transform="translate(458,65)"/>
<path d="M0 0 C2.72554699 2.64538384 5.24906242 5.28698482 7.625 8.25 C26.55461654 30.44665696 54.28855734 38.95097055 82 43 C70.02027027 67.50675676 70.02027027 67.50675676 65.125 71.125 C55.16322577 73.91429678 48.57263543 69.80131816 40 65 C37.19183689 63.41078284 34.38973617 61.81235836 31.59863281 60.19335938 C26.66845216 57.34432818 21.66352313 54.6521468 16.625 52 C15.82545898 51.57775146 15.02591797 51.15550293 14.20214844 50.72045898 C10.2914831 48.66992729 6.36595967 46.67861992 2.37109375 44.796875 C1.28030518 44.27673828 1.28030518 44.27673828 0.16748047 43.74609375 C-1.18990761 43.10376675 -2.55386199 42.47505199 -3.92529297 41.86328125 C-8.4865755 39.69868633 -10.88607551 37.59871292 -13 33 C-14.70633291 24.58302341 -11.25083294 18.52581375 -7.0625 11.4375 C-6.49853516 10.44169922 -5.93457031 9.44589844 -5.35351562 8.41992188 C-1.28931052 1.28931052 -1.28931052 1.28931052 0 0 Z " fill="#70C8E8" transform="translate(298,304)"/>
<path d="M0 0 C0.33 0 0.66 0 1 0 C1.21914063 1.19753906 1.43828125 2.39507812 1.6640625 3.62890625 C5.69060849 24.6856546 13.54625365 42.9513575 28 59 C28.68578125 59.76828125 29.3715625 60.5365625 30.078125 61.328125 C47.65948073 79.95133884 73.50821012 91.5086193 99.078125 92.30078125 C101.13533036 92.32002592 103.19273464 92.32361339 105.25 92.3125 C106.88352417 92.30512817 106.88352417 92.30512817 108.55004883 92.29760742 C136.95392369 91.88754186 162.4302737 80.20113695 182.3425293 60.07739258 C197.60530592 44.09452125 206.51029838 23.66740112 210 2 C210.33 2 210.66 2 211 2 C211.99384173 30.54534312 198.94058588 55.39904894 179.9765625 75.89453125 C179.32429687 76.58933594 178.67203125 77.28414063 178 78 C177.21625 78.86625 176.4325 79.7325 175.625 80.625 C160.91567513 93.93343678 140.76631712 103.51540707 121 106 C119.76765625 106.15726562 118.5353125 106.31453125 117.265625 106.4765625 C87.81181239 109.49334901 59.75022456 99.35420091 37 81 C36.22011719 80.38640625 35.44023437 79.7728125 34.63671875 79.140625 C14.8411271 62.68531969 2.89233303 37.30791402 0 12 C-0.18866314 7.98233261 -0.20538246 4.01636814 0 0 Z " fill="#E96653" transform="translate(278,241)"/>
<path d="M0 0 C4.03530159 0.61249703 7.13717805 1.9139463 10.74609375 3.80078125 C11.83083984 4.36603516 12.91558594 4.93128906 14.03320312 5.51367188 C15.15662109 6.10728516 16.28003906 6.70089844 17.4375 7.3125 C19.11682617 8.18551758 19.11682617 8.18551758 20.83007812 9.07617188 C26.0693553 11.82173968 31.18333537 14.55952526 36 18 C33.40066626 28.81404604 29.5185548 39.21764121 25.8125 49.6875 C25.15133896 51.56432855 24.49052871 53.4412807 23.83007812 55.31835938 C22.22409461 59.88034208 20.61336681 64.44062347 19 69 C14.34426451 67.05347811 9.84310129 64.96104647 5.359375 62.63671875 C4.75168274 62.32225296 4.14399048 62.00778717 3.5178833 61.68379211 C2.23999697 61.02188549 0.96272087 60.35879951 -0.31396484 59.69458008 C-2.23001404 58.69789623 -4.14802635 57.70507966 -6.06640625 56.71289062 C-7.3204487 56.06276265 -8.57435627 55.41237444 -9.828125 54.76171875 C-10.43974487 54.44476044 -11.05136475 54.12780212 -11.68151855 53.80123901 C-16.42803655 51.32891519 -21.09124442 48.72499809 -25.72167969 46.04223633 C-28.18867831 44.7226687 -28.18867831 44.7226687 -32 45 C-30.63653947 42.09829705 -29.07360381 39.58836398 -27.1640625 37.015625 C-26.59993652 36.2527417 -26.03581055 35.4898584 -25.45458984 34.70385742 C-24.8508252 33.89408447 -24.24706055 33.08431152 -23.625 32.25 C-23.00447754 31.41251221 -22.38395508 30.57502441 -21.74462891 29.7121582 C-17.16295179 23.53652438 -12.55359707 17.38117353 -7.90869141 11.25292969 C-5.1364259 7.5806795 -2.51421708 3.85395248 0 0 Z " fill="#FDCD65" transform="translate(302,350)"/>
<path d="M0 0 C4.9248899 1.46601374 9.20353093 3.5517795 13.6875 6 C14.68233398 6.53367187 14.68233398 6.53367187 15.69726562 7.078125 C18.5518451 8.61896548 21.29912532 10.19941688 24 12 C22.44114585 16.54284758 20.85953112 21.07691017 19.25756836 25.60473633 C18.71727178 27.14166213 18.18293643 28.68069854 17.6550293 30.22192383 C13.27367961 42.99291568 8.61639415 53.50482048 -4 60 C-9.66567964 62.62711606 -14.65004473 63.5235132 -20.875 63.4375 C-21.66583984 63.42775146 -22.45667969 63.41800293 -23.27148438 63.40795898 C-35.0012692 63.05254747 -41.9366274 58.40366172 -50 50 C-52.74814366 46.8730094 -53 46.4000494 -53 42 C-51.77925781 41.52691406 -50.55851563 41.05382812 -49.30078125 40.56640625 C-38.86261814 36.41516611 -29.85039719 31.95841845 -21 25 C-20.25621094 24.43796875 -19.51242187 23.8759375 -18.74609375 23.296875 C-10.92105331 16.98784044 -5.48629156 8.31593293 0 0 Z " fill="#F5B540" transform="translate(288,433)"/>
<path d="M0 0 C0.94528564 -0.02610352 1.89057129 -0.05220703 2.86450195 -0.07910156 C7.14238762 -0.0898936 9.64167342 -0.01915318 13.390625 2.18359375 C16.08118032 5.25148305 16.38351588 7.32709507 16.3125 11.375 C14.54608828 14.17689446 13.28200178 15.89024911 10.3125 17.375 C8.86891545 17.49205229 7.42062104 17.55375722 5.97265625 17.5859375 C5.08441162 17.61204102 4.19616699 17.63814453 3.28100586 17.66503906 C2.32202393 17.69307617 1.36304199 17.72111328 0.375 17.75 C-21.75985568 18.60694927 -43.90331638 22.7972581 -64.47265625 31.13964844 C-68.68344573 32.81540874 -72.06939958 33.94799917 -76.6875 33.375 C-79.5625 31.3125 -79.5625 31.3125 -81.6875 28.375 C-82.25 24.8125 -82.25 24.8125 -81.6875 21.375 C-70.4009537 7.16433638 -36.73898857 3.58827923 -19.875 1.125 C-13.255916 0.38656264 -6.6582292 0.10692445 0 0 Z " fill="#72C9E9" transform="translate(134.6875,89.625)"/>
<path d="M0 0 C2.73198565 0.79868495 5.02092454 1.81916068 7.53735352 3.14599609 C8.9329248 3.87725708 8.9329248 3.87725708 10.35668945 4.62329102 C11.34056641 5.14769775 12.32444336 5.67210449 13.33813477 6.21240234 C14.85842285 7.0135144 14.85842285 7.0135144 16.40942383 7.83081055 C23.71477435 11.69723665 30.96298595 15.66313487 38.15332031 19.73950195 C40.96263505 21.32608236 43.58125189 22.75177472 46.65063477 23.77490234 C46.06694559 29.83376042 44.26325215 35.04848281 42.08813477 40.71240234 C41.7587793 41.58703125 41.42942383 42.46166016 41.09008789 43.36279297 C40.28325639 45.50265043 39.47000296 47.63982098 38.65063477 49.77490234 C34.21687304 49.16823206 30.67838986 47.41795498 26.79516602 45.31005859 C26.13977844 44.96089386 25.48439087 44.61172913 24.80914307 44.25198364 C22.69007654 43.12059852 20.57635443 41.97966628 18.46313477 40.83740234 C17.01396976 40.058261 15.56466926 39.2793716 14.11523438 38.50073242 C11.26088977 36.96564955 8.40907761 35.4259903 5.55883789 33.88330078 C2.24091759 32.08932535 -1.09045524 30.32217522 -4.42749023 28.56396484 C-6.04772946 27.69761385 -7.667568 26.83051274 -9.28686523 25.96240234 C-10.01220459 25.58543213 -10.73754395 25.20846191 -11.48486328 24.82006836 C-13.9889685 23.45587063 -15.98640415 22.32337687 -17.57983398 19.91552734 C-17.1974229 16.36364135 -14.9171012 14.00960843 -12.72436523 11.33740234 C-12.28479492 10.77730469 -11.84522461 10.21720703 -11.39233398 9.64013672 C-10.077347 7.98772639 -8.72378954 6.37806514 -7.34936523 4.77490234 C-6.51663086 3.79392578 -5.68389648 2.81294922 -4.82592773 1.80224609 C-2.34936523 -0.22509766 -2.34936523 -0.22509766 0 0 Z " fill="#EA8072" transform="translate(273.349365234375,394.22509765625)"/>
<path d="M0 0 C1.38904541 -0.0460437 1.38904541 -0.0460437 2.80615234 -0.09301758 C7.36187645 -0.09428564 9.36159382 0.01574752 13.08984375 2.84375 C15 5.5 15 5.5 15.5625 8.5 C14.87642343 12.15907504 13.57265686 13.85167676 11 16.5 C8.3732945 17.81335275 6.214105 17.76407813 3.27734375 17.9296875 C2.1076001 18.0009082 0.93785645 18.07212891 -0.26733398 18.14550781 C-1.51973877 18.22124023 -2.77214355 18.29697266 -4.0625 18.375 C-26.31261712 19.87358896 -47.29029728 24.23173836 -67.9921875 32.71484375 C-71.67507485 33.67622084 -74.3088558 33.3326224 -78 32.5 C-80.78251058 30.16628145 -80.97502272 28.67171882 -81.5 25.0625 C-80.99026928 21.43066865 -80.37613445 20.19229106 -77.74853516 17.73803711 C-74.0494135 15.11890197 -69.70938795 13.89802761 -65.4375 12.5 C-63.90536865 11.98626831 -63.90536865 11.98626831 -62.34228516 11.4621582 C-42.00463981 4.77276532 -21.46205578 0.40773277 0 0 Z " fill="#72C9E9" transform="translate(134,45.5)"/>
<path d="M0 0 C3.20067028 0.54024817 5.75251159 1.20007692 8.55078125 2.84765625 C9.16630859 3.20537109 9.78183594 3.56308594 10.41601562 3.93164062 C11.35477539 4.49141602 11.35477539 4.49141602 12.3125 5.0625 C12.95767578 5.43955078 13.60285156 5.81660156 14.26757812 6.20507812 C15.84878152 7.13037493 17.4249146 8.06432681 19 9 C16.40066626 19.81404604 12.5185548 30.21764121 8.8125 40.6875 C8.15133896 42.56432855 7.49052871 44.4412807 6.83007812 46.31835938 C5.22409461 50.88034208 3.61336681 55.44062347 2 60 C-5.43359375 56.86328125 -5.43359375 56.86328125 -8.96484375 54.95703125 C-9.61904297 54.60576172 -10.27324219 54.25449219 -10.94726562 53.89257812 C-11.60404297 53.53615234 -12.26082031 53.17972656 -12.9375 52.8125 C-13.96327148 52.26045898 -13.96327148 52.26045898 -15.00976562 51.69726562 C-16.67460072 50.80081596 -18.33750649 49.90078477 -20 49 C-13.49368544 32.59822955 -6.83729842 16.26661446 0 0 Z " fill="#F5B541" transform="translate(319,359)"/>
<path d="M0 0 C2.75028114 1.29107084 5.50023373 2.58283341 8.25 3.875 C9.02730469 4.23980469 9.80460937 4.60460937 10.60546875 4.98046875 C11.35957031 5.33496094 12.11367188 5.68945312 12.890625 6.0546875 C13.58188477 6.37937012 14.27314453 6.70405273 14.98535156 7.03857422 C17.00299865 8.00143101 19.00358243 8.99396213 21 10 C20.41631082 16.05885808 18.61261739 21.27358046 16.4375 26.9375 C16.10814453 27.81212891 15.77878906 28.68675781 15.43945312 29.58789062 C14.63262162 31.72774809 13.81936819 33.86491864 13 36 C9.42635641 35.42590968 6.71615696 34.50054964 3.57421875 32.71484375 C2.77822266 32.26689453 1.98222656 31.81894531 1.16210938 31.35742188 C-0.06282227 30.65456055 -0.06282227 30.65456055 -1.3125 29.9375 C-2.14845703 29.46505859 -2.98441406 28.99261719 -3.84570312 28.50585938 C-5.90069265 27.34332244 -7.95187737 26.17457909 -10 25 C-8.09853992 18.97826899 -5.8980151 13.19688332 -3.3125 7.4375 C-2.99216797 6.71498047 -2.67183594 5.99246094 -2.34179688 5.24804688 C-1.56487057 3.49706371 -0.78297505 1.74828676 0 0 Z " fill="#EA6752" transform="translate(299,408)"/>
</svg>
