<?xml version="1.0" encoding="UTF-8"?>
<svg version="1.1" xmlns="http://www.w3.org/2000/svg" width="512" height="512">
<path d="M0 0 C1.45108658 0.00273422 1.45108658 0.00273422 2.93148804 0.00552368 C17.26440977 0.05095174 31.21023917 0.55983928 45.3125 3.3125 C46.65803955 3.55395752 46.65803955 3.55395752 48.03076172 3.80029297 C107.84088904 14.62287989 165.35495829 48.68064457 202.3125 97.3125 C202.72918945 97.85277832 203.14587891 98.39305664 203.57519531 98.94970703 C211.2584873 108.9447116 218.00092968 119.40459036 224.3125 130.3125 C224.70679199 130.98974121 225.10108398 131.66698242 225.50732422 132.36474609 C238.68961173 155.2833756 247.29510918 180.85822563 252.625 206.6875 C252.77243652 207.39817627 252.91987305 208.10885254 253.07177734 208.84106445 C256.05713787 224.48358366 256.6873098 240.11919606 256.625 256 C256.62226578 257.45108658 256.62226578 257.45108658 256.61947632 258.93148804 C256.57404826 273.26440977 256.06516072 287.21023917 253.3125 301.3125 C253.15152832 302.20952637 252.99055664 303.10655273 252.82470703 304.03076172 C242.00212011 363.84088904 207.94435543 421.35495829 159.3125 458.3125 C158.77222168 458.72918945 158.23194336 459.14587891 157.67529297 459.57519531 C147.6802884 467.2584873 137.22040964 474.00092968 126.3125 480.3125 C125.63525879 480.70679199 124.95801758 481.10108398 124.26025391 481.50732422 C101.3416244 494.68961173 75.76677437 503.29510918 49.9375 508.625 C49.22682373 508.77243652 48.51614746 508.91987305 47.78393555 509.07177734 C32.14141634 512.05713787 16.50580394 512.6873098 0.625 512.625 C-0.34239105 512.62317719 -1.3097821 512.62135437 -2.30648804 512.61947632 C-16.63940977 512.57404826 -30.58523917 512.06516072 -44.6875 509.3125 C-45.58452637 509.15152832 -46.48155273 508.99055664 -47.40576172 508.82470703 C-96.75203846 499.89554415 -143.20329606 475.79670394 -178.6875 440.3125 C-180.9923207 440.17786908 -183.30101442 440.10877851 -185.609375 440.06640625 C-187.04167236 440.03344955 -188.47396388 440.00023823 -189.90625 439.96679688 C-192.16857618 439.91950171 -194.43088184 439.87511532 -196.69335938 439.83569336 C-198.8739598 439.7957985 -201.05405589 439.74427719 -203.234375 439.69140625 C-204.54245117 439.6663501 -205.85052734 439.64129395 -207.19824219 439.61547852 C-211.88307728 439.20868588 -214.4424352 438.40572439 -217.98168945 435.2980957 C-220.43110672 431.011002 -220.12458726 427.39046201 -219.98046875 422.54296875 C-219.97057898 420.58138688 -219.96216503 418.61979712 -219.95507812 416.65820312 C-219.92219212 413.59493293 -219.87581794 410.53349225 -219.80102539 407.47094727 C-219.50419074 393.70566019 -220.74888889 384.34388829 -228.62393188 372.90328979 C-240.64613195 354.92156122 -246.60494932 330.55446101 -251.125 309.75 C-251.35985107 308.67041016 -251.59470215 307.59082031 -251.83666992 306.47851562 C-255.21641452 289.91138548 -256.06619096 273.49499073 -256 256.625 C-255.99817719 255.65760895 -255.99635437 254.6902179 -255.99447632 253.69351196 C-255.94904826 239.36059023 -255.44016072 225.41476083 -252.6875 211.3125 C-252.44604248 209.96696045 -252.44604248 209.96696045 -252.19970703 208.59423828 C-241.37712011 148.78411096 -207.31935543 91.27004171 -158.6875 54.3125 C-158.14722168 53.89581055 -157.60694336 53.47912109 -157.05029297 53.04980469 C-147.0552884 45.3665127 -136.59540964 38.62407032 -125.6875 32.3125 C-125.01025879 31.91820801 -124.33301758 31.52391602 -123.63525391 31.11767578 C-100.7166244 17.93538827 -75.14177437 9.32989082 -49.3125 4 C-48.60182373 3.85256348 -47.89114746 3.70512695 -47.15893555 3.55322266 C-31.51641634 0.56786213 -15.88080394 -0.0623098 0 0 Z " fill="#025F80" transform="translate(255.6875,-0.3125)"/>
<path d="M0 0 C1.27156316 -0.00785502 1.27156316 -0.00785502 2.56881446 -0.01586872 C5.42000292 -0.03091537 8.27101266 -0.0315749 11.12223816 -0.03224182 C13.16218368 -0.0398602 15.20212632 -0.04828714 17.24206543 -0.0574646 C22.79170594 -0.07944893 28.34129133 -0.08821386 33.89097047 -0.09329104 C37.35664861 -0.09693015 40.82231223 -0.10316789 44.28798485 -0.11029243 C56.37434399 -0.13480117 68.46066013 -0.14784178 80.54704285 -0.15138245 C91.81980339 -0.15501821 103.09229174 -0.18491305 114.36496907 -0.22678703 C124.03723964 -0.26145871 133.70941988 -0.27693035 143.38175219 -0.27762848 C149.16117862 -0.2784224 154.94032799 -0.28721372 160.71969032 -0.31562614 C166.15590504 -0.3417529 171.59161194 -0.34404195 177.02786064 -0.3279705 C179.02331268 -0.32615169 181.01879355 -0.33288557 183.01418304 -0.34878922 C185.73849363 -0.36917888 188.46101564 -0.35874021 191.18530273 -0.34057617 C191.97509657 -0.35377614 192.76489041 -0.36697611 193.57861739 -0.38057607 C197.44269215 -0.32172603 200.10397737 0.09242113 203.27329254 2.39983273 C206.2921248 5.85707124 206.53453788 7.34286863 206.53829956 11.8780365 C206.55128113 12.85308018 206.55128113 12.85308018 206.56452495 13.84782171 C206.58606012 16.01879634 206.56485292 18.18719319 206.54362488 20.35813904 C206.55012028 21.91725893 206.55918288 23.47636993 206.57061768 25.03546143 C206.59368883 29.26501567 206.57898621 33.49366701 206.55614829 37.72319221 C206.53722743 42.15047102 206.54839138 46.57768939 206.55505371 51.00498962 C206.56139357 58.43974645 206.54312836 65.87414167 206.51042175 73.30882263 C206.47292732 81.90287902 206.47470601 90.4962504 206.49746293 99.090343 C206.51841545 107.35948878 206.51113605 115.62838153 206.49114418 123.89752197 C206.48316 127.41581453 206.48514741 130.93389294 206.49516869 134.45217896 C206.50572335 138.59584525 206.49158382 142.73871375 206.45842552 146.88225365 C206.45022064 148.40238972 206.45049968 149.92259892 206.45990372 151.44272804 C206.47133961 153.51946777 206.45194537 155.59373039 206.42477417 157.67027283 C206.41999825 159.41239925 206.41999825 159.41239925 206.41512585 161.18972015 C205.5887537 165.22278142 203.93691434 166.71319464 200.78312683 169.27415466 C198.01795562 170.1958784 196.39868812 170.39791304 193.55004883 170.39440918 C192.68768112 170.39578384 191.82531342 170.39715851 190.93681335 170.39857483 C189.99382385 170.39497955 189.05083435 170.39138428 188.07926941 170.38768005 C186.58631599 170.38789909 186.58631599 170.38789909 185.0632019 170.38812256 C181.76799859 170.38742498 178.47285155 170.37963977 175.17765808 170.37181091 C172.89508088 170.36994618 170.61250328 170.36852254 168.32992554 170.36752319 C162.31787514 170.36370234 156.30584885 170.3538757 150.29380798 170.34281921 C144.16069362 170.33259584 138.02757538 170.32802358 131.89445496 170.32298279 C119.85733498 170.31225308 107.82023291 170.2951818 95.78312683 170.27415466 C95.4839183 171.03992828 95.18470978 171.8057019 94.87643433 172.59468079 C92.88636967 177.47192372 90.1715004 181.98806341 87.608078 186.58274841 C86.61157647 188.37053993 85.62183627 190.16194767 84.63273621 191.95384216 C81.55370889 197.50941364 78.4060014 203.02549336 75.10734558 208.45384216 C74.32556946 209.74524109 74.32556946 209.74524109 73.52799988 211.06272888 C71.0264271 214.23318449 68.38877762 216.05661488 64.36125183 216.60227966 C63.59297058 216.57649841 62.82468933 216.55071716 62.03312683 216.52415466 C61.25453308 216.50868591 60.47593933 216.49321716 59.67375183 216.47727966 C57.78312683 216.27415466 57.78312683 216.27415466 56.78312683 215.27415466 C56.7795443 216.13306824 56.7795443 216.13306824 56.7758894 217.00933361 C56.7167313 230.94769433 56.64098749 244.88588015 56.54741192 258.82405376 C56.50246265 265.5644849 56.46304608 272.3048633 56.43669128 279.0453949 C56.41124789 285.5488409 56.37033723 292.0520825 56.31994057 298.55538368 C56.30323948 301.03807981 56.29174545 303.52081654 56.28551292 306.00356102 C56.27590737 309.4777175 56.24788933 312.95126941 56.21549988 316.42527771 C56.21693497 317.45458405 56.21837006 318.48389038 56.21984863 319.54438782 C56.13804345 325.73782898 55.38632688 329.23708794 51.28312683 334.02415466 C48.27653785 336.52964548 44.69274568 336.74580165 40.88542175 336.66746521 C36.89293207 335.92052515 34.43017286 333.2200141 31.78312683 330.27415466 C29.49287197 326.82329293 27.60138281 323.21093459 25.72062683 319.52415466 C24.73187891 317.63241093 23.74100147 315.74177866 22.74797058 313.85227966 C22.26698914 312.92995544 21.78600769 312.00763123 21.29045105 311.05735779 C19.2940151 307.3710329 17.11201319 303.81339826 14.8868866 300.26145935 C13.78312683 298.27415466 13.78312683 298.27415466 13.78312683 296.27415466 C12.84280074 296.2793084 11.90247465 296.28446213 10.93365383 296.28977203 C-12.09328024 296.41593888 -35.12021951 296.5411203 -58.14716434 296.66530609 C-69.28344025 296.72538687 -80.41971434 296.78577188 -91.5559845 296.84690857 C-101.27796438 296.90028018 -110.99994735 296.95304486 -120.72193426 297.00512171 C-125.85542793 297.03263992 -130.98891973 297.06043411 -136.12240791 297.08895874 C-138.09530759 297.09988321 -140.06820734 297.11079342 -142.04110718 297.12168884 C-143.00050919 297.12698844 -143.95991121 297.13228805 -144.94838601 297.13774824 C-152.21241672 297.17721801 -159.47646434 297.20892496 -166.7405445 297.23772478 C-171.62244766 297.258369 -176.5040247 297.29168942 -181.38575536 297.33749247 C-184.30414975 297.3635232 -187.2225591 297.38185608 -190.14102066 297.39847469 C-192.09576759 297.41234319 -194.05043281 297.4365417 -196.0050745 297.46111298 C-197.15825892 297.4664077 -198.31144335 297.47170242 -199.49957275 297.47715759 C-200.49110068 297.48623894 -201.48262861 297.49532028 -202.50420284 297.50467682 C-206.89608108 297.13145593 -209.34735197 296.13443085 -212.49819851 293.01708508 C-214.49368948 289.83236781 -214.7164314 288.11721118 -214.71566772 284.38726807 C-214.72524506 283.20845062 -214.73482239 282.02963318 -214.74468994 280.81509399 C-214.73494644 279.53032669 -214.72520294 278.24555939 -214.71516418 276.92185974 C-214.7189894 275.54819653 -214.72461017 274.17453732 -214.73188782 272.80088806 C-214.74382798 269.84665291 -214.74335708 266.89277324 -214.73329353 263.93853188 C-214.71770484 259.25996803 -214.73143177 254.58176754 -214.74932861 249.90322876 C-214.78014093 240.80852508 -214.78165122 231.71393263 -214.77967834 222.6191864 C-214.77828558 211.06118597 -214.78876255 199.50327208 -214.82825607 187.94533461 C-214.84312767 183.30242114 -214.84296536 178.65983111 -214.83077824 174.01691306 C-214.82603983 171.11668425 -214.83362979 168.21657706 -214.8443222 165.3163681 C-214.84784353 163.34785694 -214.83650608 161.37933637 -214.82458496 159.41085815 C-214.86077315 153.02248316 -215.33414409 147.5016611 -217.45991421 141.45395947 C-224.12891679 122.24932012 -220.71208136 100.2643715 -212.61140442 82.12962341 C-201.31915246 59.00739321 -183.75431798 42.75021923 -159.52546692 33.93040466 C-141.28475595 28.11993928 -120.34464802 27.92525656 -102.21687317 34.27415466 C-100.66226379 34.80009216 -100.66226379 34.80009216 -99.07624817 35.33665466 C-76.3660743 43.8975579 -59.13860017 61.48019953 -48.94343567 83.22727966 C-43.83169097 94.75778071 -42.04441742 106.261656 -42.09187317 118.77415466 C-42.08800598 119.7938031 -42.08413879 120.81345154 -42.08015442 121.86399841 C-42.08208801 123.35093201 -42.08208801 123.35093201 -42.08406067 124.86790466 C-42.0851886 125.76186951 -42.08631653 126.65583435 -42.08747864 127.57688904 C-42.21687317 130.27415466 -42.21687317 130.27415466 -43.21687317 136.27415466 C-33.64687317 136.27415466 -24.07687317 136.27415466 -14.21687317 136.27415466 C-14.24043884 130.45174133 -14.24043884 130.45174133 -14.26448059 124.51170349 C-14.31414809 111.69938569 -14.34746356 98.88706939 -14.37230968 86.07468128 C-14.3877772 78.30510361 -14.40886444 70.53561715 -14.44319153 62.76609802 C-14.4730975 55.99401418 -14.49244902 49.2219964 -14.49913865 42.44984835 C-14.50304891 38.86417538 -14.51223594 35.27869139 -14.53406334 31.69307899 C-14.55823534 27.68982695 -14.5588424 23.68690328 -14.55744934 19.68357849 C-14.56823517 18.4953096 -14.579021 17.30704071 -14.59013367 16.08276367 C-14.58600967 14.99046448 -14.58188568 13.89816528 -14.57763672 12.77276611 C-14.5804021 11.82608472 -14.58316748 10.87940332 -14.58601665 9.90403461 C-14.13824399 6.7139787 -13.10767924 4.86495891 -11.21687317 2.27415466 C-7.42335736 -0.25485588 -4.39533713 -0.01332743 0 0 Z " fill="#FCF284" transform="translate(250.2168731689453,141.72584533691406)"/>
<path d="M0 0 C0.84770877 -0.00523668 1.69541754 -0.01047336 2.56881446 -0.01586872 C5.42000292 -0.03091537 8.27101266 -0.0315749 11.12223816 -0.03224182 C13.16218368 -0.0398602 15.20212632 -0.04828714 17.24206543 -0.0574646 C22.79170594 -0.07944893 28.34129133 -0.08821386 33.89097047 -0.09329104 C37.35664861 -0.09693015 40.82231223 -0.10316789 44.28798485 -0.11029243 C56.37434399 -0.13480117 68.46066013 -0.14784178 80.54704285 -0.15138245 C91.81980339 -0.15501821 103.09229174 -0.18491305 114.36496907 -0.22678703 C124.03723964 -0.26145871 133.70941988 -0.27693035 143.38175219 -0.27762848 C149.16117862 -0.2784224 154.94032799 -0.28721372 160.71969032 -0.31562614 C166.15590504 -0.3417529 171.59161194 -0.34404195 177.02786064 -0.3279705 C179.02331268 -0.32615169 181.01879355 -0.33288557 183.01418304 -0.34878922 C185.73849363 -0.36917888 188.46101564 -0.35874021 191.18530273 -0.34057617 C191.97509657 -0.35377614 192.76489041 -0.36697611 193.57861739 -0.38057607 C197.44269215 -0.32172603 200.10397737 0.09242113 203.27329254 2.39983273 C206.2921248 5.85707124 206.53453788 7.34286863 206.53829956 11.8780365 C206.55128113 12.85308018 206.55128113 12.85308018 206.56452495 13.84782171 C206.58606012 16.01879634 206.56485292 18.18719319 206.54362488 20.35813904 C206.55012028 21.91725893 206.55918288 23.47636993 206.57061768 25.03546143 C206.59368883 29.26501567 206.57898621 33.49366701 206.55614829 37.72319221 C206.53722743 42.15047102 206.54839138 46.57768939 206.55505371 51.00498962 C206.56139357 58.43974645 206.54312836 65.87414167 206.51042175 73.30882263 C206.47292732 81.90287902 206.47470601 90.4962504 206.49746293 99.090343 C206.51841545 107.35948878 206.51113605 115.62838153 206.49114418 123.89752197 C206.48316 127.41581453 206.48514741 130.93389294 206.49516869 134.45217896 C206.50572335 138.59584525 206.49158382 142.73871375 206.45842552 146.88225365 C206.45022064 148.40238972 206.45049968 149.92259892 206.45990372 151.44272804 C206.47133961 153.51946777 206.45194537 155.59373039 206.42477417 157.67027283 C206.42159022 158.83169044 206.41840628 159.99310806 206.41512585 161.18972015 C205.5887537 165.22278142 203.93691434 166.71319464 200.78312683 169.27415466 C198.01795562 170.1958784 196.39868812 170.39791304 193.55004883 170.39440918 C192.25649727 170.39647118 192.25649727 170.39647118 190.93681335 170.39857483 C189.99382385 170.39497955 189.05083435 170.39138428 188.07926941 170.38768005 C186.58631599 170.38789909 186.58631599 170.38789909 185.0632019 170.38812256 C181.76799859 170.38742498 178.47285155 170.37963977 175.17765808 170.37181091 C172.89508088 170.36994618 170.61250328 170.36852254 168.32992554 170.36752319 C162.31787514 170.36370234 156.30584885 170.3538757 150.29380798 170.34281921 C144.16069362 170.33259584 138.02757538 170.32802358 131.89445496 170.32298279 C119.85733498 170.31225308 107.82023291 170.2951818 95.78312683 170.27415466 C95.4839183 171.03992828 95.18470978 171.8057019 94.87643433 172.59468079 C92.88636967 177.47192372 90.1715004 181.98806341 87.608078 186.58274841 C86.61157647 188.37053993 85.62183627 190.16194767 84.63273621 191.95384216 C81.55370889 197.50941364 78.4060014 203.02549336 75.10734558 208.45384216 C74.5861615 209.31477478 74.06497742 210.1757074 73.52799988 211.06272888 C71.0379795 214.21854315 68.39210478 216.02925295 64.39640808 216.63743591 C63.25752136 216.61229919 63.25752136 216.61229919 62.09562683 216.58665466 C61.32863464 216.58278748 60.56164246 216.57892029 59.77140808 216.57493591 C57.78312683 216.27415466 57.78312683 216.27415466 55.78312683 214.27415466 C55.53157043 211.3271637 55.53157043 211.3271637 55.52775574 207.50120544 C55.52413528 206.80508148 55.52051483 206.10895752 55.51678467 205.39173889 C55.50988434 203.87812233 55.50738642 202.36448085 55.50873184 200.85084915 C55.50969512 198.45506648 55.49677872 196.05973494 55.47975159 193.66401672 C55.43341953 186.85196955 55.40887248 180.03996717 55.40226746 173.22776794 C55.3972546 169.06259963 55.37301488 164.89790054 55.33694077 160.73289108 C55.32713549 159.14530631 55.32481482 157.55765703 55.33011246 155.97005081 C55.3371779 153.74815459 55.31991367 151.52765698 55.29728699 149.30589294 C55.29443695 148.04173553 55.29158691 146.77757812 55.28865051 145.47511292 C54.69240288 141.69969381 53.79943029 140.54546828 50.78312683 138.27415466 C47.55602403 137.19845373 45.14655273 137.11704306 41.75114441 137.0688324 C40.51008438 137.04888718 39.26902435 137.02894196 37.99035645 137.00839233 C36.63612493 136.99140939 35.2818921 136.97453054 33.92765808 136.95774841 C32.54188424 136.93717239 31.15611658 136.91617574 29.77035522 136.89477539 C26.1257173 136.83962165 22.48102337 136.79018293 18.83628845 136.7419281 C15.11604333 136.6916641 11.3958794 136.63600363 7.67570496 136.58079529 C0.3782477 136.47329567 -6.91927714 136.37183259 -14.21687317 136.27415466 C-14.28696085 119.5410181 -14.33986012 102.80792917 -14.37230968 86.07468128 C-14.3877772 78.30510361 -14.40886444 70.53561715 -14.44319153 62.76609802 C-14.4730975 55.99401418 -14.49244902 49.2219964 -14.49913865 42.44984835 C-14.50304891 38.86417538 -14.51223594 35.27869139 -14.53406334 31.69307899 C-14.55823534 27.68982695 -14.5588424 23.68690328 -14.55744934 19.68357849 C-14.56823517 18.4953096 -14.579021 17.30704071 -14.59013367 16.08276367 C-14.58600967 14.99046448 -14.58188568 13.89816528 -14.57763672 12.77276611 C-14.5804021 11.82608472 -14.58316748 10.87940332 -14.58601665 9.90403461 C-14.13824399 6.7139787 -13.10767924 4.86495891 -11.21687317 2.27415466 C-7.42335736 -0.25485588 -4.39533713 -0.01332743 0 0 Z " fill="#F4A5D0" transform="translate(250.2168731689453,141.72584533691406)"/>
<path d="M0 0 C11.89164828 -0.06953658 23.78324811 -0.12282998 35.67505836 -0.15543652 C41.19701956 -0.17108669 46.71884156 -0.19231336 52.24072266 -0.22631836 C57.57049298 -0.25893458 62.90012948 -0.2768579 68.22999191 -0.28463173 C70.26254762 -0.29017114 72.29509608 -0.30098827 74.32759476 -0.31719017 C77.17640208 -0.33899431 80.0246577 -0.34196565 82.87353516 -0.34057617 C84.13157959 -0.35675491 84.13157959 -0.35675491 85.41503906 -0.3732605 C90.34043627 -0.34729731 93.7524602 0.22957744 98 3 C100.40165953 6.6024893 100.28291124 9.19071894 100.26069641 13.35043335 C100.26452196 14.10492598 100.26834751 14.85941861 100.27228898 15.63677466 C100.28263222 18.17247082 100.27862434 20.7079411 100.2746582 23.24365234 C100.27900398 25.05862132 100.28418668 26.87358846 100.29014587 28.68855286 C100.30356244 33.62452452 100.30411153 38.56041973 100.30158257 43.49640608 C100.30051453 47.61428052 100.30539202 51.7321394 100.310188 55.85001051 C100.32129265 65.5640813 100.32171539 75.27811343 100.31567383 84.9921875 C100.30963392 95.01863054 100.32194332 105.04493326 100.3432439 115.07135236 C100.36084963 123.6744013 100.36686283 132.27740553 100.36360615 140.88047183 C100.36179131 146.02095326 100.36444943 151.16133462 100.37832069 156.30179977 C100.39087747 161.13629887 100.38897532 165.97057903 100.37590981 170.80507469 C100.37353967 172.58001593 100.3762943 174.35497247 100.38453293 176.12989616 C100.39496548 178.55205262 100.3869282 180.97346972 100.3742218 183.39559937 C100.38159609 184.09881423 100.38897037 184.8020291 100.39656812 185.52655351 C100.33839281 190.79417338 98.87055824 193.81768205 95.5 197.75 C92.49341102 200.25549082 88.90961885 200.47164698 85.10229492 200.39331055 C81.10980523 199.64637048 78.64704603 196.94585944 76 194 C73.70974514 190.54913826 71.81825598 186.93677993 69.9375 183.25 C68.94875208 181.35825627 67.95787464 179.46762399 66.96484375 177.578125 C66.24337158 176.19463867 66.24337158 176.19463867 65.50732422 174.78320312 C63.51088827 171.09687824 61.32888636 167.5392436 59.10375977 163.98730469 C58 162 58 162 58 160 C57.05967391 160.00515373 56.11934782 160.01030746 55.150527 160.01561737 C32.12359293 160.14178421 9.09665366 160.26696563 -13.93029118 160.39115143 C-25.06656708 160.4512322 -36.20284117 160.51161721 -47.33911133 160.57275391 C-57.06109121 160.62612552 -66.78307418 160.6788902 -76.50506109 160.73096704 C-81.63855476 160.75848525 -86.77204656 160.78627945 -91.90553474 160.81480408 C-93.87843442 160.82572855 -95.85133417 160.83663876 -97.82423401 160.84753418 C-98.78363602 160.85283378 -99.74303804 160.85813338 -100.73151284 160.86359358 C-107.99554355 160.90306335 -115.25959117 160.93477029 -122.52367133 160.96357012 C-127.40557449 160.98421434 -132.28715153 161.01753476 -137.16888219 161.0633378 C-140.08727658 161.08936854 -143.00568593 161.10770142 -145.92414749 161.12432003 C-147.87889442 161.13818853 -149.83355964 161.16238704 -151.78820133 161.18695831 C-152.94138576 161.19225304 -154.09457018 161.19754776 -155.28269958 161.20300293 C-156.27422751 161.21208427 -157.26575544 161.22116562 -158.28732967 161.23052216 C-162.68101481 160.85714771 -165.13149442 159.85996135 -168.28243637 156.74001789 C-170.27235991 153.56550604 -170.49454704 151.87680047 -170.48101807 148.15971375 C-170.48651672 146.99168716 -170.49201538 145.82366058 -170.49768066 144.62023926 C-170.48329956 143.34781372 -170.46891846 142.07538818 -170.45410156 140.7644043 C-170.45297265 139.40407851 -170.4536078 138.04375028 -170.45587158 136.6834259 C-170.45701798 132.99767472 -170.43352128 129.31244556 -170.40557575 125.62681556 C-170.38054945 121.77246236 -170.37821914 117.91809684 -170.37347412 114.06367493 C-170.36104791 106.76803692 -170.32823125 99.47263902 -170.28807616 92.17710668 C-170.24334729 83.87004851 -170.22136863 75.5629788 -170.20129442 67.25583017 C-170.15949819 50.17041462 -170.08915319 33.08523271 -170 16 C-167.69560454 18.30439546 -166.85063485 20.3481706 -165.5 23.3125 C-160.44817382 33.51353696 -153.56024368 41.64431191 -145.4375 49.5 C-134.15341467 60.46487965 -124.77956482 74.02436132 -123 90 C-123.928125 90.37125 -124.85625 90.7425 -125.8125 91.125 C-129.64554339 93.37973141 -130.62722807 94.80093293 -132 99 C-131.90725608 104.28640344 -130.74060846 107.25939154 -127 111 C-126.01 111.33 -125.02 111.66 -124 112 C-123.89042969 112.64066406 -123.78085938 113.28132813 -123.66796875 113.94140625 C-121.9586246 123.26636497 -119.22970466 130.59002022 -112 137 C-103.51757462 142.28520351 -96.55870332 143.20077188 -86.75 143.25 C-85.73808594 143.270625 -84.72617188 143.29125 -83.68359375 143.3125 C-73.72524732 143.36416457 -65.59361011 140.6531815 -58 134 C-53.97555621 129.10888495 -51.88133418 124.51919916 -51.0625 118.25 C-50.50328157 114.04396349 -49.71913952 112.16777094 -46.4375 109.4375 C-45.50744141 108.78587891 -45.50744141 108.78587891 -44.55859375 108.12109375 C-42.84056023 107.06858606 -42.84056023 107.06858606 -42 105 C-41.59862125 100.82566105 -41.73805697 98.50448287 -43.6875 94.75 C-45.96306368 92.04392427 -47.85998635 90.57000682 -51 89 C-47.09037054 70.51811526 -36.69766068 57.39216654 -23.375 44.5 C-16.7484973 37.89646611 -12.08844872 30.51431326 -7.8125 22.25 C-7.49144287 21.64341553 -7.17038574 21.03683105 -6.83959961 20.41186523 C-4.63076876 15.97993828 -3.2171147 11.48593852 -1.8815918 6.71777344 C-1.52743698 5.4591449 -1.17328217 4.20051636 -0.80839539 2.90374756 C-0.40823967 1.46639252 -0.40823967 1.46639252 0 0 Z " fill="#FC7C43" transform="translate(206,278)"/>
<path d="M0 0 C11.96075236 -0.04626639 23.92148356 -0.08184014 35.88230705 -0.10362434 C41.43573026 -0.11407774 46.98909241 -0.12826523 52.54248047 -0.15087891 C57.89816008 -0.17255192 63.25378082 -0.1845569 68.60950089 -0.18975449 C70.65651502 -0.19346023 72.7035258 -0.20069624 74.75051498 -0.21146011 C77.60962733 -0.22590142 80.46849399 -0.22798104 83.32763672 -0.22705078 C84.60725281 -0.23783661 84.60725281 -0.23783661 85.91271973 -0.24884033 C91.77189568 -0.22810432 91.77189568 -0.22810432 94 2 C94.26501465 4.83982849 94.26501465 4.83982849 94.28710938 8.51342773 C94.29394241 9.18189728 94.30077545 9.85036682 94.30781555 10.53909302 C94.32141588 11.99212206 94.33046125 13.44519914 94.33552551 14.898283 C94.34379888 17.19717553 94.36428872 19.49566778 94.38806152 21.79444885 C94.43634318 26.6754067 94.46924182 31.55640439 94.5 36.4375 C94.53564308 42.08935576 94.57754161 47.74101644 94.63594055 53.39268684 C94.65603115 55.65890694 94.66433337 57.92497826 94.67224121 60.19126892 C94.68521305 61.57991071 94.69873328 62.96854752 94.71289062 64.35717773 C94.72382751 66.17680275 94.72382751 66.17680275 94.73498535 68.03318787 C94.77809162 71.18548104 94.77809162 71.18548104 97 74 C96.69814573 76.95817184 96.33281171 79.33437658 95 82 C94.89321298 84.04623047 94.84451081 86.0956167 94.82421875 88.14453125 C94.80037109 89.37880859 94.77652344 90.61308594 94.75195312 91.88476562 C94.70917936 94.49137283 94.67782343 97.09819382 94.65820312 99.70507812 C94.61663086 101.56229492 94.61663086 101.56229492 94.57421875 103.45703125 C94.55963623 104.59116455 94.54505371 105.72529785 94.5300293 106.89379883 C93.8922581 110.63141419 92.61488404 112.30444173 90 115 C87.47916636 116.26041682 85.76017086 116.12303764 82.93807983 116.12025452 C81.33105949 116.12231651 81.33105949 116.12231651 79.6915741 116.12442017 C78.51122086 116.12082489 77.33086761 116.11722961 76.11474609 116.11352539 C74.87575058 116.11367142 73.63675507 116.11381744 72.36021423 116.1139679 C68.95752498 116.11338953 65.55489597 116.10836527 62.15221739 116.10139394 C58.59811295 116.09515368 55.04400775 116.09455607 51.48989868 116.09336853 C44.75738213 116.0902572 38.02488176 116.08204648 31.29237235 116.07201904 C22.19635946 116.05876471 13.10034216 116.05335639 4.00432205 116.04751682 C-10.3304641 116.03810647 -24.66521608 116.01818622 -39 116 C-39 92.57 -39 69.14 -39 45 C-35.7 45 -32.4 45 -29 45 C-24.34104055 43.18099693 -22.67766803 40.36849116 -20.29296875 36.07421875 C-19.96388016 35.49017776 -19.63479156 34.90613678 -19.29573059 34.30439758 C-18.2477568 32.43845977 -17.21734704 30.56349163 -16.1875 28.6875 C-15.50832915 27.47005098 -14.82799906 26.2532479 -14.14648438 25.03710938 C-12.85619108 22.7326134 -11.57412991 20.4242815 -10.29760742 18.11206055 C-6.92772759 12.0395844 -3.4521263 6.0259417 0 0 Z " fill="#3691BB" transform="translate(346,312)"/>
<path d="M0 0 C4.9577981 2.24504065 7.13939203 5.14849315 9.3203125 9.9609375 C10.23540519 12.70621557 10.28631778 15.13682221 10 18 C10.886875 17.95875 11.77375 17.9175 12.6875 17.875 C16 18 16 18 18.5625 19.0625 C21.62670796 20.24104152 22.93171488 20.15060692 26 19 C28.64587234 16.60414714 28.64587234 16.60414714 31 14 C35.04845885 11.30102744 38.24958572 11.46379804 43 12 C47.13787177 13.74710141 49.79711191 16.0837545 52 20 C52.53744239 24.88923288 52.47556329 29.48414202 51 34.1875 C51 37.85892997 52.12617282 38.7561532 54.5625 41.4375 C57.71511055 44.45367216 57.71511055 44.45367216 61.875 45 C63.421875 44.505 63.421875 44.505 65 44 C69.50500196 43.62155072 73.60590908 43.48479249 77.875 45.0625 C81.91657155 48.74746229 83.75473907 52.25251589 84.5 57.5625 C83.66404037 63.30972246 80.31668844 67.25887002 76 71 C75.34 71 74.68 71 74 71 C74.474375 72.155 74.94875 73.31 75.4375 74.5 C77.02208768 78.68570332 77.60289195 82.55238986 78 87 C78.59167969 87.03738281 79.18335938 87.07476562 79.79296875 87.11328125 C85.7642064 87.61007264 89.70720497 88.39095738 93.8125 93.0625 C95.58368384 97.4438495 95.88346316 101.35095613 95 106 C92.69419752 110.46442607 90.01689326 112.59674922 85.375 114.4375 C82 115 82 115 78 115 C77.34 117.31 76.68 119.62 76 122 C67.09 122 58.18 122 49 122 C49.99 118.7 50.98 115.4 52 112 C52.52866366 108.07682383 52.52503932 104.20652918 52.5 100.25 C52.49427979 99.19594971 52.48855957 98.14189941 52.48266602 97.0559082 C52.14403578 82.21888706 46.46351079 69.75056959 36.375 58.8125 C26.16564031 49.23261914 13.01778105 43.03835415 -1 42 C-1.77085937 41.93683594 -2.54171875 41.87367187 -3.3359375 41.80859375 C-15.80717966 41.24171911 -27.62632796 45.25792743 -38 52 C-39.18529297 52.76957031 -39.18529297 52.76957031 -40.39453125 53.5546875 C-51.73537231 61.63044825 -60.34176863 75.76863759 -62.75 89.515625 C-64.51073613 107.01294032 -60.94713723 123.05199723 -50.25 137.1875 C-44.411254 144.19179604 -37.89411913 148.48907478 -30 153 C-30 161.91 -30 170.82 -30 180 C-31.65 180 -33.3 180 -35 180 C-36.37073786 181.63604196 -37.70055256 183.30678061 -39 185 C-43.79657804 188.23490147 -48.36304753 188.91764343 -54 188 C-58.07466767 185.92562373 -60.35123085 184.25049661 -62 180 C-62.23046875 177.4140625 -62.23046875 177.4140625 -62.1875 174.625 C-62.17847656 173.655625 -62.16945312 172.68625 -62.16015625 171.6875 C-62 169 -62 169 -61.125 165.625 C-61.08375 164.75875 -61.0425 163.8925 -61 163 C-63.76223489 160.23979568 -63.76223489 160.23979568 -67 158 C-67.66 157.01 -68.32 156.02 -69 155 C-69.763125 155.165 -70.52625 155.33 -71.3125 155.5 C-83.56613177 157.16150939 -83.56613177 157.16150939 -87.97265625 155.05859375 C-91.17700978 152.54707342 -93.06447107 149.9292215 -94 146 C-94.45159576 140.9421275 -94.09298888 138.05288198 -91 134 C-90.0925 133.21625 -89.185 132.4325 -88.25 131.625 C-85.61872446 129.15634044 -85.61872446 129.15634044 -86.125 125.6875 C-86.41375 124.470625 -86.7025 123.25375 -87 122 C-87.2046912 120.52311416 -87.3923898 119.04376729 -87.5625 117.5625 C-87.706875 116.386875 -87.85125 115.21125 -88 114 C-89.216875 113.896875 -90.43375 113.79375 -91.6875 113.6875 C-96.67441971 113.04544508 -99.52411723 111.27643915 -103.3125 108 C-105.88513325 103.42642978 -105.87888485 99.12307239 -105 94 C-103.37882638 90.75765277 -101.09611031 88.76727722 -98.125 86.6875 C-95.12659482 85.71742774 -92.12315949 85.36036456 -89 85 C-88.71125 83.948125 -88.4225 82.89625 -88.125 81.8125 C-87 78 -87 78 -85.875 75.25 C-84.81877687 72.93635616 -84.81877687 72.93635616 -85 70 C-86.46701757 68.75622423 -87.94014929 67.51481827 -89.4921875 66.37890625 C-91.94641881 64.13449264 -92.84024977 61.91702776 -93.40625 58.66796875 C-93.59134786 53.77058778 -93.36596151 50.76341554 -90.125 46.9375 C-87.69762623 44.44563079 -86.13993125 43.07893244 -82.57421875 42.83203125 C-81.62160156 42.82558594 -80.66898438 42.81914063 -79.6875 42.8125 C-78.27017578 42.79123047 -78.27017578 42.79123047 -76.82421875 42.76953125 C-73.85593118 43.01175665 -71.69132835 43.75973393 -69 45 C-67.45869965 43.64798215 -65.94245028 42.26736622 -64.4375 40.875 C-63.59058594 40.10929687 -62.74367187 39.34359375 -61.87109375 38.5546875 C-59.67231712 36.12755112 -59.67231712 36.12755112 -60.19921875 33.0390625 C-60.59560547 31.53472656 -60.59560547 31.53472656 -61 30 C-62.02832645 19.54045099 -62.02832645 19.54045099 -58.8125 15.4375 C-54.96487752 12.10289385 -52.59322292 11.17380614 -47.5625 10.625 C-43.25055107 11.07888936 -41.32982309 12.26214546 -38 15 C-36.68 16.65 -35.36 18.3 -34 20 C-29.38 19.01 -24.76 18.02 -20 17 C-19.5875 15.453125 -19.175 13.90625 -18.75 12.3125 C-17.28070227 7.43553524 -15.69777763 3.60162798 -11.14453125 0.8984375 C-7.45707053 -0.64640033 -3.92173114 -0.53199135 0 0 Z " fill="#0DD0B1" transform="translate(266,19)"/>
<path d="M0 0 C1.15371094 0.00322266 2.30742188 0.00644531 3.49609375 0.00976562 C4.68589844 0.01814453 5.87570313 0.02652344 7.1015625 0.03515625 C8.92107422 0.04192383 8.92107422 0.04192383 10.77734375 0.04882812 C13.76046757 0.06057271 16.74348929 0.07699785 19.7265625 0.09765625 C19.7265625 0.42765625 19.7265625 0.75765625 19.7265625 1.09765625 C18.71078125 1.25621094 17.695 1.41476563 16.6484375 1.578125 C7.76723056 3.04839435 -0.13425447 5.10185091 -8.2734375 9.09765625 C-9.20800781 9.55140625 -10.14257812 10.00515625 -11.10546875 10.47265625 C-32.19965948 21.32952644 -46.15845813 39.20547718 -54.2734375 61.09765625 C-54.60214844 61.96261719 -54.93085937 62.82757813 -55.26953125 63.71875 C-59.8341613 77.71840486 -58.89957962 93.81207591 -56.2734375 108.09765625 C-56.10070312 109.04511719 -55.92796875 109.99257813 -55.75 110.96875 C-51.15836893 131.03477407 -37.47671112 147.67208555 -22.80859375 161.40234375 C-20.68769101 163.74451115 -19.02614763 166.46859106 -17.2734375 169.09765625 C-17.2734375 155.56765625 -17.2734375 142.03765625 -17.2734375 128.09765625 C-21.2334375 127.10765625 -25.1934375 126.11765625 -29.2734375 125.09765625 C-32.34375 123.1953125 -32.34375 123.1953125 -34.3984375 121.16015625 C-35.10226563 120.49113281 -35.80609375 119.82210937 -36.53125 119.1328125 C-40.9323948 113.99156487 -40.75829863 109.26070432 -40.6484375 102.6484375 C-39.85123339 95.09991109 -35.98743091 90.16707927 -30.3125 85.38671875 C-23.28258649 80.94252055 -17.45822101 80.66576117 -9.27734375 80.734375 C-8.12983139 80.7338765 -6.98231903 80.73337799 -5.80003357 80.73286438 C-3.38026187 80.73519837 -0.96048745 80.74488687 1.45922852 80.76147461 C5.14817193 80.78505468 8.83639099 80.78203127 12.52539062 80.77539062 C14.88281678 80.78096852 17.24023991 80.78807909 19.59765625 80.796875 C20.69371689 80.79596359 21.78977753 80.79505219 22.91905212 80.79411316 C32.83131299 80.88514663 40.31177584 82.12648931 47.7265625 89.09765625 C53.96732193 96.38884054 54.32505134 102.78655108 53.7265625 112.09765625 C51.91419859 118.21438446 47.76996535 121.4360076 42.7265625 125.09765625 C38.7665625 126.08765625 34.8065625 127.07765625 30.7265625 128.09765625 C30.3965625 150.20765625 30.0665625 172.31765625 29.7265625 195.09765625 C10.2565625 195.09765625 -9.2134375 195.09765625 -29.2734375 195.09765625 C-30.2634375 192.12765625 -31.2534375 189.15765625 -32.2734375 186.09765625 C-37.89092305 173.10880957 -45.12072311 163.09041587 -55.2734375 153.22265625 C-71.85328155 137.06739879 -82.26732833 114.48082304 -82.65356445 91.20849609 C-82.60573665 65.6866668 -73.41493771 42.34139409 -55.2734375 24.09765625 C-40.6277341 10.29775335 -20.42233265 -0.10110066 0 0 Z " fill="#FAEB33" transform="translate(112.2734375,171.90234375)"/>
<path d="M0 0 C12.30130627 9.1537041 21.81078446 21.76969349 25 37 C25.24944693 40.89250602 25.23121759 44.78780307 25.25 48.6875 C25.270625 49.73873047 25.29125 50.78996094 25.3125 51.87304688 C25.32023437 53.42668945 25.32023437 53.42668945 25.328125 55.01171875 C25.3374707 55.94459717 25.34681641 56.87747559 25.35644531 57.83862305 C25 61 25 61 22 70 C86.845 70.495 86.845 70.495 153 71 C153 71.33 153 71.66 153 72 C151.94625026 72.00423194 150.89250051 72.00846388 149.80681896 72.01282406 C124.19431788 72.11591102 98.58184554 72.22464563 72.96939373 72.33933926 C60.58352803 72.39467224 48.19765945 72.44815437 35.81176758 72.49731445 C25.01916749 72.54015535 14.22658862 72.58643312 3.43402129 72.63687855 C-2.28319425 72.66348022 -8.00040558 72.68833335 -13.71764565 72.70907402 C-19.09458292 72.72863438 -24.4714798 72.75277641 -29.84838104 72.78049088 C-31.82572129 72.78986449 -33.8030704 72.79753865 -35.78042412 72.80341911 C-38.47254185 72.81167499 -41.16456142 72.82595028 -43.85664368 72.84178162 C-44.64554955 72.84275972 -45.43445543 72.84373783 -46.24726754 72.84474558 C-49.42867565 72.86893275 -51.95933649 72.9864455 -55 74 C-56.83843448 77.50956292 -57.28251814 80.59512438 -57.4140625 84.51953125 C-57.45273438 85.54111328 -57.49140625 86.56269531 -57.53125 87.61523438 C-57.57765625 89.19788086 -57.57765625 89.19788086 -57.625 90.8125 C-57.66367188 91.88693359 -57.70234375 92.96136719 -57.7421875 94.06835938 C-57.83618613 96.71207088 -57.92184573 99.3557805 -58 102 C-62.06368314 100.43180013 -65.52290122 98.6176798 -69 96 C-69.68191406 95.48953125 -70.36382812 94.9790625 -71.06640625 94.453125 C-81.74717006 85.75991202 -87.92322003 74.31439905 -91 61 C-91.19078125 60.19820313 -91.3815625 59.39640625 -91.578125 58.5703125 C-94.44050167 41.13101763 -89.11858434 25.75601011 -79.30859375 11.55078125 C-59.77395339 -12.40857283 -25.46465682 -16.25592627 0 0 Z " fill="#12B29F" transform="translate(294,70)"/>
<path d="M0 0 C1.14751236 -0.0004985 2.29502472 -0.00099701 3.47731018 -0.00151062 C5.89708188 0.00082337 8.3168563 0.01051187 10.73657227 0.02709961 C14.42551568 0.05067968 18.11373474 0.04765627 21.80273438 0.04101562 C24.16016053 0.04659352 26.51758366 0.05370409 28.875 0.0625 C29.97106064 0.06158859 31.06712128 0.06067719 32.19639587 0.05973816 C42.10865674 0.15077163 49.58911959 1.39211431 57.00390625 8.36328125 C63.24466568 15.65446554 63.60239509 22.05217608 63.00390625 31.36328125 C61.19154234 37.48000946 57.0473091 40.7016326 52.00390625 44.36328125 C48.04390625 45.35328125 44.08390625 46.34328125 40.00390625 47.36328125 C39.67390625 69.47328125 39.34390625 91.58328125 39.00390625 114.36328125 C34.05390625 114.36328125 29.10390625 114.36328125 24.00390625 114.36328125 C23.89067681 105.37460547 23.79905962 96.38640793 23.74484539 87.39717865 C23.71881737 83.22252275 23.68354548 79.04838258 23.62670898 74.87402344 C23.57214393 70.84097773 23.54243466 66.80842619 23.52952003 62.77503967 C23.52032377 61.24089281 23.5023655 59.70677119 23.47525597 58.1728363 C23.20909392 42.48002406 23.20909392 42.48002406 29.00390625 36.36328125 C33.56123077 32.04581148 37.78054464 30.65684041 43.96484375 29.72265625 C45.9920214 29.5663799 45.9920214 29.5663799 47.00390625 28.36328125 C47.51277166 23.31072665 47.51277166 23.31072665 45.19140625 18.98828125 C41.87942666 16.52795356 39.23236228 16.23593465 35.22875977 16.21801758 C34.26088028 16.21163773 33.29300079 16.20525787 32.29579163 16.19868469 C31.25200851 16.19757187 30.2082254 16.19645905 29.1328125 16.1953125 C28.05893784 16.1919841 26.98506317 16.1886557 25.87864685 16.18522644 C23.60652088 16.18016171 21.33438747 16.17781797 19.06225586 16.17797852 C15.58369719 16.17579212 12.10545566 16.15763165 8.62695312 16.13867188 C6.420574 16.13573787 4.21419337 16.13375312 2.0078125 16.1328125 C0.96605362 16.12562698 -0.07570526 16.11844147 -1.14903259 16.11103821 C-2.60558006 16.11565315 -2.60558006 16.11565315 -4.09155273 16.12036133 C-5.37037575 16.1182238 -5.37037575 16.1182238 -6.67503357 16.11604309 C-9.25832788 16.3912143 -10.81730143 16.95867093 -12.99609375 18.36328125 C-15.42554535 22.00745865 -15.1578895 24.07569397 -14.99609375 28.36328125 C-12.64722039 29.34829266 -10.31590468 30.26921921 -7.87109375 30.98828125 C-1.39691487 32.91303713 3.03485516 35.09164346 6.64668274 41.09280396 C8.17977274 44.78706361 8.36639697 47.38997027 8.34448242 51.37841797 C8.34513954 52.38922676 8.34513954 52.38922676 8.34580994 53.42045593 C8.34373462 55.6282641 8.32046476 57.83529471 8.296875 60.04296875 C8.29127453 61.58138616 8.28700656 63.11980895 8.28401184 64.65823364 C8.27259844 68.69265712 8.24316193 72.72675275 8.2098999 76.76104736 C8.17912305 80.88362189 8.16549029 85.00624977 8.15039062 89.12890625 C8.11828837 97.20719792 8.06554957 105.28516093 8.00390625 113.36328125 C3.38390625 113.36328125 -1.23609375 113.36328125 -5.99609375 113.36328125 C-6.01067627 111.4402417 -6.02525879 109.51720215 -6.0402832 107.53588867 C-6.09190837 101.18543935 -6.15718702 94.83524555 -6.23180866 88.48502636 C-6.27655546 84.63448869 -6.31580173 80.78405787 -6.3425293 76.93334961 C-6.36851982 73.2178656 -6.4088911 69.50279185 -6.45928001 65.78756142 C-6.47597771 64.36942964 -6.48747392 62.95122686 -6.49370766 61.53301048 C-6.50331629 59.54817885 -6.53305659 57.56347543 -6.5637207 55.57885742 C-6.57482376 54.44856613 -6.58592682 53.31827484 -6.59736633 52.1537323 C-6.76944613 49.35612609 -6.76944613 49.35612609 -8.38786316 47.50288391 C-10.48114654 46.01956968 -12.07863004 45.92195631 -14.62109375 45.67578125 C-20.93297646 44.59295093 -24.85139178 41.09753134 -28.99609375 36.36328125 C-32.47862713 31.12279173 -31.6292679 24.35864897 -30.99609375 18.36328125 C-28.5115975 10.67687098 -23.07338533 5.57056025 -16.1184082 1.80541992 C-10.9112673 -0.37932877 -5.56047849 -0.04663629 0 0 Z " fill="#E8CE02" transform="translate(102.99609375,252.63671875)"/>
<path d="M0 0 C1.0566259 -0.00744736 1.0566259 -0.00744736 2.13459778 -0.01504517 C4.46425352 -0.02964659 6.79384118 -0.03646521 9.12353516 -0.04199219 C10.74394736 -0.04774508 12.36435955 -0.0535028 13.98477173 -0.05926514 C17.38259193 -0.06976922 20.78038851 -0.07561583 24.17822266 -0.07910156 C28.52839313 -0.08458664 32.87825066 -0.10861726 37.22832298 -0.13707352 C40.57580473 -0.15571246 43.92321126 -0.16090615 47.27074051 -0.16243744 C48.87429135 -0.16546141 50.47784095 -0.17348133 52.08134079 -0.18662262 C54.3266038 -0.20371069 56.57110428 -0.2017966 58.81640625 -0.1953125 C60.09309174 -0.19895813 61.36977722 -0.20260376 62.68515015 -0.20635986 C67.71002845 0.34446337 70.14042137 2.09422047 73.35009766 5.91113281 C75.39076719 9.84131118 75.80412173 11.79194562 75.03759766 16.16113281 C72.90835308 19.42640727 70.55951893 22.40017218 67.03759766 24.16113281 C66.56858938 26.4091126 66.56858938 26.4091126 66.28759766 29.09863281 C64.9334755 37.1192025 61.54050645 43.52133967 55.10009766 48.59863281 C43.15379983 56.70014513 28.26157886 56.96090045 14.35400391 54.51269531 C5.5293092 51.58364771 -1.36453159 45.16552319 -5.96240234 37.16113281 C-8.11190089 32.35035035 -8.14088564 28.3371484 -7.96240234 23.16113281 C-8.82865234 23.06832031 -8.82865234 23.06832031 -9.71240234 22.97363281 C-13.00617345 21.78421547 -14.10957458 20.10010099 -15.96240234 17.16113281 C-17.07811337 13.07019239 -17.23591268 10.90968741 -15.77490234 6.91113281 C-11.65134178 0.6546961 -7.17794847 0.0384372 0 0 Z " fill="#B2CFDF" transform="translate(89.96240234375,366.8388671875)"/>
<path d="M0 0 C6.86527337 4.39377496 11.43926509 11.31779528 14 19 C14.65824294 27.90246593 14.64965808 36.1070619 10 44 C9.51611816 44.8451416 9.03223633 45.6902832 8.53369141 46.56103516 C4.7724399 50.18166558 1.25804833 49.95301217 -3.8046875 50.171875 C-4.76142365 50.22579407 -5.71815979 50.27971313 -6.70388794 50.33526611 C-8.72565187 50.44118363 -10.74810776 50.53453654 -12.77099609 50.61621094 C-15.86055807 50.74937752 -18.94160764 50.94649787 -22.02734375 51.1484375 C-23.99460637 51.24349873 -25.96205653 51.33477016 -27.9296875 51.421875 C-28.84861786 51.48606628 -29.76754822 51.55025757 -30.71432495 51.61639404 C-36.98927601 51.79310809 -36.98927601 51.79310809 -39.87408447 49.52941895 C-41.41975206 47.75483968 -42.72563567 45.97621704 -44 44 C-44.42457489 43.40813904 -44.84914978 42.81627808 -45.28659058 42.20648193 C-48.4077461 37.67137688 -48.38390192 32.75511389 -48.4375 27.4375 C-48.45272705 26.35686279 -48.45272705 26.35686279 -48.46826172 25.25439453 C-48.33734926 17.19866891 -45.10845688 10.30154362 -39.50390625 4.43359375 C-28.5520359 -5.6583145 -13.08993106 -7.64375537 0 0 Z " fill="#025F80" transform="translate(278,92)"/>
<path d="M0 0 C0.89267578 0.00644531 1.78535156 0.01289063 2.70507812 0.01953125 C4.09823242 0.04466797 4.09823242 0.04466797 5.51953125 0.0703125 C6.45990234 0.07933594 7.40027344 0.08835938 8.36914062 0.09765625 C10.69036093 0.12122194 13.01106769 0.15412134 15.33203125 0.1953125 C15.00203125 0.8553125 14.67203125 1.5153125 14.33203125 2.1953125 C13.67203125 2.1953125 13.01203125 2.1953125 12.33203125 2.1953125 C10.67077098 5.84100072 10.07690732 8.69735918 10.05355835 12.69392395 C10.04239487 13.78622314 10.03123138 14.87852234 10.01972961 16.00392151 C10.01756943 17.1921904 10.01540924 18.38045929 10.01318359 19.60473633 C10.00313797 20.86367706 9.99309235 22.1226178 9.98274231 23.41970825 C9.9554844 26.86350434 9.94030547 30.30725962 9.92731428 33.75113511 C9.91166526 37.35331789 9.8848807 40.95541755 9.85928345 44.55754089 C9.81252697 51.37491678 9.77576775 58.19230835 9.74261057 65.00976247 C9.70436703 72.77278089 9.65496273 80.53571577 9.60462642 88.29866374 C9.50135315 104.26415389 9.4124737 120.22969009 9.33203125 136.1953125 C2.73203125 136.1953125 -3.86796875 136.1953125 -10.66796875 136.1953125 C-10.73742178 119.46217123 -10.7909557 102.72908941 -10.82340527 85.99583912 C-10.83887278 78.22626144 -10.85996002 70.45677499 -10.89428711 62.68725586 C-10.92419308 55.91517202 -10.9435446 49.14315423 -10.95023423 42.37100619 C-10.95414449 38.78533321 -10.96333153 35.19984923 -10.98515892 31.61423683 C-11.00933092 27.61098478 -11.00993798 23.60806111 -11.00854492 19.60473633 C-11.01933075 18.41646744 -11.03011658 17.22819855 -11.04122925 16.00392151 C-11.03710526 14.91162231 -11.03298126 13.81932312 -11.0287323 12.69392395 C-11.03149768 11.74724256 -11.03426306 10.80056116 -11.03711224 9.82519245 C-10.58933957 6.63513654 -9.55877482 4.78611675 -7.66796875 2.1953125 C-4.46390413 0.05926942 -3.67196128 -0.04677658 0 0 Z " fill="#EE8AC2" transform="translate(246.66796875,141.8046875)"/>
<path d="M0 0 C2.30439546 2.30439546 3.14936515 4.3481706 4.5 7.3125 C8.15052519 14.77579595 13.25601969 22.90128285 19.61776638 28.39772224 C21.41502901 30.48109939 21.37816833 31.62431437 21.38526917 34.35128784 C21.39491699 35.24008636 21.40456482 36.12888489 21.414505 37.0446167 C21.40992783 38.01715393 21.40535065 38.98969116 21.40063477 39.99169922 C21.40761383 41.01798431 21.4145929 42.04426941 21.42178345 43.10165405 C21.44181956 46.50274788 21.44126022 49.90353979 21.44140625 53.3046875 C21.4531726 55.66497623 21.46653499 58.0252575 21.48143005 60.38552856 C21.51768518 66.6077212 21.53783673 72.82984776 21.55297852 79.05212402 C21.5777683 89.00522225 21.61742374 98.95817433 21.67487907 108.91113663 C21.69122213 112.39048914 21.69498753 115.86970438 21.69789124 119.34909058 C21.7076679 121.4825667 21.71793123 123.61604067 21.72875977 125.74951172 C21.72493034 127.20224487 21.72493034 127.20224487 21.72102356 128.68432617 C21.7036278 135.10071485 21.7036278 135.10071485 24 141 C27.01696409 142.84274976 27.01696409 142.84274976 30 144 C30 144.33 30 144.66 30 145 C26.60423938 145.05830787 23.2086085 145.09369946 19.8125 145.125 C18.85279297 145.14175781 17.89308594 145.15851563 16.90429688 145.17578125 C15.97294922 145.18222656 15.04160156 145.18867188 14.08203125 145.1953125 C13.22843018 145.20578613 12.3748291 145.21625977 11.49536133 145.22705078 C7.28852799 144.84427463 4.82130484 143.85780008 1.87804031 140.78374958 C-0.29323338 137.56535103 -0.49499171 135.99897259 -0.48101807 132.15971375 C-0.48651672 130.99168716 -0.49201538 129.82366058 -0.49768066 128.62023926 C-0.48329956 127.34781372 -0.46891846 126.07538818 -0.45410156 124.7644043 C-0.45297265 123.40407851 -0.4536078 122.04375028 -0.45587158 120.6834259 C-0.45701798 116.99767472 -0.43352128 113.31244556 -0.40557575 109.62681556 C-0.38054945 105.77246236 -0.37821914 101.91809684 -0.37347412 98.06367493 C-0.36104791 90.76803692 -0.32823125 83.47263902 -0.28807616 76.17710668 C-0.24334729 67.87004851 -0.22136863 59.5629788 -0.20129442 51.25583017 C-0.15949819 34.17041462 -0.08915319 17.08523271 0 0 Z " fill="#F96930" transform="translate(36,294)"/>
<path d="M0 0 C0.96149963 -0.00960754 1.92299927 -0.01921509 2.91363525 -0.02911377 C3.95630554 -0.03336365 4.99897583 -0.03761353 6.07324219 -0.04199219 C7.67906158 -0.0505423 7.67906158 -0.0505423 9.31732178 -0.05926514 C11.58702605 -0.06872482 13.85674412 -0.07525295 16.12646484 -0.07910156 C19.59204265 -0.08878871 23.05702288 -0.11979594 26.52246094 -0.15136719 C28.7268845 -0.15789899 30.9313123 -0.16314877 33.13574219 -0.16699219 C34.68760223 -0.18551239 34.68760223 -0.18551239 36.27081299 -0.20440674 C41.69536696 -0.18769441 45.74570771 -0.02059511 50.37011719 3.16113281 C52.81909566 6.83460052 52.68549435 8.82469681 52.37011719 13.16113281 C49.97617494 15.55507506 49.02342464 15.48485135 45.74511719 15.91113281 C40.25200171 16.92867085 36.18296051 19.04009199 32.37011719 23.16113281 C29.69405395 27.68722092 28.98497592 31.03478491 28.93774414 36.26806641 C28.92755249 36.9516925 28.91736084 37.6353186 28.90686035 38.33966064 C28.87687576 40.57971547 28.86748721 42.81934168 28.85839844 45.05957031 C28.84154088 46.62042648 28.82338918 48.18126916 28.80400085 49.74209595 C28.75661135 53.83550807 28.72673081 57.92886549 28.70056152 62.02246094 C28.67069999 66.2055135 28.62418895 70.38837781 28.57910156 74.57128906 C28.49319412 82.76782653 28.42733349 90.9643448 28.37011719 99.16113281 C23.42011719 99.16113281 18.47011719 99.16113281 13.37011719 99.16113281 C13.36077148 97.21416504 13.35142578 95.26719727 13.34179688 93.26123047 C13.30613265 86.79504402 13.25224852 80.3292052 13.18621445 73.86326027 C13.14687231 69.94674746 13.11461951 66.03045502 13.09912109 62.11376953 C13.08386613 58.3268596 13.0492671 54.54055605 13.00180817 50.75391769 C12.98708467 49.31645382 12.97908141 47.87890332 12.97823334 46.44136429 C12.96667072 36.66066423 12.44509934 27.94923685 5.87011719 20.22363281 C2.08709071 17.45461343 -2.5049728 16.75237701 -7.02050781 15.83691406 C-9.62988281 15.16113281 -9.62988281 15.16113281 -11.62988281 13.16113281 C-12.06738281 9.84863281 -12.06738281 9.84863281 -11.62988281 6.16113281 C-7.95826696 1.7165452 -5.65359459 0.04552528 0 0 Z " fill="#FCF282" transform="translate(98.6298828125,267.8388671875)"/>
<path d="M0 0 C1.2452243 -0.00281982 2.49044861 -0.00563965 3.77340698 -0.00854492 C5.1660768 -0.00660033 6.55874648 -0.00455214 7.95141602 -0.00241089 C9.40805098 -0.00376489 10.86468561 -0.00554481 12.32131958 -0.00772095 C16.28815163 -0.01229548 20.25495779 -0.01050564 24.22179031 -0.00734186 C28.36400678 -0.00481836 32.50622095 -0.00715577 36.6484375 -0.00872803 C43.60587972 -0.01054975 50.56331134 -0.00814334 57.52075195 -0.00338745 C65.57609755 0.00205518 73.63141783 0.00029252 81.68676281 -0.00521386 C88.590353 -0.0097449 95.49393555 -0.01039558 102.39752674 -0.00777519 C106.52624235 -0.00621237 110.65494604 -0.00601879 114.78366089 -0.00931168 C118.66431748 -0.01219027 122.5449413 -0.01021492 126.42559433 -0.00441742 C127.85390035 -0.00308976 129.28220912 -0.00348404 130.71051407 -0.00568008 C132.65222325 -0.00839131 134.59393843 -0.00439701 136.53564453 0 C137.62482681 0.00037703 138.71400909 0.00075405 139.8361969 0.0011425 C142.26782227 0.12698364 142.26782227 0.12698364 143.26782227 1.12698364 C143.36675166 3.29179161 143.39753327 5.45992149 143.39282227 7.62698364 C143.39540039 8.81292114 143.39797852 9.99885864 143.40063477 11.22073364 C143.26782227 14.12698364 143.26782227 14.12698364 142.26782227 15.12698364 C140.35918178 15.22575934 138.44683911 15.25330572 136.53564453 15.25396729 C134.66780807 15.25819702 134.66780807 15.25819702 132.76223755 15.26251221 C131.36956773 15.26056761 129.97689805 15.25851942 128.58422852 15.25637817 C127.12759355 15.25773217 125.67095892 15.25951209 124.21432495 15.26168823 C120.2474929 15.26626277 116.28068674 15.26447293 112.31385422 15.26130915 C108.17163775 15.25878565 104.02942358 15.26112305 99.88720703 15.26269531 C92.92976481 15.26451704 85.97233319 15.26211062 79.01489258 15.25735474 C70.95954699 15.25191211 62.9042267 15.25367476 54.84888172 15.25918114 C47.94529153 15.26371219 41.04170898 15.26436286 34.13811779 15.26174247 C30.00940219 15.26017965 25.88069849 15.25998607 21.75198364 15.26327896 C17.87132705 15.26615755 13.99070323 15.26418221 10.1100502 15.2583847 C8.68174418 15.25705704 7.25343542 15.25745133 5.82513046 15.25964737 C3.88342128 15.26235859 1.9417061 15.2583643 0 15.25396729 C-1.08918228 15.25359026 -2.17836456 15.25321323 -3.30055237 15.25282478 C-5.73217773 15.12698364 -5.73217773 15.12698364 -6.73217773 14.12698364 C-6.83110713 11.96217568 -6.86188874 9.79404579 -6.85717773 7.62698364 C-6.85975586 6.44104614 -6.86233398 5.25510864 -6.86499023 4.03323364 C-6.63438361 -1.0129819 -4.53271046 0.00156902 0 0 Z " fill="#EC74B6" transform="translate(286.732177734375,212.87301635742188)"/>
<path d="M0 0 C-1.02738281 0.27972656 -2.05476563 0.55945312 -3.11328125 0.84765625 C-18.36766182 5.18231504 -30.87283184 12.2748612 -39.375 26.1875 C-40.26199263 27.78506683 -41.13865871 29.38845823 -42 31 C-42.86625 32.4540625 -42.86625 32.4540625 -43.75 33.9375 C-49.5569842 48.1646113 -48.97460876 66.61663978 -43.5 80.81640625 C-41.06644961 85.98136346 -38.19796945 90.60642671 -34.33203125 94.81640625 C-32.47074007 97.86761378 -32.7063391 100.21130333 -32.8125 103.75 C-32.85310547 105.50570312 -32.85310547 105.50570312 -32.89453125 107.296875 C-32.92933594 108.18890625 -32.96414062 109.0809375 -33 110 C-37.06368314 108.43180013 -40.52290122 106.6176798 -44 104 C-44.68191406 103.48953125 -45.36382812 102.9790625 -46.06640625 102.453125 C-56.74717006 93.75991202 -62.92322003 82.31439905 -66 69 C-66.19078125 68.19820313 -66.3815625 67.39640625 -66.578125 66.5703125 C-69.44050167 49.13101763 -64.11858434 33.75601011 -54.30859375 19.55078125 C-43.86056287 6.73620843 -16.65412518 -9.67635514 0 0 Z " fill="#01998C" transform="translate(269,62)"/>
<path d="M0 0 C1.03487045 -0.00281982 2.06974091 -0.00563965 3.13597107 -0.00854492 C4.85343285 -0.00550858 4.85343285 -0.00550858 6.60559082 -0.00241089 C8.40293419 -0.00503937 8.40293419 -0.00503937 10.23658752 -0.00772095 C13.53196686 -0.0113791 16.82728378 -0.01050606 20.12265968 -0.00734186 C23.56419588 -0.00481785 27.00572933 -0.00715591 30.44726562 -0.00872803 C36.22774741 -0.0105496 42.00821644 -0.00814373 47.78869629 -0.00338745 C54.48075429 0.00205515 61.17278182 0.00029248 67.86483908 -0.00521386 C73.60071115 -0.00974533 79.33657402 -0.01039537 85.0724473 -0.00777519 C88.50252183 -0.0062126 91.93258202 -0.00601814 95.36265564 -0.00931168 C99.18453159 -0.01272479 103.00637315 -0.00800009 106.82824707 -0.00241089 C108.54570885 -0.00544724 108.54570885 -0.00544724 110.29786682 -0.00854492 C111.33273727 -0.0057251 112.36760773 -0.00290527 113.43383789 0 C114.79107342 0.00056554 114.79107342 0.00056554 116.17572784 0.0011425 C118.21691895 0.12698364 118.21691895 0.12698364 119.21691895 1.12698364 C119.31584834 3.29179161 119.34662995 5.45992149 119.34191895 7.62698364 C119.34578613 9.40588989 119.34578613 9.40588989 119.34973145 11.22073364 C119.21691895 14.12698364 119.21691895 14.12698364 118.21691895 15.12698364 C116.62501922 15.22512559 115.02875988 15.25330271 113.43383789 15.25396729 C111.88153221 15.25819702 111.88153221 15.25819702 110.29786682 15.26251221 C109.1528923 15.26048798 108.00791779 15.25846375 106.82824707 15.25637817 C105.0309037 15.25900665 105.0309037 15.25900665 103.19725037 15.26168823 C99.90187103 15.26534639 96.60655411 15.26447334 93.31117821 15.26130915 C89.86964201 15.25878514 86.42810856 15.2611232 82.98657227 15.26269531 C77.20609048 15.26451689 71.42562145 15.26211102 65.6451416 15.25735474 C58.95308361 15.25191214 52.26105607 15.2536748 45.56899881 15.25918114 C39.83312674 15.26371262 34.09726387 15.26436265 28.36139059 15.26174247 C24.93131606 15.26017989 21.50125587 15.25998543 18.07118225 15.26327896 C14.2493063 15.26669207 10.42746474 15.26196738 6.60559082 15.25637817 C5.4606163 15.2584024 4.31564178 15.26042664 3.13597107 15.26251221 C1.58366539 15.25828247 1.58366539 15.25828247 0 15.25396729 C-0.90482368 15.25359026 -1.80964737 15.25321323 -2.74188995 15.25282478 C-4.78308105 15.12698364 -4.78308105 15.12698364 -5.78308105 14.12698364 C-5.88201045 11.96217568 -5.91279206 9.79404579 -5.90808105 7.62698364 C-5.91065918 6.44104614 -5.9132373 5.25510864 -5.91589355 4.03323364 C-5.70144603 -0.65938282 -4.2503758 0.00177106 0 0 Z " fill="#EC74B6" transform="translate(310.7830810546875,242.87301635742188)"/>
<path d="M0 0 C0.92548645 -0.00281982 1.8509729 -0.00563965 2.80450439 -0.00854492 C4.33962677 -0.00550858 4.33962677 -0.00550858 5.90576172 -0.00241089 C6.97719421 -0.00416321 8.04862671 -0.00591553 9.15252686 -0.00772095 C12.71351719 -0.01214189 16.27445833 -0.00920062 19.83544922 -0.00582886 C22.29785166 -0.00650183 24.76025404 -0.00747179 27.22265625 -0.00872803 C32.3911197 -0.01020533 37.5595659 -0.0080494 42.72802734 -0.00338745 C49.36985649 0.00230985 56.01164524 -0.00096898 62.6534729 -0.00695992 C67.74048164 -0.01056465 72.82748072 -0.00942734 77.91448975 -0.00683212 C80.36423752 -0.00616261 82.81398615 -0.00699211 85.26373291 -0.00931168 C88.68089132 -0.01183677 92.09798329 -0.00799962 95.51513672 -0.00241089 C96.53855164 -0.00443512 97.56196655 -0.00645935 98.61639404 -0.00854492 C100.00462372 -0.00431519 100.00462372 -0.00431519 101.42089844 0 C102.22985565 0.00037703 103.03881287 0.00075405 103.87228394 0.0011425 C105.71044922 0.12698364 105.71044922 0.12698364 106.71044922 1.12698364 C106.80937862 3.29179161 106.84016022 5.45992149 106.83544922 7.62698364 C106.83931641 9.40588989 106.83931641 9.40588989 106.84326172 11.22073364 C106.71044922 14.12698364 106.71044922 14.12698364 105.71044922 15.12698364 C104.28331302 15.22468566 102.85137492 15.25330059 101.42089844 15.25396729 C100.49541199 15.25678711 99.56992554 15.25960693 98.61639404 15.26251221 C97.08127167 15.25947586 97.08127167 15.25947586 95.51513672 15.25637817 C94.44370422 15.25813049 93.37227173 15.25988281 92.26837158 15.26168823 C88.70738125 15.26610918 85.14644011 15.2631679 81.58544922 15.25979614 C79.12304678 15.26046911 76.6606444 15.26143908 74.19824219 15.26269531 C69.02977874 15.26417261 63.86133254 15.26201669 58.69287109 15.25735474 C52.05104195 15.25165744 45.4092532 15.25493627 38.76742554 15.2609272 C33.6804168 15.26453194 28.59341771 15.26339463 23.50640869 15.26079941 C21.05666092 15.2601299 18.60691229 15.26095939 16.15716553 15.26327896 C12.74000712 15.26580406 9.32291515 15.2619669 5.90576172 15.25637817 C4.8823468 15.2584024 3.85893188 15.26042664 2.80450439 15.26251221 C1.41627472 15.25828247 1.41627472 15.25828247 0 15.25396729 C-0.80895721 15.25359026 -1.61791443 15.25321323 -2.4513855 15.25282478 C-4.28955078 15.12698364 -4.28955078 15.12698364 -5.28955078 14.12698364 C-5.38848018 11.96217568 -5.41926179 9.79404579 -5.41455078 7.62698364 C-5.41712891 6.44104614 -5.41970703 5.25510864 -5.42236328 4.03323364 C-5.2173199 -0.4535981 -4.0764268 0.00189987 0 0 Z " fill="#EC74B6" transform="translate(323.28955078125,182.87301635742188)"/>
<path d="M0 0 C1.36298721 -0.00422974 1.36298721 -0.00422974 2.75350952 -0.00854492 C4.26057968 -0.00550858 4.26057968 -0.00550858 5.7980957 -0.00241089 C7.37598373 -0.00503937 7.37598373 -0.00503937 8.98574829 -0.00772095 C12.48180769 -0.01214179 15.97781699 -0.00920065 19.47387695 -0.00582886 C21.8914389 -0.00650183 24.30900078 -0.0074718 26.7265625 -0.00872803 C31.80086916 -0.01020532 36.87515826 -0.00804945 41.94946289 -0.00338745 C48.47022398 0.00230985 54.99094391 -0.00096899 61.51170349 -0.00695992 C66.50606601 -0.01056469 71.50041869 -0.00942733 76.49478149 -0.00683212 C78.89987188 -0.00616262 81.30496313 -0.00699207 83.71005249 -0.00931168 C87.06494531 -0.01183683 90.41977046 -0.00799953 93.7746582 -0.00241089 C94.77937164 -0.00443512 95.78408508 -0.00645935 96.81924438 -0.00854492 C97.72790253 -0.0057251 98.63656067 -0.00290527 99.57275391 0 C100.36696243 0.00037703 101.16117096 0.00075405 101.97944641 0.0011425 C103.78637695 0.12698364 103.78637695 0.12698364 104.78637695 1.12698364 C104.85909437 3.48011919 104.87008563 5.83532033 104.84887695 8.18948364 C104.83985352 9.47983521 104.83083008 10.77018677 104.8215332 12.09963989 C104.80993164 13.09866333 104.79833008 14.09768677 104.78637695 15.12698364 C90.59181654 15.15031394 76.39725908 15.16789705 62.20268345 15.17879581 C55.6123291 15.18402537 49.02198759 15.19112431 42.43164062 15.2024231 C36.07745677 15.21324942 29.7232853 15.21925993 23.36909294 15.22186089 C20.93888084 15.2237156 18.50866946 15.22733708 16.0784626 15.2327137 C12.68754714 15.23992075 9.29668355 15.24097473 5.90576172 15.24050903 C4.8901265 15.24410431 3.87449127 15.24769958 2.82807922 15.25140381 C1.90956177 15.25002914 0.99104431 15.24865448 0.04469299 15.24723816 C-0.7581887 15.24815995 -1.56107038 15.24908175 -2.38828182 15.25003147 C-4.21362305 15.12698364 -4.21362305 15.12698364 -5.21362305 14.12698364 C-5.31255244 11.96217568 -5.34333405 9.79404579 -5.33862305 7.62698364 C-5.34120117 6.44104614 -5.3437793 5.25510864 -5.34643555 4.03323364 C-5.14291741 -0.42022196 -4.04790611 0.00192162 0 0 Z " fill="#FC5426" transform="translate(185.213623046875,367.8730163574219)"/>
<path d="M0 0 C7.74736896 5.43189591 12.07159973 15.21479918 15 24 C15.73409778 33.81149919 15.45761563 45.97122343 9 54 C6.30078125 54.48828125 6.30078125 54.48828125 3.3125 54.3125 C2.31863281 54.26738281 1.32476562 54.22226563 0.30078125 54.17578125 C-0.45847656 54.11777344 -1.21773438 54.05976563 -2 54 C-1.57847656 53.16855469 -1.15695312 52.33710938 -0.72265625 51.48046875 C-0.17480469 50.39378906 0.37304688 49.30710938 0.9375 48.1875 C1.48277344 47.10855469 2.02804687 46.02960938 2.58984375 44.91796875 C6.07608766 37.7040513 6.48590766 28.618201 4.0234375 20.96484375 C2.81904286 18.51541538 1.51818359 16.26627406 0 14 C-0.598125 13.071875 -1.19625 12.14375 -1.8125 11.1875 C-8.31717723 4.68282277 -15.96747505 1.73331274 -25.125 1.5 C-33.70274184 1.62651537 -40.553197 3.97670204 -46.96875 9.78125 C-48.46621154 11.45488348 -49.75538638 13.13307957 -51 15 C-51.598125 15.886875 -52.19625 16.77375 -52.8125 17.6875 C-56.59904174 25.06129182 -56.4236665 36.26822877 -54.05859375 44.12890625 C-51.70263767 48.96637093 -48.63540104 53.05299316 -45 57 C-45.66 57 -46.32 57 -47 57 C-49.4021604 61.8043208 -49.61122229 66.73103895 -50 72 C-59.48823273 63.32504436 -64.63412595 51.49744516 -65.453125 38.7109375 C-65.75367233 29.71683935 -65.95419493 20.84670626 -61 13 C-60.56429687 12.30132812 -60.12859375 11.60265625 -59.6796875 10.8828125 C-44.94218264 -10.45838306 -21.33468433 -12.6416845 0 0 Z " fill="#0DCEB0" transform="translate(286,87)"/>
<path d="M0 0 C0.74958984 0.00451172 1.49917969 0.00902344 2.27148438 0.01367188 C4.11852383 0.02543646 5.96552213 0.04337135 7.8125 0.0625 C7.01457031 0.83722656 6.21664062 1.61195313 5.39453125 2.41015625 C2.01941868 5.87717808 0.96152469 8.2742037 0.5625 13.0625 C0.82971586 16.26909034 1.13008629 18.30945939 2.8125 21.0625 C8.04086247 23.437994 13.07378632 23.35772032 18.69921875 23.37109375 C20.62565434 23.39623263 22.55208657 23.42163093 24.47851562 23.44726562 C27.50039952 23.47610181 30.52222534 23.50013725 33.54418945 23.51879883 C36.47115481 23.54038517 39.3974751 23.57979261 42.32421875 23.62109375 C43.23048508 23.62120956 44.1367514 23.62132538 45.07048035 23.6214447 C45.91177994 23.63478348 46.75307953 23.64812225 47.61987305 23.66186523 C48.72857002 23.66947121 48.72857002 23.66947121 49.85966492 23.67723083 C52.37109387 24.17270336 53.29567341 25.02859624 54.8125 27.0625 C54.39144737 31.48355263 54.39144737 31.48355263 52.8125 33.0625 C50.52261219 33.22138092 48.22806559 33.31388073 45.93359375 33.37890625 C45.2469313 33.39968735 44.56026886 33.42046844 43.85279846 33.44187927 C41.65197065 33.50744143 39.45102025 33.56629015 37.25 33.625 C35.76105486 33.66817892 34.27212227 33.711793 32.78320312 33.75585938 C29.12643447 33.8631293 25.46952682 33.96437772 21.8125 34.0625 C20.82781732 37.06380772 20.82781732 37.06380772 21.7109375 39.9921875 C25.74004397 45.30037539 30.11933804 48.65744694 35.8125 52.0625 C36.8025 52.7225 37.7925 53.3825 38.8125 54.0625 C34.68788319 54.20938806 30.56395076 54.29710044 26.4375 54.375 C25.28121094 54.41689453 24.12492187 54.45878906 22.93359375 54.50195312 C13.04878299 54.6415691 6.11161704 52.38152542 -1.125 45.5625 C-7.41691992 38.72409878 -9.50355036 32.22796054 -9.1875 23.0625 C-10.05375 22.9696875 -10.05375 22.9696875 -10.9375 22.875 C-14.2312711 21.68558266 -15.33467224 20.00146818 -17.1875 17.0625 C-18.30321103 12.97155957 -18.46101033 10.81105459 -17 6.8125 C-12.60606176 0.14583508 -7.50520874 -0.08521198 0 0 Z " fill="#89B8D2" transform="translate(91.1875,366.9375)"/>
<path d="M0 0 C0.83640015 0.00202423 1.67280029 0.00404846 2.5345459 0.00613403 C3.84908752 0.00350555 3.84908752 0.00350555 5.19018555 0.00082397 C8.10186717 -0.00359576 11.0134886 -0.00065613 13.9251709 0.00271606 C15.93916841 0.00204306 17.95316585 0.00107306 19.96716309 -0.00018311 C24.19405895 -0.00166024 28.42093373 0.00049499 32.64782715 0.00515747 C38.07897622 0.01085476 43.51007589 0.00757584 48.94122314 0.00158501 C53.10176977 -0.00202018 57.26230459 -0.00088222 61.42285156 0.0017128 C63.42602545 0.00238219 65.42920039 0.00155324 67.43237305 -0.00076675 C70.22687642 -0.00329258 73.02129861 0.00054632 75.8157959 0.00613403 C77.07039612 0.00309769 77.07039612 0.00309769 78.3503418 0 C84.06090848 0.02126614 84.06090848 0.02126614 85.1751709 1.13552856 C85.27410029 3.30033653 85.3048819 5.46846641 85.3001709 7.63552856 C85.30403809 9.41443481 85.30403809 9.41443481 85.3079834 11.22927856 C85.1751709 14.13552856 85.1751709 14.13552856 84.1751709 15.13552856 C81.38064819 15.23604731 78.61080735 15.2716875 75.8157959 15.2649231 C74.93943481 15.26667542 74.06307373 15.26842773 73.16015625 15.27023315 C70.24847462 15.27465289 67.3368532 15.27171326 64.4251709 15.26834106 C62.41117338 15.26901407 60.39717595 15.26998406 58.38317871 15.27124023 C54.15628285 15.27271737 49.92940807 15.27056214 45.70251465 15.26589966 C40.27136557 15.26020236 34.84026591 15.26348128 29.40911865 15.26947212 C25.24857203 15.27307731 21.08803721 15.27193935 16.92749023 15.26934433 C14.92431635 15.26867494 12.92114141 15.26950389 10.91796875 15.27182388 C8.12346538 15.27434971 5.32904319 15.27051081 2.5345459 15.2649231 C1.69814575 15.26694733 0.86174561 15.26897156 0 15.27105713 C-5.71056668 15.24979099 -5.71056668 15.24979099 -6.8248291 14.13552856 C-6.9237585 11.9707206 -6.95454011 9.80259071 -6.9498291 7.63552856 C-6.95240723 6.44959106 -6.95498535 5.26365356 -6.9576416 4.04177856 C-6.72454859 -1.05884489 -4.55707305 0.01697053 0 0 Z " fill="#EC74B6" transform="translate(344.8248291015625,272.8644714355469)"/>
<path d="M0 0 C0.79899719 0.00202423 1.59799438 0.00404846 2.42120361 0.00613403 C3.67722382 0.00350555 3.67722382 0.00350555 4.95861816 0.00082397 C7.74043825 -0.00359545 10.52219532 -0.00065624 13.30401611 0.00271606 C15.22833264 0.00204305 17.15264909 0.00107305 19.07696533 -0.00018311 C23.11554776 -0.0016602 27.15410812 0.00049485 31.19268799 0.00515747 C36.38170122 0.01085476 41.57066274 0.00757582 46.75967407 0.00158501 C50.73492831 -0.00202029 54.7101702 -0.00088216 58.6854248 0.0017128 C60.59928392 0.00238215 62.51314413 0.00155335 64.42700195 -0.00076675 C67.09697461 -0.00329277 69.76686232 0.00054658 72.43682861 0.00613403 C73.23582581 0.0041098 74.034823 0.00208557 74.85803223 0 C80.31475362 0.02126607 80.31475362 0.02126607 81.42901611 1.13552856 C81.42901611 5.75552856 81.42901611 10.37552856 81.42901611 15.13552856 C52.38901611 15.13552856 23.34901611 15.13552856 -6.57098389 15.13552856 C-6.57098389 0.0256086 -6.57098389 0.0256086 0 0 Z " fill="#FC5426" transform="translate(208.57098388671875,397.8644714355469)"/>
<path d="M0 0 C9.79268299 -1.69488744 18.00319601 2.81521487 26 8 C36.60800086 15.73688122 45.8453868 26.7475071 49.75 39.4375 C50.12486865 43.27990366 50.27076859 47.14552945 50 51 C49 52 49 52 46.0625 52.0625 C40.23800927 51.09372061 36.2636383 46.79981154 32 43 C31.49130371 42.55156738 30.98260742 42.10313477 30.45849609 41.64111328 C4.87224936 19.00083099 4.87224936 19.00083099 -1 5 C-0.625 2.25 -0.625 2.25 0 0 Z " fill="#FDF6BB" transform="translate(140,192)"/>
<path d="M0 0 C0.66178253 -0.00175232 1.32356506 -0.00350464 2.00540161 -0.00531006 C4.20284615 -0.00972764 6.40021083 -0.00679094 8.59765625 -0.00341797 C10.11840836 -0.00409104 11.63916037 -0.00506108 13.15991211 -0.00631714 C16.35108461 -0.00779398 19.54222917 -0.00563999 22.73339844 -0.00097656 C26.83280155 0.00472073 30.93213921 0.00144165 35.03153992 -0.00454903 C38.17297869 -0.008155 41.31440183 -0.00701589 44.45584106 -0.00442123 C45.96778369 -0.00375207 47.47972771 -0.00458003 48.9916687 -0.00690079 C51.10125512 -0.00942792 53.21073412 -0.00558591 55.3203125 0 C56.52308838 0.00079559 57.72586426 0.00159119 58.96508789 0.00241089 C61.66015625 0.12939453 61.66015625 0.12939453 62.66015625 1.12939453 C62.73287366 3.48253008 62.74386493 5.83773122 62.72265625 8.19189453 C62.71363281 9.48224609 62.70460938 10.77259766 62.6953125 12.10205078 C62.68371094 13.10107422 62.67210937 14.10009766 62.66015625 15.12939453 C53.68094848 15.1525202 44.70175088 15.17031076 35.72251987 15.1812067 C31.55352797 15.18643504 27.38455638 15.1935318 23.21557617 15.20483398 C19.19557939 15.21566461 15.1756022 15.22167174 11.15559196 15.22427177 C9.6185265 15.22612571 8.08146216 15.22974572 6.54440498 15.23512459 C4.39880138 15.24233737 2.2532797 15.24338538 0.10766602 15.24291992 C-1.11589096 15.24514053 -2.33944794 15.24736115 -3.6000824 15.24964905 C-6.33984375 15.12939453 -6.33984375 15.12939453 -7.33984375 14.12939453 C-7.43877315 11.96458657 -7.46955475 9.79645668 -7.46484375 7.62939453 C-7.46742188 6.44345703 -7.47 5.25751953 -7.47265625 4.03564453 C-7.23269403 -1.2152935 -4.67901254 0.003095 0 0 Z " fill="#FC5426" transform="translate(227.33984375,337.87060546875)"/>
<path d="M0 0 C3.04569423 2.31737605 4.73181298 3.77825913 5.5625 7.5625 C4.80305462 10.85342997 3.71077642 12.00258579 1 14 C-1.9375 15.0625 -1.9375 15.0625 -5 15 C-8.40406682 12.55795207 -9.7998726 11.08958249 -10.5625 6.9375 C-9.41392435 0.9393827 -5.90610218 -1.08479428 0 0 Z " fill="#ADCEDF" transform="translate(413,381)"/>
<path d="M0 0 C3.04569423 2.31737605 4.73181298 3.77825913 5.5625 7.5625 C4.80305462 10.85342997 3.71077642 12.00258579 1 14 C-1.9375 15.0625 -1.9375 15.0625 -5 15 C-8.40406682 12.55795207 -9.7998726 11.08958249 -10.5625 6.9375 C-9.41392435 0.9393827 -5.90610218 -1.08479428 0 0 Z " fill="#ADCEDF" transform="translate(388,381)"/>
<path d="M0 0 C2.9375 2.125 2.9375 2.125 5 5 C5 8.24291156 4.58703627 10.10399726 2.8125 12.8125 C0.10399726 14.58703627 -1.75708844 15 -5 15 C-8.40406682 12.55795207 -9.7998726 11.08958249 -10.5625 6.9375 C-9.41392435 0.9393827 -5.90610218 -1.08479428 0 0 Z " fill="#ACCDDE" transform="translate(438,381)"/>
<path d="M0 0 C3.06057041 3.06057041 4.0463345 6.95902992 5.5859375 10.95703125 C7.42013924 14.90411179 9.39224627 18.10680348 13.25 20.25 C15 22 15 22 15.25 24.18359375 C15.25 26.46907812 15.17196791 28.7214252 15 31 C6.50951331 23.23726931 3.02944621 13.86733256 0 3 C0 2.01 0 1.02 0 0 Z " fill="#09B49D" transform="translate(221,128)"/>
</svg>
