<?xml version="1.0" encoding="UTF-8"?>
<svg version="1.1" xmlns="http://www.w3.org/2000/svg" width="512" height="512">
<path d="M0 0 C1.03861569 -0.00569124 2.07723138 -0.01138248 3.14732027 -0.01724619 C4.28698606 -0.01842606 5.42665185 -0.01960594 6.60085297 -0.02082157 C8.41862724 -0.0284533 8.41862724 -0.0284533 10.27312422 -0.03623921 C13.63859806 -0.04923682 17.00402778 -0.05772542 20.36951685 -0.0642122 C23.25588793 -0.07058786 26.14224131 -0.08065734 29.02860135 -0.09077286 C38.53832252 -0.12408218 48.04805446 -0.14561641 57.55781484 -0.16397271 C60.03490112 -0.1687692 62.51198697 -0.17375235 64.9890728 -0.17877793 C80.37845882 -0.20975233 95.76784863 -0.2364318 111.15725708 -0.25319672 C114.72126014 -0.25714608 118.28526313 -0.26114909 121.84926605 -0.2652216 C122.73505952 -0.26622996 123.62085299 -0.26723832 124.53348869 -0.26827724 C138.87443554 -0.28527465 153.21520954 -0.32637402 167.55607206 -0.37724458 C182.28709775 -0.42906825 197.01803467 -0.45814527 211.74915075 -0.4653936 C220.01704742 -0.47005003 228.2846611 -0.48473987 236.55246735 -0.5251379 C243.59572525 -0.55951116 250.63864909 -0.5733479 257.68198603 -0.56071376 C261.27254393 -0.55490365 264.86239599 -0.55863222 268.45284653 -0.5888834 C272.35483662 -0.62148947 276.25588314 -0.60703624 280.15798187 -0.58844852 C281.8407119 -0.61364092 281.8407119 -0.61364092 283.55743647 -0.63934225 C292.54218476 -0.53280362 300.04881127 2.1553758 307.04075289 7.913086 C316.00422969 17.20480601 316.47215976 28.7523855 316.38855743 40.98017025 C316.39245601 42.56717802 316.39810091 44.15418229 316.40532833 45.74117839 C316.42002069 50.07728015 316.40993902 54.41301644 316.39559162 58.74910617 C316.38445035 63.43489975 316.39643476 68.12064339 316.40543365 72.80643368 C316.41934602 81.9755071 316.41182504 91.14444254 316.39675807 100.31350936 C316.37987521 110.99521475 316.38311105 121.67688599 316.38685215 132.3586006 C316.39272692 151.41834722 316.37857343 170.47802772 316.35390472 189.53775692 C316.32997835 208.02606337 316.32290359 226.51428151 316.33339691 245.00260067 C316.34480895 265.1456576 316.34673316 285.28867371 316.33229882 305.43173015 C316.330773 307.57993531 316.32925265 309.72814047 316.32773781 311.87634563 C316.32697999 312.9332527 316.32622218 313.99015977 316.3254414 315.07909433 C316.32070132 322.52247596 316.32254801 329.96583934 316.32680321 337.4092207 C316.33173229 346.48022808 316.32573446 355.55115202 316.30590891 364.6221403 C316.29604498 369.24908062 316.29092216 373.87589392 316.29880142 378.502841 C316.30586999 382.74043808 316.29902616 386.97777912 316.28119779 391.21534251 C316.27716098 392.74611442 316.27814029 394.27690976 316.28471666 395.80767287 C316.33334437 408.18869781 315.07464968 417.30121552 306.51235199 426.7648077 C297.98923436 434.47619984 290.79467722 435.43654904 279.70766449 435.3351202 C278.53976379 435.33229031 277.3718631 435.32946041 276.16857147 435.32654476 C272.44972608 435.31537743 268.73112422 435.29027874 265.01235199 435.2648077 C262.48631381 435.25477346 259.96027184 435.24564839 257.43422699 435.23746395 C251.25185266 435.21544935 245.06961973 435.18200585 238.88735199 435.1398077 C238.89734474 436.04610424 238.89734474 436.04610424 238.90753937 436.9707098 C238.97426181 443.29801736 239.01930484 449.62522384 239.05214691 455.95279598 C239.06716977 458.30960816 239.08759395 460.66639268 239.11367035 463.02310848 C239.1503402 466.42405712 239.16714395 469.82463391 239.18032074 473.2257452 C239.1958046 474.26782131 239.21128845 475.30989742 239.22724152 476.3835516 C239.22969283 487.2047205 236.86013331 495.47636231 229.63735199 503.7023077 C223.49022566 509.15089695 218.06155299 512.25308288 209.77470398 512.2796154 C208.73608829 512.28530664 207.6974726 512.29099789 206.62738371 512.29686159 C205.48771792 512.29804147 204.34805213 512.29922134 203.17385101 512.30043697 C201.9620015 512.30552479 200.75015199 512.31061261 199.50157976 512.31585461 C196.13610592 512.32885222 192.7706762 512.33734082 189.40518713 512.34382761 C186.51881605 512.35020326 183.63246267 512.36027274 180.74610263 512.37038826 C171.23638146 512.40369758 161.72664952 512.42523181 152.21688914 512.44358811 C149.73980286 512.4483846 147.26271701 512.45336775 144.78563118 512.45839334 C129.39624516 512.48936774 114.00685535 512.5160472 98.6174469 512.53281212 C95.05344384 512.53676149 91.48944085 512.5407645 87.92543793 512.544837 C87.03964446 512.54584536 86.15385099 512.54685372 85.24121529 512.54789264 C70.90026844 512.56489005 56.55949444 512.60598943 42.21863192 512.65685999 C27.48760622 512.70868365 12.75666931 512.73776068 -1.97444677 512.74500901 C-10.24234344 512.74966543 -18.50995712 512.76435527 -26.77776337 512.8047533 C-33.82102127 512.83912656 -40.86394511 512.8529633 -47.90728205 512.84032916 C-51.49783995 512.83451905 -55.08769201 512.83824762 -58.67814255 512.8684988 C-62.58013264 512.90110487 -66.48117916 512.88665164 -70.38327789 512.86806393 C-72.06600792 512.89325632 -72.06600792 512.89325632 -73.78273249 512.91895765 C-82.59446726 512.81447057 -90.41469807 510.29692785 -97.11883211 504.36457628 C-103.44045563 497.59457558 -106.23427283 489.79919162 -106.24407578 480.67568588 C-106.24715473 479.70030413 -106.24715473 479.70030413 -106.25029588 478.70521769 C-106.2559691 476.51720178 -106.25450823 474.32924875 -106.2530899 472.14122677 C-106.25567336 470.5602647 -106.25868646 468.97930329 -106.26209331 467.39834279 C-106.27016893 463.04654809 -106.27195319 458.69476989 -106.27269077 454.34296858 C-106.27454036 449.65229354 -106.28208723 444.96162708 -106.28882599 440.27095699 C-106.302414 430.01058738 -106.30843481 419.75022167 -106.31283665 409.48984456 C-106.31559837 403.08418046 -106.31983561 396.67851788 -106.32434082 390.2728548 C-106.33653427 372.54038526 -106.34683332 354.80791692 -106.35021591 337.07544327 C-106.35054526 335.372706 -106.35054526 335.372706 -106.35088126 333.63557 C-106.35120868 331.92873726 -106.35120868 331.92873726 -106.35154271 330.18742305 C-106.35198618 327.88159358 -106.35243274 325.57576412 -106.35288239 323.26993465 C-106.35310382 322.12616138 -106.35332524 320.98238811 -106.35355338 319.80395504 C-106.35750139 301.27073991 -106.37495515 282.7375641 -106.39824191 264.20436416 C-106.42195247 245.18043373 -106.43441763 226.15652304 -106.43558383 207.1325776 C-106.43650077 196.4498138 -106.44225797 185.76710123 -106.46040344 175.08435154 C-106.47580045 165.98757135 -106.48092725 156.89085822 -106.47266534 147.79406748 C-106.46875739 143.1529885 -106.46969556 138.51204456 -106.48372269 133.87098217 C-106.49645278 129.62017039 -106.49527192 125.36959526 -106.48313197 121.11878385 C-106.48117343 119.58308498 -106.4842607 118.04736939 -106.49297634 116.51169399 C-106.55699216 104.46720816 -105.25505683 94.51591483 -97.11264801 85.1398077 C-88.55589141 77.96317313 -80.8202996 76.84489307 -69.93296051 76.9444952 C-68.76505981 76.9473251 -67.59715912 76.95015499 -66.39386749 76.95307064 C-62.6750221 76.96423797 -58.95642024 76.98933666 -55.23764801 77.0148077 C-52.71160983 77.02484194 -50.18556786 77.03396701 -47.65952301 77.04215145 C-41.47714868 77.06416606 -35.29491575 77.09760955 -29.11264801 77.1398077 C-29.12264076 76.23351116 -29.12264076 76.23351116 -29.13283539 75.3089056 C-29.19955783 68.98159805 -29.24460086 62.65439156 -29.27744293 56.32681942 C-29.29246579 53.97000724 -29.31288997 51.61322272 -29.33896637 49.25650692 C-29.37563622 45.85555828 -29.39243997 42.45498149 -29.40561676 39.0538702 C-29.42110062 38.01179409 -29.43658447 36.96971798 -29.45253754 35.8960638 C-29.45498885 25.0748949 -27.08542933 16.80325309 -19.86264801 8.5773077 C-13.71552168 3.12871845 -8.28684901 0.02653252 0 0 Z " fill="#FED15C" transform="translate(151.1126480102539,-0.13980770111083984)"/>
<path d="M0 0 C0.89388127 -0.00583219 1.78776254 -0.01166439 2.70873111 -0.01767331 C4.1910472 -0.01200433 4.1910472 -0.01200433 5.70330906 -0.00622082 C6.74829062 -0.01004636 7.79327217 -0.01387191 8.86991984 -0.01781338 C12.39455702 -0.02818645 15.9190326 -0.02414308 19.44368076 -0.02018261 C21.96124517 -0.0245267 24.47880826 -0.02970882 26.99636936 -0.03567028 C33.13865061 -0.04770689 39.28087163 -0.05020774 45.42316239 -0.04787002 C50.41403658 -0.04608957 55.40489748 -0.0478306 60.39577007 -0.05209446 C61.1051254 -0.05268965 61.81448073 -0.05328484 62.54533168 -0.05389806 C63.98622342 -0.05510977 65.42711516 -0.0563239 66.86800689 -0.05754044 C80.39184627 -0.06842603 93.91566074 -0.06624869 107.43950153 -0.06015559 C119.82077726 -0.05498567 132.20197432 -0.06624203 144.58323448 -0.08525381 C157.28578914 -0.10460994 169.98830655 -0.11289212 182.69087607 -0.10913056 C189.82661753 -0.1072151 196.96229204 -0.10973943 204.09802151 -0.1238451 C210.80631662 -0.13697121 217.51442832 -0.13452921 224.22273159 -0.12143421 C226.69029893 -0.11905742 229.15787721 -0.12184221 231.62543201 -0.13005733 C234.98320184 -0.14043342 238.34043238 -0.13249779 241.69818211 -0.11974621 C242.68416211 -0.12712049 243.67014211 -0.13449478 244.68600029 -0.14209253 C246.03073381 -0.13128271 246.03073381 -0.13128271 247.40263367 -0.12025452 C248.1780776 -0.12030953 248.95352153 -0.12036455 249.75246376 -0.12042123 C252.33816049 0.36142696 253.21767752 1.15016546 254.7642374 3.25447559 C255.05910145 6.07341704 255.16882133 8.67156523 255.14518833 11.49153614 C255.1498683 12.34136161 255.15454828 13.19118708 255.15937006 14.06676483 C255.17137191 16.925065 255.16184264 19.7828903 255.152421 22.64119434 C255.15648439 24.68600718 255.16182496 26.73081782 255.16835117 28.77562428 C255.18205815 34.33750864 255.17671216 39.89922655 255.16721392 45.46111393 C255.15963482 51.27334267 255.16665805 57.08555686 255.17137241 62.89778614 C255.17683508 72.65961238 255.16962495 82.42137061 255.15535069 92.18318653 C255.13902323 103.47980132 255.14431137 114.77625368 255.1608299 126.07286453 C255.17443022 135.76037934 255.17637155 145.44784517 255.16851389 155.13536644 C255.16382937 160.92634781 255.16323389 166.71725276 255.17312336 172.50822926 C255.18176959 177.95174125 255.17581405 183.39504322 255.15844059 188.83853245 C255.15446319 190.84006749 255.15563108 192.84162011 255.16222858 194.84314823 C255.17038478 197.56814501 255.16019459 200.29246199 255.14518833 203.01741505 C255.1518805 203.81594741 255.15857266 204.61447977 255.16546762 205.43721008 C255.10803375 210.78669278 255.10803375 210.78669278 253.51324242 212.9566285 C251.31484253 214.58794853 250.12421866 214.62939879 247.40263367 214.6292057 C246.50614465 214.63641225 245.60965564 214.64361879 244.68600029 214.65104371 C243.70002029 214.64366943 242.71404029 214.63629514 241.69818211 214.6286974 C240.65164056 214.6326718 239.60509901 214.63664621 238.52684408 214.64074105 C235.00289306 214.65040312 231.47933959 214.63852214 227.95539951 214.62679005 C225.4360651 214.6292167 222.91673164 214.63293479 220.39740086 214.63785267 C214.2548877 214.6463018 208.11252324 214.64073202 201.97002047 214.62858973 C194.8217459 214.61498432 187.67349944 214.61660626 180.52521522 214.61872306 C167.77438012 214.6219144 155.02360086 214.61023648 142.27278233 214.59065723 C129.89027805 214.57164845 117.50783921 214.56457054 105.12532139 214.57014942 C91.6511505 214.57620216 78.1770084 214.57603975 64.70283991 214.56466359 C63.26714997 214.56345626 61.83146002 214.56225027 60.39577007 214.56104565 C59.68932423 214.56044211 58.98287839 214.55983857 58.2550251 214.55921674 C53.26806609 214.55533165 48.28111778 214.55573348 43.29415798 214.55763149 C36.58751559 214.55997059 29.88096984 214.55145206 23.17434216 214.5355711 C20.70635801 214.53131256 18.23836532 214.53048815 15.77037907 214.5332613 C12.41459499 214.53646114 9.05906681 214.52745702 5.70330906 214.515172 C4.22099298 214.52084099 4.22099298 214.52084099 2.70873111 214.5266245 C1.81484985 214.52079231 0.92096858 214.51496011 0 214.50895119 C-0.77528158 214.50808441 -1.55056316 214.50721763 -2.34933811 214.50632459 C-4.2357626 214.25447559 -4.2357626 214.25447559 -6.2357626 212.25447559 C-6.4335306 209.48839134 -6.50497379 206.82231867 -6.48972988 204.0550127 C-6.49284986 203.19716899 -6.49596984 202.33932528 -6.49918437 201.4554863 C-6.50719888 198.56419528 -6.50082734 195.67311214 -6.49455166 192.78181934 C-6.49725999 190.71582891 -6.50082003 188.64983944 -6.50517178 186.58385181 C-6.51431684 180.96002444 -6.51074282 175.33627016 -6.5044136 169.71244144 C-6.49936454 163.83834855 -6.504042 157.96426208 -6.50718594 152.09016895 C-6.51082878 142.22402792 -6.50601814 132.35791678 -6.49650478 122.49178028 C-6.48561964 111.07079739 -6.48914499 99.64988589 -6.50015759 88.22890472 C-6.50922141 78.43867441 -6.51052019 68.64846565 -6.50528026 58.8582325 C-6.50215556 53.00412608 -6.50176486 47.15005327 -6.50835323 41.29594898 C-6.51411292 35.79340095 -6.51015514 30.29094533 -6.49856472 24.78840733 C-6.49591074 22.7638753 -6.49669572 20.73933555 -6.50109005 18.71480656 C-6.50651794 15.96107735 -6.49974514 13.20764832 -6.48972988 10.45393848 C-6.49642205 9.23907465 -6.49642205 9.23907465 -6.50324941 7.99966812 C-6.46284575 2.31145173 -5.95040841 0.00665265 0 0 Z " fill="#F9F6F7" transform="translate(93.23576259613037,117.7455244064331)"/>
<path d="M0 0 C1.03861569 -0.00569124 2.07723138 -0.01138248 3.14732027 -0.01724619 C4.28698606 -0.01842606 5.42665185 -0.01960594 6.60085297 -0.02082157 C8.41862724 -0.0284533 8.41862724 -0.0284533 10.27312422 -0.03623921 C13.63859806 -0.04923682 17.00402778 -0.05772542 20.36951685 -0.0642122 C23.25588793 -0.07058786 26.14224131 -0.08065734 29.02860135 -0.09077286 C38.53832252 -0.12408218 48.04805446 -0.14561641 57.55781484 -0.16397271 C60.03490112 -0.1687692 62.51198697 -0.17375235 64.9890728 -0.17877793 C80.37845882 -0.20975233 95.76784863 -0.2364318 111.15725708 -0.25319672 C114.72126014 -0.25714608 118.28526313 -0.26114909 121.84926605 -0.2652216 C122.73505952 -0.26622996 123.62085299 -0.26723832 124.53348869 -0.26827724 C138.87443554 -0.28527465 153.21520954 -0.32637402 167.55607206 -0.37724458 C182.28709775 -0.42906825 197.01803467 -0.45814527 211.74915075 -0.4653936 C220.01704742 -0.47005003 228.2846611 -0.48473987 236.55246735 -0.5251379 C243.59572525 -0.55951116 250.63864909 -0.5733479 257.68198603 -0.56071376 C261.27254393 -0.55490365 264.86239599 -0.55863222 268.45284653 -0.5888834 C272.35483662 -0.62148947 276.25588314 -0.60703624 280.15798187 -0.58844852 C281.8407119 -0.61364092 281.8407119 -0.61364092 283.55743647 -0.63934225 C292.54218476 -0.53280362 300.04881127 2.1553758 307.04075289 7.913086 C316.00422969 17.20480601 316.47215976 28.7523855 316.38855743 40.98017025 C316.39245601 42.56717802 316.39810091 44.15418229 316.40532833 45.74117839 C316.42002069 50.07728015 316.40993902 54.41301644 316.39559162 58.74910617 C316.38445035 63.43489975 316.39643476 68.12064339 316.40543365 72.80643368 C316.41934602 81.9755071 316.41182504 91.14444254 316.39675807 100.31350936 C316.37987521 110.99521475 316.38311105 121.67688599 316.38685215 132.3586006 C316.39272692 151.41834722 316.37857343 170.47802772 316.35390472 189.53775692 C316.32997835 208.02606337 316.32290359 226.51428151 316.33339691 245.00260067 C316.34480895 265.1456576 316.34673316 285.28867371 316.33229882 305.43173015 C316.330773 307.57993531 316.32925265 309.72814047 316.32773781 311.87634563 C316.32697999 312.9332527 316.32622218 313.99015977 316.3254414 315.07909433 C316.32070132 322.52247596 316.32254801 329.96583934 316.32680321 337.4092207 C316.33173229 346.48022808 316.32573446 355.55115202 316.30590891 364.6221403 C316.29604498 369.24908062 316.29092216 373.87589392 316.29880142 378.502841 C316.30586999 382.74043808 316.29902616 386.97777912 316.28119779 391.21534251 C316.27716098 392.74611442 316.27814029 394.27690976 316.28471666 395.80767287 C316.33334437 408.18869781 315.07464968 417.30121552 306.51235199 426.7648077 C287.59851045 443.877331 264.00140247 435.1398077 237.88735199 435.1398077 C237.88735199 375.7398077 237.88735199 316.3398077 237.88735199 255.1398077 C248.77735199 254.8098077 259.66735199 254.4798077 270.88735199 254.1398077 C271.54735199 253.8098077 272.20735199 253.4798077 272.88735199 253.1398077 C272.9106775 225.7764806 272.92832945 198.41315498 272.93916416 171.04981995 C272.94432786 158.34551887 272.95137196 145.64122396 272.96279144 132.93692684 C272.97273603 121.86822345 272.97920488 110.79952452 272.98144048 99.73081678 C272.98274798 93.86609942 272.98583624 88.00139484 272.99308205 82.13668156 C272.99983872 76.62352242 273.00196968 71.11038139 273.00045967 65.59721851 C273.00073616 63.56742791 273.00274337 61.53763673 273.00655746 59.50784969 C273.0114892 56.74936853 273.01035221 53.9909569 273.00760651 51.23247433 C273.01051935 50.41828803 273.01343219 49.60410173 273.0164333 48.76524311 C273.3464118 45.1550278 273.3464118 45.1550278 271.88735199 42.1398077 C270.51218124 42.0424715 269.13204443 42.01425359 267.75343323 42.01396656 C266.85682621 42.01135881 265.9602192 42.00875107 265.03644228 42.0060643 C264.04006353 42.00829502 263.04368478 42.01052574 262.01711273 42.01282406 C260.44268001 42.01048407 260.44268001 42.01048407 258.83644056 42.00809681 C255.29024606 42.00408187 251.74409375 42.00727837 248.19789886 42.01041317 C245.66738612 42.00905935 243.13687356 42.00727953 240.60636139 42.00510311 C234.42919914 42.00100263 228.25205273 42.00162213 222.07489026 42.00451575 C217.05680499 42.00676956 212.03872314 42.0070824 207.02063751 42.00599194 C206.30779389 42.0058387 205.59495026 42.00568547 204.86050531 42.00552759 C203.41260358 42.00520788 201.96470184 42.00488367 200.51680011 42.004555 C186.92388148 42.00170004 173.33096959 42.00498748 159.73805207 42.01035537 C148.06206664 42.01482342 136.38609115 42.01404749 124.7101059 42.00943661 C111.16748214 42.00409112 97.62486429 42.00197474 84.08223963 42.00504887 C82.63951524 42.00536744 81.19679086 42.00568181 79.75406647 42.00599194 C78.68915551 42.00622335 78.68915551 42.00622335 77.6027312 42.00645944 C72.58777568 42.00732467 67.5728239 42.00586158 62.55786896 42.00351238 C55.81435085 42.00042305 49.0708545 42.00260675 42.32733727 42.00840664 C39.84441853 42.009735 37.36149822 42.00933885 34.87858009 42.00714397 C31.50489531 42.00443543 28.13127205 42.00780996 24.75759125 42.01282406 C23.7612125 42.01059334 22.76483375 42.00836262 21.7382617 42.0060643 C20.39335118 42.00997592 20.39335118 42.00997592 19.02127075 42.01396656 C18.24148755 42.01412891 17.46170434 42.01429127 16.65829134 42.01445854 C14.86146731 41.94721999 14.86146731 41.94721999 13.88735199 43.1398077 C13.72748253 45.65836945 13.62793305 48.15344945 13.57094574 50.67496395 C13.55229462 51.34233578 13.53364349 52.0097076 13.51442719 52.69730282 C13.44594458 55.19883187 13.38591412 57.70058652 13.32485199 60.2023077 C13.18047699 65.7916827 13.03610199 71.3810577 12.88735199 77.1398077 C-0.97264801 77.1398077 -14.83264801 77.1398077 -29.11264801 77.1398077 C-29.18177242 70.20176515 -29.24143196 63.2649328 -29.27744293 56.32681942 C-29.29246579 53.97000724 -29.31288997 51.61322272 -29.33896637 49.25650692 C-29.37563622 45.85555828 -29.39243997 42.45498149 -29.40561676 39.0538702 C-29.42110062 38.01179409 -29.43658447 36.96971798 -29.45253754 35.8960638 C-29.45498885 25.0748949 -27.08542933 16.80325309 -19.86264801 8.5773077 C-13.71552168 3.12871845 -8.28684901 0.02653252 0 0 Z " fill="#FD646F" transform="translate(151.1126480102539,-0.13980770111083984)"/>
<path d="M0 0 C1.34697204 -0.00782324 1.34697204 -0.00782324 2.72115564 -0.01580453 C4.21033133 -0.00911236 4.21033133 -0.00911236 5.72959137 -0.002285 C7.30424738 -0.00696498 7.30424738 -0.00696498 8.91071463 -0.01173949 C12.45151113 -0.01975875 15.99213812 -0.01338057 19.5329361 -0.00710678 C22.0619746 -0.0098149 24.59101231 -0.01337482 27.12004852 -0.0177269 C33.2900722 -0.02592314 39.46003242 -0.02469135 45.63005698 -0.01890162 C50.64286869 -0.0143918 55.65566676 -0.01376927 60.66847992 -0.01594925 C61.38089933 -0.01625572 62.09331875 -0.01656218 62.82732663 -0.01687793 C64.2744211 -0.01751736 65.72151557 -0.01816579 67.16861004 -0.01882312 C80.7501258 -0.02453139 94.33161459 -0.01796073 107.91312593 -0.00722238 C119.5762858 0.00171358 131.23940586 0.00016168 142.902565 -0.00905991 C156.43422365 -0.01975377 169.96585864 -0.02398202 183.49752092 -0.01783538 C184.93940512 -0.01719825 186.38128932 -0.01656951 187.82317352 -0.01594925 C188.88743093 -0.01548642 188.88743093 -0.01548642 189.97318849 -0.01501425 C194.98217974 -0.01328465 199.99115603 -0.0162081 205.00014496 -0.02090836 C211.73713588 -0.02709092 218.47403974 -0.02271316 225.21102715 -0.01111984 C227.69030062 -0.00846501 230.16958039 -0.00925226 232.64885139 -0.01364517 C236.02000875 -0.0190697 239.39092057 -0.01230424 242.76206207 -0.002285 C243.75484586 -0.00674645 244.74762965 -0.01120789 245.7704978 -0.01580453 C246.66847916 -0.01058903 247.56646052 -0.00537354 248.49165344 0 C249.27051486 0.0003247 250.04937627 0.00064941 250.85183954 0.00098395 C252.74582672 0.25168228 252.74582672 0.25168228 254.74582672 2.25168228 C254.94577974 5.01762929 255.01943654 7.68380068 255.00652313 10.45114517 C255.01034868 11.30898889 255.01417423 12.1668326 255.0181157 13.05067158 C255.02848267 15.94195519 255.02444659 18.83304157 255.02048492 21.72433853 C255.02482933 23.79032959 255.03001156 25.85631903 255.0359726 27.92230606 C255.04940229 33.54612756 255.04993692 39.16988202 255.0474093 44.79371643 C255.04634239 49.4809629 255.05121567 54.16819565 255.05601472 58.85543919 C255.06712338 69.90842902 255.0675395 80.96138487 255.06150055 92.01437759 C255.05545672 103.43538414 255.0677791 114.85626761 255.08907062 126.27725315 C255.10665416 136.06748525 255.11269317 145.85767806 255.10943288 155.64792538 C255.10761487 161.50205389 255.11030758 167.3560946 255.12414742 173.21020889 C255.13666864 178.71278806 255.13483607 184.21517454 255.12173653 189.71775055 C255.11935879 191.74228478 255.12214788 193.76683234 255.13035965 195.79135132 C255.14072803 198.54520175 255.13280705 201.29839361 255.12004852 204.05221939 C255.12742281 204.86212861 255.13479709 205.67203783 255.14239484 206.50648975 C255.12055683 208.73152542 255.12055683 208.73152542 254.74582672 212.25168228 C251.10277808 214.68038137 248.43860333 214.50843903 244.23410797 214.44699478 C243.14177101 214.44274994 243.14177101 214.44274994 242.02736664 214.43841934 C239.70418535 214.42723485 237.38139125 214.40213394 235.05832672 214.37668228 C233.48216042 214.36665022 231.90598807 214.35752476 230.3298111 214.34933853 C226.46833405 214.32730125 222.60714601 214.29278369 218.74582672 214.25168228 C218.74528195 213.4620717 218.74473719 212.67246113 218.74417591 211.85892296 C218.72918927 192.61960295 218.68666636 173.38052263 218.61373615 154.14133263 C218.57912673 144.83726903 218.55373595 135.53335297 218.55027008 126.22922134 C218.54722455 118.1169178 218.52665504 110.00487728 218.48530215 101.89267528 C218.46402377 97.59979371 218.45134484 93.30728559 218.45967293 89.01435089 C218.46724599 84.9675973 218.45125956 80.92159835 218.41776657 76.87498283 C218.40957225 75.39565313 218.40973713 73.91624783 218.41922951 72.43692589 C218.47943283 62.01693541 217.12961246 54.58331358 210.43332672 46.43918228 C202.60771632 40.0694994 195.67120212 36.94716662 185.43152618 36.97320938 C184.60968916 36.96741698 183.78785214 36.96162458 182.94111097 36.95565665 C180.19580031 36.93869326 177.45065815 36.9357833 174.70529938 36.93283463 C172.7339919 36.92353393 170.76268835 36.91336504 168.79138947 36.90239334 C163.44481618 36.87509532 158.09826925 36.85994446 152.75164461 36.84696531 C147.16222137 36.83133397 141.57285193 36.80454373 135.9834671 36.77893448 C125.40139612 36.73214681 114.81931502 36.6954026 104.23719347 36.66226161 C92.1888827 36.62404017 80.14062596 36.57463004 68.09236073 36.52427745 C43.31022277 36.42095775 18.52805011 36.33169743 -6.25417328 36.25168228 C-6.30354211 31.44619631 -6.33987771 26.64085734 -6.36403656 21.83517838 C-6.37410582 20.19973556 -6.38776209 18.56431079 -6.40505219 16.92892838 C-6.42926033 14.58073858 -6.44064685 12.23278641 -6.44948578 9.88449478 C-6.46496964 8.78441589 -6.46496964 8.78441589 -6.4807663 7.66211319 C-6.48116696 5.85705531 -6.37630083 4.05260398 -6.25417328 2.25168228 C-3.83997823 -0.16251277 -3.2969846 0.0013745 0 0 Z " fill="#F9F6F6" transform="translate(170.2541732788086,40.74831771850586)"/>
<path d="M0 0 C4.47985152 -0.15025302 8.95830335 -0.25808956 13.43994141 -0.32958984 C14.95875648 -0.35944607 16.47740404 -0.40014835 17.99560547 -0.45263672 C29.26773596 -0.83209458 38.07108824 0.24254006 47.13574219 7.7746582 C56.14360452 17.01727232 56.58461344 28.64100092 56.50120544 40.84036255 C56.50510402 42.42737032 56.51074892 44.01437459 56.51797634 45.60137069 C56.5326687 49.93747245 56.52258703 54.27320874 56.50823963 58.60929847 C56.49709836 63.29509205 56.50908277 67.98083569 56.51808167 72.66662598 C56.53199403 81.8356994 56.52447305 91.00463484 56.50940608 100.17370166 C56.49252322 110.85540705 56.49575906 121.53707829 56.49950016 132.2187929 C56.50537493 151.27853952 56.49122144 170.33822002 56.46655273 189.39794922 C56.44262636 207.88625567 56.4355516 226.37447381 56.44604492 244.86279297 C56.45745696 265.0058499 56.45938117 285.14886601 56.44494683 305.29192245 C56.44342101 307.44012761 56.44190066 309.58833277 56.44038582 311.73653793 C56.439628 312.793445 56.43887019 313.85035207 56.43808941 314.93928663 C56.43334933 322.38266826 56.43519602 329.82603164 56.43945122 337.26941299 C56.4443803 346.34042038 56.43838247 355.41134431 56.41855692 364.4823326 C56.40869299 369.10927292 56.40357017 373.73608622 56.41144943 378.36303329 C56.418518 382.60063038 56.41167417 386.83797142 56.3938458 391.07553481 C56.38980899 392.60630672 56.3907883 394.13710206 56.39736467 395.66786517 C56.44599238 408.04889011 55.18729769 417.16140782 46.625 426.625 C39.60189081 432.97924165 33.38510368 435.33157569 23.9765625 435.1953125 C23.23038666 435.1924826 22.48421082 435.18965271 21.71542358 435.18673706 C19.35178012 435.17561687 16.98852732 435.15052821 14.625 435.125 C13.01432842 435.11495962 11.40365085 435.10583562 9.79296875 435.09765625 C5.86183056 435.0757044 1.93098133 435.04123185 -2 435 C0.68421723 433.21052185 2.81629723 432.26907857 5.8125 431.1875 C13.14053836 428.26906612 17.140881 424.39261126 20.921875 417.57421875 C24.47871746 409.08161302 24.28781933 400.6840488 24.26742554 391.64102173 C24.27116487 390.06969306 24.27576752 388.49836625 24.28115618 386.92704237 C24.29336635 382.62040223 24.29312806 378.3138399 24.29076743 374.00718641 C24.29035877 369.35813677 24.30140302 364.70911191 24.31088257 360.06007385 C24.32748198 350.95647236 24.33299161 341.85289678 24.33410732 332.74928142 C24.33505817 325.34919143 24.3391703 317.94910997 24.34550858 310.54902267 C24.36311705 289.56334184 24.3723479 268.57768144 24.37084763 247.59199317 C24.37076772 246.46109831 24.3706878 245.33020346 24.37060547 244.16503906 C24.37052371 243.03276195 24.37044195 241.90048484 24.37035771 240.7338963 C24.36954462 222.37942343 24.3886891 204.02503258 24.4168822 185.67058344 C24.44560963 166.81940917 24.45942262 147.96827491 24.45769465 129.11707819 C24.45703077 118.5354919 24.46252258 107.95399164 24.48405075 97.37242508 C24.50226052 88.36431777 24.50661143 79.35633549 24.4930319 70.34821774 C24.48650164 65.75353115 24.48638728 61.15908447 24.5037384 56.5644207 C24.51947119 52.35497445 24.5166035 48.1459583 24.49917014 43.93652253 C24.49610073 42.41707639 24.49973045 40.89759813 24.51089029 39.37818988 C24.59400565 27.2552712 22.72872456 16.9889847 14 8 C9.70919082 4.62742399 5.27650636 2.45103925 0 1 C0 0.67 0 0.34 0 0 Z " fill="#FD4755" transform="translate(411,0)"/>
<path d="M0 0 C4.08911371 -0.12501994 8.17746465 -0.21499365 12.26806641 -0.2746582 C13.65498264 -0.29956805 15.04177087 -0.33351002 16.42822266 -0.37719727 C26.87950037 -0.69790434 34.49630111 0.49697364 42.75 7.25 C47.9555249 13.61230821 52.11603168 19.03638461 52.1386652 27.46129704 C52.14413964 28.60337276 52.14961409 29.74544848 52.15525442 30.92213255 C52.15623253 32.18275572 52.15721064 33.44337889 52.15821838 34.74220276 C52.16278338 36.09096691 52.16778331 37.43972964 52.17318195 38.78849071 C52.18678825 42.50470608 52.19418922 46.22091228 52.20060861 49.93714607 C52.20860548 53.94423299 52.22230925 57.95130081 52.23532104 61.95837402 C52.25997068 69.82544012 52.27935777 77.69251099 52.29707379 85.55959541 C52.31803148 94.76282946 52.34449062 103.96604523 52.37124526 113.16926395 C52.4189935 129.64855919 52.46220499 146.12786316 52.50268555 162.60717773 C52.54171677 178.4932533 52.58313139 194.37931979 52.62768555 210.26538086 C52.63040982 211.23696605 52.63313409 212.20855124 52.63594092 213.2095784 C52.6469089 217.11847396 52.65788792 221.02736949 52.66888306 224.93626497 C52.71947302 242.93797484 52.76817777 260.93968991 52.81640625 278.94140625 C52.81882219 279.84164793 52.82123813 280.7418896 52.82372728 281.66941133 C52.83807049 287.01902034 52.85228081 292.36862967 52.86631127 297.71823951 C52.87087798 299.45765721 52.87546874 301.19707485 52.88008402 302.93649242 C52.90419865 312.05170492 52.92601373 321.16691055 52.94065189 330.28214359 C52.94579651 333.38349992 52.95104743 336.48485606 52.95632935 339.58621216 C52.95755374 340.33426684 52.95877814 341.08232153 52.96003964 341.85304453 C52.97552957 350.86258834 53.01393832 359.87136795 53.08715373 368.88065082 C53.1245413 373.59710434 53.15145915 378.31358572 53.17691028 383.03011692 C53.19133982 385.13823752 53.21110875 387.24633008 53.23687661 389.35434258 C53.40754384 403.35274504 53.45981091 414.50410424 43.75 425.5625 C36.4904658 431.99708714 30.82310984 434.16654755 21.171875 434.09765625 C20.42286926 434.0962413 19.67386353 434.09482635 18.90216064 434.09336853 C16.51806588 434.08778659 14.13406622 434.07523745 11.75 434.0625 C10.13020969 434.05748266 8.51041791 434.05292016 6.890625 434.04882812 C2.92704688 434.03782308 -1.03646045 434.02057091 -5 434 C-5 433.67 -5 433.34 -5 433 C-4.3709375 432.85304688 -3.741875 432.70609375 -3.09375 432.5546875 C6.07844261 430.151131 12.16231842 426.28540662 16.9921875 418.02734375 C19.34939458 413.28552021 20.25084429 409.69432894 20.25726891 404.35036087 C20.26077498 403.69219903 20.26428105 403.03403718 20.26789337 402.35593104 C20.27720916 400.14697287 20.27228368 397.93827823 20.26742554 395.72930908 C20.27116172 394.13098331 20.27576311 392.53265937 20.28115618 390.93433833 C20.29340572 386.53917905 20.29312341 382.14409577 20.29076743 377.7489233 C20.29035976 373.00985983 20.30139375 368.27082088 20.31088257 363.5317688 C20.32750454 354.24561046 20.33299267 344.95947751 20.33410732 335.67330554 C20.33505729 328.12534729 20.33916498 320.57739743 20.34550858 313.02944183 C20.36312469 291.63360827 20.37234693 270.23779477 20.37084763 248.8419539 C20.37076772 247.68819115 20.3706878 246.53442839 20.37060547 245.34570312 C20.37052371 244.1905329 20.37044195 243.03536267 20.37035771 241.84518728 C20.36954483 223.12449004 20.38868201 204.40387327 20.4168822 185.68319932 C20.44560378 166.46487093 20.45942288 147.24658178 20.45769465 128.02823138 C20.45703047 117.23704046 20.46253497 106.44593387 20.48405075 95.65476227 C20.50225303 86.4664932 20.50661775 77.2783467 20.4930319 68.09006742 C20.4864973 63.40236507 20.48640283 58.71489791 20.5037384 54.02721786 C20.5194525 49.73382114 20.51662256 45.44084641 20.49917014 41.14746007 C20.49609656 39.59631378 20.49974616 38.04513612 20.51089029 36.49402681 C20.58889934 24.86367263 19.04540757 16.52489953 11.015625 7.796875 C7.71173476 4.85154649 3.98506692 2.87957805 0 1 C0 0.67 0 0.34 0 0 Z " fill="#FEC344" transform="translate(337,78)"/>
<path d="M0 0 C6.07142975 3.03571487 8.15425341 7.21120371 11 13.0625 C11.86970015 14.77348402 12.73949138 16.48442175 13.609375 18.1953125 C14.40812628 19.79594006 15.20516567 21.39742377 16 23 C17.06932649 25.15284757 18.14958412 27.30037653 19.25 29.4375 C19.84554687 30.64212891 19.84554687 30.64212891 20.453125 31.87109375 C23.22523812 35.68624944 26.69291975 37.68865474 31.24804688 38.77368164 C32.39337891 38.90121826 33.53871094 39.02875488 34.71875 39.16015625 C35.98074219 39.31419922 37.24273437 39.46824219 38.54296875 39.62695312 C39.84878906 39.77068359 41.15460938 39.91441406 42.5 40.0625 C45.09490933 40.35580416 47.68873966 40.65885393 50.28125 40.97265625 C51.42658203 41.09906494 52.57191406 41.22547363 53.75195312 41.35571289 C58.37305961 42.27236202 61.82620692 43.98065338 65.375 47.0625 C67.8264091 51.49389337 68.25563886 55.07179893 67 60 C64.95560083 63.23924909 62.40088219 65.79334922 59.63671875 68.43066406 C56.94497005 71.01159495 54.32575216 73.66492207 51.69335938 76.30615234 C50.2421751 77.75765968 48.78520923 79.20341181 47.32226562 80.64306641 C46.64873047 81.30741699 45.97519531 81.97176758 45.28125 82.65625 C44.67345703 83.25244141 44.06566406 83.84863281 43.43945312 84.46289062 C41.48058053 86.55465824 40.99710781 87.54809487 41.015625 90.44140625 C41.50608152 96.97265219 42.35587911 103.32059644 43.5625 109.75 C46.21903818 124.11280432 46.21903818 124.11280432 43.8125 129.8125 C40.45352094 133.86644025 38.50886294 135.78967365 33.1328125 136.5390625 C26.23895727 136.4060867 20.77934156 132.47244407 15 129.0625 C4.71311703 122.32258836 4.71311703 122.32258836 -7 121 C-11.85616347 122.89892273 -16.33980635 125.3307782 -20.875 127.875 C-22.70721784 128.87443534 -24.54273793 129.86758786 -26.37869263 130.86013794 C-28.03246584 131.75865699 -29.67833681 132.67167571 -31.32373047 133.58544922 C-35.72941717 135.91408895 -39.03395892 136.57937146 -44 136 C-47.82209946 133.61307623 -50.56170311 131.31489068 -52 127 C-52.26004571 120.89892763 -51.57106791 115.19668832 -50.5625 109.1875 C-50.42779297 108.34251953 -50.29308594 107.49753906 -50.15429688 106.62695312 C-49.61177061 103.29504791 -49.07014115 100.21042346 -48 97 C-47.32644928 93.11942935 -47.00913733 89.49790115 -49.25048828 86.10961914 C-49.80978027 85.50754639 -50.36907227 84.90547363 -50.9453125 84.28515625 C-51.58049805 83.59736084 -52.21568359 82.90956543 -52.87011719 82.20092773 C-56.65468411 78.29012181 -60.49553908 74.44158473 -64.375 70.625 C-65.98925662 69.03616475 -67.60135326 67.44513097 -69.2109375 65.8515625 C-69.91524902 65.15885254 -70.61956055 64.46614258 -71.34521484 63.75244141 C-74.5850948 60.32136168 -74.39362109 57.09082729 -74.34765625 52.546875 C-73.77336399 48.33970028 -72.15372024 46.80330688 -69 44 C-65.17087649 42.14102563 -61.58998354 41.55213452 -57.37890625 41.0703125 C-56.11369141 40.91433594 -54.84847656 40.75835937 -53.54492188 40.59765625 C-50.8948821 40.27982116 -48.24399457 39.97583313 -45.59179688 39.67578125 C-43.69204102 39.43794922 -43.69204102 39.43794922 -41.75390625 39.1953125 C-40.60220947 39.06141113 -39.4505127 38.92750977 -38.26391602 38.78955078 C-33.89811549 37.73345093 -30.45160341 35.91020467 -27.69555664 32.28344727 C-27.43637451 31.71682373 -27.17719238 31.1502002 -26.91015625 30.56640625 C-26.6044873 29.92356689 -26.29881836 29.28072754 -25.98388672 28.6184082 C-25.6798291 27.9399585 -25.37577148 27.26150879 -25.0625 26.5625 C-24.38024599 25.12956968 -23.69663024 23.697287 -23.01171875 22.265625 C-22.67575684 21.55083984 -22.33979492 20.83605469 -21.99365234 20.09960938 C-11.08330755 -2.95419043 -11.08330755 -2.95419043 0 0 Z " fill="#FED15B" transform="translate(221,157)"/>
<path d="M0 0 C4.04833483 1.07905983 7.05936563 3.0071672 9.4453125 6.49829102 C10.75190186 8.8420884 11.95141378 11.21583099 13.125 13.62890625 C13.99470015 15.33989027 14.86449138 17.050828 15.734375 18.76171875 C16.53312628 20.36234631 17.33016567 21.96383002 18.125 23.56640625 C19.19432649 25.71925382 20.27458412 27.86678278 21.375 30.00390625 C21.77203125 30.80699219 22.1690625 31.61007813 22.578125 32.4375 C25.35023812 36.25265569 28.81791975 38.25506099 33.37304688 39.34008789 C34.51837891 39.46762451 35.66371094 39.59516113 36.84375 39.7265625 C38.10574219 39.88060547 39.36773437 40.03464844 40.66796875 40.19335938 C41.97378906 40.33708984 43.27960938 40.48082031 44.625 40.62890625 C47.21990933 40.92221041 49.81373966 41.22526018 52.40625 41.5390625 C53.55158203 41.66547119 54.69691406 41.79187988 55.87695312 41.92211914 C60.49805961 42.83876827 63.95120692 44.54705963 67.5 47.62890625 C69.9514091 52.06029962 70.38063886 55.63820518 69.125 60.56640625 C67.08060083 63.80565534 64.52588219 66.35975547 61.76171875 68.99707031 C59.06997005 71.5780012 56.45075216 74.23132832 53.81835938 76.87255859 C52.3671751 78.32406593 50.91020923 79.76981806 49.44726562 81.20947266 C48.77373047 81.87382324 48.10019531 82.53817383 47.40625 83.22265625 C46.79845703 83.81884766 46.19066406 84.41503906 45.56445312 85.02929688 C43.60558053 87.12106449 43.12210781 88.11450112 43.140625 91.0078125 C43.63108152 97.53905844 44.48087911 103.88700269 45.6875 110.31640625 C48.34403818 124.67921057 48.34403818 124.67921057 45.9375 130.37890625 C42.77559056 134.19500386 40.26074251 136.7799038 35.1875 137.31640625 C27.94427392 136.91332622 21.4715244 133.24374376 16.125 128.56640625 C14.08251582 124.26726437 13.51641485 120.27506844 13.125 115.56640625 C12.95226562 114.56480469 12.77953125 113.56320312 12.6015625 112.53125 C11.21066783 103.87806104 11.36391114 96.11447395 16.125 88.56640625 C17.5945431 86.6769937 19.1067007 84.90425914 20.7578125 83.171875 C24.86696901 78.34655122 25.18322359 72.70483574 25.125 66.56640625 C24.07791347 60.51028417 21.69528283 55.74772884 17.125 51.56640625 C13.16646835 49.52821307 9.03915875 48.10338148 4.7578125 46.90234375 C-3.10323128 44.64467374 -8.01944048 40.88778626 -12.1875 33.796875 C-12.95056974 32.39374805 -13.70053655 30.98341914 -14.4375 29.56640625 C-14.79658447 28.89005127 -15.15566895 28.21369629 -15.52563477 27.5168457 C-17.80326696 22.83027783 -18.22140602 19.76674509 -16.875 14.56640625 C-13.73350222 6.63130827 -9.11551819 0.01899066 0 0 Z " fill="#FEC345" transform="translate(218.875,156.43359375)"/>
<path d="M0 0 C1.0942819 -0.00694553 2.18856381 -0.01389106 3.31600577 -0.02104706 C6.99575221 -0.03939501 10.67485961 -0.02903062 14.35462952 -0.01878357 C16.98747238 -0.02583806 19.62031118 -0.03458108 22.25314331 -0.04489136 C28.6699117 -0.06655063 35.08650289 -0.06639955 41.50329583 -0.05826581 C46.7181831 -0.05196962 51.93301863 -0.05309933 57.14790535 -0.05953789 C57.88971659 -0.06043954 58.63152783 -0.0613412 59.39581819 -0.06227018 C60.90273941 -0.06412135 62.40966062 -0.06598391 63.91658182 -0.06785773 C78.05284866 -0.08444303 92.18901576 -0.07571095 106.32527662 -0.05887216 C119.26125133 -0.04417579 132.19699376 -0.05880131 145.13293856 -0.08764232 C158.41189043 -0.11702785 171.69073507 -0.128011 184.96971804 -0.11846012 C186.47144574 -0.11743755 187.97317346 -0.11644295 189.4749012 -0.11547661 C190.21379924 -0.11500022 190.95269728 -0.11452383 191.71398617 -0.114033 C196.92250361 -0.11186768 202.13091965 -0.12167924 207.3394146 -0.13624763 C213.68716605 -0.15375467 220.03462137 -0.15367744 226.38236111 -0.13089598 C229.62162107 -0.11973821 232.86025017 -0.11932008 236.09950638 -0.13519669 C239.61005334 -0.15104476 243.11916067 -0.13625193 246.62963867 -0.11352539 C247.65512013 -0.12536112 248.68060159 -0.13719685 249.73715824 -0.14939123 C254.42585275 -0.08749882 256.67119882 -0.00156016 260.54619694 2.82736301 C262.37831116 5.5146637 262.37831116 5.5146637 262.44081116 9.1396637 C261.26128914 12.8863807 260.65906476 13.57885636 257.37831116 15.5146637 C255.167696 15.89301252 255.167696 15.89301252 252.71183777 15.89777374 C251.77279036 15.90683038 250.83374294 15.91588702 249.86623955 15.92521811 C248.3236481 15.91722622 248.3236481 15.91722622 246.74989319 15.90907288 C245.10741199 15.91820953 245.10741199 15.91820953 243.43174934 15.92753077 C239.74976975 15.94422645 236.06813349 15.93937549 232.38612366 15.93458557 C229.75165103 15.94192202 227.11720447 15.95041371 224.48274231 15.96025085 C218.06232986 15.98131637 211.64200769 15.98584511 205.22156477 15.98406297 C200.00429149 15.98275608 194.78704641 15.98655575 189.56977844 15.99398804 C188.06778781 15.99608719 186.56579717 15.99818479 185.06380653 16.00028086 C183.94249458 16.00184615 183.94249458 16.00184615 182.79852986 16.00344306 C168.65754481 16.02234945 154.51661163 16.02129382 140.37561917 16.01447374 C127.43250842 16.0088961 114.48959548 16.02973231 101.54653096 16.0628342 C88.26194216 16.09654639 74.97744818 16.11174276 61.69281578 16.10711718 C54.23229661 16.10487021 46.77196034 16.11014881 39.31147766 16.13500977 C32.96114781 16.15599091 26.61110118 16.15964676 20.26075983 16.14071018 C17.0195899 16.13153276 13.77905995 16.13316464 10.53791046 16.15106583 C7.02702772 16.16912359 3.51756712 16.15660802 0.00672913 16.13612366 C-1.53586232 16.15490043 -1.53586232 16.15490043 -3.10961723 16.17405653 C-9.97893855 16.08769809 -9.97893855 16.08769809 -13.25471497 13.1672287 C-14.9253232 9.92547185 -15.23402214 8.11212184 -14.62168884 4.5146637 C-11.13017657 -0.97880216 -5.84529071 -0.04687079 0 0 Z " fill="#FFF4C5" transform="translate(93.62168884277344,436.48533630371094)"/>
<path d="M0 0 C0.93643967 -0.00905664 1.87287933 -0.01811328 2.83769596 -0.02744436 C3.86832098 -0.02211644 4.898946 -0.01678851 5.96080208 -0.01129913 C7.05422956 -0.01739024 8.14765703 -0.02348134 9.27421868 -0.02975702 C12.95697006 -0.04647437 16.63937898 -0.04159867 20.32216072 -0.03681183 C22.95485483 -0.0441471 25.58754572 -0.05273173 28.22023201 -0.06247711 C34.64044865 -0.0835566 41.06057504 -0.08807051 47.48082219 -0.08628923 C52.69858754 -0.08498277 57.91632467 -0.08877975 63.1340847 -0.09621429 C64.63576098 -0.09831344 66.13743726 -0.10041104 67.63911355 -0.10250711 C68.38649187 -0.10355064 69.13387019 -0.10459417 69.90389635 -0.10566932 C84.04681484 -0.1245821 98.1896815 -0.12351842 112.3326074 -0.11669999 C125.27510623 -0.11112467 138.21740709 -0.13194756 151.15985964 -0.16506046 C164.44329161 -0.19878242 177.72662871 -0.21396761 191.0101043 -0.20934343 C198.47011133 -0.2070971 205.92993542 -0.21236555 213.38990593 -0.23723602 C219.74132934 -0.25823005 226.09246954 -0.26186039 232.4439045 -0.24293643 C235.68519114 -0.23376613 238.9258387 -0.23537497 242.16710472 -0.25329208 C245.67987915 -0.27137358 249.19123594 -0.25881616 252.70396614 -0.23834991 C254.24321151 -0.25712669 254.24321151 -0.25712669 255.81355274 -0.27628279 C260.50435246 -0.21747519 262.75053367 -0.13420798 266.6276741 2.69538879 C268.45936775 5.38311005 268.45936775 5.38311005 268.52186775 9.00811005 C267.34234573 12.75482705 266.74012136 13.44730271 263.45936775 15.38311005 C261.24875259 15.76145887 261.24875259 15.76145887 258.79289436 15.76622009 C257.85384695 15.77527673 256.91479954 15.78433337 255.94729614 15.79366446 C254.40470469 15.78567257 254.40470469 15.78567257 252.83094978 15.77751923 C251.18846858 15.78665588 251.18846858 15.78665588 249.51280594 15.79597712 C245.83082634 15.8126728 242.14919008 15.80782184 238.46718025 15.80303192 C235.83270763 15.81036837 233.19826106 15.81886006 230.5637989 15.8286972 C224.14338645 15.84976272 217.72306429 15.85429146 211.30262136 15.85250932 C206.08534809 15.85120243 200.86810301 15.8550021 195.65083504 15.86243439 C194.1488444 15.86453354 192.64685377 15.86663114 191.14486313 15.86872721 C190.02355118 15.8702925 190.02355118 15.8702925 188.87958646 15.87188941 C174.73860141 15.8907958 160.59766822 15.88974017 146.45667577 15.88292009 C133.51356502 15.87734245 120.57065207 15.89817866 107.62758756 15.93128055 C94.34299875 15.96499274 81.05850477 15.98018911 67.77387238 15.97556353 C60.31335321 15.97331656 52.85301694 15.97859516 45.39253426 16.00345612 C39.04220441 16.02443726 32.69215777 16.02809311 26.34181643 16.00915653 C23.1006465 15.99997911 19.86011654 16.00161099 16.61896706 16.01951218 C13.10808432 16.03756994 9.59862371 16.02505437 6.08778572 16.00457001 C4.54519427 16.02334678 4.54519427 16.02334678 2.97143936 16.04250288 C-3.87912487 15.95638025 -3.87912487 15.95638025 -7.20881462 13.0708313 C-9.02713748 9.40130111 -8.62329962 7.28071257 -7.54063225 3.38311005 C-5.27989386 0.3913957 -3.68079612 0.00713746 0 0 Z " fill="#FFF4C5" transform="translate(87.5406322479248,405.6168899536133)"/>
<path d="M0 0 C0.93208062 -0.00720654 1.86416124 -0.01441309 2.82448673 -0.02183801 C4.35540534 -0.01077658 4.35540534 -0.01077658 5.91725159 0.00050831 C7.00407195 -0.0034661 8.09089231 -0.0074405 9.21064663 -0.01153535 C12.86501447 -0.02118637 16.5189979 -0.00932295 20.1733551 0.00241566 C22.78811284 -0.00001137 25.40286966 -0.00372983 28.0176239 -0.00864697 C34.38992999 -0.01814049 40.76212293 -0.01153031 47.13442063 0.00061598 C54.55279841 0.01423 61.97114917 0.01259865 69.38953626 0.01048265 C82.62446527 0.00729195 95.85934048 0.01896507 109.09425354 0.03854847 C121.94127542 0.05755297 134.78823424 0.06463612 147.63526917 0.05905628 C161.61963034 0.05300045 175.60396377 0.05317196 189.58832264 0.06454211 C191.07907931 0.06574942 192.56983598 0.06695541 194.06059265 0.06816006 C194.79410318 0.0687636 195.52761371 0.06936713 196.28335184 0.06998896 C201.45623331 0.07387067 206.62910447 0.07347351 211.80198669 0.07157421 C218.76226477 0.06923229 225.72246019 0.07777065 232.68272018 0.09363461 C235.241781 0.09788752 237.80085003 0.09872128 240.35991287 0.0959444 C243.84412229 0.09273647 247.32808688 0.10176956 250.81227112 0.1140337 C252.34318972 0.10836471 252.34318972 0.10836471 253.90503597 0.1025812 C254.83711659 0.1084134 255.76919722 0.11424559 256.72952271 0.12025452 C257.93605924 0.12155468 257.93605924 0.12155468 259.16697025 0.12288111 C261.67875686 0.41071144 263.2369721 1.01641751 265.36476135 2.37473011 C267.36476135 5.37473011 267.36476135 5.37473011 267.17726135 8.87473011 C266.36050988 12.39304414 266.12892513 13.29431467 263.36476135 15.37473011 C261.27193266 15.75307894 261.27193266 15.75307894 258.80571842 15.75784016 C257.39490878 15.77142512 257.39490878 15.77142512 255.95559794 15.78528452 C254.92039985 15.77995659 253.88520176 15.77462867 252.81863403 15.76913929 C251.17130914 15.77827595 251.17130914 15.77827595 249.49070495 15.78759718 C245.79180052 15.80431468 242.09323703 15.79943882 238.39430237 15.79465199 C235.75012517 15.80198722 233.105974 15.81047837 230.46180725 15.82031727 C224.01385222 15.84139629 217.56598706 15.84591072 211.11800165 15.84412938 C205.87829793 15.84282302 200.6386223 15.84661943 195.39892387 15.85405445 C193.89105334 15.85615359 192.38318281 15.85825119 190.87531227 15.86034727 C190.12486147 15.8613908 189.37441067 15.86243433 188.60121893 15.86350948 C174.40062674 15.88242173 160.20008619 15.8813586 145.99948662 15.87454015 C133.00134713 15.86896362 120.00340469 15.88979295 107.00531126 15.92290062 C93.66651358 15.95661305 80.32781036 15.97180904 66.98896927 15.96718359 C59.49713637 15.96493645 52.00548561 15.97021757 44.51368904 15.99507618 C38.13588699 16.01605781 31.75836693 16.01971282 25.38055343 16.00077659 C22.12521454 15.99159899 18.87051286 15.99323142 15.61519432 16.01113224 C12.08893347 16.0291897 8.56408861 16.01667457 5.03787231 15.99619007 C4.00490495 16.00870792 2.97193758 16.02122577 1.90766817 16.03412294 C-4.97402477 15.94798507 -4.97402477 15.94798507 -8.30230808 13.06245136 C-10.13398069 9.36906664 -9.79406025 7.28575302 -8.63523865 3.37473011 C-5.80717563 0.68271153 -3.86311567 -0.00026423 0 0 Z " fill="#FFF4C5" transform="translate(88.63523864746094,374.62526988983154)"/>
<path d="M0 0 C1.26883616 -0.00935994 1.26883616 -0.00935994 2.56330538 -0.01890898 C5.40247108 -0.03488507 8.24078373 -0.02221679 11.07995605 -0.00964355 C13.11344403 -0.01506262 15.14692808 -0.02218406 17.18040466 -0.03088379 C22.70721722 -0.04914561 28.23373167 -0.04203773 33.76054955 -0.02936745 C39.53894237 -0.01925462 45.31730932 -0.02862834 51.09570312 -0.03491211 C60.80029899 -0.04219352 70.50477318 -0.03258782 80.20935059 -0.0135498 C91.4361415 0.00821981 102.66264188 0.00116879 113.88942575 -0.02085543 C123.52093703 -0.03899533 133.15236074 -0.04157463 142.78388357 -0.03110075 C148.53969175 -0.02485808 154.29536327 -0.02405148 160.05116272 -0.0372467 C165.46192111 -0.04878401 170.87230417 -0.04081809 176.28302193 -0.01766968 C178.27123452 -0.01237127 180.2594786 -0.01391562 182.24767876 -0.02272034 C184.95713387 -0.03361473 187.66537836 -0.01998652 190.37475586 0 C191.16580231 -0.00892289 191.95684876 -0.01784577 192.77186632 -0.02703905 C196.29586046 0.02355378 198.30620227 0.22437494 201.17176056 2.35608673 C202.68737793 4.50793457 202.68737793 4.50793457 203.24987793 7.44543457 C202.48072426 11.63304899 201.01793019 12.89178173 197.68737793 15.50793457 C194.69703716 16.00032379 192.27810415 16.18531496 189.29246521 16.14285278 C188.44980356 16.15065274 187.60714192 16.15845269 186.73894507 16.16648901 C183.91654184 16.18642605 181.09548442 16.17063808 178.27307129 16.15490723 C176.249285 16.16168254 174.22550488 16.17058518 172.20173645 16.18145752 C166.70591791 16.2042661 161.21056828 16.19540828 155.71474147 16.17956209 C149.96704633 16.16691302 144.21939164 16.17864029 138.47169495 16.18649292 C128.82012718 16.19559162 119.16875066 16.18359491 109.51721191 16.15979004 C98.35225957 16.13257077 87.18776362 16.14139806 76.02282232 16.16892207 C66.44223141 16.19159656 56.86177806 16.19482154 47.281169 16.18172872 C41.55664718 16.17392611 35.83234005 16.17291513 30.10783195 16.18941116 C24.7273498 16.20383268 19.34745741 16.19387633 13.96703911 16.16493988 C11.99011719 16.15831703 10.01314581 16.16024711 8.03624344 16.1712532 C5.34192333 16.18487284 2.64950515 16.16783742 -0.04469299 16.14285278 C-0.83116638 16.15400639 -1.61763976 16.16516 -2.42794567 16.1766516 C-6.27363496 16.10724579 -7.95710536 15.84382389 -10.79811764 13.15965843 C-12.65059476 9.91618308 -12.93864379 8.18581217 -12.31262207 4.50793457 C-9.01902894 -0.18033633 -5.31299469 -0.05992979 0 0 Z " fill="#FFF4C5" transform="translate(91.3126220703125,467.4920654296875)"/>
<path d="M0 0 C5.6233202 -0.09892174 11.24613333 -0.17149342 16.87011719 -0.21972656 C18.78296735 -0.23983452 20.69575611 -0.26712507 22.60839844 -0.30175781 C25.35887811 -0.35031249 28.10854477 -0.37297658 30.859375 -0.390625 C31.71368103 -0.41127014 32.56798706 -0.43191528 33.44818115 -0.45318604 C39.37255663 -0.45542193 39.37255663 -0.45542193 42.53613281 1.84082031 C44.568587 4.83865634 44.65234949 6.44831943 44 10 C42.00630291 12.69093555 40.42050878 14.68454042 37.04135132 15.43496704 C34.67210151 15.57854693 32.35292473 15.56228918 29.98046875 15.48828125 C29.12189774 15.48120651 28.26332672 15.47413177 27.3787384 15.46684265 C24.64742397 15.43894402 21.91819042 15.37621691 19.1875 15.3125 C17.3314099 15.28741114 15.47528754 15.26459899 13.61914062 15.24414062 C9.07863028 15.18913253 4.53966743 15.10289364 0 15 C0 10.05 0 5.1 0 0 Z " fill="#FE999E" transform="translate(389,360)"/>
<path d="M0 0 C5.6233202 -0.09892174 11.24613333 -0.17149342 16.87011719 -0.21972656 C18.78296735 -0.23983452 20.69575611 -0.26712507 22.60839844 -0.30175781 C25.35887811 -0.35031249 28.10854477 -0.37297658 30.859375 -0.390625 C31.71368103 -0.41127014 32.56798706 -0.43191528 33.44818115 -0.45318604 C39.37255663 -0.45542193 39.37255663 -0.45542193 42.53613281 1.84082031 C44.568587 4.83865634 44.65234949 6.44831943 44 10 C42.00630291 12.69093555 40.42050878 14.68454042 37.04135132 15.43496704 C34.67210151 15.57854693 32.35292473 15.56228918 29.98046875 15.48828125 C29.12189774 15.48120651 28.26332672 15.47413177 27.3787384 15.46684265 C24.64742397 15.43894402 21.91819042 15.37621691 19.1875 15.3125 C17.3314099 15.28741114 15.47528754 15.26459899 13.61914062 15.24414062 C9.07863028 15.18913253 4.53966743 15.10289364 0 15 C0 10.05 0 5.1 0 0 Z " fill="#FE999F" transform="translate(389,329)"/>
<path d="M0 0 C5.6233202 -0.09892174 11.24613333 -0.17149342 16.87011719 -0.21972656 C18.78296735 -0.23983452 20.69575611 -0.26712507 22.60839844 -0.30175781 C25.35887811 -0.35031249 28.10854477 -0.37297658 30.859375 -0.390625 C31.71368103 -0.41127014 32.56798706 -0.43191528 33.44818115 -0.45318604 C39.37255663 -0.45542193 39.37255663 -0.45542193 42.53613281 1.84082031 C44.568587 4.83865634 44.65234949 6.44831943 44 10 C42.00630291 12.69093555 40.42050878 14.68454042 37.04135132 15.43496704 C34.67210151 15.57854693 32.35292473 15.56228918 29.98046875 15.48828125 C29.12189774 15.48120651 28.26332672 15.47413177 27.3787384 15.46684265 C24.64742397 15.43894402 21.91819042 15.37621691 19.1875 15.3125 C17.3314099 15.28741114 15.47528754 15.26459899 13.61914062 15.24414062 C9.07863028 15.18913253 4.53966743 15.10289364 0 15 C0 10.05 0 5.1 0 0 Z " fill="#FE999F" transform="translate(389,298)"/>
</svg>
