<?xml version="1.0" encoding="UTF-8"?>
<svg version="1.1" xmlns="http://www.w3.org/2000/svg" width="512" height="512">
<path d="M0 0 C0.76787338 -0.0065712 1.53574677 -0.0131424 2.32688904 -0.01991272 C4.86937562 -0.03962978 7.41180311 -0.05130622 9.9543457 -0.0612793 C10.82421427 -0.06535482 11.69408283 -0.06943035 12.59031105 -0.07362938 C17.19659817 -0.09448571 21.80285557 -0.10878797 26.40917969 -0.11816406 C31.15596477 -0.12921323 35.90227912 -0.16359699 40.64889812 -0.20333576 C44.30789533 -0.22954445 47.96678123 -0.23785978 51.62586403 -0.24144554 C53.37487776 -0.24630239 55.12388681 -0.25789058 56.87280846 -0.27648354 C59.32833956 -0.30096089 61.78266426 -0.2998945 64.23828125 -0.29296875 C64.95286499 -0.30577881 65.66744873 -0.31858887 66.40368652 -0.33178711 C71.79068885 -0.2767611 75.92460974 1.23537256 80.44262695 4.17700195 C82.81762695 6.67700195 82.81762695 6.67700195 84.44262695 9.17700195 C84.79848877 9.72388672 85.15435059 10.27077148 85.52099609 10.83422852 C86.85507374 14.22543623 86.78773414 17.5671795 86.8137207 21.16137695 C86.82274918 21.93580139 86.83177765 22.71022583 86.84107971 23.50811768 C86.85556508 25.14542794 86.8644647 26.78279586 86.86816406 28.42016602 C86.88002305 30.90522954 86.92918749 33.38777743 86.97973633 35.87231445 C87.12742676 50.25389666 87.12742676 50.25389666 82.82617188 55.83056641 C75.57821227 62.88412158 69.01506351 62.27177855 59.44262695 62.17700195 C59.77262695 68.77700195 60.10262695 75.37700195 60.44262695 82.17700195 C62.51157227 82.5965918 62.51157227 82.5965918 64.62231445 83.0246582 C96.53817134 89.73401455 124.64450066 103.76252188 148.21606445 126.48950195 C150.50830923 128.57968142 150.50830923 128.57968142 154.44262695 128.17700195 C157.05368781 126.87037198 159.33794919 125.08504393 161.69262695 123.36450195 C162.34231445 122.91268555 162.99200195 122.46086914 163.66137695 121.99536133 C165.31695635 120.80410935 166.88774468 119.49698891 168.44262695 118.17700195 C168.44262695 114.52019797 167.6294923 113.80621788 165.38012695 111.0090332 C164.43266602 109.79183594 164.43266602 109.79183594 163.46606445 108.55004883 C162.12658619 106.85501407 160.7777194 105.16735275 159.41918945 103.48754883 C153.99590618 96.46495038 153.99590618 96.46495038 153.7355957 91.81762695 C154.55687414 87.58872363 155.2912666 86.56560065 158.75512695 84.11450195 C159.66649414 83.4596582 160.57786133 82.80481445 161.5168457 82.13012695 C162.48235352 81.4855957 163.44786133 80.84106445 164.44262695 80.17700195 C165.37719727 79.5324707 166.31176758 78.88793945 167.2746582 78.22387695 C169.95026279 76.4426353 172.65801979 74.78154694 175.44262695 73.17700195 C176.06137695 72.81348633 176.68012695 72.4499707 177.31762695 72.07543945 C185.73559922 68.05435449 198.07830901 69.10996992 206.81762695 71.67700195 C227.63016731 79.75649293 243.28715067 102.64393829 252.44262695 122.17700195 C257.20345521 133.19935434 258.62315347 145.63250553 254.81762695 157.17700195 C249.65495556 169.21124294 238.79484508 178.9266928 227.44262695 185.17700195 C223.63012695 185.92700195 223.63012695 185.92700195 220.44262695 185.17700195 C216.03899424 181.28837035 212.6286294 176.68676223 209.13012695 171.98950195 C208.5803418 171.26569336 208.03055664 170.54188477 207.46411133 169.79614258 C206.68583984 168.75683594 206.68583984 168.75683594 205.8918457 167.6965332 C205.42093506 167.06851807 204.95002441 166.44050293 204.46484375 165.79345703 C203.44262695 164.17700195 203.44262695 164.17700195 203.44262695 162.17700195 C198.15989409 165.62545257 193.02847433 169.16997068 188.0715332 173.07543945 C186.44262695 174.17700195 186.44262695 174.17700195 184.44262695 174.17700195 C184.81230591 175.10258911 184.81230591 175.10258911 185.18945312 176.046875 C190.80033291 190.21614692 195.59439513 204.1874715 198.44262695 219.17700195 C198.63743652 220.18706299 198.63743652 220.18706299 198.83618164 221.2175293 C206.63649601 263.92261177 195.00973838 309.06313867 170.86035156 344.6081543 C165.79718646 351.83665395 160.05371717 358.32734483 153.91430664 364.65405273 C152.51409606 366.10304304 151.13780016 367.57503066 149.76293945 369.0480957 C123.20411226 396.82847133 82.58747996 414.81051122 44.24658203 416.30126953 C28.4205627 416.65358907 12.98897025 416.42259248 -2.55737305 413.17700195 C-3.23832031 413.04310059 -3.91926758 412.90919922 -4.62084961 412.77124023 C-34.79283596 406.71481962 -62.70569854 390.54576653 -84.55737305 369.17700195 C-85.5615559 368.23320134 -86.56678178 367.29050938 -87.57299805 366.34887695 C-117.28209415 338.12856521 -134.70316201 295.98975621 -135.76049805 255.2512207 C-136.11599918 226.21560877 -130.36408545 201.0064881 -119.55737305 174.17700195 C-120.15211426 173.89091064 -120.74685547 173.60481934 -121.35961914 173.31005859 C-124.49302285 171.69462573 -127.30911682 169.64438051 -130.18237305 167.61450195 C-134.23874326 164.6828351 -134.23874326 164.6828351 -138.55737305 162.17700195 C-138.78811523 162.69391602 -139.01885742 163.21083008 -139.2565918 163.7434082 C-141.02773976 167.05699733 -143.18777753 170.06471013 -145.36987305 173.11450195 C-146.00892578 174.02619141 -146.00892578 174.02619141 -146.66088867 174.95629883 C-153.68636462 184.80897085 -153.68636462 184.80897085 -158.8737793 185.8293457 C-163.7961742 184.95761723 -166.64412386 182.81576529 -170.49487305 179.73950195 C-171.19708984 179.19253662 -171.89930664 178.64557129 -172.62280273 178.08203125 C-181.76083524 170.82105164 -189.29058734 163.01466066 -191.55737305 151.17700195 C-193.15045017 128.22102177 -183.01035764 110.28603706 -168.55737305 93.17700195 C-168.10571777 92.64026855 -167.6540625 92.10353516 -167.1887207 91.55053711 C-158.7756207 81.67480212 -148.79159161 72.61670137 -135.55737305 70.17700195 C-116.83223412 68.98964907 -106.21006022 74.79657256 -91.55737305 86.17700195 C-89.55737305 88.17700195 -89.55737305 88.17700195 -88.99487305 91.6887207 C-89.14551782 97.6432245 -92.96124061 101.54293279 -96.55737305 105.98950195 C-97.87585607 107.65796841 -99.18865716 109.33094565 -100.49487305 111.0090332 C-101.08139648 111.73840088 -101.66791992 112.46776855 -102.2722168 113.21923828 C-103.83175705 115.20467371 -103.83175705 115.20467371 -103.55737305 118.17700195 C-102.16502388 119.61387573 -102.16502388 119.61387573 -100.27612305 120.8762207 C-99.26098633 121.60615234 -99.26098633 121.60615234 -98.2253418 122.35083008 C-97.50991211 122.8503418 -96.79448242 123.34985352 -96.05737305 123.86450195 C-94.98422852 124.63117188 -94.98422852 124.63117188 -93.8894043 125.41333008 C-92.11813282 126.67683707 -90.34083596 127.93079143 -88.55737305 129.17700195 C-84.76805389 127.40908719 -82.31480413 125.1671269 -79.30737305 122.23950195 C-56.5239091 100.78661507 -26.22170423 87.28772382 4.44262695 82.17700195 C4.77262695 75.57700195 5.10262695 68.97700195 5.44262695 62.17700195 C3.46262695 62.25950195 1.48262695 62.34200195 -0.55737305 62.42700195 C-6.49588342 62.42054003 -10.78935583 61.8148225 -15.55737305 58.17700195 C-17.93237305 55.67700195 -17.93237305 55.67700195 -19.55737305 53.17700195 C-19.91323486 52.63011719 -20.26909668 52.08323242 -20.63574219 51.51977539 C-21.96981983 48.12856768 -21.90248024 44.7868244 -21.9284668 41.19262695 C-21.93749527 40.41820251 -21.94652374 39.64377808 -21.95582581 38.84588623 C-21.97031118 37.20857597 -21.97921079 35.57120805 -21.98291016 33.93383789 C-21.99476915 31.44877436 -22.04393358 28.96622648 -22.09448242 26.48168945 C-22.24217285 12.10010725 -22.24217285 12.10010725 -17.94091797 6.5234375 C-12.38863605 1.12007861 -7.44623333 0.02762808 0 0 Z " fill="#5FB6FC" transform="translate(223.557373046875,47.822998046875)"/>
<path d="M0 0 C0.76787338 -0.0065712 1.53574677 -0.0131424 2.32688904 -0.01991272 C4.86937562 -0.03962978 7.41180311 -0.05130622 9.9543457 -0.0612793 C10.82421427 -0.06535482 11.69408283 -0.06943035 12.59031105 -0.07362938 C17.19659817 -0.09448571 21.80285557 -0.10878797 26.40917969 -0.11816406 C31.15596477 -0.12921323 35.90227912 -0.16359699 40.64889812 -0.20333576 C44.30789533 -0.22954445 47.96678123 -0.23785978 51.62586403 -0.24144554 C53.37487776 -0.24630239 55.12388681 -0.25789058 56.87280846 -0.27648354 C59.32833956 -0.30096089 61.78266426 -0.2998945 64.23828125 -0.29296875 C64.95286499 -0.30577881 65.66744873 -0.31858887 66.40368652 -0.33178711 C71.79068885 -0.2767611 75.92460974 1.23537256 80.44262695 4.17700195 C82.81762695 6.67700195 82.81762695 6.67700195 84.44262695 9.17700195 C84.79848877 9.72388672 85.15435059 10.27077148 85.52099609 10.83422852 C86.85507374 14.22543623 86.78773414 17.5671795 86.8137207 21.16137695 C86.82274918 21.93580139 86.83177765 22.71022583 86.84107971 23.50811768 C86.85556508 25.14542794 86.8644647 26.78279586 86.86816406 28.42016602 C86.88002305 30.90522954 86.92918749 33.38777743 86.97973633 35.87231445 C87.12742676 50.25389666 87.12742676 50.25389666 82.82617188 55.83056641 C75.57821227 62.88412158 69.01506351 62.27177855 59.44262695 62.17700195 C59.77262695 68.77700195 60.10262695 75.37700195 60.44262695 82.17700195 C62.51157227 82.5965918 62.51157227 82.5965918 64.62231445 83.0246582 C96.53817134 89.73401455 124.64450066 103.76252188 148.21606445 126.48950195 C150.50830923 128.57968142 150.50830923 128.57968142 154.44262695 128.17700195 C157.05368781 126.87037198 159.33794919 125.08504393 161.69262695 123.36450195 C162.34231445 122.91268555 162.99200195 122.46086914 163.66137695 121.99536133 C165.31695635 120.80410935 166.88774468 119.49698891 168.44262695 118.17700195 C168.44262695 114.52019797 167.6294923 113.80621788 165.38012695 111.0090332 C164.43266602 109.79183594 164.43266602 109.79183594 163.46606445 108.55004883 C162.12658619 106.85501407 160.7777194 105.16735275 159.41918945 103.48754883 C153.99590618 96.46495038 153.99590618 96.46495038 153.7355957 91.81762695 C154.55687414 87.58872363 155.2912666 86.56560065 158.75512695 84.11450195 C159.66649414 83.4596582 160.57786133 82.80481445 161.5168457 82.13012695 C162.48235352 81.4855957 163.44786133 80.84106445 164.44262695 80.17700195 C165.37719727 79.5324707 166.31176758 78.88793945 167.2746582 78.22387695 C169.95026279 76.4426353 172.65801979 74.78154694 175.44262695 73.17700195 C176.06137695 72.81348633 176.68012695 72.4499707 177.31762695 72.07543945 C185.73559922 68.05435449 198.07830901 69.10996992 206.81762695 71.67700195 C227.63016731 79.75649293 243.28715067 102.64393829 252.44262695 122.17700195 C257.20345521 133.19935434 258.62315347 145.63250553 254.81762695 157.17700195 C249.65495556 169.21124294 238.79484508 178.9266928 227.44262695 185.17700195 C223.63012695 185.92700195 223.63012695 185.92700195 220.44262695 185.17700195 C216.03899424 181.28837035 212.6286294 176.68676223 209.13012695 171.98950195 C208.5803418 171.26569336 208.03055664 170.54188477 207.46411133 169.79614258 C206.68583984 168.75683594 206.68583984 168.75683594 205.8918457 167.6965332 C205.42093506 167.06851807 204.95002441 166.44050293 204.46484375 165.79345703 C203.44262695 164.17700195 203.44262695 164.17700195 203.44262695 162.17700195 C198.15989409 165.62545257 193.02847433 169.16997068 188.0715332 173.07543945 C186.44262695 174.17700195 186.44262695 174.17700195 184.44262695 174.17700195 C184.81230591 175.10258911 184.81230591 175.10258911 185.18945312 176.046875 C190.80033291 190.21614692 195.59439513 204.1874715 198.44262695 219.17700195 C198.63743652 220.18706299 198.63743652 220.18706299 198.83618164 221.2175293 C206.63649601 263.92261177 195.00973838 309.06313867 170.86035156 344.6081543 C165.79718646 351.83665395 160.05371717 358.32734483 153.91430664 364.65405273 C152.51409606 366.10304304 151.13780016 367.57503066 149.76293945 369.0480957 C123.20411226 396.82847133 82.58747996 414.81051122 44.24658203 416.30126953 C28.4205627 416.65358907 12.98897025 416.42259248 -2.55737305 413.17700195 C-3.23832031 413.04310059 -3.91926758 412.90919922 -4.62084961 412.77124023 C-34.79283596 406.71481962 -62.70569854 390.54576653 -84.55737305 369.17700195 C-85.5615559 368.23320134 -86.56678178 367.29050938 -87.57299805 366.34887695 C-117.28209415 338.12856521 -134.70316201 295.98975621 -135.76049805 255.2512207 C-136.11599918 226.21560877 -130.36408545 201.0064881 -119.55737305 174.17700195 C-120.15211426 173.89091064 -120.74685547 173.60481934 -121.35961914 173.31005859 C-124.49302285 171.69462573 -127.30911682 169.64438051 -130.18237305 167.61450195 C-134.23874326 164.6828351 -134.23874326 164.6828351 -138.55737305 162.17700195 C-138.78811523 162.69391602 -139.01885742 163.21083008 -139.2565918 163.7434082 C-141.02773976 167.05699733 -143.18777753 170.06471013 -145.36987305 173.11450195 C-146.00892578 174.02619141 -146.00892578 174.02619141 -146.66088867 174.95629883 C-153.68636462 184.80897085 -153.68636462 184.80897085 -158.8737793 185.8293457 C-163.7961742 184.95761723 -166.64412386 182.81576529 -170.49487305 179.73950195 C-171.19708984 179.19253662 -171.89930664 178.64557129 -172.62280273 178.08203125 C-181.76083524 170.82105164 -189.29058734 163.01466066 -191.55737305 151.17700195 C-193.15045017 128.22102177 -183.01035764 110.28603706 -168.55737305 93.17700195 C-168.10571777 92.64026855 -167.6540625 92.10353516 -167.1887207 91.55053711 C-158.7756207 81.67480212 -148.79159161 72.61670137 -135.55737305 70.17700195 C-116.83223412 68.98964907 -106.21006022 74.79657256 -91.55737305 86.17700195 C-89.55737305 88.17700195 -89.55737305 88.17700195 -88.99487305 91.6887207 C-89.14551782 97.6432245 -92.96124061 101.54293279 -96.55737305 105.98950195 C-97.87585607 107.65796841 -99.18865716 109.33094565 -100.49487305 111.0090332 C-101.08139648 111.73840088 -101.66791992 112.46776855 -102.2722168 113.21923828 C-103.83175705 115.20467371 -103.83175705 115.20467371 -103.55737305 118.17700195 C-102.16502388 119.61387573 -102.16502388 119.61387573 -100.27612305 120.8762207 C-99.26098633 121.60615234 -99.26098633 121.60615234 -98.2253418 122.35083008 C-97.50991211 122.8503418 -96.79448242 123.34985352 -96.05737305 123.86450195 C-94.98422852 124.63117188 -94.98422852 124.63117188 -93.8894043 125.41333008 C-92.11813282 126.67683707 -90.34083596 127.93079143 -88.55737305 129.17700195 C-84.76805389 127.40908719 -82.31480413 125.1671269 -79.30737305 122.23950195 C-56.5239091 100.78661507 -26.22170423 87.28772382 4.44262695 82.17700195 C4.77262695 75.57700195 5.10262695 68.97700195 5.44262695 62.17700195 C3.46262695 62.25950195 1.48262695 62.34200195 -0.55737305 62.42700195 C-6.49588342 62.42054003 -10.78935583 61.8148225 -15.55737305 58.17700195 C-17.93237305 55.67700195 -17.93237305 55.67700195 -19.55737305 53.17700195 C-19.91323486 52.63011719 -20.26909668 52.08323242 -20.63574219 51.51977539 C-21.96981983 48.12856768 -21.90248024 44.7868244 -21.9284668 41.19262695 C-21.93749527 40.41820251 -21.94652374 39.64377808 -21.95582581 38.84588623 C-21.97031118 37.20857597 -21.97921079 35.57120805 -21.98291016 33.93383789 C-21.99476915 31.44877436 -22.04393358 28.96622648 -22.09448242 26.48168945 C-22.24217285 12.10010725 -22.24217285 12.10010725 -17.94091797 6.5234375 C-12.38863605 1.12007861 -7.44623333 0.02762808 0 0 Z M-77.55737305 140.17700195 C-78.04431641 140.66668457 -78.53125977 141.15636719 -79.03295898 141.66088867 C-107.86293846 171.02332243 -122.00811751 210.27456772 -121.79663086 250.99536133 C-121.62996003 258.78074079 -120.70849772 266.48046141 -119.55737305 274.17700195 C-119.36147583 275.56133423 -119.36147583 275.56133423 -119.16162109 276.97363281 C-118.1032099 283.95307617 -116.4659369 290.46028637 -114.11987305 297.11450195 C-113.60142822 298.58777954 -113.60142822 298.58777954 -113.07250977 300.09082031 C-105.21986364 321.59342591 -93.36582141 339.79743913 -77.55737305 356.17700195 C-76.7684668 357.02907227 -75.97956055 357.88114258 -75.16674805 358.7590332 C-55.97204072 378.93889935 -29.07575467 393.07311102 -1.90795898 398.68505859 C-0.04118671 399.07574681 1.81884604 399.49861159 3.67602539 399.93261719 C13.22297337 402.05031983 22.30384449 402.70263641 32.06762695 402.61450195 C33.17963974 402.60894287 33.17963974 402.60894287 34.31411743 402.60327148 C74.56705225 402.31807699 111.61911226 386.0136916 140.44262695 358.17700195 C141.23282227 357.43836914 142.02301758 356.69973633 142.8371582 355.9387207 C170.55892269 329.38214422 185.9309062 289.91800222 186.79174805 251.94433594 C187.14487929 208.21269577 170.94699441 169.30563499 140.44262695 138.17700195 C127.25977451 124.78669403 111.55194078 114.82464337 94.44262695 107.17700195 C93.81791504 106.89630859 93.19320312 106.61561523 92.54956055 106.32641602 C83.13278028 102.16568406 73.5151557 99.25068988 63.44262695 97.17700195 C62.72123535 97.02602051 61.99984375 96.87503906 61.2565918 96.71948242 C10.69180056 86.50069858 -41.47293235 103.79561886 -77.55737305 140.17700195 Z " fill="#1F2F3F" transform="translate(223.557373046875,47.822998046875)"/>
<path d="M0 0 C0.66644531 0.52078125 1.33289063 1.0415625 2.01953125 1.578125 C14.26110704 11.5259144 24.0771041 27.71145364 28 43 C28.34675781 44.10988281 28.69351563 45.21976562 29.05078125 46.36328125 C30.58338424 52.56329175 30.32870856 58.902727 30.3125 65.25 C30.32861328 66.49652344 30.34472656 67.74304688 30.36132812 69.02734375 C30.3726244 90.6484144 21.74501413 110.76371713 6.7734375 126.23828125 C1.8276899 131.16313132 -3.16503023 135.81043816 -8.9375 139.75 C-11.97030696 141.97818471 -12.75489135 142.63122472 -14 146 C-15.03829995 154.52573524 -15.03829995 154.52573524 -11.6875 162 C-10.800625 162.66 -9.91375 163.32 -9 164 C-5.65477878 168.03733595 -5.6265473 171.58340462 -5.75390625 176.6328125 C-6.0357235 179.34362607 -6.96831173 181.49447135 -8 184 C-7.69578125 184.60328125 -7.3915625 185.2065625 -7.078125 185.828125 C-5.1545926 189.70306709 -5.45916153 193.78012451 -6 198 C-8.49334503 202.98669007 -11.99350949 206.49675474 -17 209 C-19.37402501 209.07116382 -21.75000677 209.08409085 -24.125 209.0625 C-25.40632813 209.05347656 -26.68765625 209.04445313 -28.0078125 209.03515625 C-29.48894531 209.01775391 -29.48894531 209.01775391 -31 209 C-31.01417969 209.556875 -31.02835937 210.11375 -31.04296875 210.6875 C-31.51735586 218.27769379 -34.19614887 223.71219134 -39.875 228.8125 C-47.41473644 234.09031551 -53.81796989 235.16862201 -63 234 C-70.16878831 231.60330257 -75.30412097 226.68715331 -79.03125 220.20703125 C-80.87449949 216.34132746 -81.10633498 213.21204663 -81 209 C-81.99 209.08121094 -82.98 209.16242188 -84 209.24609375 C-96.0037093 209.9343206 -96.0037093 209.9343206 -100.8125 205.8125 C-105.40414818 200.82244417 -106.32132663 196.80099584 -106.2109375 190.14453125 C-105.95365647 187.52884075 -104.9703263 185.42581576 -104 183 C-104.30421875 182.39414062 -104.6084375 181.78828125 -104.921875 181.1640625 C-106.85266344 177.28849439 -106.53270901 173.22269336 -106 169 C-104.73458909 165.49076767 -103.14687587 162.701693 -99.88671875 160.70703125 C-97.69903142 159.08252334 -97.69903142 159.08252334 -97.50390625 156.0390625 C-97.52324219 154.91242188 -97.54257813 153.78578125 -97.5625 152.625 C-97.56443359 150.94277344 -97.56443359 150.94277344 -97.56640625 149.2265625 C-98.21464936 144.40269935 -99.78095608 141.99705752 -103.53125 138.9296875 C-104.5109375 138.25164062 -105.490625 137.57359375 -106.5 136.875 C-121.58446928 125.96826386 -131.69873242 112.48973874 -138 95 C-138.30679688 94.16339844 -138.61359375 93.32679688 -138.9296875 92.46484375 C-145.57112807 73.52092517 -144.21115698 49.43067604 -135.89453125 31.34375 C-125.07493893 8.92999852 -107.67494544 -7.56958451 -84.1640625 -16.26171875 C-55.59304085 -26.00887234 -22.9260215 -19.15445789 0 0 Z " fill="#FDBE31" transform="translate(312,207)"/>
<path d="M0 0 C0.66644531 0.52078125 1.33289063 1.0415625 2.01953125 1.578125 C14.26110704 11.5259144 24.0771041 27.71145364 28 43 C28.34675781 44.10988281 28.69351563 45.21976562 29.05078125 46.36328125 C30.58338424 52.56329175 30.32870856 58.902727 30.3125 65.25 C30.32861328 66.49652344 30.34472656 67.74304688 30.36132812 69.02734375 C30.3726244 90.6484144 21.74501413 110.76371713 6.7734375 126.23828125 C1.8276899 131.16313132 -3.16503023 135.81043816 -8.9375 139.75 C-11.97030696 141.97818471 -12.75489135 142.63122472 -14 146 C-15.03829995 154.52573524 -15.03829995 154.52573524 -11.6875 162 C-10.800625 162.66 -9.91375 163.32 -9 164 C-5.65477878 168.03733595 -5.6265473 171.58340462 -5.75390625 176.6328125 C-6.0357235 179.34362607 -6.96831173 181.49447135 -8 184 C-7.69578125 184.60328125 -7.3915625 185.2065625 -7.078125 185.828125 C-5.1545926 189.70306709 -5.45916153 193.78012451 -6 198 C-8.49334503 202.98669007 -11.99350949 206.49675474 -17 209 C-19.37402501 209.07116382 -21.75000677 209.08409085 -24.125 209.0625 C-25.40632813 209.05347656 -26.68765625 209.04445313 -28.0078125 209.03515625 C-29.48894531 209.01775391 -29.48894531 209.01775391 -31 209 C-31.01417969 209.556875 -31.02835937 210.11375 -31.04296875 210.6875 C-31.51735586 218.27769379 -34.19614887 223.71219134 -39.875 228.8125 C-47.41473644 234.09031551 -53.81796989 235.16862201 -63 234 C-70.16878831 231.60330257 -75.30412097 226.68715331 -79.03125 220.20703125 C-80.87449949 216.34132746 -81.10633498 213.21204663 -81 209 C-81.99 209.08121094 -82.98 209.16242188 -84 209.24609375 C-96.0037093 209.9343206 -96.0037093 209.9343206 -100.8125 205.8125 C-105.40414818 200.82244417 -106.32132663 196.80099584 -106.2109375 190.14453125 C-105.95365647 187.52884075 -104.9703263 185.42581576 -104 183 C-104.30421875 182.39414062 -104.6084375 181.78828125 -104.921875 181.1640625 C-106.85266344 177.28849439 -106.53270901 173.22269336 -106 169 C-104.73458909 165.49076767 -103.14687587 162.701693 -99.88671875 160.70703125 C-97.69903142 159.08252334 -97.69903142 159.08252334 -97.50390625 156.0390625 C-97.52324219 154.91242188 -97.54257813 153.78578125 -97.5625 152.625 C-97.56443359 150.94277344 -97.56443359 150.94277344 -97.56640625 149.2265625 C-98.21464936 144.40269935 -99.78095608 141.99705752 -103.53125 138.9296875 C-104.5109375 138.25164062 -105.490625 137.57359375 -106.5 136.875 C-121.58446928 125.96826386 -131.69873242 112.48973874 -138 95 C-138.30679688 94.16339844 -138.61359375 93.32679688 -138.9296875 92.46484375 C-145.57112807 73.52092517 -144.21115698 49.43067604 -135.89453125 31.34375 C-125.07493893 8.92999852 -107.67494544 -7.56958451 -84.1640625 -16.26171875 C-55.59304085 -26.00887234 -22.9260215 -19.15445789 0 0 Z M-114 21 C-126.89812819 38.3060322 -131.34195574 58.23686109 -128.5390625 79.49609375 C-124.38711235 99.44987772 -113.1868875 116.49762431 -96.3125 127.9375 C-90.018802 132.33337883 -86.41647366 137.75057901 -84 145 C-83.67 148.96 -83.34 152.92 -83 157 C-65.18 157 -47.36 157 -29 157 C-28.67 153.04 -28.34 149.08 -28 145 C-25.18383597 135.64742573 -19.74920377 130.5110797 -12 125 C3.47126113 112.52135507 14.55177691 96.07032887 17 76 C17.18879004 70.33074626 17.12152952 64.67042441 17 59 C16.98324219 58.13632812 16.96648437 57.27265625 16.94921875 56.3828125 C15.67802733 37.13334238 3.5061756 21.62029153 -10.0625 9.125 C-42.70110851 -17.98610223 -87.34612108 -9.19004859 -114 21 Z " fill="#203140" transform="translate(312,207)"/>
<path d="M0 0 C3.97401685 2.33765697 7.59480693 4.99151387 11.1875 7.875 C9.92618422 11.32819061 8.48981336 14.09335762 6.28125 17.02734375 C5.70753662 17.7963501 5.13382324 18.56535645 4.54272461 19.35766602 C3.93050049 20.16776123 3.31827637 20.97785645 2.6875 21.8125 C1.40675387 23.52805022 0.12681011 25.24419973 -1.15234375 26.9609375 C-1.77995605 27.80108398 -2.40756836 28.64123047 -3.05419922 29.50683594 C-5.3676064 32.622644 -7.63020896 35.77205811 -9.875 38.9375 C-14.14130356 44.94163407 -18.43991975 50.92166178 -22.76342773 56.88476562 C-25.67504005 60.90267892 -28.56576018 64.93344114 -31.42578125 68.98828125 C-32.01383545 69.81682617 -32.60188965 70.64537109 -33.20776367 71.49902344 C-34.34031961 73.09563159 -35.46702733 74.6964082 -36.5871582 76.30175781 C-37.35225708 77.37635254 -37.35225708 77.37635254 -38.1328125 78.47265625 C-38.57898926 79.10695557 -39.02516602 79.74125488 -39.48486328 80.39477539 C-40.8125 81.875 -40.8125 81.875 -43.8125 82.875 C-50.15340154 79.15832925 -55.82744301 73.84511399 -59.125 67.25 C-62.02178919 53.0293985 -57.37125071 42.01395886 -49.73730469 30.21289062 C-38.21731494 12.91824953 -23.48881046 -6.9311244 0 0 Z " fill="#F76D84" transform="translate(105.8125,133.125)"/>
<path d="M0 0 C13.58661311 10.25927929 30.25748833 30.83390846 33 48 C33.65369017 55.67282238 33.56313625 62.54906881 29 69 C20.81387182 77.77085162 20.81387182 77.77085162 15 79 C8.42693534 70.30367734 1.92584627 61.56978326 -4.3828125 52.6796875 C-7.33569078 48.5193294 -10.32328994 44.38429721 -13.3125 40.25 C-13.85447021 39.50016846 -14.39644043 38.75033691 -14.95483398 37.9777832 C-16.06693944 36.43936793 -17.17916412 34.90103882 -18.29150391 33.36279297 C-21.19540213 29.34679883 -24.09779654 25.32971896 -27 21.3125 C-27.79144409 20.21760254 -27.79144409 20.21760254 -28.59887695 19.10058594 C-31.74669941 14.74368946 -34.8796041 10.37658469 -38 6 C-36.55767936 2.42521604 -34.83879097 0.88918552 -31.625 -1.1875 C-30.85414063 -1.69667969 -30.08328125 -2.20585937 -29.2890625 -2.73046875 C-20.01344906 -7.87479361 -8.36744331 -5.80124536 0 0 Z " fill="#F86D84" transform="translate(433,137)"/>
<path d="M0 0 C0.72699097 -0.00350464 1.45398193 -0.00700928 2.20300293 -0.01062012 C4.61272658 -0.01944212 7.02215799 -0.01358614 9.43188477 -0.00683594 C11.10335853 -0.0081826 12.7748319 -0.01012315 14.44630432 -0.01263428 C17.95268476 -0.01558629 21.45896341 -0.01128599 24.96533203 -0.00195312 C29.46252529 0.00943269 33.95947962 0.00288801 38.45666409 -0.00909805 C41.90958967 -0.0163221 45.36245854 -0.01402607 48.81538582 -0.00884247 C50.47360322 -0.00750702 52.13182574 -0.00915003 53.79003716 -0.01380157 C56.10755947 -0.0188748 58.42469409 -0.01114518 60.7421875 0 C62.72169655 0.00238678 62.72169655 0.00238678 64.74119568 0.00482178 C67.93579102 0.25878906 67.93579102 0.25878906 70.93579102 2.25878906 C71.32397461 5.1003418 71.32397461 5.1003418 71.33422852 8.69238281 C71.3380957 9.98080078 71.34196289 11.26921875 71.34594727 12.59667969 C71.33966309 13.26932861 71.33337891 13.94197754 71.3269043 14.63500977 C71.31087603 16.68541341 71.32673224 18.73383822 71.34594727 20.78417969 C71.34208008 22.07388672 71.33821289 23.36359375 71.33422852 24.69238281 C71.33084473 25.87888428 71.32746094 27.06538574 71.32397461 28.2878418 C70.93579102 31.25878906 70.93579102 31.25878906 69.86112976 32.92021179 C66.89451007 34.9827318 64.32094051 34.64050007 60.7421875 34.64697266 C60.01344421 34.65222961 59.28470093 34.65748657 58.53387451 34.66290283 C56.12466004 34.67610887 53.71610597 34.66736394 51.30688477 34.65722656 C49.6344439 34.65924691 47.96200389 34.66215803 46.28956604 34.66592407 C42.78491832 34.67034804 39.28049997 34.66391331 35.77587891 34.64990234 C31.27739206 34.63279706 26.77944162 34.64265945 22.28097439 34.66061974 C18.82806839 34.67144442 15.37529023 34.66801756 11.92238045 34.66023636 C10.26333618 34.65823138 8.60428039 34.66070403 6.94524956 34.66767502 C4.62985208 34.67526956 2.31533189 34.6637151 0 34.64697266 C-1.31887711 34.64458588 -2.63775421 34.6421991 -3.99659729 34.63973999 C-5.00890915 34.51402618 -6.02122101 34.38831238 -7.06420898 34.25878906 C-9.46633054 30.65560673 -9.32169186 28.97485091 -9.32983398 24.69238281 C-9.33241211 23.40267578 -9.33499023 22.11296875 -9.33764648 20.78417969 C-9.33345703 20.11362549 -9.32926758 19.44307129 -9.32495117 18.75219727 C-9.31422868 16.70005851 -9.32486533 14.64879158 -9.33764648 12.59667969 C-9.33506836 11.30826172 -9.33249023 10.01984375 -9.32983398 8.69238281 C-9.32757813 7.50700928 -9.32532227 6.32163574 -9.32299805 5.1003418 C-8.78229845 -0.83664182 -5.03681886 0.00607677 0 0 Z " fill="#F96D84" transform="translate(225.064208984375,61.7412109375)"/>
<path d="M0 0 C9.22763784 5.47470642 15.76103796 13.12498254 18.6796875 23.58984375 C20.59444266 35.06001402 18.47315627 45.2176812 11.9921875 54.83984375 C7.55680283 60.38128153 1.85508272 63.7607397 -4.6953125 66.27734375 C-7.53548706 67.58776092 -8.18476966 68.25423767 -9.37890625 71.2109375 C-9.87009321 73.16805033 -10.29818472 75.14242025 -10.65234375 77.12890625 C-11.3203125 79.58984375 -11.3203125 79.58984375 -14.3203125 81.58984375 C-19.54583612 82.13416913 -19.54583612 82.13416913 -21.9765625 80.42578125 C-24.8468207 76.50420755 -23.93288857 71.18708133 -23.3203125 66.58984375 C-20.81895951 59.78616362 -15.65644082 55.66292605 -9.26953125 52.609375 C-8.58503906 52.29355469 -7.90054688 51.97773438 -7.1953125 51.65234375 C-1.93344401 49.10791991 0.71587164 45.35130033 3.4921875 40.27734375 C5.62189759 33.66403347 5.48914791 28.71881852 2.6171875 22.33984375 C0.08713197 17.72410506 -2.70079078 15.04429961 -7.3203125 12.58984375 C-8.1246875 12.15671875 -8.9290625 11.72359375 -9.7578125 11.27734375 C-17.35506904 9.23905541 -23.51225461 11.00243277 -30.3203125 14.58984375 C-32.06967849 15.9252729 -32.06967849 15.9252729 -33.5703125 17.33984375 C-36.3203125 19.58984375 -36.3203125 19.58984375 -39.5078125 20.08984375 C-42.3203125 19.58984375 -42.3203125 19.58984375 -44.1953125 18.52734375 C-46.07936064 15.28259417 -45.93440023 13.27437011 -45.3203125 9.58984375 C-35.76942666 -4.79770864 -14.54147079 -7.11310428 0 0 Z " fill="#21313E" transform="translate(269.3203125,232.41015625)"/>
<path d="M0 0 C1.7881251 2.15231753 3.36720166 4.25955133 4.9375 6.5625 C5.36740234 7.17158203 5.79730469 7.78066406 6.24023438 8.40820312 C9.07934818 12.47946647 11.5927887 16.66031745 14 21 C11.94005539 22.60754096 9.87719524 24.2110805 7.8125 25.8125 C6.9452832 26.49022461 6.9452832 26.49022461 6.06054688 27.18164062 C2.81747919 29.69181166 -0.42313088 31.97243389 -4 34 C-5.75053767 31.45870221 -7.50044506 28.91697423 -9.25 26.375 C-9.74113281 25.66214844 -10.23226563 24.94929688 -10.73828125 24.21484375 C-13.52524772 20.16445248 -16.28470605 16.09880087 -19 12 C-16.40468022 9.98830392 -13.79738208 7.99275605 -11.1875 6 C-10.44951172 5.42765625 -9.71152344 4.8553125 -8.95117188 4.265625 C-8.23896484 3.72421875 -7.52675781 3.1828125 -6.79296875 2.625 C-6.1383667 2.12226563 -5.48376465 1.61953125 -4.80932617 1.1015625 C-3 0 -3 0 0 0 Z " fill="#FABB31" transform="translate(404,177)"/>
<path d="M0 0 C3.12413285 0.60613002 5.13369924 1.60027443 7.671875 3.50390625 C8.66767578 4.24350586 8.66767578 4.24350586 9.68359375 4.99804688 C10.36550781 5.51431641 11.04742187 6.03058594 11.75 6.5625 C12.44738281 7.08263672 13.14476563 7.60277344 13.86328125 8.13867188 C15.57974556 9.42014181 17.29044431 10.70932798 19 12 C14.33333333 19 9.66666667 26 5 33 C2.04973947 32.40285146 0.02345561 31.53576409 -2.41796875 29.78515625 C-3.03220703 29.34623047 -3.64644531 28.90730469 -4.27929688 28.45507812 C-4.90900391 27.99552734 -5.53871094 27.53597656 -6.1875 27.0625 C-6.82880859 26.60681641 -7.47011719 26.15113281 -8.13085938 25.68164062 C-12.86714234 22.26571532 -12.86714234 22.26571532 -14 20 C-13.64695801 19.50072998 -13.29391602 19.00145996 -12.93017578 18.48706055 C-11.32803702 16.22083237 -9.72651213 13.95417105 -8.125 11.6875 C-7.56941406 10.90181641 -7.01382813 10.11613281 -6.44140625 9.30664062 C-5.90644531 8.54931641 -5.37148437 7.79199219 -4.8203125 7.01171875 C-4.32805176 6.31522217 -3.83579102 5.61872559 -3.32861328 4.90112305 C-2.19734704 3.28238541 -1.09545562 1.64318344 0 0 Z " fill="#FABC31" transform="translate(108,177)"/>
<path d="M0 0 C8.58 0 17.16 0 26 0 C26 6.27 26 12.54 26 19 C17.42 19 8.84 19 0 19 C0 12.73 0 6.46 0 0 Z " fill="#FCBD31" transform="translate(243,110)"/>
<path d="M0 0 C1.24132187 0.00222061 2.48264374 0.00444122 3.76158142 0.00672913 C4.44447739 0.0065831 5.12737335 0.00643707 5.83096313 0.00628662 C8.09815092 0.00698575 10.36525752 0.01477811 12.63243103 0.02259827 C14.20041865 0.02446245 15.76840685 0.02588635 17.33639526 0.02688599 C21.47103981 0.03071117 25.60564944 0.04054146 29.74028015 0.05158997 C33.95627876 0.06180407 38.172283 0.0663836 42.38829041 0.07142639 C50.66630125 0.08216373 58.94428368 0.09924015 67.22227478 0.12025452 C67.60446245 1.77640109 67.9362258 3.44482476 68.22227478 5.12025452 C67.22227478 6.12025452 67.22227478 6.12025452 64.44454956 6.24050903 C63.20322769 6.23828842 61.96190582 6.23606781 60.68296814 6.23377991 C60.00007217 6.23392593 59.31717621 6.23407196 58.61358643 6.23422241 C56.34639864 6.23352328 54.07929204 6.22573092 51.81211853 6.21791077 C50.24413091 6.21604659 48.67614271 6.21462268 47.1081543 6.21362305 C42.97350975 6.20979786 38.83890012 6.19996758 34.70426941 6.18891907 C30.4882708 6.17870496 26.27226656 6.17412543 22.05625916 6.16908264 C13.77824831 6.1583453 5.50026588 6.14126888 -2.77772522 6.12025452 C-3.15991289 4.46410794 -3.49167624 2.79568427 -3.77772522 1.12025452 C-2.77772522 0.12025452 -2.77772522 0.12025452 0 0 Z " fill="#19C5B3" transform="translate(223.77772521972656,396.87974548339844)"/>
<path d="M0 0 C1.24132187 0.00222061 2.48264374 0.00444122 3.76158142 0.00672913 C4.44447739 0.0065831 5.12737335 0.00643707 5.83096313 0.00628662 C8.09815092 0.00698575 10.36525752 0.01477811 12.63243103 0.02259827 C14.20041865 0.02446245 15.76840685 0.02588635 17.33639526 0.02688599 C21.47103981 0.03071117 25.60564944 0.04054146 29.74028015 0.05158997 C33.95627876 0.06180407 38.172283 0.0663836 42.38829041 0.07142639 C50.66630125 0.08216373 58.94428368 0.09924015 67.22227478 0.12025452 C67.60446245 1.77640109 67.9362258 3.44482476 68.22227478 5.12025452 C67.22227478 6.12025452 67.22227478 6.12025452 64.44454956 6.24050903 C63.20322769 6.23828842 61.96190582 6.23606781 60.68296814 6.23377991 C60.00007217 6.23392593 59.31717621 6.23407196 58.61358643 6.23422241 C56.34639864 6.23352328 54.07929204 6.22573092 51.81211853 6.21791077 C50.24413091 6.21604659 48.67614271 6.21462268 47.1081543 6.21362305 C42.97350975 6.20979786 38.83890012 6.19996758 34.70426941 6.18891907 C30.4882708 6.17870496 26.27226656 6.17412543 22.05625916 6.16908264 C13.77824831 6.1583453 5.50026588 6.14126888 -2.77772522 6.12025452 C-3.15991289 4.46410794 -3.49167624 2.79568427 -3.77772522 1.12025452 C-2.77772522 0.12025452 -2.77772522 0.12025452 0 0 Z " fill="#19C6B3" transform="translate(223.77772521972656,377.87974548339844)"/>
<path d="M0 0 C4.65540055 1.2696547 4.65540055 1.2696547 6.4375 3.9375 C6.76366596 6.82304033 6.90177296 9.43075641 6.875 12.3125 C6.89498047 13.06789062 6.91496094 13.82328125 6.93554688 14.6015625 C6.93211951 18.52247268 6.69446741 20.51849581 4.59765625 23.9375 C2.4375 25.9375 2.4375 25.9375 -0.5625 26.5625 C-3.5625 25.9375 -3.5625 25.9375 -5.71875 23.93359375 C-8.16861469 19.95256362 -8.15684661 16.95474162 -8.0625 12.375 C-8.07796875 11.62025391 -8.0934375 10.86550781 -8.109375 10.08789062 C-8.08421061 6.5176931 -7.85136025 4.34177957 -5.75390625 1.40625 C-3.5625 -0.0625 -3.5625 -0.0625 0 0 Z " fill="#203446" transform="translate(256.5625,151.0625)"/>
<path d="M0 0 C2.9806668 2.03386675 5.46926803 4.43815248 8 7 C8.5465625 7.51304687 9.093125 8.02609375 9.65625 8.5546875 C12.41227305 11.38726674 13 12.75389245 13 16.75 C12 20 12 20 9 22 C6.2109375 22.47265625 6.2109375 22.47265625 3 22 C0.57008276 20.19973284 -1.30608379 18.58048852 -3.375 16.4375 C-3.92027344 15.92380859 -4.46554688 15.41011719 -5.02734375 14.88085938 C-8.00000987 11.88211723 -8.93744117 10.56071244 -9.421875 6.21875 C-9 3 -9 3 -7.875 1.0625 C-4.88360708 -0.63262266 -3.41358101 -0.64407189 0 0 Z " fill="#1F3244" transform="translate(177,185)"/>
<path d="M0 0 C2 2 2 2 2.4765625 5.22265625 C1.84640268 10.21744762 -0.06547944 12.08414553 -3.625 15.4375 C-4.14707031 15.97826172 -4.66914063 16.51902344 -5.20703125 17.07617188 C-7.85430455 19.66134864 -9.54388816 20.9374287 -13.24609375 21.4453125 C-16 21 -16 21 -18.4375 19.4375 C-20 17 -20 17 -19.90625 13.68359375 C-18.82703118 9.29694139 -17.33699698 7.67869159 -14.0625 4.625 C-13.16660156 3.77164063 -12.27070313 2.91828125 -11.34765625 2.0390625 C-7.28763739 -1.48727668 -5.22801563 -1.02693164 0 0 Z " fill="#1F3243" transform="translate(342,186)"/>
<path d="M0 0 C5.51128996 0.80002596 8.10266573 3.65105578 11.875 7.5625 C13.1125 8.8309375 13.1125 8.8309375 14.375 10.125 C16.29315219 13.24199731 16.4874175 14.96454719 15.875 18.5625 C14.00009978 21.20124846 12.84230927 22.35266042 9.66015625 23.04296875 C5.3060174 22.291834 3.03514321 19.56536034 0 16.5 C-0.60585938 15.93861328 -1.21171875 15.37722656 -1.8359375 14.79882812 C-3.52525025 13.11911374 -4.90689409 11.61113266 -6.125 9.5625 C-6.1328125 5.75390625 -6.1328125 5.75390625 -5.125 2.5625 C-3.125 0.5625 -3.125 0.5625 0 0 Z " fill="#1F3244" transform="translate(328.125,339.4375)"/>
<path d="M0 0 C2.26731182 1.97475546 2.85766882 3.29208964 3.4453125 6.21484375 C2.7470178 10.58224835 0.00262008 12.84009468 -3.0625 15.875 C-3.62388672 16.48085938 -4.18527344 17.08671875 -4.76367188 17.7109375 C-7.93695187 20.90235052 -9.15008876 21.98430933 -13.80859375 22.0703125 C-17 21 -17 21 -19 18 C-19.5625 15.3125 -19.5625 15.3125 -19 12 C-16.96016958 9.02620229 -14.56381273 6.52618864 -12 4 C-11.175 3.175 -10.35 2.35 -9.5 1.5 C-6.10290493 -0.53825704 -3.88754011 -0.57593187 0 0 Z " fill="#1F3244" transform="translate(187,340)"/>
<path d="M0 0 C0.86753906 -0.01611328 1.73507812 -0.03222656 2.62890625 -0.04882812 C3.46292969 -0.04947266 4.29695313 -0.05011719 5.15625 -0.05078125 C5.91744141 -0.05376221 6.67863281 -0.05674316 7.46289062 -0.05981445 C10.05116119 0.41323356 10.92776677 1.23320322 12.5 3.3125 C13.01479611 6.76898816 13.01532335 8.55256984 11.03515625 11.47265625 C7.29468599 14.18723482 4.00788692 13.89891317 -0.5 13.8125 C-1.30695313 13.82796875 -2.11390625 13.8434375 -2.9453125 13.859375 C-6.78180734 13.8340516 -8.86876796 13.75638006 -12.06640625 11.5078125 C-13.5 9.3125 -13.5 9.3125 -13.4375 5.6875 C-11.51573319 -1.23086051 -5.99449169 -0.0222678 0 0 Z " fill="#1F3142" transform="translate(365.5,266.6875)"/>
<path d="M0 0 C1.28874023 -0.0299707 1.28874023 -0.0299707 2.60351562 -0.06054688 C8.88606033 -0.05567291 8.88606033 -0.05567291 12.12890625 2.30859375 C13.5625 4.4375 13.5625 4.4375 14.0625 6.9375 C13.36930472 10.40347642 12.42890731 11.34332114 9.5625 13.4375 C6.36583829 14.03427077 3.24314617 13.99589123 0 13.9375 C-0.86302734 13.95296875 -1.72605469 13.9684375 -2.61523438 13.984375 C-8.86692752 13.94551444 -8.86692752 13.94551444 -11.50390625 11.59765625 C-12.76748513 8.67397793 -12.83968902 6.58798066 -12.4375 3.4375 C-9.16259448 -0.88802735 -5.0003622 -0.0410784 0 0 Z " fill="#1F3142" transform="translate(146.4375,266.5625)"/>
<path d="M0 0 C2.375 1.3125 2.375 1.3125 4 4 C4.73477865 8.94101156 4.94193299 13.34219793 2.4375 17.75 C-1.07178131 19.54963144 -3.26411481 19.03774589 -7 18 C-9.29783606 14.55324591 -9.29754883 13.06671888 -9.3125 9 C-9.32925781 7.948125 -9.34601563 6.89625 -9.36328125 5.8125 C-9 3 -9 3 -7.6640625 1.15234375 C-5.02627755 -0.67429137 -3.11520296 -0.44502899 0 0 Z " fill="#25333E" transform="translate(255,324)"/>
<path d="M0 0 C7.26 0 14.52 0 22 0 C21 6 21 6 19.0625 8.375 C14.68237143 10.69914986 10.85902671 10.78191234 6 10 C2.9375 8.375 2.9375 8.375 1 6 C0.67 4.02 0.34 2.04 0 0 Z " fill="#19CBB7" transform="translate(245,417)"/>
</svg>
