<?xml version="1.0" encoding="UTF-8"?>
<svg version="1.1" xmlns="http://www.w3.org/2000/svg" width="512" height="494">
<path d="M0 0 C0.99644531 0.50917969 1.99289062 1.01835938 3.01953125 1.54296875 C17.88365985 9.57608574 28.58147191 20.9515043 34.375 37 C41.1211233 59.77562866 38.12326367 84.04463472 31.70092773 106.54956055 C30.21365658 111.83946838 29.50222632 116.82906182 29.24609375 122.33203125 C28.83904797 126.74492443 27.4647762 130.83598213 26 135 C26.99966797 134.51660156 26.99966797 134.51660156 28.01953125 134.0234375 C36.19687582 131.21548956 46.97928158 131.97169024 54.75 135.66015625 C59.51301963 138.49646829 64.31504037 141.60332714 67.53515625 146.18359375 C69.79828732 148.98987627 72.54426015 148.56803252 76 149 C77.69172668 150.08149719 77.69172668 150.08149719 79 152 C79.39872742 155.17008972 79.39872742 155.17008972 79.43237305 159.13354492 C79.4425647 159.85574722 79.45275635 160.57794952 79.46325684 161.32203674 C79.49344195 163.70825909 79.50266087 166.09408039 79.51171875 168.48046875 C79.52856141 170.13529297 79.54671109 171.79010436 79.56611633 173.44490051 C79.61366759 177.79975375 79.64344364 182.15455499 79.66955566 186.50958252 C79.69933544 190.95375845 79.74587459 195.39775513 79.79101562 199.84179688 C79.87710701 208.56110996 79.94442615 217.28043927 80 226 C80.69268982 226.33773437 81.38537964 226.67546875 82.09906006 227.0234375 C83.00448547 227.46945312 83.90991089 227.91546875 84.84277344 228.375 C85.74171326 228.81585938 86.64065308 229.25671875 87.5668335 229.7109375 C97.34053774 234.88892906 101.66839894 246.11957726 105.03515625 256.0546875 C109.16593626 271.15605071 107.65245213 286.27522883 103 301 C102.51466797 302.57974609 102.51466797 302.57974609 102.01953125 304.19140625 C99.20284125 312.64147625 95.85008547 318.25789579 88.2578125 323.0546875 C85.22777452 324.32331932 82.24914635 324.63202439 79 325 C79.03927612 326.01368652 79.03927612 326.01368652 79.0793457 327.04785156 C79.18339264 330.11499712 79.24834947 333.18177158 79.3125 336.25 C79.35439453 337.31347656 79.39628906 338.37695312 79.43945312 339.47265625 C79.45556641 340.49746094 79.47167969 341.52226562 79.48828125 342.578125 C79.51446533 343.52075195 79.54064941 344.46337891 79.56762695 345.43457031 C78.74961042 349.1316532 77.154269 349.97585203 74 352 C71.47605454 353.35957059 68.89538703 354.55521622 66.28125 355.73046875 C65.52384521 356.07785599 64.76644043 356.42524323 63.98608398 356.78315735 C61.49366355 357.92450146 58.99687442 359.05593726 56.5 360.1875 C54.73991605 360.99149099 52.98015523 361.79618973 51.22070312 362.6015625 C47.59140968 364.26175807 43.96047604 365.91828249 40.328125 367.57177734 C34.64058444 370.16184122 28.95948616 372.76577704 23.28416443 375.38250732 C19.49903088 377.12700294 15.70910845 378.85884617 11.90649414 380.56494141 C4.79607914 383.76970169 -2.20843204 387.05395568 -9.06480408 390.77690125 C-34.0875917 404.35385167 -60.79702251 412.25873607 -89.22558594 403.85449219 C-96.53880729 401.39282208 -103.19968947 397.73191402 -109.82714844 393.82568359 C-115.12717755 390.77600541 -120.66043397 388.23232804 -126.1875 385.625 C-128.42212758 384.54479318 -130.65649833 383.46405494 -132.890625 382.3828125 C-140.68997372 378.64553314 -148.55838719 375.06535308 -156.4375 371.5 C-157.82658198 370.87093807 -159.21566077 370.24186908 -160.60473633 369.61279297 C-162.67664781 368.67473605 -164.74860273 367.73677536 -166.82063293 366.79898071 C-173.56149578 363.74746856 -180.30017571 360.6915225 -187.0227356 357.59985352 C-188.83255343 356.76947528 -190.64561292 355.94617382 -192.45874023 355.12304688 C-193.54227783 354.62353516 -194.62581543 354.12402344 -195.7421875 353.609375 C-196.6894873 353.17592773 -197.63678711 352.74248047 -198.61279297 352.29589844 C-200.95525131 351.02429188 -202.45595877 350.16698091 -204 348 C-204.34057617 345.5480957 -204.34057617 345.5480957 -204.29296875 342.67578125 C-204.28330078 341.64775391 -204.27363281 340.61972656 -204.26367188 339.56054688 C-204.23853516 338.48869141 -204.21339844 337.41683594 -204.1875 336.3125 C-204.16719727 334.68731445 -204.16719727 334.68731445 -204.14648438 333.02929688 C-204.11110643 330.35236595 -204.06174189 327.67643162 -204 325 C-205.06089844 324.8865625 -206.12179688 324.773125 -207.21484375 324.65625 C-214.00314825 323.47933033 -219.11694555 319.65928159 -223.25 314.1875 C-232.61839212 298.92145713 -234.52638923 276.70264472 -231.28125 259.46875 C-228.52082231 248.51608531 -223.80906349 238.39259845 -215 231 C-213.29718756 230.08954425 -211.57533706 229.21421127 -209.84057617 228.36621094 C-208.93546799 227.92146423 -208.0303598 227.47671753 -207.0978241 227.01849365 C-206.05940117 226.51433929 -206.05940117 226.51433929 -205 226 C-204.99635437 225.10686096 -204.99270874 224.21372192 -204.98895264 223.29351807 C-204.95108759 214.87690669 -204.89425195 206.46068339 -204.81609726 198.04434586 C-204.77658611 193.71737398 -204.74441566 189.39060671 -204.72900391 185.06347656 C-204.71386101 180.88758467 -204.67945838 176.71225516 -204.63169098 172.53661346 C-204.61685259 170.94346759 -204.60895757 169.35024143 -204.60811615 167.75702667 C-204.60575197 165.52523327 -204.57872062 163.29500104 -204.54589844 161.06347656 C-204.53701599 159.79328674 -204.52813354 158.52309692 -204.51898193 157.2144165 C-204 154 -204 154 -202.1729126 151.54290771 C-200 150 -200 150 -196.6875 150.25 C-193.07995287 150.39621879 -193.07995287 150.39621879 -191.37890625 148.48046875 C-190.25441743 147.07013864 -189.13492601 145.65581455 -188.01953125 144.23828125 C-182.90231591 138.5667834 -174.79634955 133.50434728 -167.05834961 132.83105469 C-164.95143749 132.76855417 -162.85743068 132.77583225 -160.75 132.8125 C-160.03070313 132.81314453 -159.31140625 132.81378906 -158.5703125 132.81445312 C-153.28196429 132.85901786 -153.28196429 132.85901786 -151 134 C-151.474375 132.88625 -151.94875 131.7725 -152.4375 130.625 C-154.61791968 124.78643545 -155.54859176 118.87667806 -154.375 112.72265625 C-153.9109122 108.11561799 -154.90155747 104.86405036 -156.25 100.5 C-161.16675172 82.91598567 -162.28070491 65.55131248 -162.375 47.375 C-162.38294586 46.55042297 -162.39089172 45.72584595 -162.39907837 44.87628174 C-162.41664262 42.50826631 -162.41161221 40.14146098 -162.3984375 37.7734375 C-162.40436417 37.06290222 -162.41029083 36.35236694 -162.41639709 35.62030029 C-162.34087004 30.20963879 -161.00972664 26.96696649 -157.1640625 23.203125 C-154.40849318 21.67114783 -152.51030852 21.66549034 -149.375 21.75 C-148.41335937 21.76546875 -147.45171875 21.7809375 -146.4609375 21.796875 C-144 22 -144 22 -142 23 C-141.75378906 22.43796875 -141.50757813 21.8759375 -141.25390625 21.296875 C-132.38164916 5.04489004 -113.12714022 -6.71929909 -96 -12 C-64.29836141 -20.19101797 -28.88718148 -15.59182599 0 0 Z " fill="#FE4200" transform="translate(317,89)"/>
<path d="M0 0 C0.99644531 0.50917969 1.99289062 1.01835938 3.01953125 1.54296875 C17.88365985 9.57608574 28.58147191 20.9515043 34.375 37 C41.1211233 59.77562866 38.12326367 84.04463472 31.70092773 106.54956055 C30.21365658 111.83946838 29.50222632 116.82906182 29.24609375 122.33203125 C28.83904797 126.74492443 27.4647762 130.83598213 26 135 C26.99966797 134.51660156 26.99966797 134.51660156 28.01953125 134.0234375 C36.19689696 131.2154823 46.98519964 131.96966914 54.75390625 135.6640625 C60.63025812 139.15921439 66.2031961 143.22225493 70 149 C70 149.66 70 150.32 70 151 C69.2064209 151.4218457 68.4128418 151.84369141 67.59521484 152.27832031 C51.91892015 160.61518689 36.27300263 169.00041304 20.69824219 177.52587891 C6.1640065 185.46631639 -8.42126573 193.31379799 -23.00878906 201.15576172 C-24.02295898 201.70119629 -25.03712891 202.24663086 -26.08203125 202.80859375 C-27.08451904 203.33565918 -28.08700684 203.86272461 -29.11987305 204.40576172 C-31.98835386 205.93480718 -31.98835386 205.93480718 -34.49926758 207.70751953 C-43.39820494 213.52582232 -52.77685282 213.10425765 -63.0625 213 C-63.98539825 212.99647522 -64.90829651 212.99295044 -65.85916138 212.98931885 C-79.17223443 212.87547867 -88.99000877 211.90341513 -99.75927734 203.59179688 C-104.44515959 200.26297227 -109.66548512 197.78380426 -114.75 195.125 C-116.99636261 193.92220016 -119.24116665 192.71648482 -121.484375 191.5078125 C-122.58201172 190.91774414 -123.67964844 190.32767578 -124.81054688 189.71972656 C-130.43889372 186.68496882 -136.04786702 183.61491382 -141.65771484 180.54614258 C-148.87853159 176.60067365 -156.1250485 172.70411784 -163.375 168.8125 C-172.9817436 163.65355851 -182.53066979 158.40695894 -192 153 C-192 148.19312803 -191.12110864 147.26753422 -188.04296875 143.875 C-180.00891067 136.5014859 -171.57719584 132.62411472 -160.75 132.8125 C-160.03070313 132.81314453 -159.31140625 132.81378906 -158.5703125 132.81445312 C-153.28196429 132.85901786 -153.28196429 132.85901786 -151 134 C-151.474375 132.88625 -151.94875 131.7725 -152.4375 130.625 C-154.61791968 124.78643545 -155.54859176 118.87667806 -154.375 112.72265625 C-153.9109122 108.11561799 -154.90155747 104.86405036 -156.25 100.5 C-161.16675172 82.91598567 -162.28070491 65.55131248 -162.375 47.375 C-162.38294586 46.55042297 -162.39089172 45.72584595 -162.39907837 44.87628174 C-162.41664262 42.50826631 -162.41161221 40.14146098 -162.3984375 37.7734375 C-162.40436417 37.06290222 -162.41029083 36.35236694 -162.41639709 35.62030029 C-162.34087004 30.20963879 -161.00972664 26.96696649 -157.1640625 23.203125 C-154.40849318 21.67114783 -152.51030852 21.66549034 -149.375 21.75 C-148.41335937 21.76546875 -147.45171875 21.7809375 -146.4609375 21.796875 C-144 22 -144 22 -142 23 C-141.75378906 22.43796875 -141.50757813 21.8759375 -141.25390625 21.296875 C-132.38164916 5.04489004 -113.12714022 -6.71929909 -96 -12 C-64.29836141 -20.19101797 -28.88718148 -15.59182599 0 0 Z " fill="#FBC9B0" transform="translate(317,89)"/>
<path d="M0 0 C3.18362323 0.66946522 5.55439483 2.03219962 8.296875 3.75390625 C14.39854442 7.48821261 20.6824029 10.83539528 27 14.1875 C29.49801702 15.51836724 31.9950406 16.85109477 34.4921875 18.18359375 C35.11665771 18.51649414 35.74112793 18.84939453 36.38452148 19.19238281 C45.25987344 23.92574955 54.09496975 28.73344775 62.93505859 33.53222656 C65.91892341 35.1487964 68.90624125 36.75881418 71.89453125 38.3671875 C83.22490824 44.47230637 94.48861816 50.67411885 105.65454102 57.07617188 C106.55873779 57.59244141 107.46293457 58.10871094 108.39453125 58.640625 C109.18964111 59.09727539 109.98475098 59.55392578 110.80395508 60.02441406 C112.96958355 61.24871757 112.96958355 61.24871757 115.875 62.125 C115.545 125.815 115.215 189.505 114.875 255.125 C109.73991082 254.2691518 106.13990005 253.04497054 101.6171875 250.765625 C100.92546448 250.42525208 100.23374146 250.08487915 99.52105713 249.73419189 C98.03538947 249.00242168 96.55138464 248.26726754 95.06890869 247.52905273 C91.11161039 245.55962162 87.14090854 243.61751614 83.171875 241.671875 C82.37423737 241.28008057 81.57659973 240.88828613 80.75479126 240.48461914 C73.87604323 237.11079527 66.95541736 233.83829127 60 230.625 C58.90719727 230.11984863 57.81439453 229.61469727 56.68847656 229.09423828 C50.75581525 226.35916069 44.81611001 223.63950427 38.87625122 220.92010498 C36.39494532 219.78388596 33.91400228 218.64687755 31.43310547 217.50976562 C28.23569895 216.04424511 25.03666126 214.58237799 21.83642578 213.12304688 C-3.87891209 201.37108791 -3.87891209 201.37108791 -7.125 198.125 C-7.35205078 195.78662109 -7.35205078 195.78662109 -7.3203125 192.8984375 C-7.31386719 191.8671875 -7.30742188 190.8359375 -7.30078125 189.7734375 C-7.28402344 188.69320312 -7.26726562 187.61296875 -7.25 186.5 C-7.24097656 185.41203125 -7.23195313 184.3240625 -7.22265625 183.203125 C-7.19903409 180.51019848 -7.16609556 177.81770745 -7.125 175.125 C-8.71634766 174.95484375 -8.71634766 174.95484375 -10.33984375 174.78125 C-17.12814825 173.60433033 -22.24194555 169.78428159 -26.375 164.3125 C-35.74339212 149.04645713 -37.65138923 126.82764472 -34.40625 109.59375 C-31.64582231 98.64108531 -26.93406349 88.51759845 -18.125 81.125 C-16.42218756 80.21454425 -14.70033706 79.33921127 -12.96557617 78.49121094 C-12.06046799 78.04646423 -11.1553598 77.60171753 -10.2228241 77.14349365 C-9.18440117 76.63933929 -9.18440117 76.63933929 -8.125 76.125 C-8.12135437 75.23186096 -8.11770874 74.33872192 -8.11395264 73.41851807 C-8.07608759 65.00190669 -8.01925195 56.58568339 -7.94109726 48.16934586 C-7.90158611 43.84237398 -7.86941566 39.51560671 -7.85400391 35.18847656 C-7.83886101 31.01258467 -7.80445838 26.83725516 -7.75669098 22.66161346 C-7.74185259 21.06846759 -7.73395757 19.47524143 -7.73311615 17.88202667 C-7.73075197 15.65023327 -7.70372062 13.42000104 -7.67089844 11.18847656 C-7.66201599 9.91828674 -7.65313354 8.64809692 -7.64398193 7.3394165 C-6.85744842 2.46786673 -5.00313008 0.2001252 0 0 Z " fill="#FE4200" transform="translate(120.125,238.875)"/>
<path d="M0 0 C0.99644531 0.50917969 1.99289062 1.01835938 3.01953125 1.54296875 C17.88365985 9.57608574 28.58147191 20.9515043 34.375 37 C40.94234509 59.17205443 38.17103998 82.80500126 32.4375 104.875 C32.22778564 105.68356445 32.01807129 106.49212891 31.80200195 107.32519531 C31.27152725 109.23766866 30.64482269 111.12299137 30 113 C29.34 113.33 28.68 113.66 28 114 C27.80664062 113.43410156 27.61328125 112.86820313 27.4140625 112.28515625 C27.15367187 111.55167969 26.89328125 110.81820312 26.625 110.0625 C26.36976563 109.33160156 26.11453125 108.60070312 25.8515625 107.84765625 C25.14728587 105.81317884 25.14728587 105.81317884 23 105 C18.33924679 104.20426165 15.91121872 105.46591661 12.125 108 C10.76375 108.99 9.4025 109.98 8 111 C8 105.06 8 99.12 8 93 C6.61167969 93.40992188 5.22335937 93.81984375 3.79296875 94.2421875 C-14.18189576 99.49587927 -14.18189576 99.49587927 -22.13671875 100.67578125 C-24.08522592 100.92291998 -24.08522592 100.92291998 -26 102 C-25.0925 102.556875 -24.185 103.11375 -23.25 103.6875 C-20.08814478 105.9372816 -18.07014396 107.73554221 -16 111 C-15.5625 113.6875 -15.5625 113.6875 -16 116 C-19 118 -19 118 -21.375 117.9375 C-24.82548977 116.70518222 -26.57429594 114.69522673 -29 112 C-30.20127338 110.58376964 -30.20127338 110.58376964 -33.6875 110.6875 C-38.11653953 110.73512408 -40.54587971 112.18850674 -44 115 C-44.515625 115.598125 -45.03125 116.19625 -45.5625 116.8125 C-46.036875 117.204375 -46.51125 117.59625 -47 118 C-51.42105263 117.57894737 -51.42105263 117.57894737 -53 116 C-52.77230078 110.07982031 -51.26094698 107.94784225 -47 104 C-47.61818604 103.96036133 -48.23637207 103.92072266 -48.87329102 103.87988281 C-72.6690945 102.28098149 -93.30369469 97.68986426 -112 82 C-112.7321875 81.1028125 -113.464375 80.205625 -114.21875 79.28125 C-118.19028124 76.0237019 -121.35490239 76.43513108 -126.3125 76.6875 C-129.179375 76.790625 -132.04625 76.89375 -135 77 C-135.33 87.23 -135.66 97.46 -136 108 C-141 106 -141 106 -143 105 C-145.95788569 104.5832448 -145.95788569 104.5832448 -149 105 C-150.77409808 106.92022703 -150.77409808 106.92022703 -152 109 C-152.66 109 -153.32 109 -154 109 C-160.05277555 88.49711999 -162.26438245 68.69762794 -162.375 47.375 C-162.38294586 46.55042297 -162.39089172 45.72584595 -162.39907837 44.87628174 C-162.41664262 42.50826631 -162.41161221 40.14146098 -162.3984375 37.7734375 C-162.40436417 37.06290222 -162.41029083 36.35236694 -162.41639709 35.62030029 C-162.34087004 30.20963879 -161.00972664 26.96696649 -157.1640625 23.203125 C-154.40849318 21.67114783 -152.51030852 21.66549034 -149.375 21.75 C-148.41335937 21.76546875 -147.45171875 21.7809375 -146.4609375 21.796875 C-144 22 -144 22 -142 23 C-141.63068359 22.15695313 -141.63068359 22.15695313 -141.25390625 21.296875 C-132.38164916 5.04489004 -113.12714022 -6.71929909 -96 -12 C-64.29836141 -20.19101797 -28.88718148 -15.59182599 0 0 Z " fill="#464045" transform="translate(317,89)"/>
<path d="M0 0 C12.21 0 24.42 0 37 0 C37 63.69 37 127.38 37 193 C24.46 193 11.92 193 -1 193 C-1.02259539 169.46012441 -1.04100739 145.92025764 -1.05181217 122.38037395 C-1.05696292 111.44978636 -1.06398233 100.519206 -1.07543945 89.58862305 C-1.08542362 80.05873908 -1.09186231 70.52886034 -1.09408849 60.99897128 C-1.09538926 55.95553712 -1.09843492 50.91211793 -1.10573006 45.86868858 C-1.1125492 41.11553591 -1.11460502 36.36240431 -1.11310768 31.60924721 C-1.11338137 29.87069204 -1.11535136 28.13213612 -1.11920547 26.39358521 C-1.12423505 24.00643937 -1.12296462 21.61937143 -1.12025452 19.23222351 C-1.12316736 18.55611218 -1.1260802 17.88000084 -1.12908131 17.18340129 C-1.11140384 11.36019413 -0.53416067 5.87576734 0 0 Z " fill="#AA0505" transform="translate(236,301)"/>
<path d="M0 0 C3.00629982 0.30062998 6.00102244 0.63635793 9 1 C9.89332031 1.09925781 10.78664063 1.19851562 11.70703125 1.30078125 C32.66470088 4.13909766 54.23210801 15.13150575 67.96484375 31.20703125 C82.90256785 51.70697892 82.48047222 76.15531237 78.9921875 100.1484375 C78.08933674 105.80017062 76.87628858 111.3367004 75.4375 116.875 C75.22778564 117.68356445 75.01807129 118.49212891 74.80200195 119.32519531 C74.27152725 121.23766866 73.64482269 123.12299137 73 125 C72.01 125.495 72.01 125.495 71 126 C70.80664062 125.43410156 70.61328125 124.86820312 70.4140625 124.28515625 C70.02347656 123.18494141 70.02347656 123.18494141 69.625 122.0625 C69.36976563 121.33160156 69.11453125 120.60070312 68.8515625 119.84765625 C68.14728587 117.81317884 68.14728587 117.81317884 66 117 C61.33924679 116.20426165 58.91121872 117.46591661 55.125 120 C53.76375 120.99 52.4025 121.98 51 123 C51 117.06 51 111.12 51 105 C49.74703125 105.3609375 48.4940625 105.721875 47.203125 106.09375 C45.5521611 106.56277383 43.90111511 107.03150875 42.25 107.5 C41.425 107.73847656 40.6 107.97695312 39.75 108.22265625 C38.95078125 108.44824219 38.1515625 108.67382812 37.328125 108.90625 C36.22839355 109.22045898 36.22839355 109.22045898 35.10644531 109.54101562 C33 110 33 110 29 110 C29.09087891 109.03066528 29.09087891 109.03066528 29.18359375 108.04174805 C32.17666877 75.27045457 35.12568399 42.11625528 13.48828125 14.8359375 C9.87395713 10.71662932 6.04441209 6.87386015 2.08984375 3.08203125 C1.40019531 2.39496094 0.71054687 1.70789063 0 1 C0 0.67 0 0.34 0 0 Z " fill="#292628" transform="translate(274,77)"/>
<path d="M0 0 C0.33 0 0.66 0 1 0 C1.33 46.86 1.66 93.72 2 142 C15.53 135.73 29.06 129.46 43 123 C52.77540708 118.55050436 62.55141654 114.10457064 72.33691406 109.67773438 C74.96382379 108.48165283 77.57757221 107.2601431 80.18652344 106.02539062 C80.87519501 105.70016418 81.56386658 105.37493774 82.27340698 105.03985596 C83.60001881 104.41175774 84.92506953 103.78034864 86.24832153 103.14520264 C90.779518 101 90.779518 101 93 101 C93.33 93.08 93.66 85.16 94 77 C95.67713799 79.51570698 96.6174455 81.48044717 97.6875 84.25 C100.4557397 90.54518213 104.38721668 94.54845371 110.375 97.875 C113.32245531 98.78972751 115.69797962 99.2657932 118.7265625 99.5703125 C119.52916504 99.65297363 120.33176758 99.73563477 121.15869141 99.82080078 C121.76632324 99.87993652 122.37395508 99.93907227 123 100 C123.14528105 103.74959217 123.23406281 107.49846105 123.3125 111.25 C123.35439453 112.31347656 123.39628906 113.37695312 123.43945312 114.47265625 C123.45556641 115.49746094 123.47167969 116.52226562 123.48828125 117.578125 C123.51446533 118.52075195 123.54064941 119.46337891 123.56762695 120.43457031 C122.74961042 124.1316532 121.154269 124.97585203 118 127 C115.47605454 128.35957059 112.89538703 129.55521622 110.28125 130.73046875 C109.52384521 131.07785599 108.76644043 131.42524323 107.98608398 131.78315735 C105.49366355 132.92450146 102.99687442 134.05593726 100.5 135.1875 C98.73991605 135.99149099 96.98015523 136.79618973 95.22070312 137.6015625 C91.59140968 139.26175807 87.96047604 140.91828249 84.328125 142.57177734 C77.12701299 145.85111046 69.93886734 149.15852554 62.75042725 152.46551514 C60.49980071 153.50009161 58.24832546 154.53279835 55.99658203 155.56494141 C48.61608314 158.94921278 41.24254058 162.34746897 33.88311768 165.77737427 C30.25959225 167.46607928 26.63429754 169.15096948 23.0090332 170.8359375 C21.26343164 171.64879339 19.51878852 172.46371094 17.77514648 173.28076172 C15.36022826 174.41228074 12.94220687 175.53689871 10.5234375 176.66015625 C9.80340546 176.99986954 9.08337341 177.33958282 8.34152222 177.68959045 C5.38196772 179.05710083 3.30114947 180 0 180 C0 120.6 0 61.2 0 0 Z " fill="#DD3600" transform="translate(273,314)"/>
<path d="M0 0 C1.88131961 1.19847027 3.75558339 2.40804644 5.625 3.625 C7.59716014 4.74548576 9.58744196 5.82865529 11.58056641 6.91137695 C20.53486641 11.78031431 29.33299763 16.91843939 38.12597656 22.07104492 C43.70667156 25.34096951 49.29562514 28.59526841 54.90234375 31.8203125 C55.50281525 32.16582657 56.10328674 32.51134064 56.72195435 32.86732483 C59.65065562 34.55195691 62.58054121 36.23447167 65.51171875 37.91479492 C66.5584375 38.51654541 67.60515625 39.1182959 68.68359375 39.73828125 C69.61486084 40.27235596 70.54612793 40.80643066 71.50561523 41.35668945 C73.625 42.625 73.625 42.625 74.625 43.625 C74.14508878 50.88474784 72.07642125 57.66201683 70.0625 64.625 C69.73314453 65.78128906 69.40378906 66.93757813 69.06445312 68.12890625 C68.25653335 70.96247994 67.44326057 73.79439857 66.625 76.625 C62.72210813 75.91685757 59.46014232 74.09177865 56.0078125 72.23046875 C55.3629892 71.88718033 54.71816589 71.54389191 54.05380249 71.19020081 C51.95016242 70.06868005 49.85003505 68.94075459 47.75 67.8125 C46.28985838 67.03195556 44.82957084 66.25168403 43.36914062 65.47167969 C32.64608121 59.73780293 21.96293637 53.93188846 11.29980469 48.08740234 C6.4575315 45.43997478 1.60338091 42.8144912 -3.25 40.1875 C-4.72799072 39.38662964 -4.72799072 39.38662964 -6.23583984 38.56958008 C-11.49123987 35.72279809 -16.75081128 32.88402485 -22.015625 30.0546875 C-23.10117676 29.47001709 -24.18672852 28.88534668 -25.30517578 28.28295898 C-27.38035871 27.16544301 -29.45678805 26.05023737 -31.53466797 24.93774414 C-36.31116738 22.36279088 -40.93236617 19.7438187 -45.375 16.625 C-41.53790147 7.55549438 -33.38765556 2.08248865 -24.5078125 -1.546875 C-16.62871261 -3.62962958 -7.29248914 -4.00238939 0 0 Z " fill="#FBE6C9" transform="translate(169.375,224.375)"/>
<path d="M0 0 C5.49319958 -0.36621331 5.49319958 -0.36621331 7.67667103 1.21156025 C9.40252867 3.54400553 9.37004837 4.91495663 9.36076355 7.80253601 C9.36488754 8.79111603 9.36901154 9.77969604 9.3732605 10.79823303 C9.36247467 11.88148361 9.35168884 12.96473419 9.34057617 14.08081055 C9.34123329 15.7932193 9.34123329 15.7932193 9.34190369 17.54022217 C9.33980971 21.32256025 9.31644927 25.10445788 9.29296875 28.88671875 C9.28737498 31.50559751 9.28310385 34.12447941 9.28010559 36.74336243 C9.27077849 42.9375914 9.24615584 49.13166168 9.21605712 55.32582074 C9.18253371 62.37772889 9.16603231 69.42964458 9.15097082 76.48161256 C9.11960677 90.9878236 9.06683341 105.49390958 9 120 C8.11231934 120.11609619 7.22463867 120.23219238 6.31005859 120.35180664 C5.14297363 120.51543701 3.97588867 120.67906738 2.7734375 120.84765625 C1.039729 121.08367554 1.039729 121.08367554 -0.72900391 121.32446289 C-6.96741822 122.61284119 -10.39517848 125.72572078 -14.00390625 130.83984375 C-15.25619672 132.80556031 -16.47495933 134.79321069 -17.65234375 136.8046875 C-18.31943359 137.89136719 -18.31943359 137.89136719 -19 139 C-19.33 139 -19.66 139 -20 139 C-20 97.09 -20 55.18 -20 12 C-2 2 -2 2 0 2 C0 1.34 0 0.68 0 0 Z " fill="#DD3700" transform="translate(387,238)"/>
<path d="M0 0 C12.26853812 4.6007018 17.6656883 10.83236045 23.1875 22.51171875 C30.45340063 39.52781691 29.48144829 57.6514987 24 75 C23.67644531 76.05316406 23.35289062 77.10632813 23.01953125 78.19140625 C19.88221599 87.60335203 15.97300526 93.45718144 7 98 C0.73052477 100.08982508 -7.29647642 100.23194895 -13.375 97.4375 C-22.00930008 92.22777463 -25.88805912 85.33582265 -29 76 C-29.89472092 67.58618211 -28.13445029 59.63543464 -23.25 52.6875 C-19.62868325 48.22632674 -15.51487676 44.83829225 -10 43 C-6.7 43 -3.4 43 0 43 C0 28.81 0 14.62 0 0 Z " fill="#F1B091" transform="translate(396,315)"/>
<path d="M0 0 C9.04680241 4.06222751 16.02483305 9.47818586 21.6640625 17.70703125 C21.6640625 18.36703125 21.6640625 19.02703125 21.6640625 19.70703125 C20.74931152 20.18946289 19.83456055 20.67189453 18.89208984 21.16894531 C2.89357842 29.60929812 -13.09093573 38.06709027 -28.953125 46.76171875 C-35.27567541 50.22661926 -41.61640997 53.65757162 -47.9609375 57.08203125 C-49.01603516 57.6534082 -50.07113281 58.22478516 -51.15820312 58.81347656 C-58.15077132 62.58363257 -65.21060648 66.19440987 -72.3359375 69.70703125 C-73.50835643 65.95780874 -74.66546094 62.20422924 -75.80883789 58.44604492 C-76.39127051 56.54294935 -76.98560423 54.64350928 -77.58007812 52.74414062 C-78.12631836 50.94106445 -78.12631836 50.94106445 -78.68359375 49.1015625 C-79.02398682 47.99659424 -79.36437988 46.89162598 -79.71508789 45.75317383 C-80.37197261 42.53022825 -80.53963957 40.76511154 -79.3359375 37.70703125 C-77.27661133 36.06054688 -77.27661133 36.06054688 -74.54296875 34.61328125 C-73.02461426 33.78981201 -73.02461426 33.78981201 -71.47558594 32.94970703 C-70.37762695 32.37462402 -69.27966797 31.79954102 -68.1484375 31.20703125 C-65.85682842 29.96714112 -63.56648743 28.72490473 -61.27734375 27.48046875 C-60.11605957 26.85366211 -58.95477539 26.22685547 -57.75830078 25.58105469 C-52.63449731 22.77535377 -47.60539917 19.81939709 -42.5859375 16.83203125 C-41.6786792 16.29392822 -40.7714209 15.7558252 -39.83666992 15.20141602 C-34.84653975 12.23198734 -29.89168459 9.21127813 -24.9609375 6.14453125 C-9.18401227 -3.55961131 -9.18401227 -3.55961131 0 0 Z " fill="#FAE6C8" transform="translate(345.3359375,231.29296875)"/>
<path d="M0 0 C0.495 8.415 0.495 8.415 1 17 C2.19625 16.01 3.3925 15.02 4.625 14 C7.38610895 11.941364 8.81225718 11.03610439 12.25 10.375 C15.69375368 11.15767129 16.71999963 12.34076109 19 15 C22.94360989 23.12784683 21.70961294 29.71104769 19 38 C18.65470144 39.33028485 18.3161942 40.66249855 18 42 C18.66644531 41.67773438 19.33289063 41.35546875 20.01953125 41.0234375 C28.19689696 38.2154823 38.98519964 38.96966914 46.75390625 42.6640625 C52.63025812 46.15921439 58.2031961 50.22225493 62 56 C62 56.66 62 57.32 62 58 C52.595 62.95 52.595 62.95 43 68 C38 63 38 63 36.47265625 61.2265625 C30.93450682 54.9366975 22.7536631 50.38462136 14.59765625 48.421875 C6.39793332 47.9672369 -1.05101169 54.24634357 -7.66796875 58.359375 C-13.03143917 61.65299157 -18.45549597 64.84377635 -23.89263916 68.01376343 C-25.08962844 68.71316385 -26.28490622 69.41550166 -27.47845459 70.12075806 C-29.17246333 71.12085498 -30.87322054 72.10949404 -32.57421875 73.09765625 C-33.57026123 73.68039307 -34.56630371 74.26312988 -35.5925293 74.86352539 C-36.38699463 75.23856201 -37.18145996 75.61359863 -38 76 C-38.66 75.67 -39.32 75.34 -40 75 C-39.54109375 74.16339844 -39.0821875 73.32679688 -38.609375 72.46484375 C-31.59307474 59.15450943 -28.53748444 46.91644735 -28.41455078 31.88061523 C-28.40020996 31.01637939 -28.38586914 30.15214355 -28.37109375 29.26171875 C-28.3700061 28.10095825 -28.3700061 28.10095825 -28.36889648 26.91674805 C-28.24716064 26.28422119 -28.1254248 25.65169434 -28 25 C-27.01 24.34 -26.02 23.68 -25 23 C-25.18046022 18.39826436 -25.45561413 16.53228841 -28.8125 13.25 C-29.864375 12.5075 -30.91625 11.765 -32 11 C-33.33589159 10.00342013 -34.66978947 9.00415025 -36 8 C-35.38592285 7.86424561 -34.7718457 7.72849121 -34.13916016 7.58862305 C-31.30024516 6.95873045 -28.46263249 6.32314425 -25.625 5.6875 C-24.65949219 5.47416016 -23.69398438 5.26082031 -22.69921875 5.04101562 C-17.09765936 3.78160462 -11.62748055 2.34771843 -6.16943359 0.56176758 C-4 0 -4 0 0 0 Z " fill="#EFAF91" transform="translate(325,182)"/>
<path d="M0 0 C7.01003863 4.84433564 10.61656202 10.22758203 12.5625 18.5 C13.51481739 27.77256403 13.28906463 35.85995857 7.5625 43.5 C2.31940065 49.3914997 -3.2174712 52.8013796 -11.03515625 53.84765625 C-18.95814025 54.28225031 -25.32259953 52.15479557 -31.2890625 46.85546875 C-38.27844851 39.22911899 -39.17369057 31.57456615 -38.83984375 21.671875 C-38.18031068 12.5082691 -33.54559788 6.96825003 -26.81640625 1.09375 C-18.99600764 -4.14553183 -8.18705411 -4.55799684 0 0 Z " fill="#FCC9AF" transform="translate(128.4375,360.5)"/>
<path d="M0 0 C3.0625 0.375 3.0625 0.375 4.75 2 C6.0625 4.375 6.0625 4.375 7.3125 7.25 C10.00799041 12.06337574 13.79463617 15.61904539 19.0625 17.375 C22.61795862 17.36635976 26.16175929 17.24421681 29.71484375 17.1171875 C33.0625 17.375 33.0625 17.375 35.50390625 18.5078125 C37.69121808 21.12820111 37.35659279 23.06645615 37.0625 26.375 C36.31484375 26.75011719 35.5671875 27.12523438 34.796875 27.51171875 C27.19750513 31.46060597 22.58323466 34.57008781 19.578125 42.9140625 C18.69483144 47.12978178 19.01166617 51.33710914 19.25 55.6171875 C19.1571875 56.98230469 19.1571875 56.98230469 19.0625 58.375 C16.0625 60.375 16.0625 60.375 13.5625 60.3125 C10.19107948 59.0482173 9.68347946 57.54648155 8.0625 54.375 C4.43100878 48.44356433 0.78313487 44.51466917 -5.9375 42.375 C-9.56293005 42.28045931 -13.13532987 42.44065647 -16.7578125 42.59765625 C-19.9375 42.375 -19.9375 42.375 -21.83984375 41.02734375 C-23.42682207 38.63840486 -23.42788183 37.17718188 -22.9375 34.375 C-20.82776585 32.26526585 -18.70399833 31.26570135 -16 30 C-10.61823689 27.14437059 -7.43016312 23.65997303 -5.421875 17.8359375 C-4.5912582 13.61586829 -4.83372617 9.41225749 -5.02734375 5.1328125 C-4.89761371 1.15066444 -3.88505431 0.49596438 0 0 Z " fill="#820D8D" transform="translate(419.9375,50.625)"/>
<path d="M0 0 C5.58757127 3.56673299 9.10635867 7.53391976 11.21875 13.87109375 C11.69344459 20.92170457 11.69344459 20.92170457 10.21875 23.87109375 C8.89875 23.87109375 7.57875 23.87109375 6.21875 23.87109375 C6.13625 24.59296875 6.05375 25.31484375 5.96875 26.05859375 C5.03456801 29.56177619 3.77969911 31.31014464 1.21875 33.87109375 C-2.03125 35.18359375 -2.03125 35.18359375 -4.78125 35.87109375 C-4.905 36.67546875 -5.02875 37.47984375 -5.15625 38.30859375 C-5.465625 39.57703125 -5.465625 39.57703125 -5.78125 40.87109375 C-9.45256957 42.70675354 -13.14348633 42.34308814 -17.03125 41.22265625 C-23.55593071 38.64364394 -27.9026172 34.84861286 -30.9140625 28.47265625 C-33.06323827 22.02512895 -32.51287199 15.64500037 -29.71875 9.49609375 C-23.85786229 -1.00675061 -11.11146306 -4.51013037 0 0 Z " fill="#133EC4" transform="translate(172.78125,1.12890625)"/>
<path d="M0 0 C3.71510878 0.6191848 4.59628459 1.66410142 7 4.5 C10.94360989 12.62784683 9.70961294 19.21104769 7 27.5 C6.65470144 28.83028485 6.3161942 30.16249855 6 31.5 C6.66644531 31.17773438 7.33289063 30.85546875 8.01953125 30.5234375 C16.19689696 27.7154823 26.98519964 28.46966914 34.75390625 32.1640625 C40.63025812 35.65921439 46.2031961 39.72225493 50 45.5 C50 46.16 50 46.82 50 47.5 C43.73 50.8 37.46 54.1 31 57.5 C26 52.5 26 52.5 24.47265625 50.7265625 C19.00297224 44.514456 10.68533708 39.66760477 2.52734375 37.9921875 C-1.55815006 37.8819815 -5.23839377 38.99535751 -9 40.5 C-13.68803122 35.81196878 -12.29250355 26.63723043 -12.375 20.375 C-12.41238281 19.29089844 -12.44976562 18.20679688 -12.48828125 17.08984375 C-12.57689189 9.12473171 -12.57689189 9.12473171 -9.59765625 5.8984375 C-8.74042969 5.43695313 -7.88320313 4.97546875 -7 4.5 C-6.360625 3.7575 -5.72125 3.015 -5.0625 2.25 C-3 0.5 -3 0.5 0 0 Z " fill="#ECC28B" transform="translate(337,192.5)"/>
<path d="M0 0 C6.875 0.875 6.875 0.875 8 2 C9.00804587 7.61625558 6.47695113 10.81986698 3.59375 15.35546875 C-4.87884776 29.41416651 -6.07266774 46.80874607 -3 62.6875 C1.02674336 77.45849782 9.21529968 91.16804055 21.625 100.25 C24.15234375 102.14453125 24.15234375 102.14453125 26 104 C26.1875 107.9375 26.1875 107.9375 25 111 C24 112 24 112 21.0625 112.125 C15.0702248 111.18986054 11.12629664 106.06610754 7 102 C6.37996094 101.46375 5.75992187 100.9275 5.12109375 100.375 C-6.88744115 89.67598051 -14.21183505 71.48315167 -15.13916016 55.61938477 C-15.87290601 35.56426726 -13.10193424 16.12231783 0 0 Z " fill="#0B4D92" transform="translate(15,326)"/>
<path d="M0 0 C3.09765625 0.41796875 3.09765625 0.41796875 5.0390625 2.3671875 C17.07716273 22.70142427 21.55099647 45.22888574 15.69287109 68.37548828 C10.70102786 85.5050045 0.10919841 100.55861349 -13.98046875 111.45703125 C-16.45449171 112.69404273 -18.17107178 112.73036914 -20.90234375 112.41796875 C-22.90234375 110.41796875 -22.90234375 110.41796875 -23.40625 107.65625 C-22.70746831 103.16562969 -20.18340846 101.35607707 -16.83984375 98.60546875 C-15.63512647 97.55034519 -14.43457855 96.49044186 -13.23828125 95.42578125 C-12.65916992 94.91176758 -12.08005859 94.39775391 -11.48339844 93.86816406 C0.01777199 83.31891262 6.43813924 66.36099008 7.22265625 50.96484375 C7.53860346 37.14215327 4.33746071 24.42130243 -2.71484375 12.48046875 C-4.75363222 8.99272999 -5.60526366 6.53507108 -4.90234375 2.41796875 C-2.90234375 0.41796875 -2.90234375 0.41796875 0 0 Z " fill="#0B4D92" transform="translate(493.90234375,306.58203125)"/>
<path d="M0 0 C0 14.19 0 28.38 0 43 C-2.97 43.99 -5.94 44.98 -9 46 C-15.51420805 49.91059942 -19.7274711 55.80695199 -22 63 C-22.64299368 67.33780813 -22.9244411 71.61758377 -23 76 C-30.55310107 64.6703484 -29.68783222 46.36992835 -27.2734375 33.49609375 C-24.3663732 21.78511522 -18.93016476 9.91624376 -8.296875 3.32421875 C-1.74207746 0 -1.74207746 0 0 0 Z " fill="#FEB90B" transform="translate(113,315)"/>
<path d="M0 0 C12.26853812 4.6007018 17.6656883 10.83236045 23.1875 22.51171875 C30.47996991 39.59003983 29.38448468 57.57253843 24 75 C23.67 75 23.34 75 23 75 C22.97421875 74.31035156 22.9484375 73.62070312 22.921875 72.91015625 C22.31846562 62.91275992 19.51438949 54.88819036 12 48 C8.13528377 45.1869654 4.75342272 43.95068454 0 43 C0 28.81 0 14.62 0 0 Z " fill="#FEB80B" transform="translate(396,315)"/>
<path d="M0 0 C5.64852048 3.54674542 10.22323027 8.9520247 12.25390625 15.359375 C13.97428359 24.59671642 13.47363395 34.07522569 8.140625 41.98046875 C5.56407024 45.2011622 3.42674521 47.33327834 -0.3125 49.125 C-4.36041735 48.53467872 -5.99902753 46.84648073 -8.703125 43.8671875 C-13.83310556 36.91930121 -16.02386986 29.22393826 -15.3125 20.6875 C-13.85521497 12.68478221 -10.49620113 6.24843646 -4.265625 0.9453125 C-2.3125 -0.3125 -2.3125 -0.3125 0 0 Z " fill="#FBC8AF" transform="translate(382.3125,361.3125)"/>
<path d="M0 0 C6.27 0 12.54 0 19 0 C20.28558866 4.2164247 21.56861978 8.43345568 22.84521484 12.65258789 C23.2802473 14.08761105 23.71676096 15.52218604 24.15478516 16.95629883 C24.7841779 19.01788118 25.40822413 21.08101718 26.03125 23.14453125 C26.59682617 25.00621948 26.59682617 25.00621948 27.17382812 26.90551758 C28 30 28 30 28 33 C15.79 33 3.58 33 -9 33 C-8.33884993 28.37194954 -7.69863795 24.52366607 -6.40625 20.13671875 C-6.09816406 19.08548828 -5.79007813 18.03425781 -5.47265625 16.95117188 C-5.15167969 15.87416016 -4.83070313 14.79714844 -4.5 13.6875 C-4.01853516 12.04297852 -4.01853516 12.04297852 -3.52734375 10.36523438 C-1.14773261 2.29546523 -1.14773261 2.29546523 0 0 Z " fill="#CCB07A" transform="translate(245,268)"/>
<path d="M0 0 C2.64 4.62 5.28 9.24 8 14 C9.711875 13.01 11.42375 12.02 13.1875 11 C16.94371839 8.82772913 19.60820065 7.36063926 24 8 C25.93268998 10.31922798 27.01139986 11.86913428 26.98046875 14.9375 C25.44207749 18.17363778 22.52037406 19.23617565 19.4375 20.75 C18.82197266 21.06582031 18.20644531 21.38164063 17.57226562 21.70703125 C16.05438979 22.48361889 14.52796466 23.24345561 13 24 C13.44472656 24.88042969 13.88945313 25.76085937 14.34765625 26.66796875 C15.19650391 28.41013672 15.19650391 28.41013672 16.0625 30.1875 C16.63097656 31.33605469 17.19945312 32.48460937 17.78515625 33.66796875 C19.04125973 37.11316577 19.12742053 38.57908399 18 42 C14.535 42.495 14.535 42.495 11 43 C10.03874097 41.58531689 9.08111675 40.1681636 8.125 38.75 C7.59132813 37.96109375 7.05765625 37.1721875 6.5078125 36.359375 C5.18177985 34.28444308 4.05071825 32.22385028 3 30 C-0.21275384 30.99442381 -3.01184346 32.00680369 -5.9375 33.6875 C-9.72441181 35.31046221 -12.03535221 34.87222251 -16 34 C-16.6875 31.1875 -16.6875 31.1875 -17 28 C-14.8536289 25.17658567 -12.07826716 23.85281733 -8.9375 22.3125 C-7.62072266 21.65701172 -7.62072266 21.65701172 -6.27734375 20.98828125 C-4 20 -4 20 -2 20 C-2.6496875 18.82244141 -2.6496875 18.82244141 -3.3125 17.62109375 C-8.84358524 7.18629174 -8.84358524 7.18629174 -8 1 C-6 0 -6 0 0 0 Z " fill="#0B4D93" transform="translate(52,76)"/>
<path d="M0 0 C2.5625 0.3125 2.5625 0.3125 4.4375 1.4375 C5.5625 3.3125 5.5625 3.3125 5.5625 5.8125 C4.36872572 9.99070998 2.62156761 13.72923643 0.71875 17.62890625 C-3.12011123 26.53869565 -1.94432135 35.59556149 1.30078125 44.48828125 C3.94776387 50.41326093 7.72524312 54.57581652 12.5 58.875 C14.28125 60.5703125 14.28125 60.5703125 15.5625 62.3125 C15.5 66.25 15.5 66.25 14.5625 69.3125 C10.4974035 70.10784497 8.58318348 69.99241986 5.08203125 67.66015625 C-4.60319015 59.32295356 -10.65611564 49.01865746 -12.4375 36.3125 C-13.27124741 23.96662491 -11.48312645 12.68329008 -4.4375 2.3125 C-2.4375 0.3125 -2.4375 0.3125 0 0 Z " fill="#0B4E92" transform="translate(54.4375,346.6875)"/>
<path d="M0 0 C3.82836336 0.8098461 4.24751162 1.46593289 6.4375 4.5625 C13.59798507 16.57786892 14.60098322 30.26535525 11.25 43.6875 C7.81671411 55.37783845 0.44427503 63.03602849 -8.75 70.6875 C-10.73 70.0275 -12.71 69.3675 -14.75 68.6875 C-15.28027966 65.85934182 -15.5143611 64.40696159 -14.75 61.6875 C-12.95703125 59.86328125 -12.95703125 59.86328125 -10.625 58 C-4.4187073 52.99776724 -0.11220623 45.62637931 1.25 37.6875 C1.98434746 26.78063441 1.4868092 18.0427138 -4.75 8.6875 C-5 5.625 -5 5.625 -4.75 2.6875 C-2.75 0.6875 -2.75 0.6875 0 0 Z " fill="#0B4D92" transform="translate(456.75,327.3125)"/>
<path d="M0 0 C4.30764815 1.56641751 8.06171464 3.68336156 12 6 C11.34 7.010625 10.68 8.02125 10 9.0625 C7.84500284 12.78062891 7.64809428 15.68915491 8 20 C11.71599191 20.20086443 12.77208445 20.1519437 16 18 C15.9278125 18.70125 15.855625 19.4025 15.78125 20.125 C15.33989539 24.63662494 14.94129534 29.02833488 15.125 33.5625 C15.08375 34.696875 15.0425 35.83125 15 37 C12 39 12 39 9.5 38.9375 C6.12857948 37.6732173 5.62097946 36.17148155 4 33 C0.36850878 27.06856433 -3.27936513 23.13966917 -10 21 C-13.62543005 20.90545931 -17.19782987 21.06565647 -20.8203125 21.22265625 C-24 21 -24 21 -25.90234375 19.65234375 C-27.48932207 17.26340486 -27.49038183 15.80218188 -27 13 C-24.9121114 10.9121114 -22.78905463 9.89911308 -20.125 8.625 C-16.57029921 6.77655559 -13.99843625 4.64147955 -11 2 C-10.34 3.98 -9.68 5.96 -9 8 C-7.35 8 -5.7 8 -4 8 C-2.68 5.36 -1.36 2.72 0 0 Z " fill="#CA4ACE" transform="translate(424,72)"/>
<path d="M0 0 C3.71510878 0.6191848 4.59628459 1.66410142 7 4.5 C10.41112772 11.53039205 10.19688331 17.47559775 7.95703125 24.82421875 C5.10169492 32.80750605 5.10169492 32.80750605 1.8125 34.875 C1.214375 35.08125 0.61625 35.2875 0 35.5 C0 36.16 0 36.82 0 37.5 C-2.97 38.49 -5.94 39.48 -9 40.5 C-13.68803122 35.81196878 -12.29250355 26.63723043 -12.375 20.375 C-12.41238281 19.29089844 -12.44976562 18.20679688 -12.48828125 17.08984375 C-12.57689189 9.12473171 -12.57689189 9.12473171 -9.59765625 5.8984375 C-8.74042969 5.43695313 -7.88320313 4.97546875 -7 4.5 C-6.360625 3.7575 -5.72125 3.015 -5.0625 2.25 C-3 0.5 -3 0.5 0 0 Z " fill="#F6CE9F" transform="translate(337,192.5)"/>
<path d="M0 0 C3.35618782 4.4540224 5.18173421 9.98656184 7.265625 15.12109375 C7.66328064 16.09861099 8.06093628 17.07612823 8.47064209 18.08326721 C9.30680083 20.14573518 10.14042667 22.2092316 10.97167969 24.27368164 C12.24630516 27.42835533 13.54091813 30.57435671 14.8359375 33.72070312 C15.647086 35.72866109 16.45702306 37.73710894 17.265625 39.74609375 C17.65510315 40.68376083 18.0445813 41.62142792 18.44586182 42.58750916 C20.35763678 47.40742702 21.69505947 50.84254758 20 56 C19 57 19 57 16.125 57.25 C13 57 13 57 11.43597412 55.77609253 C9.76854518 53.71372382 8.88843233 51.79396806 7.89941406 49.33251953 C7.51601868 48.38788849 7.13262329 47.44325745 6.73760986 46.47000122 C6.33435486 45.45122894 5.93109985 44.43245667 5.515625 43.3828125 C5.09577332 42.33350555 4.67592163 41.28419861 4.24334717 40.20309448 C3.3585501 37.98384499 2.47789446 35.76294054 1.60107422 33.54052734 C0.25564515 30.139271 -1.11160732 26.74735084 -2.48046875 23.35546875 C-3.33728415 21.1984511 -4.19279691 19.04091546 -5.046875 16.8828125 C-5.45822693 15.86808868 -5.86957886 14.85336487 -6.293396 13.80789185 C-6.66418274 12.85695648 -7.03496948 11.90602112 -7.41699219 10.92626953 C-7.74769714 10.09370636 -8.0784021 9.26114319 -8.41912842 8.40335083 C-9.10597678 5.56152205 -8.88976238 3.77104607 -8 1 C-5.13879744 -0.43060128 -3.15989415 -0.38692581 0 0 Z " fill="#0B4E92" transform="translate(74,207)"/>
<path d="M0 0 C0.928125 0.20625 1.85625 0.4125 2.8125 0.625 C4.64626287 7.51119905 2.4872929 12.30163237 -0.140625 18.73828125 C-0.55664978 19.78904343 -0.97267456 20.8398056 -1.40130615 21.92240906 C-2.28141502 24.1350541 -3.16947225 26.34455203 -4.06494141 28.55102539 C-5.43686596 31.93593566 -6.78074881 35.33099415 -8.12109375 38.72851562 C-8.9801378 40.87825745 -9.84076081 43.02736914 -10.703125 45.17578125 C-11.10638 46.1934407 -11.50963501 47.21110016 -11.92510986 48.25959778 C-12.30850525 49.19784897 -12.69190063 50.13610016 -13.08691406 51.1027832 C-13.58774506 52.34352348 -13.58774506 52.34352348 -14.09869385 53.60932922 C-15.1875 55.625 -15.1875 55.625 -18.1875 57.625 C-21.50990324 57.3008631 -22.79526303 57.01723697 -25.1875 54.625 C-26.12316874 48.56278472 -23.38671207 43.31656122 -21.13671875 37.828125 C-20.72210892 36.79814392 -20.30749908 35.76816284 -19.88032532 34.70697021 C-19.00351299 32.53647049 -18.12149164 30.36806872 -17.23461914 28.20166016 C-15.8764604 24.87857326 -14.53973365 21.54742922 -13.20507812 18.21484375 C-12.35022713 16.106256 -11.49414925 13.99816515 -10.63671875 11.890625 C-10.2366008 10.89170227 -9.83648285 9.89277954 -9.42424011 8.86358643 C-9.04407242 7.9421283 -8.66390472 7.02067017 -8.2722168 6.07128906 C-7.94134567 5.25887756 -7.61047455 4.44646606 -7.26957703 3.60943604 C-5.38843148 0.15957719 -3.82563163 -0.45007431 0 0 Z " fill="#0B4C93" transform="translate(434.1875,192.375)"/>
<path d="M0 0 C2.71951885 1.02226336 5.41401969 2.09394934 8.10604858 3.18655396 C9.09022263 3.57992447 10.07439667 3.97329498 11.08839417 4.37858582 C13.15819375 5.20790485 15.22647466 6.04102314 17.29330444 6.87771606 C20.4646397 8.16047316 23.64131123 9.42924257 26.81893921 10.69631958 C28.83163891 11.5047435 30.84402021 12.31396067 32.85604858 13.12405396 C34.28410576 13.69445656 34.28410576 13.69445656 35.74101257 14.27638245 C36.61920151 14.63337723 37.49739044 14.99037201 38.40219116 15.35818481 C39.17605667 15.67049545 39.94992218 15.98280609 40.74723816 16.30458069 C42.64901733 17.22171021 42.64901733 17.22171021 44.64901733 19.22171021 C44.77401733 22.84671021 44.77401733 22.84671021 44.64901733 26.22171021 C41.73804464 27.77237822 39.57362675 28.43497091 36.31570435 27.68353271 C33.47480762 26.66547633 30.70183843 25.54205579 27.92245483 24.36624146 C26.8972171 23.94880173 25.87197937 23.531362 24.81567383 23.10127258 C22.65198342 22.21628005 20.49199251 21.32219585 18.33554077 20.41970825 C15.03624087 19.03932437 11.72693143 17.68582167 8.41464233 16.33694458 C6.31244307 15.47325846 4.21085869 14.60807389 2.10995483 13.74124146 C1.12135468 13.3348494 0.13275452 12.92845734 -0.88580322 12.50975037 C-1.80711029 12.12312729 -2.72841736 11.73650421 -3.67764282 11.33816528 C-4.4856131 11.00126175 -5.29358337 10.66435822 -6.1260376 10.31724548 C-8.43953938 9.17810598 -10.34190555 7.83060529 -12.35098267 6.22171021 C-12.09536943 3.8785889 -11.75827494 1.54327618 -11.35098267 -0.77828979 C-7.68431128 -2.61162549 -3.72754101 -1.23399767 0 0 Z " fill="#0B4D93" transform="translate(16.350982666015625,273.7782897949219)"/>
<path d="M0 0 C2 3 2 3 1.9375 5.5 C0.49923333 9.33537779 -2.38942559 10.26735408 -6.01870728 11.91830444 C-8.46736614 12.97501393 -10.92751289 13.99860918 -13.39453125 15.01171875 C-14.75380989 15.57135063 -14.75380989 15.57135063 -16.14054871 16.14228821 C-18.05341024 16.92709121 -19.96727816 17.70944517 -21.88208008 18.48950195 C-24.79732251 19.68129522 -27.70416348 20.89217652 -30.61132812 22.10351562 C-32.47607338 22.86578097 -34.34129298 23.62688717 -36.20703125 24.38671875 C-37.06875443 24.74916183 -37.9304776 25.11160492 -38.8183136 25.48503113 C-44.13161975 27.61691783 -48.26565009 28.5726778 -54 28 C-56 26 -56 26 -56.625 23.6875 C-56 21 -56 21 -54.54093933 19.79293823 C-49.21783879 16.53586155 -43.78650247 14.04918658 -37.98828125 11.7578125 C-37.05702927 11.3851828 -36.12577728 11.0125531 -35.16630554 10.62863159 C-33.21233516 9.84992821 -31.25672285 9.07533329 -29.29956055 8.3046875 C-26.30474211 7.12193616 -23.31941347 5.91716158 -20.33398438 4.7109375 C-18.42761888 3.9543783 -16.52073507 3.19912357 -14.61328125 2.4453125 C-13.7236116 2.08398224 -12.83394196 1.72265198 -11.91731262 1.35037231 C-11.08261948 1.02608246 -10.24792633 0.7017926 -9.38793945 0.36767578 C-8.65928177 0.07853302 -7.93062408 -0.21060974 -7.17988586 -0.5085144 C-4.43192932 -1.12807944 -2.66816344 -0.87735104 0 0 Z " fill="#0B4E92" transform="translate(498,259)"/>
<path d="M0 0 C0.33 0 0.66 0 1 0 C1.13651755 21.69158889 0.82436477 43.32315295 0 65 C-6.07447607 63.02987149 -12.51882861 60.74183129 -16.20703125 55.1796875 C-17.05434529 53.11775086 -17.57254242 51.1878056 -18 49 C-18.16242188 48.20207031 -18.32484375 47.40414062 -18.4921875 46.58203125 C-19.4069089 40.561671 -18.81146967 35.45558996 -16 30 C-13.99835679 27.59585245 -13.42079401 27.0669445 -10.25 26.5625 C-7 27 -7 27 0 31 C0 20.77 0 10.54 0 0 Z " fill="#F1CA9C" transform="translate(181,166)"/>
<path d="M0 0 C2 2 2 2 2.06640625 5.1875 C0.62000461 10.35851832 -2.07864672 12.57101682 -6.0625 16 C-6.74844238 16.61375488 -7.43438477 17.22750977 -8.14111328 17.85986328 C-10.08052342 19.58945823 -12.03714673 21.29711669 -14 23 C-14.81082031 23.71929687 -15.62164062 24.43859375 -16.45703125 25.1796875 C-17.68528681 26.26535534 -18.92283209 27.34065727 -20.171875 28.40234375 C-21.57194518 29.62590936 -22.92913332 30.89869619 -24.265625 32.19140625 C-25.43351562 33.30322266 -25.43351562 33.30322266 -26.625 34.4375 C-27.66527344 35.45650391 -27.66527344 35.45650391 -28.7265625 36.49609375 C-31.67569024 38.44697722 -33.53075422 38.42296284 -37 38 C-39 36 -39 36 -39.5859375 33.33203125 C-38.6869531 28.21980661 -35.43271593 26.00012385 -31.625 22.6875 C-30.89418213 22.02886963 -30.16336426 21.37023926 -29.41040039 20.69165039 C-27.95097161 19.37917966 -26.48532576 18.07358523 -25.01318359 16.77539062 C-23.31340474 15.27638604 -21.62968214 13.76345813 -19.95703125 12.234375 C-18.35033127 10.76966246 -16.73404539 9.31534919 -15.10546875 7.875 C-13.73062676 6.65065091 -12.37756772 5.40126755 -11.05078125 4.125 C-7.42293966 0.72537404 -5.23238079 -0.97346619 0 0 Z " fill="#0B4D92" transform="translate(498,198)"/>
<path d="M0 0 C3.70116811 1.64496361 5.96045688 3.50364036 8 7 C8.33 8.19625 8.66 9.3925 9 10.625 C9.68257524 14.25073889 9.68257524 14.25073889 13 16 C12.49593201 20.4105949 11.13906582 22.86093418 8 26 C4.75 27.3125 4.75 27.3125 2 28 C1.67 27.54625 1.34 27.0925 1 26.625 C-1.08119421 24.67453233 -1.08119421 24.67453233 -4.8125 24.25 C-9.11402453 23.2879215 -11.28820028 21.40401897 -13.93359375 17.9296875 C-15.67375923 14.78081664 -15.57256973 12.49903723 -15 9 C-12.06205449 1.36134168 -8.22847396 -1.2129623 0 0 Z " fill="#0187EE" transform="translate(166,9)"/>
<path d="M0 0 C5.16287158 0.8604786 7.69542667 3.99964101 11.375 7.5625 C12.8690017 8.93913006 14.36324278 10.31552045 15.86352539 11.68530273 C16.91198944 12.64432127 17.9567701 13.6073825 18.99780273 14.57446289 C21.75952982 17.13377823 24.57724674 19.52134883 27.5625 21.8125 C30.375 24.5625 30.375 24.5625 31.4375 28.3125 C31.375 31.5625 31.375 31.5625 29.375 33.5625 C26.640625 34.02734375 26.640625 34.02734375 23.375 33.5625 C21.03861006 31.81020755 19.15408112 30.179044 17.125 28.125 C15.98500648 27.02018137 14.84437464 25.91602104 13.703125 24.8125 C13.14302734 24.26207031 12.58292969 23.71164063 12.00585938 23.14453125 C9.69182399 20.89977837 7.28748385 18.76300964 4.875 16.625 C4.08351563 15.90957031 3.29203125 15.19414062 2.4765625 14.45703125 C1.21176322 13.31683115 -0.06174042 12.18603371 -1.3515625 11.07421875 C-3.60886558 9.03760172 -4.56609729 7.92433095 -5.0625 4.875 C-4.41898136 1.47354431 -3.33966105 0.71564165 0 0 Z " fill="#0B4D92" transform="translate(8.625,211.4375)"/>
<path d="M0 0 C4.43759343 1.23670637 5.97305896 2.79084573 9 6.1015625 C10.81971445 8.07030529 12.72151258 9.81134484 14.75 11.5625 C15.41 12.13355469 16.07 12.70460938 16.75 13.29296875 C18.1867398 14.52562619 19.62430293 15.75732438 21.0625 16.98828125 C21.784375 17.61089844 22.50625 18.23351562 23.25 18.875 C23.90871094 19.43832031 24.56742188 20.00164062 25.24609375 20.58203125 C27.5616824 22.77058012 27.79850153 23.83852442 28 27.0625 C27.8125 30.0625 27.8125 30.0625 25.8125 32.0625 C23.53515625 32.48828125 23.53515625 32.48828125 20.8125 32.0625 C18.75256695 30.51680278 17.05732632 29.05039592 15.25 27.25 C14.19958261 26.24441145 13.14878971 25.23921502 12.09765625 24.234375 C11.56027832 23.71294922 11.02290039 23.19152344 10.46923828 22.65429688 C7.75780968 20.0491518 4.9697972 17.52893599 2.1875 15 C-5.16921819 8.28188178 -5.16921819 8.28188178 -5.4375 5.0625 C-5.08211051 0.79782617 -4.27808383 0.083884 0 0 Z " fill="#0B4E92" transform="translate(47.1875,245.9375)"/>
<path d="M0 0 C3.56984766 2.36509347 6.54756855 4.51898515 8.6875 8.3125 C9.125 11 9.125 11 8.6875 13.3125 C5.6875 15.3125 5.6875 15.3125 3.3125 15.25 C-0.1300899 14.02050361 -1.85539362 11.96883122 -4.3125 9.3125 C-7.51567835 7.71091083 -10.83664695 7.81785937 -14.3125 8.3125 C-16.97502178 10.02834737 -18.80389115 11.69793097 -20.8125 14.125 C-22.3125 15.3125 -22.3125 15.3125 -24.9375 15.0625 C-27.3125 14.3125 -27.3125 14.3125 -28.3125 13.3125 C-28.39048672 9.41316414 -28.21389542 7.36097626 -25.63671875 4.36328125 C-17.68777684 -2.77729369 -9.75361488 -5.59610057 0 0 Z " fill="#4D4549" transform="translate(231.3125,191.6875)"/>
<path d="M0 0 C4.55555556 1.55555556 4.55555556 1.55555556 6 3 C5.87772142 7.38076296 5.44635063 9.48009079 2.55859375 12.84375 C1.5339874 13.74735554 0.49271382 14.63233363 -0.5625 15.5 C-1.10608154 15.96631836 -1.64966309 16.43263672 -2.2097168 16.91308594 C-3.29833329 17.84687626 -4.39176915 18.77508105 -5.49023438 19.69726562 C-6.81815476 20.84309085 -8.0795543 22.06506364 -9.328125 23.296875 C-14.008242 27.90328937 -14.008242 27.90328937 -17.04296875 28.19921875 C-19 27.9375 -19 27.9375 -22 27 C-22.75 24.3125 -22.75 24.3125 -23 21 C-20.57424457 16.88676253 -16.83184986 13.98450598 -13.23046875 10.91015625 C-10.06322272 8.19775115 -6.97842327 5.39516246 -3.8828125 2.6015625 C-2 1 -2 1 0 0 Z " fill="#0B4D93" transform="translate(451,236)"/>
<path d="M0 0 C3 0.625 3 0.625 5.375 2.625 C7.59355266 6.72078952 7.44138729 8.99043341 7 13.625 C5.99124788 16.43509519 5.66604583 17.29197708 3 18.625 C-2.36899365 19.08193563 -2.36899365 19.08193563 -4.8125 17.3125 C-7.41886104 13.60872378 -7.37753659 10.00442449 -7 5.625 C-5.01750223 2.04125403 -4.04050984 0.84177288 0 0 Z " fill="#4B4448" transform="translate(280,211.375)"/>
<path d="M0 0 C3 0.625 3 0.625 5.375 2.6875 C7.4040053 6.35531728 7.51760491 8.48416073 7 12.625 C5.84360194 14.93779611 4.82590172 16.79909828 3 18.625 C-2.38297872 19.09308511 -2.38297872 19.09308511 -4.8125 17.25 C-7.47168544 13.61111466 -7.59349107 9.99677225 -7 5.625 C-5.03006775 1.988202 -4.07109231 0.84814423 0 0 Z " fill="#4B4448" transform="translate(224,211.375)"/>
<path d="M0 0 C2.68168885 1.60901331 2.96054846 2.8703735 3.875 5.875 C4.02858292 9.71457298 3.59393856 11.1628797 1 14 C-2.375 15.125 -2.375 15.125 -6 15 C-9 13.0625 -9 13.0625 -11 10 C-11.27955331 6.94820968 -10.80183226 5.05698548 -10 2 C-6.30513897 -0.46324069 -4.36706908 -0.38991688 0 0 Z " fill="#0B4E92" transform="translate(328,6)"/>
<path d="M0 0 C2.64 0 5.28 0 8 0 C8 1.65 8 3.3 8 5 C5.36 3.68 2.72 2.36 0 1 C0 0.67 0 0.34 0 0 Z " fill="#F0BFA8" transform="translate(289,190)"/>
</svg>
