<?xml version="1.0" encoding="UTF-8"?>
<svg version="1.1" xmlns="http://www.w3.org/2000/svg" width="512" height="512">
<path d="M0 0 C1.03511719 0.51175781 2.07023437 1.02351562 3.13671875 1.55078125 C26.75687337 14.25962279 43.0526571 36.76702823 51 62 C54.68346145 75.05693923 56.54076769 88.99250167 54.3046875 102.48046875 C52.71007056 110.70221864 52.71007056 110.70221864 54.07421875 118.73828125 C55.74250737 121.05234533 55.74250737 121.05234533 57.7421875 123.28515625 C62.8575661 129.43600076 66.28338351 136.94829322 70 144 C70.38446289 144.72268066 70.76892578 145.44536133 71.16503906 146.18994141 C88.90659334 180.00062717 96.46038705 217.75629556 96.3125 255.6875 C96.30976578 257.1442514 96.30976578 257.1442514 96.30697632 258.63043213 C96.26271428 272.6325203 95.8487177 286.24864275 93 300 C92.83902832 300.84900879 92.67805664 301.69801758 92.51220703 302.57275391 C85.96904399 336.88507573 72.36708585 369.59862762 52 398 C51.34354492 398.91773193 51.34354492 398.91773193 50.67382812 399.85400391 C38.9615544 416.02004787 25.36064381 431.41584937 9.71484375 443.8359375 C7.97211606 445.22510461 6.25316144 446.64494245 4.56640625 448.1015625 C-16.90209884 466.5222767 -43.28422531 480.06192565 -70 489 C-70.83337891 489.27924316 -71.66675781 489.55848633 -72.52539062 489.84619141 C-81.62907856 492.8413823 -90.79766209 495.32754123 -100.1875 497.25 C-100.92170166 497.40114258 -101.65590332 497.55228516 -102.41235352 497.70800781 C-117.79157499 500.65767558 -133.00201526 501.37501267 -148.625 501.3125 C-149.59555328 501.31034485 -150.56610657 501.3081897 -151.56607056 501.30596924 C-165.89775971 501.25492111 -179.9169071 500.89475602 -194 498 C-195.45865479 497.70996094 -195.45865479 497.70996094 -196.94677734 497.4140625 C-219.95479988 492.71158699 -252.24475642 485.34647419 -270.47894287 469.7336731 C-277.54203021 464.12820074 -286.52922737 465.33060173 -295.0703125 465.3984375 C-296.83813452 465.39293151 -298.60595012 465.38480167 -300.37374878 465.37417603 C-305.01083027 465.35136221 -309.64743896 465.3554839 -314.2845459 465.36798096 C-321.71237218 465.38633585 -329.13992356 465.37628177 -336.56768417 465.34212112 C-339.15472267 465.33603302 -341.74116399 465.34925378 -344.32815552 465.36410522 C-345.91945549 465.36115653 -347.51075437 465.35750144 -349.10205078 465.35302734 C-349.81596985 465.36231766 -350.52988892 465.37160797 -351.26544189 465.38117981 C-355.91268141 465.34432247 -359.11956871 464.57905615 -363 462 C-366.47400557 457.93547141 -366.38868542 453.89407727 -366.27368164 448.77929688 C-366.26487473 447.55595894 -366.26487473 447.55595894 -366.25588989 446.3079071 C-366.24226017 444.53893898 -366.22230177 442.77001077 -366.19673347 441.00117493 C-366.15965166 438.18036592 -366.14735726 435.36046779 -366.14268494 432.53942871 C-366.12799434 424.51910092 -366.0940872 416.49961334 -365.9831543 408.47998047 C-364.97166304 378.40074596 -364.97166304 378.40074596 -375.80264282 350.9788208 C-377.67095223 347.89114605 -378.84526004 344.64087901 -379.98828125 341.23046875 C-380.38208984 340.06733154 -380.77589844 338.90419434 -381.18164062 337.70581055 C-381.55482422 336.54476807 -381.92800781 335.38372559 -382.3125 334.1875 C-382.51689697 333.56267731 -382.72129395 332.93785461 -382.93188477 332.2940979 C-391.077183 307.32181127 -394.41720497 282.54256253 -394.3125 256.375 C-394.31034485 255.40444672 -394.3081897 254.43389343 -394.30596924 253.43392944 C-394.2549334 239.10569102 -393.90758438 225.07814218 -391 211 C-390.80132324 210.01692871 -390.60264648 209.03385742 -390.39794922 208.02099609 C-378.89129151 152.69422767 -348.98766442 99.96940301 -304 65 C-303.01773438 64.21238281 -302.03546875 63.42476563 -301.0234375 62.61328125 C-278.26689174 44.50399736 -252.54029665 31.21199754 -225 22 C-224.21689453 21.73751465 -223.43378906 21.4750293 -222.62695312 21.20458984 C-214.53384023 18.54690906 -206.34018523 16.53276364 -198 14.8125 C-197.25395508 14.65740967 -196.50791016 14.50231934 -195.73925781 14.3425293 C-181.02126917 11.4779229 -166.54047357 10.69629502 -151.57788086 10.79418945 C-148.6735766 10.8125882 -145.76959128 10.81469721 -142.86523438 10.81445312 C-127.51727051 10.84957564 -127.51727051 10.84957564 -120.03515625 11.7578125 C-116.2287397 12.1302716 -115.16027698 12.07379268 -111.546875 10.41015625 C-110.62390625 9.63542969 -109.7009375 8.86070313 -108.75 8.0625 C-107.66266658 7.21694384 -106.56860659 6.37998247 -105.46875 5.55078125 C-104.90671875 5.12361816 -104.3446875 4.69645508 -103.765625 4.25634766 C-73.89876126 -16.99570998 -31.70133032 -15.95051871 0 0 Z " fill="#0ED290" transform="translate(405,11)"/>
<path d="M0 0 C2.92627582 0.01844137 5.85223605 0.02050751 8.77856445 0.02026367 C10.67374944 0.02517485 12.56893232 0.03100142 14.46411133 0.0378418 C15.32161484 0.03895462 16.17911835 0.04006744 17.06260681 0.04121399 C33.42994818 0.16774115 33.42994818 0.16774115 36.46801758 3.20581055 C35.6455957 3.97022461 34.82317383 4.73463867 33.97583008 5.5222168 C17.17800542 21.488491 7.66816897 39.72565299 2.46801758 62.20581055 C0.70651367 62.26188477 0.70651367 62.26188477 -1.09057617 62.3190918 C-40.02110589 63.79478308 -72.84062647 77.80861905 -99.65698242 106.45581055 C-119.09909776 129.20550567 -129.99222009 158.56997902 -129.84448242 188.45581055 C-129.83956787 189.64094238 -129.83465332 190.82607422 -129.82958984 192.04711914 C-129.70876873 201.11427886 -128.84795212 209.40886111 -126.53198242 218.20581055 C-126.36569336 218.88224609 -126.1994043 219.55868164 -126.02807617 220.25561523 C-118.37531748 251.16425727 -98.3902686 278.65384433 -71.66918945 295.91772461 C-40.33844347 314.80063708 -6.63964068 318.8772979 28.71801758 310.89331055 C44.52943929 306.6270855 58.6641929 298.83320097 72.46801758 290.20581055 C83.68801758 301.42581055 94.90801758 312.64581055 106.46801758 324.20581055 C105.46801758 326.20581055 104.46801758 328.20581055 103.46801758 330.20581055 C102.89442745 333.41791524 102.69503441 335.11120923 103.46801758 338.20581055 C104.95634902 340.38626098 104.95634902 340.38626098 107.03613281 342.51000977 C108.26902542 343.82748199 108.26902542 343.82748199 109.52682495 345.17156982 C115.60410416 351.47482635 121.8006272 357.65909601 128.00317383 363.83862305 C129.49268693 365.3262673 130.9819766 366.81413528 132.47105408 368.30221558 C136.36003517 372.1874082 140.25201158 376.06958635 144.14465332 379.95111084 C148.12862984 383.92479363 152.10971949 387.90136644 156.09106445 391.87768555 C163.88058454 399.65653318 171.67327707 407.43219425 179.46801758 415.20581055 C178.52377383 416.31874218 177.57789749 417.4302888 176.63134766 418.54125977 C176.1047908 419.16040253 175.57823395 419.77954529 175.03572083 420.41744995 C151.3584157 447.42738284 114.99018274 466.9905788 81.46801758 478.20581055 C80.63463867 478.48505371 79.80125977 478.76429688 78.94262695 479.05200195 C69.83893902 482.04719285 60.67035549 484.53335178 51.28051758 486.45581055 C50.54631592 486.60695313 49.81211426 486.7580957 49.05566406 486.91381836 C33.67644258 489.86348612 18.46600232 490.58082321 2.84301758 490.51831055 C1.87246429 490.5161554 0.90191101 490.51400024 -0.09805298 490.51177979 C-14.42974213 490.46073165 -28.44888952 490.10056656 -42.53198242 487.20581055 C-43.99063721 486.91577148 -43.99063721 486.91577148 -45.47875977 486.61987305 C-68.4867823 481.91739754 -100.77673884 474.55228474 -119.01092529 458.93948364 C-126.07401263 453.33401129 -135.06120979 454.53641228 -143.60229492 454.60424805 C-145.37011694 454.59874206 -147.13793254 454.59061221 -148.9057312 454.57998657 C-153.54281269 454.55717276 -158.17942138 454.56129445 -162.81652832 454.5737915 C-170.2443546 454.5921464 -177.67190598 454.58209232 -185.0996666 454.54793167 C-187.6867051 454.54184357 -190.27314642 454.55506432 -192.86013794 454.56991577 C-194.45143791 454.56696708 -196.04273679 454.56331198 -197.6340332 454.55883789 C-198.34795227 454.5681282 -199.06187134 454.57741852 -199.79742432 454.58699036 C-204.44466383 454.55013301 -207.65155113 453.7848667 -211.53198242 451.20581055 C-215.00598799 447.14128196 -214.92066784 443.09988782 -214.80566406 437.98510742 C-214.79685715 436.76176949 -214.79685715 436.76176949 -214.78787231 435.51371765 C-214.77424259 433.74474953 -214.75428419 431.97582132 -214.7287159 430.20698547 C-214.69163408 427.38617647 -214.67933968 424.56627834 -214.67466736 421.74523926 C-214.65997676 413.72491146 -214.62606962 405.70542388 -214.51513672 397.68579102 C-213.50364546 367.6065565 -213.50364546 367.6065565 -224.33462524 340.18463135 C-226.20293466 337.0969566 -227.37724246 333.84668955 -228.52026367 330.4362793 C-228.91407227 329.27314209 -229.30788086 328.11000488 -229.71362305 326.91162109 C-230.08680664 325.75057861 -230.45999023 324.58953613 -230.84448242 323.39331055 C-231.04887939 322.76848785 -231.25327637 322.14366516 -231.46386719 321.49990845 C-239.60916542 296.52762182 -242.94918739 271.74837308 -242.84448242 245.58081055 C-242.84232727 244.61025726 -242.84017212 243.63970398 -242.83795166 242.63973999 C-242.78691582 228.31150157 -242.43956681 214.28395273 -239.53198242 200.20581055 C-239.33330566 199.22273926 -239.13462891 198.23966797 -238.92993164 197.22680664 C-227.42327393 141.90003821 -197.51964684 89.17521356 -152.53198242 54.20581055 C-151.05858398 53.02438477 -151.05858398 53.02438477 -149.55541992 51.8190918 C-126.79887417 33.7098079 -101.07227907 20.41780809 -73.53198242 11.20581055 C-72.74887695 10.9433252 -71.96577148 10.68083984 -71.15893555 10.41040039 C-63.06582266 7.75271961 -54.87216765 5.73857419 -46.53198242 4.01831055 C-45.7859375 3.86322021 -45.03989258 3.70812988 -44.27124023 3.54833984 C-29.51599816 0.67648269 -15.00050207 -0.09772727 0 0 Z " fill="#FD5794" transform="translate(253.531982421875,21.794189453125)"/>
<path d="M0 0 C2.92627582 0.01844137 5.85223605 0.02050751 8.77856445 0.02026367 C10.67374944 0.02517485 12.56893232 0.03100142 14.46411133 0.0378418 C15.32161484 0.03895462 16.17911835 0.04006744 17.06260681 0.04121399 C33.42994818 0.16774115 33.42994818 0.16774115 36.46801758 3.20581055 C35.6455957 3.97022461 34.82317383 4.73463867 33.97583008 5.5222168 C17.17800542 21.488491 7.66816897 39.72565299 2.46801758 62.20581055 C0.70651367 62.26188477 0.70651367 62.26188477 -1.09057617 62.3190918 C-40.02110589 63.79478308 -72.84062647 77.80861905 -99.65698242 106.45581055 C-119.09909776 129.20550567 -129.99222009 158.56997902 -129.84448242 188.45581055 C-129.83956787 189.64094238 -129.83465332 190.82607422 -129.82958984 192.04711914 C-129.70876873 201.11427886 -128.84795212 209.40886111 -126.53198242 218.20581055 C-126.36569336 218.88224609 -126.1994043 219.55868164 -126.02807617 220.25561523 C-118.29846322 251.47466312 -98.76395657 276.85842453 -72.63354492 295.04174805 C-70.22679128 296.72101948 -67.87244929 298.43733126 -65.53198242 300.20581055 C-66.62281395 300.20801039 -66.62281395 300.20801039 -67.73568249 300.21025467 C-85.42938554 300.24730395 -103.12287908 300.30629359 -120.81642437 300.38971329 C-129.3728994 300.4295252 -137.92928218 300.46190672 -146.48583984 300.47680664 C-153.94361901 300.48981205 -161.40119536 300.51674813 -168.85886031 300.56042361 C-172.80780381 300.58306364 -176.75649693 300.59871972 -180.70551109 300.5976944 C-184.42305285 300.59694927 -188.14004061 300.61484004 -191.85743904 300.64697838 C-193.87104576 300.65954906 -195.88474536 300.65240188 -197.89837646 300.64466858 C-199.10005966 300.65858139 -200.30174286 300.6724942 -201.5398407 300.68682861 C-202.58238856 300.69051579 -203.62493643 300.69420296 -204.69907665 300.69800186 C-208.28194098 301.34024335 -209.96004292 302.67257668 -212.53198242 305.20581055 C-213.5130153 308.14890918 -213.68419929 310.15550084 -213.73730469 313.22802734 C-213.75724991 314.2488591 -213.77719513 315.26969086 -213.79774475 316.32145691 C-213.82281349 317.97157524 -213.82281349 317.97157524 -213.84838867 319.6550293 C-213.86916977 320.78278275 -213.88995087 321.91053619 -213.91136169 323.07246399 C-213.97681089 326.67935015 -214.03572086 330.28630983 -214.09448242 333.89331055 C-214.13767203 336.33667756 -214.18128646 338.78003711 -214.2253418 341.22338867 C-214.33248758 347.21745129 -214.43426271 353.21158725 -214.53198242 359.20581055 C-237.55196844 329.33746939 -242.99007589 281.9671101 -242.84448242 245.58081055 C-242.84232727 244.61025726 -242.84017212 243.63970398 -242.83795166 242.63973999 C-242.78691582 228.31150157 -242.43956681 214.28395273 -239.53198242 200.20581055 C-239.33330566 199.22273926 -239.13462891 198.23966797 -238.92993164 197.22680664 C-227.42327393 141.90003821 -197.51964684 89.17521356 -152.53198242 54.20581055 C-151.05858398 53.02438477 -151.05858398 53.02438477 -149.55541992 51.8190918 C-126.79887417 33.7098079 -101.07227907 20.41780809 -73.53198242 11.20581055 C-72.74887695 10.9433252 -71.96577148 10.68083984 -71.15893555 10.41040039 C-63.06582266 7.75271961 -54.87216765 5.73857419 -46.53198242 4.01831055 C-45.7859375 3.86322021 -45.03989258 3.70812988 -44.27124023 3.54833984 C-29.51599816 0.67648269 -15.00050207 -0.09772727 0 0 Z " fill="#FDD1A3" transform="translate(253.531982421875,21.794189453125)"/>
<path d="M0 0 C-0.00523682 0.86689453 -0.01047363 1.73378906 -0.01586914 2.62695312 C-0.03302411 5.8772761 -0.04550486 9.12757581 -0.05493164 12.37792969 C-0.05992616 13.77832809 -0.06672408 15.17872137 -0.07543945 16.57910156 C-0.14293426 27.32731137 -0.14293426 27.32731137 1 38 C-0.02996094 38.02578125 -1.05992187 38.0515625 -2.12109375 38.078125 C-28.07761441 39.00107821 -50.46420891 47.49053816 -69 66 C-69.7425 66.73089844 -70.485 67.46179688 -71.25 68.21484375 C-87.35481372 85.10602532 -93.91344032 108.55615922 -93.37109375 131.37890625 C-92.24551162 154.45534264 -82.00084816 176.16401122 -65.26953125 192.0703125 C-46.58797166 207.95446128 -23.63276334 216.38636658 1 215 C20.13586914 212.76786946 38.62352094 206.04576364 53 193 C53.83144531 192.26136719 54.66289062 191.52273438 55.51953125 190.76171875 C72.87212351 174.475338 81.40985598 152.01219227 82.5625 128.5625 C82.62727539 127.32209961 82.62727539 127.32209961 82.69335938 126.05664062 C82.79838033 124.03790451 82.89958559 122.01897049 83 120 C83.83136475 120.00523682 84.66272949 120.01047363 85.51928711 120.01586914 C88.64477272 120.03305289 91.77023401 120.04551856 94.89575195 120.05493164 C96.89731458 120.06235104 98.89885533 120.07506659 100.90039062 120.08789062 C107.69125925 120.10499609 114.27165501 119.93798004 121 119 C121.64629212 144.43076653 121.64629212 144.43076653 118 157 C117.77425293 157.79083984 117.54850586 158.58167969 117.31591797 159.39648438 C112.78201223 174.88952139 106.59247911 188.9744231 97 202 C98.30732011 204.87556264 99.71011166 206.97103155 101.91748047 209.22387695 C102.5050412 209.82742508 103.09260193 210.43097321 103.69796753 211.05281067 C104.33131012 211.69151596 104.96465271 212.33022125 105.6171875 212.98828125 C106.27075226 213.65087448 106.92431702 214.31346771 107.59768677 214.99613953 C108.97856348 216.39150009 110.36224874 217.78408609 111.74853516 219.17407227 C113.872609 221.31009554 115.97731909 223.46405887 118.08203125 225.61914062 C119.42593144 226.97249898 120.7709462 228.32475167 122.1171875 229.67578125 C123.06112869 230.64902092 123.06112869 230.64902092 124.0241394 231.641922 C124.91493698 232.52360298 124.91493698 232.52360298 125.82373047 233.4230957 C126.34176239 233.94619827 126.85979431 234.46930084 127.39352417 235.008255 C128.97391856 236.2103469 128.97391856 236.2103469 131.01101685 235.78605652 C133.26228316 234.97685467 133.26228316 234.97685467 136 233 C139.40337472 232.4661373 141.86402652 232.327548 144.8969574 234.1229248 C149.53597694 237.67146381 153.5185745 241.43652985 157.41015625 245.78125 C164.1537651 253.13168012 171.12698421 260.23372744 178.18359375 267.28125 C178.98779692 268.0848848 178.98779692 268.0848848 179.80824661 268.90475464 C183.11741358 272.21049469 186.43036917 275.51241565 189.74450684 278.81317139 C192.60305188 281.66130786 195.45860791 284.5124381 198.31445312 287.36328125 C203.8734609 292.91170787 209.43564864 298.45693175 215 304 C213.742881 306.22716548 212.4825922 308.45243607 211.22045898 310.67675781 C210.86845177 311.30115753 210.51644455 311.92555725 210.15377045 312.56887817 C207.12761991 317.89256667 203.75093631 322.86065299 200.0625 327.75 C199.46058838 328.55783936 198.85867676 329.36567871 198.23852539 330.19799805 C193.78644726 336.11086776 189.07562128 341.61252911 184 347 C182.30063989 348.97590692 180.64751056 350.98047092 179 353 C176.10722752 351.68954253 174.03973211 350.2892968 171.79904175 348.04627991 C171.19061432 347.44204697 170.58218689 346.83781403 169.95532227 346.215271 C169.29959229 345.55392151 168.6438623 344.89257202 167.96826172 344.21118164 C167.26863312 343.51345139 166.56900452 342.81572113 165.84817505 342.09684753 C163.53709785 339.7894747 161.23329952 337.47498028 158.9296875 335.16015625 C157.32630262 333.55557928 155.72254793 331.95137177 154.11843872 330.34751892 C150.7579808 326.98549672 147.40091027 323.62014043 144.04638672 320.25219727 C139.74271193 315.93152599 135.43247697 311.61747343 131.11991692 307.30567265 C127.808279 303.99376303 124.49925216 300.67925517 121.19110489 297.36385918 C119.60244952 295.77201804 118.01318459 294.18078502 116.42330551 292.59016609 C114.20399 290.36868647 111.98799658 288.14394727 109.77294922 285.91821289 C109.11317078 285.25888763 108.45339233 284.59956238 107.77362061 283.92025757 C107.17083282 283.3132048 106.56804504 282.70615204 105.94699097 282.08070374 C105.42307707 281.55511399 104.89916317 281.02952425 104.35937309 280.48800755 C101.19570902 277.02497297 100.63638815 274.58556682 100.73046875 269.94140625 C101.0939428 267.32333957 102.15178863 265.84821137 104 264 C102.67005617 261.04734888 101.22220684 258.97649784 98.92724609 256.70019531 C98.30675385 256.07985413 97.6862616 255.45951294 97.04696655 254.82037354 C96.37920197 254.16293152 95.71143738 253.5054895 95.0234375 252.828125 C94.33819 252.1457074 93.6529425 251.46328979 92.94692993 250.76019287 C90.76094155 248.58538402 88.56809571 246.41763928 86.375 244.25 C84.89016745 242.7752001 83.40578694 241.29994494 81.921875 239.82421875 C78.2864709 236.21084552 74.64490176 232.60379147 71 229 C70.32702881 229.44512939 69.65405762 229.89025879 68.96069336 230.34887695 C62.67596688 234.43725461 56.35482813 238.02003065 49.5625 241.1875 C48.64509033 241.61748291 47.72768066 242.04746582 46.7824707 242.49047852 C35.06646714 247.90528133 23.68085906 250.9516572 11 253 C9.78376953 253.20109375 9.78376953 253.20109375 8.54296875 253.40625 C-21.88123811 257.59466853 -54.6890853 248.32997711 -79.33056641 230.29516602 C-81.95919435 228.27876637 -84.48335838 226.15382304 -87 224 C-87.5057959 223.57638184 -88.0115918 223.15276367 -88.53271484 222.71630859 C-113.18051613 201.95656719 -128.21608696 171.84401414 -132 140 C-134.52904991 103.06423713 -124.02690131 69.87948418 -99.6875 41.9375 C-73.12645401 13.26625001 -39.01577414 -0.78819746 0 0 Z " fill="#AF66D9" transform="translate(255,84)"/>
<path d="M0 0 C4.83298806 4.02748053 9.38110004 8.24379413 13.80859375 12.7109375 C14.42017838 13.32393707 15.031763 13.93693665 15.66188049 14.56851196 C17.58947559 16.50164564 19.51353928 18.43824987 21.4375 20.375 C22.75432404 21.69684699 24.07137926 23.01846372 25.38867188 24.33984375 C28.59512373 27.55724299 31.79841629 30.77775681 35 34 C33.5 37 33.5 37 32 40 C31.42640988 43.21210469 31.22701683 44.90539868 32 48 C33.48833144 50.18045043 33.48833144 50.18045043 35.56811523 52.30419922 C36.80100784 53.62167145 36.80100784 53.62167145 38.05880737 54.96575928 C44.13608658 61.2690158 50.33260962 67.45328546 56.53515625 73.6328125 C58.02466935 75.12045675 59.51395903 76.60832473 61.0030365 78.09640503 C64.89201759 81.98159766 68.783994 85.8637758 72.67663574 89.74530029 C76.66061226 93.71898309 80.64170191 97.69555589 84.62304688 101.671875 C92.41256696 109.45072263 100.20525949 117.22638371 108 125 C107.05575625 126.11293163 106.10987992 127.22447825 105.16333008 128.33544922 C104.63677322 128.95459198 104.11021637 129.57373474 103.56770325 130.2116394 C79.89039812 157.2215723 43.52216516 176.78476825 10 188 C9.16662109 188.27924316 8.33324219 188.55848633 7.47460938 188.84619141 C-1.62907856 191.8413823 -10.79766209 194.32754123 -20.1875 196.25 C-20.92170166 196.40114258 -21.65590332 196.55228516 -22.41235352 196.70800781 C-37.79157499 199.65767558 -53.00201526 200.37501267 -68.625 200.3125 C-69.59555328 200.31034485 -70.56610657 200.3081897 -71.56607056 200.30596924 C-85.89775971 200.25492111 -99.9169071 199.89475602 -114 197 C-114.97243652 196.80664062 -115.94487305 196.61328125 -116.94677734 196.4140625 C-144.38937686 190.80522967 -175.52052124 181.32617753 -198 164 C-198 163.67 -198 163.34 -198 163 C-197.29247211 162.99668985 -196.58494423 162.99337971 -195.8559761 162.98996925 C-178.64669563 162.90877756 -161.43750801 162.81669772 -144.22835159 162.71247292 C-135.90615937 162.6623338 -127.58397707 162.61589104 -119.26171875 162.578125 C-112.00872603 162.54520189 -104.75580995 162.50536893 -97.50290179 162.45720994 C-93.66192372 162.43194809 -89.82099647 162.4101659 -85.97995758 162.39665604 C-82.36515825 162.38383279 -78.75053326 162.36177566 -75.13582993 162.33261681 C-73.17570093 162.31921436 -71.21551258 162.31562003 -69.25534058 162.31230164 C-68.08868866 162.30113815 -66.92203674 162.28997467 -65.72003174 162.2784729 C-64.70605946 162.27294214 -63.69208717 162.26741138 -62.64738846 162.26171303 C-59.8923521 161.98935825 -58.29818315 161.52141253 -56 160 C-53.75429505 156.63144257 -53.74365869 155.49518939 -53.7215271 151.55207825 C-53.71036362 150.42045761 -53.69920013 149.28883698 -53.68769836 148.1229248 C-53.68445808 146.2596051 -53.68445808 146.2596051 -53.68115234 144.35864258 C-53.67110672 143.05122604 -53.6610611 141.74380951 -53.65071106 140.39677429 C-53.62337828 136.81030196 -53.60825201 133.22386898 -53.59528303 129.6373198 C-53.57966678 125.8896522 -53.55287179 122.14206512 -53.5272522 118.39445496 C-53.48043767 111.29722527 -53.44370654 104.19998047 -53.41057932 97.10267514 C-53.37237679 89.02290308 -53.32296176 80.94321184 -53.27259517 72.86350787 C-53.16923556 56.2423966 -53.07998831 39.62124052 -53 23 C-51.93273682 22.7431543 -50.86547363 22.48630859 -49.76586914 22.22167969 C-48.33474399 21.87196645 -46.90367607 21.52201899 -45.47265625 21.171875 C-44.77289673 21.00413574 -44.07313721 20.83639648 -43.35217285 20.66357422 C-28.03275591 16.89454643 -12.45909812 9.72417414 0 0 Z " fill="#FED1A3" transform="translate(325,312)"/>
<path d="M0 0 C23.1132241 21.96350969 35.0117631 61.71816865 41.25 92.1875 C41.40114258 92.92170166 41.55228516 93.65590332 41.70800781 94.41235352 C44.66178491 109.81300058 45.3734956 125.04288172 45.3125 140.6875 C45.31067719 141.6586676 45.30885437 142.62983521 45.30697632 143.63043213 C45.26271428 157.6325203 44.8487177 171.24864275 42 185 C41.83902832 185.84900879 41.67805664 186.69801758 41.51220703 187.57275391 C36.54146468 213.63930771 27.04356185 237.4978413 15 261 C11.37065106 261 10.57758072 259.9326657 8.08720398 257.47157288 C7.57599503 256.95114914 7.06478607 256.4307254 6.53808594 255.89453125 C5.99293839 255.35142807 5.44779083 254.80832489 4.88612366 254.24876404 C3.07819506 252.44385297 1.28126643 250.62839439 -0.515625 248.8125 C-1.77193811 247.55312822 -3.02884375 246.29434728 -4.28631592 245.03613281 C-6.92707921 242.39075884 -9.56284942 239.74054347 -12.19482422 237.08642578 C-15.55141505 233.70172602 -18.91645771 230.32559842 -22.28488541 226.9526825 C-25.5107851 223.72159297 -28.73199856 220.48584675 -31.953125 217.25 C-32.56108162 216.64016266 -33.16903824 216.03032532 -33.79541779 215.40200806 C-45.56088866 203.58955618 -45.56088866 203.58955618 -50.63446045 197.52832031 C-53.92765582 193.84255568 -56.74386466 192.15160254 -61.625 191.5625 C-65.20930361 192.02713195 -66.2647019 192.83062565 -69 195 C-72.38060269 194.60977811 -74.04060381 193.32796043 -76.39160156 190.94897461 C-77.0319635 190.30838608 -77.67232544 189.66779755 -78.33209229 189.00779724 C-79.01140808 188.31299759 -79.69072388 187.61819794 -80.390625 186.90234375 C-81.09523865 186.19348526 -81.79985229 185.48462677 -82.52581787 184.75428772 C-84.77434785 182.4889672 -87.01222238 180.21343792 -89.25 177.9375 C-90.77274708 176.39970665 -92.29617654 174.86258869 -93.8203125 173.32617188 C-97.5548281 169.55858198 -101.2806485 165.78255735 -105 162 C-103.59477103 158.35782192 -102.01123607 155.35517976 -99.8125 152.125 C-84.88035731 128.89033814 -80.84816826 104.12759282 -80 77 C-78.8140625 76.6596875 -77.628125 76.319375 -76.40625 75.96875 C-60.74777196 71.33823997 -46.7580699 65.3969341 -34 55 C-33.16082031 54.32453125 -32.32164062 53.6490625 -31.45703125 52.953125 C-14.79219935 38.79447712 -6.20730629 20.52643329 0 0 Z " fill="#FDD1A3" transform="translate(456,126)"/>
<path d="M0 0 C0.78375 0.00451172 1.5675 0.00902344 2.375 0.01367188 C4.29170014 0.02535907 6.20836048 0.04329092 8.125 0.0625 C8.41632813 1.05507812 8.70765625 2.04765625 9.0078125 3.0703125 C14.6740808 22.0157964 22.30241102 37.60043182 36.125 52.0625 C36.72570312 52.73796875 37.32640625 53.4134375 37.9453125 54.109375 C51.64921013 68.94043304 70.86525441 76.60730023 90.125 81.0625 C90.67341695 110.18953365 83.29112124 132.36705218 62.8125 153.75 C57.68025611 158.76913658 52.38538865 162.58158362 46.125 166.0625 C45.22523438 166.58457031 44.32546875 167.10664063 43.3984375 167.64453125 C23.41285921 178.51822743 0.01098318 180.81753662 -21.875 175.0625 C-35.84820912 170.73745908 -48.01223633 163.81507556 -58.875 154.0625 C-59.91914063 153.15951172 -59.91914063 153.15951172 -60.984375 152.23828125 C-76.97090134 137.49870397 -86.13714343 115.23454761 -87.22265625 93.73828125 C-87.91897896 68.20415055 -79.41837454 46.31143669 -62.41015625 27.30859375 C-46.27108333 10.26895582 -23.61078736 -0.26011884 0 0 Z " fill="#C7EEFD" transform="translate(247.875,121.9375)"/>
<path d="M0 0 C2.50958752 1.9519014 4.91022069 3.97741863 7.2890625 6.0859375 C7.90265625 6.60542969 8.51625 7.12492187 9.1484375 7.66015625 C17.14383171 14.94036612 23.75903291 25.90590267 27.2890625 36.0859375 C27.73378906 37.32923828 27.73378906 37.32923828 28.1875 38.59765625 C33.77255751 56.96685916 30.7371569 77.34464321 22.28320312 94.22753906 C13.13006135 111.33797992 -2.20749259 123.0698741 -20.359375 129.11328125 C-22.01839844 129.59474609 -22.01839844 129.59474609 -23.7109375 130.0859375 C-24.95230469 130.44945312 -26.19367188 130.81296875 -27.47265625 131.1875 C-44.55584764 135.32757998 -62.835292 131.81504739 -78.0234375 123.4609375 C-95.75993783 112.6072582 -108.63597702 95.84303128 -113.57714844 75.5012207 C-117.68804883 56.04311144 -113.88930496 36.98782005 -103.7109375 20.0859375 C-101.24488786 16.54705918 -98.59296538 13.29204883 -95.7109375 10.0859375 C-95.19273437 9.47492187 -94.67453125 8.86390625 -94.140625 8.234375 C-70.36225634 -17.93377946 -28.06916611 -19.81828731 0 0 Z " fill="#F9FDFE" transform="translate(398.7109375,42.9140625)"/>
<path d="M0 0 C4.83298806 4.02748053 9.38110004 8.24379413 13.80859375 12.7109375 C14.42017838 13.32393707 15.031763 13.93693665 15.66188049 14.56851196 C17.58947559 16.50164564 19.51353928 18.43824987 21.4375 20.375 C22.75432404 21.69684699 24.07137926 23.01846372 25.38867188 24.33984375 C28.59512373 27.55724299 31.79841629 30.77775681 35 34 C33.5 37 33.5 37 32 40 C31.26386577 44.12235167 31.05924616 46.55145289 33.375 50.1171875 C35.26827053 52.25451243 37.226041 54.29556574 39.26416016 56.29492188 C41.39779271 58.39074322 43.50069429 60.51582941 45.60546875 62.640625 C50.04877697 67.11561456 54.51733676 71.56446163 59 76 C57.15779083 80.01145982 54.54348998 82.62445566 51.3125 85.5625 C50.44963379 86.34923096 50.44963379 86.34923096 49.56933594 87.15185547 C22.43738892 111.44509151 -15.99011886 131 -53 131 C-53 95.36 -53 59.72 -53 23 C-47.72 21.68 -42.44 20.36 -37 19 C-23.97335425 14.26303791 -11.00063194 8.58585908 0 0 Z " fill="#FEBC86" transform="translate(325,312)"/>
<path d="M0 0 C0.99 0.495 0.99 0.495 2 1 C0.89205078 2.03833984 0.89205078 2.03833984 -0.23828125 3.09765625 C-18.72776057 20.77616655 -30.08124745 41.46089835 -37 66 C-37.29028076 67.01731201 -37.29028076 67.01731201 -37.58642578 68.05517578 C-42.44387706 85.97717607 -41.69995153 107.14776475 -37 125 C-36.75056641 126.01465332 -36.75056641 126.01465332 -36.49609375 127.04980469 C-28.76648079 158.26885257 -9.23197415 183.65261399 16.8984375 201.8359375 C19.30519114 203.51520893 21.65953313 205.23152071 24 207 C10.99619498 207.06939405 -2.00756627 207.12275729 -15.01151848 207.15543652 C-21.04924924 207.17111788 -27.08685368 207.19240122 -33.12451172 207.22631836 C-38.94703545 207.25882368 -44.76943739 207.27683438 -50.59204483 207.28463173 C-52.8176986 207.29019114 -55.04334543 207.3010467 -57.2689476 207.31719017 C-60.37720088 207.33884702 -63.4849456 207.34197185 -66.59326172 207.34057617 C-67.52114502 207.351362 -68.44902832 207.36214783 -69.4050293 207.3732605 C-70.24919403 207.36913651 -71.09335876 207.36501251 -71.96310425 207.36076355 C-72.69869505 207.36352893 -73.43428585 207.36629431 -74.19216728 207.36914349 C-76 207 -76 207 -78 204 C-79.61597381 198.39970209 -80.80036679 192.70204666 -82 187 C-82.15678223 186.28279785 -82.31356445 185.5655957 -82.47509766 184.82666016 C-87.17273467 162.73300656 -86.44611715 139.0746598 -82 117 C-81.8443457 116.1951416 -81.68869141 115.3902832 -81.52832031 114.56103516 C-72.01490806 66.96549064 -42.05239787 29.18252431 -3 2 C-2.01 1.34 -1.02 0.68 0 0 Z " fill="#FEBC86" transform="translate(164,115)"/>
<path d="M0 0 C13.27263028 28.664271 19.38507926 57.35760345 18 89 C17.96277832 89.86689453 17.92555664 90.73378906 17.88720703 91.62695312 C16.8657422 111.60725412 11.55276901 130.54660338 4 149 C-1.16448269 144.8244608 -5.48428932 140.32802825 -9.7890625 135.26953125 C-13.1601564 131.8090974 -15.73500023 130.13315787 -20.5625 129.625 C-24.23520728 130.02565898 -25.21352423 130.79003646 -28 133 C-31.38060269 132.60977811 -33.04060381 131.32796043 -35.39160156 128.94897461 C-36.0319635 128.30838608 -36.67232544 127.66779755 -37.33209229 127.00779724 C-38.01140808 126.31299759 -38.69072388 125.61819794 -39.390625 124.90234375 C-40.09523865 124.19348526 -40.79985229 123.48462677 -41.52581787 122.75428772 C-43.77434785 120.4889672 -46.01222238 118.21343792 -48.25 115.9375 C-49.77274708 114.39970665 -51.29617654 112.86258869 -52.8203125 111.32617188 C-56.5548281 107.55858198 -60.2806485 103.78255735 -64 100 C-62.59477103 96.35782192 -61.01123607 93.35517976 -58.8125 90.125 C-43.88035731 66.89033814 -39.84816826 42.12759282 -39 15 C-37.8140625 14.6596875 -36.628125 14.319375 -35.40625 13.96875 C-24.27500496 10.67201564 -14.20460888 6.51707241 -4 1 C-2 0 -2 0 0 0 Z " fill="#FEBC86" transform="translate(415,188)"/>
<path d="M0 0 C0.78375 0.00451172 1.5675 0.00902344 2.375 0.01367188 C4.29170014 0.02535907 6.20836048 0.04329092 8.125 0.0625 C9.115 4.0225 9.115 4.0225 10.125 8.0625 C9.21878906 8.48660156 8.31257813 8.91070312 7.37890625 9.34765625 C-0.06968637 12.90548353 -6.57280846 16.66062154 -12.875 22.0625 C-13.46410156 22.50851563 -14.05320312 22.95453125 -14.66015625 23.4140625 C-26.47025949 32.61464407 -34.51203148 47.29891597 -39.25 61.25 C-39.50096436 61.98621582 -39.75192871 62.72243164 -40.01049805 63.48095703 C-46.86231886 84.87468685 -43.78857775 108.62076539 -34.0625 128.5 C-23.09098871 149.69179675 -5.43758089 165.2183825 17.25 172.875 C18.53922375 173.27871886 19.82998864 173.67775025 21.125 174.0625 C20.795 174.7225 20.465 175.3825 20.125 176.0625 C-2.07436295 182.36074308 -25.22871645 175.86082535 -44.73828125 165.01171875 C-49.86932624 161.82318643 -54.38700268 158.09181835 -58.875 154.0625 C-59.91914063 153.15951172 -59.91914063 153.15951172 -60.984375 152.23828125 C-76.97090134 137.49870397 -86.13714343 115.23454761 -87.22265625 93.73828125 C-87.91897896 68.20415055 -79.41837454 46.31143669 -62.41015625 27.30859375 C-46.27108333 10.26895582 -23.61078736 -0.26011884 0 0 Z " fill="#99E5FB" transform="translate(247.875,121.9375)"/>
<path d="M0 0 C5.63732845 3.3082958 10.08689515 7.95458546 14.41015625 12.78125 C21.1537651 20.13168012 28.12698421 27.23372744 35.18359375 34.28125 C35.71972919 34.81700653 36.25586464 35.35276306 36.80824661 35.90475464 C40.11741358 39.21049469 43.43036917 42.51241565 46.74450684 45.81317139 C49.60305188 48.66130786 52.45860791 51.5124381 55.31445312 54.36328125 C60.8734609 59.91170787 66.43564864 65.45693175 72 71 C70.742881 73.22716548 69.4825922 75.45243607 68.22045898 77.67675781 C67.86845177 78.30115753 67.51644455 78.92555725 67.15377045 79.56887817 C64.12761991 84.89256667 60.75093631 89.86065299 57.0625 94.75 C56.46058838 95.55783936 55.85867676 96.36567871 55.23852539 97.19799805 C50.78644726 103.11086776 46.07562128 108.61252911 41 114 C39.30063989 115.97590692 37.64751056 117.98047092 36 120 C33.10722752 118.68954253 31.03973211 117.2892968 28.79904175 115.04627991 C28.19061432 114.44204697 27.58218689 113.83781403 26.95532227 113.215271 C25.97172729 112.22324677 25.97172729 112.22324677 24.96826172 111.21118164 C24.26863312 110.51345139 23.56900452 109.81572113 22.84817505 109.09684753 C20.53709785 106.7894747 18.23329952 104.47498028 15.9296875 102.16015625 C14.32630262 100.55557928 12.72254793 98.95137177 11.11843872 97.34751892 C7.7579808 93.98549672 4.40091027 90.62014043 1.04638672 87.25219727 C-3.25728807 82.93152599 -7.56752303 78.61747343 -11.88008308 74.30567265 C-15.191721 70.99376303 -18.50074784 67.67925517 -21.80889511 64.36385918 C-23.39755048 62.77201804 -24.98681541 61.18078502 -26.57669449 59.59016609 C-28.79601 57.36868647 -31.01200342 55.14394727 -33.22705078 52.91821289 C-34.21671844 51.92922501 -34.21671844 51.92922501 -35.22637939 50.92025757 C-36.13056107 50.00967842 -36.13056107 50.00967842 -37.05300903 49.08070374 C-37.57692293 48.55511399 -38.10083683 48.02952425 -38.64062691 47.48800755 C-41.64883852 44.19513555 -42.64422347 41.61368819 -42.48535156 37.14013672 C-40.66475609 29.11229973 -29.22873012 21.0776821 -23.47338867 15.34301758 C-21.67052659 13.54557764 -19.87315015 11.74277339 -18.07617188 9.93945312 C-16.93000853 8.79394953 -15.78353558 7.64875561 -14.63671875 6.50390625 C-14.10028244 5.96544571 -13.56384613 5.42698517 -13.01115417 4.87220764 C-8.57144204 0.46060888 -6.38738679 -0.72115657 0 0 Z " fill="#475A61" transform="translate(398,317)"/>
<path d="M0 0 C0 0.66 0 1.32 0 2 C-1.38445312 2.29390625 -1.38445312 2.29390625 -2.796875 2.59375 C-35.80458156 10.0013634 -66.25991004 28.16609168 -84.76464844 56.99853516 C-92.37776088 69.33298096 -98.18809112 82.01320151 -102 96 C-102.33902344 97.20914063 -102.67804688 98.41828125 -103.02734375 99.6640625 C-110.56938102 132.12610311 -103.30716141 166.94208908 -86 195 C-66.64574802 224.20418378 -37.89462522 243.30942056 -3.68359375 250.33886719 C-0.79338009 250.91608728 2.10184836 251.46420726 5 252 C-3.76868371 257.84578914 -21.49246774 253.53274723 -31.38378906 251.58203125 C-51.98219269 246.99948233 -70.983208 237.70768699 -87 224 C-87.5057959 223.57638184 -88.0115918 223.15276367 -88.53271484 222.71630859 C-113.18051613 201.95656719 -128.21608696 171.84401414 -132 140 C-134.52904991 103.06423713 -124.02690131 69.87948418 -99.6875 41.9375 C-73.12645401 13.26625001 -39.01577414 -0.78819746 0 0 Z " fill="#9957BD" transform="translate(255,84)"/>
<path d="M0 0 C1.12350861 0.00636726 1.12350861 0.00636726 2.26971436 0.01286316 C4.65413875 0.02961129 7.03770753 0.06725478 9.421875 0.10546875 C11.04165443 0.12052066 12.66144715 0.13420818 14.28125 0.14648438 C18.24511966 0.17950195 22.20835243 0.23125629 26.171875 0.29296875 C24.95340881 1.35842422 24.95340881 1.35842422 23.71032715 2.44540405 C19.58542462 7.45268615 20.49327066 13.68770253 20.55664062 19.85400391 C20.55313676 21.23755066 20.54747519 22.62109337 20.53982544 24.00462341 C20.52560806 27.75055407 20.54260656 31.495748 20.56611061 35.24160814 C20.58625025 39.16484299 20.58033858 43.08804818 20.57800293 47.01132202 C20.57805646 53.59686404 20.59778858 60.18211869 20.62988281 66.76757812 C20.66680435 74.38055806 20.67555373 81.9931621 20.6685853 89.60621989 C20.66228073 96.93400752 20.67303172 104.26166632 20.69255066 111.58942795 C20.70072376 114.70657563 20.7034344 117.82365747 20.70185852 120.94081497 C20.70097969 124.60992545 20.71519476 128.27867858 20.74108505 131.94769478 C20.75166415 133.93640004 20.74757426 135.92516635 20.74307251 137.91389465 C20.7544223 139.09711807 20.76577209 140.28034149 20.77746582 141.49942017 C20.78119453 142.52772257 20.78492325 143.55602497 20.78876495 144.61548805 C21.231181 147.70744672 22.02755982 149.05377649 24.171875 151.29296875 C26.75686012 152.5614456 26.75686012 152.5614456 29.171875 153.29296875 C29.171875 153.62296875 29.171875 153.95296875 29.171875 154.29296875 C24.29723409 154.36740532 19.42292772 154.42170542 14.54785156 154.45776367 C12.89121737 154.4728034 11.23462269 154.49324052 9.578125 154.51928711 C7.1900047 154.5558839 4.80241312 154.57274314 2.4140625 154.5859375 C1.67944794 154.60142136 0.94483337 154.61690521 0.18795776 154.63285828 C-4.57680684 154.63440005 -7.85725804 153.95895644 -11.828125 151.29296875 C-14.52245969 147.60497741 -15.20398114 145.02022632 -15.20907593 140.48632812 C-15.2175354 139.32552734 -15.22599487 138.16472656 -15.23471069 136.96875 C-15.228638 135.70417969 -15.22256531 134.43960938 -15.21630859 133.13671875 C-15.22037601 131.7845009 -15.22571885 130.43228637 -15.23223877 129.08007812 C-15.24589811 125.414783 -15.24061956 121.74974162 -15.23110151 118.08444214 C-15.22349771 114.24574101 -15.23055253 110.40706137 -15.23526001 106.56835938 C-15.24071547 100.12235622 -15.23353149 93.67645624 -15.21923828 87.23046875 C-15.20291211 79.78170758 -15.20820077 72.33319276 -15.2247175 64.88443756 C-15.23833837 58.4851394 -15.2402491 52.08591534 -15.23240149 45.68660736 C-15.22772826 41.8663072 -15.22709043 38.04612277 -15.23701096 34.22583008 C-15.24568716 30.63391609 -15.23964709 27.04231924 -15.22232819 23.45043945 C-15.21647947 21.50602655 -15.22537334 19.56158678 -15.23471069 17.6171875 C-15.22625122 16.45638672 -15.21779175 15.29558594 -15.20907593 14.09960938 C-15.20794485 13.09305298 -15.20681377 12.08649658 -15.20564842 11.04943848 C-14.65535632 7.03150623 -12.88313546 4.40758518 -10.12988281 1.4987793 C-6.81150095 -0.23960509 -3.65216426 -0.07820834 0 0 Z " fill="#FD3681" transform="translate(53.828125,321.70703125)"/>
<path d="M0 0 C1.10859375 0.00322266 2.2171875 0.00644531 3.359375 0.00976562 C4.50148438 0.01814453 5.64359375 0.02652344 6.8203125 0.03515625 C8.56828125 0.04192383 8.56828125 0.04192383 10.3515625 0.04882812 C13.21619895 0.06056844 16.08072883 0.07699055 18.9453125 0.09765625 C18.9453125 0.42765625 18.9453125 0.75765625 18.9453125 1.09765625 C17.77097656 1.30519531 16.59664063 1.51273437 15.38671875 1.7265625 C-5.66475578 5.662838 -23.62208916 13.39224229 -39.1640625 28.4453125 C-41.0546875 30.09765625 -41.0546875 30.09765625 -43.0546875 30.09765625 C-43.32152344 30.68933594 -43.58835937 31.28101562 -43.86328125 31.890625 C-45.07522439 34.1357 -46.34550648 35.58821478 -48.1171875 37.41015625 C-66.29141475 57.85616191 -72.48288241 85.37983218 -71.0546875 112.09765625 C-69.11976626 133.72297166 -60.26587923 156.59221219 -44.32421875 171.7421875 C-43.0546875 173.09765625 -43.0546875 173.09765625 -43.0546875 175.09765625 C-42.47332031 175.35417969 -41.89195312 175.61070312 -41.29296875 175.875 C-38.85062608 177.20912436 -37.23103303 178.71838398 -35.2421875 180.66015625 C-20.7842764 193.69830521 -2.73250999 199.92521233 15.9453125 204.09765625 C15.9453125 204.42765625 15.9453125 204.75765625 15.9453125 205.09765625 C-11.46555558 206.06226158 -37.85097364 199.64104598 -58.4921875 180.53515625 C-60.3654062 178.740997 -62.20950295 176.92097195 -64.0546875 175.09765625 C-65.12783203 174.13279297 -65.12783203 174.13279297 -66.22265625 173.1484375 C-83.69585936 157.0703005 -93.30769266 131.6776344 -94.39453125 108.31640625 C-94.68124244 97.24082546 -94.01604865 86.81496327 -91.0546875 76.09765625 C-90.78785156 75.1025 -90.52101563 74.10734375 -90.24609375 73.08203125 C-84.46972204 53.87880441 -73.36982889 38.82717822 -59.0546875 25.09765625 C-57.85392578 23.84082031 -57.85392578 23.84082031 -56.62890625 22.55859375 C-53.82958154 19.88245632 -50.87143471 17.730749 -47.6171875 15.66015625 C-47.00810547 15.27255127 -46.39902344 14.88494629 -45.77148438 14.4855957 C-32.34567809 6.17035776 -15.94659437 -0.08219894 0 0 Z " fill="#01C285" transform="translate(348.0546875,-0.09765625)"/>
<path d="M0 0 C20 20 40 40 60 60 C58.74502389 62.22446216 57.48675132 64.44695029 56.2265625 66.66845703 C55.87537354 67.29174393 55.52418457 67.91503082 55.16235352 68.5572052 C52.11292275 73.92294594 48.69057518 78.92842487 45 83.875 C44.41605469 84.67035156 43.83210938 85.46570313 43.23046875 86.28515625 C41.82680736 88.19505617 40.41683164 90.0998627 39 92 C35.0374148 90.40062722 32.37249278 87.64808059 29.42114258 84.6640625 C28.87596481 84.12078308 28.33078705 83.57750366 27.76908875 83.01776123 C25.97264991 81.22502001 24.18350073 79.42519252 22.39453125 77.625 C21.14747483 76.37675128 19.90004831 75.12887221 18.65226746 73.88134766 C16.04086474 71.26838191 13.43285347 68.65209341 10.82739258 66.03320312 C7.48320539 62.67200003 4.13244668 59.31744375 0.77936268 55.96511841 C-1.79535453 53.39012969 -4.36746032 50.81254611 -6.93868446 48.23406982 C-8.1736974 46.99586957 -9.40932148 45.75827858 -10.64555931 44.52130127 C-12.36935009 42.79534912 -14.08981153 41.06614849 -15.80932617 39.3359375 C-16.32308807 38.82262878 -16.83684998 38.30932007 -17.36618042 37.78045654 C-20.60301142 34.51405093 -21.8617227 33.00251046 -22.5 28.375 C-22.35523525 22.58440999 -18.96724038 19.86743559 -15 16 C-13.81634073 14.81907752 -12.63417411 13.63665792 -11.453125 12.453125 C-9.54713899 10.54322827 -7.63796771 8.63772934 -5.71240234 6.74755859 C-5.1189502 6.16312988 -4.52549805 5.57870117 -3.9140625 4.9765625 C-3.3773291 4.45143066 -2.8405957 3.92629883 -2.28759766 3.38525391 C-0.88723997 2.0089621 -0.88723997 2.0089621 0 0 Z " fill="#586B75" transform="translate(410,328)"/>
<path d="M0 0 C0.64126658 -0.00155999 1.28253316 -0.00311998 1.94323206 -0.00472724 C4.10748195 -0.0087388 6.27166258 -0.00554702 8.43591309 -0.00241089 C9.98121685 -0.00376486 11.52652029 -0.00554477 13.07182312 -0.00772095 C17.28038251 -0.01229576 21.4889175 -0.01050553 25.69747734 -0.00734186 C30.09193871 -0.00481851 34.48639793 -0.00715573 38.88085938 -0.00872803 C46.26200742 -0.0105498 53.64314547 -0.00814323 61.02429199 -0.00338745 C69.57042126 0.00205518 78.11652667 0.00029253 86.66265535 -0.00521386 C93.9866241 -0.00974478 101.31058565 -0.01039564 108.63455534 -0.00777519 C113.0147818 -0.0062123 117.39499703 -0.00601897 121.77522278 -0.00931168 C125.89226211 -0.01219009 130.00927055 -0.01021525 134.12630653 -0.00441742 C135.64169068 -0.00308966 137.15707741 -0.0034842 138.67246056 -0.00568008 C140.73244103 -0.00839099 142.79232094 -0.00501124 144.85229492 0 C146.0078463 0.00037703 147.16339767 0.00075405 148.35396576 0.0011425 C150.92614746 0.12698364 150.92614746 0.12698364 151.92614746 1.12698364 C152.05129674 3.10317812 152.10187506 5.08436537 152.11364746 7.06448364 C152.12782715 8.14600708 152.14200684 9.22753052 152.15661621 10.34182739 C151.92614746 13.12698364 151.92614746 13.12698364 149.92614746 15.12698364 C147.26494598 15.37866592 147.26494598 15.37866592 143.81469727 15.38095093 C141.85861794 15.3894104 141.85861794 15.3894104 139.86302185 15.39804077 C138.4094538 15.39415179 136.95588628 15.39005543 135.50231934 15.38577271 C133.97819349 15.38848145 132.45406895 15.39204172 130.9299469 15.39639282 C126.7833366 15.405533 122.63682549 15.4019659 118.49021339 15.39563465 C114.15761669 15.39058306 109.82502867 15.39526375 105.49243164 15.39840698 C98.21560129 15.40204909 90.9388115 15.39724113 83.6619873 15.38772583 C75.24023231 15.37684081 66.81857414 15.38036621 58.3968215 15.39137864 C51.17556982 15.40044457 43.95434736 15.40174021 36.73309183 15.3965013 C32.41599343 15.39337777 28.09894059 15.39298273 23.78184509 15.39957428 C19.72385039 15.40533704 15.66598093 15.40137059 11.6079998 15.38978577 C10.11561224 15.38713343 8.6232142 15.387914 7.13083076 15.3923111 C5.0997568 15.39774518 3.0686599 15.38973468 1.03759766 15.38095093 C-0.67027546 15.37981985 -0.67027546 15.37981985 -2.41265106 15.37866592 C-5.07385254 15.12698364 -5.07385254 15.12698364 -7.07385254 13.12698364 C-7.30432129 10.34182739 -7.30432129 10.34182739 -7.26135254 7.06448364 C-7.25490723 5.98038208 -7.24846191 4.89628052 -7.24182129 3.77932739 C-6.93028615 -1.14002974 -4.36526431 0.00142427 0 0 Z " fill="#FEF9FB" transform="translate(83.0738525390625,358.8730163574219)"/>
<path d="M0 0 C1.18271484 -0.03738281 2.36542969 -0.07476562 3.58398438 -0.11328125 C14.35607436 -0.21964308 23.02241074 2.20120437 31.125 9.5 C38.05691439 17.13770931 41.06746593 24.83226902 40.6015625 35.16796875 C39.4088493 44.40587002 35.85698338 50.96378819 29.1875 57.375 C28.40375 58.138125 27.62 58.90125 26.8125 59.6875 C23.17249661 62.02750218 19.32600584 63.18484146 15.1875 64.375 C15.19910156 65.08527344 15.21070313 65.79554687 15.22265625 66.52734375 C15.23167969 67.44644531 15.24070312 68.36554688 15.25 69.3125 C15.26160156 70.22902344 15.27320313 71.14554687 15.28515625 72.08984375 C15.1875 74.375 15.1875 74.375 14.1875 75.375 C12.85706375 75.4733721 11.52156656 75.50578592 10.1875 75.5078125 C9.383125 75.50910156 8.57875 75.51039062 7.75 75.51171875 C6.904375 75.50785156 6.05875 75.50398438 5.1875 75.5 C4.341875 75.50386719 3.49625 75.50773437 2.625 75.51171875 C1.820625 75.51042969 1.01625 75.50914063 0.1875 75.5078125 C-0.555 75.50668457 -1.2975 75.50555664 -2.0625 75.50439453 C-3.8125 75.375 -3.8125 75.375 -4.8125 74.375 C-5.14807486 70.98909214 -5.13759434 67.5878904 -5.1875 64.1875 C-5.22488281 63.24068359 -5.26226562 62.29386719 -5.30078125 61.31835938 C-5.35837516 56.7332445 -5.39346795 53.42587873 -2.40234375 49.78125 C1.3450262 46.29953071 2.97377122 45.49059322 8.125 45 C12.17042076 44.5705978 14.30341315 43.34391293 17.1875 40.375 C19.48395305 37.3130626 19.60645884 34.12363552 19.5078125 30.33984375 C18.99137583 27.17194567 17.47503598 25.53545065 15.1875 23.375 C12.01822145 21.42493837 9.53049909 21.10551254 5.8359375 21.03125 C4.82015625 21.00160156 3.804375 20.97195312 2.7578125 20.94140625 C0.61979503 20.89697312 -1.51822584 20.85270347 -3.65625 20.80859375 C-4.66945313 20.77894531 -5.68265625 20.74929687 -6.7265625 20.71875 C-7.6542041 20.70005859 -8.5818457 20.68136719 -9.53759766 20.66210938 C-11.8125 20.375 -11.8125 20.375 -13.8125 18.375 C-13.98429052 15.48367823 -14.0447947 12.70057935 -14 9.8125 C-13.99935547 9.01908203 -13.99871094 8.22566406 -13.99804688 7.40820312 C-13.92271729 -2.39301231 -8.52228373 0.09862717 0 0 Z " fill="#02C286" transform="translate(349.8125,49.625)"/>
<path d="M0 0 C4.72447874 3.94320207 9.18952087 8.05109689 13.51953125 12.421875 C14.3964991 13.30096527 14.3964991 13.30096527 15.29118347 14.19781494 C17.13401369 16.04617946 18.97331403 17.89801003 20.8125 19.75 C22.06421913 21.00674352 23.31617032 22.26325595 24.56835938 23.51953125 C26.84884652 25.80814858 29.12807074 28.09800562 31.40551758 30.38964844 C32.93497427 31.92846004 34.46585872 33.46585872 36 35 C27.75 43.25 19.5 51.5 11 60 C3.12079913 53.24639926 3.12079913 53.24639926 0.63500977 50.78027344 C0.07495743 50.22660095 -0.48509491 49.67292847 -1.06211853 49.10247803 C-1.63845535 48.52725403 -2.21479218 47.95203003 -2.80859375 47.359375 C-3.42017838 46.75111877 -4.031763 46.14286255 -4.66188049 45.51617432 C-5.93954318 44.24353258 -7.21589307 42.96957158 -8.4909668 41.69433594 C-10.45147706 39.73603872 -12.41988471 37.78590915 -14.38867188 35.8359375 C-15.63330024 34.5942387 -16.87745835 33.35206831 -18.12109375 32.109375 C-18.71160019 31.52605408 -19.30210663 30.94273315 -19.9105072 30.34173584 C-24 26.22885614 -24 26.22885614 -24 24 C-22.3828125 22.625 -22.3828125 22.625 -20.125 21 C-12.27881772 15.05967272 -5.38455992 8.25632521 0 0 Z " fill="#8C9BA7" transform="translate(350,287)"/>
<path d="M0 0 C1.14725524 0.00054477 2.29451048 0.00108953 3.47653103 0.00165081 C4.79044323 -0.00254368 6.10435543 -0.00673817 7.45808315 -0.01105976 C8.9226835 -0.00557586 10.3872831 0.00010713 11.85188198 0.00596905 C13.38748156 0.00489664 14.92308074 0.00295857 16.45867825 0.00021648 C20.63621944 -0.00464116 24.81365424 0.00303493 28.99118257 0.01316953 C33.35493972 0.02193371 37.71869338 0.02019291 42.08245754 0.01980877 C49.41056513 0.02074607 56.73863136 0.02943936 64.06672573 0.04307842 C72.55096224 0.05881049 81.03515347 0.06407636 89.51940352 0.06334287 C97.66727363 0.06273348 105.81512891 0.0678304 113.96299458 0.07613468 C117.43707234 0.07967413 120.91114486 0.08149887 124.38522434 0.08202839 C128.4719138 0.08302962 132.55856492 0.08910817 136.64524174 0.09919453 C138.14933697 0.10212641 139.65343662 0.10334351 141.1575346 0.10276699 C143.20210329 0.10227968 145.24667036 0.10852525 147.29122829 0.1151762 C149.01154562 0.11768997 149.01154562 0.11768997 150.76661682 0.12025452 C153.32038784 0.24888897 153.32038784 0.24888897 154.32038784 1.24888897 C154.45320034 3.06138897 154.45320034 3.06138897 154.44538784 5.24888897 C154.44796597 5.97076397 154.45054409 6.69263897 154.45320034 7.43638897 C154.32038784 9.24888897 154.32038784 9.24888897 153.32038784 10.24888897 C151.29774711 10.34784443 149.27159512 10.37521189 147.2465353 10.37587261 C146.60526872 10.3774326 145.96400214 10.37899259 145.30330324 10.38059986 C143.13905335 10.38461141 140.97487272 10.38141963 138.81062222 10.3782835 C137.26531845 10.37963747 135.72001501 10.38141738 134.17471218 10.38359356 C129.96615279 10.38816837 125.7576178 10.38637814 121.54905796 10.38321447 C117.15459659 10.38069112 112.76013737 10.38302834 108.36567593 10.38460064 C100.98452789 10.38642241 93.60338983 10.38401584 86.22224331 10.37926006 C77.67611404 10.37381743 69.13000863 10.37558008 60.58387995 10.38108647 C53.2599112 10.38561739 45.93594966 10.38626825 38.61197996 10.3836478 C34.2317535 10.38208491 29.85153827 10.38189158 25.47131252 10.38518429 C21.35427319 10.38806271 17.23726475 10.38608786 13.12022877 10.38029003 C11.60484462 10.37896227 10.08945789 10.37935681 8.57407475 10.3815527 C6.51409427 10.3842636 4.45421436 10.38088385 2.39424038 10.37587261 C1.238689 10.37549559 0.08313763 10.37511856 -1.10743046 10.37473011 C-3.67961216 10.24888897 -3.67961216 10.24888897 -4.67961216 9.24888897 C-4.86711216 5.81138897 -4.86711216 5.81138897 -4.67961216 2.24888897 C-2.67961216 0.24888897 -2.67961216 0.24888897 0 0 Z " fill="#FEFAFB" transform="translate(80.679612159729,433.7511110305786)"/>
<path d="M0 0 C0.76577866 0.00404846 1.53155731 0.00809692 2.32054138 0.01226807 C3.12716721 0.00876343 3.93379303 0.00525879 4.76486206 0.00164795 C7.43910757 -0.00717601 10.11308991 -0.00131792 12.78733826 0.00543213 C14.64056957 0.00408567 16.49380054 0.0021453 18.34703064 -0.00036621 C22.23423113 -0.00331837 26.12133982 0.00098312 30.00852966 0.01031494 C34.99905454 0.02170953 39.98936431 0.01515055 44.97988129 0.00317001 C48.80763885 -0.00404611 52.63534516 -0.0017618 56.46310425 0.0034256 C58.30356878 0.00476278 60.14403792 0.00311198 61.98449707 -0.00153351 C64.55366908 -0.00659469 67.12248941 0.00110561 69.69163513 0.01226807 C70.45741379 0.0082196 71.22319244 0.00417114 72.01217651 0 C77.27755973 0.04252861 77.27755973 0.04252861 79.50608826 2.27105713 C79.69358826 5.83355713 79.69358826 5.83355713 79.50608826 9.27105713 C77.73138578 11.0457596 75.36218872 10.39726574 72.99856567 10.40658569 C72.20891922 10.40456146 71.41927277 10.40253723 70.60569763 10.40045166 C69.7781044 10.40220398 68.95051117 10.4039563 68.09783936 10.40576172 C65.34848464 10.41018106 62.59919369 10.40724196 59.84983826 10.40386963 C57.94794197 10.40454264 56.04604577 10.40551265 54.14414978 10.4067688 C50.1526457 10.40824588 46.16116396 10.40609088 42.16966248 10.40142822 C37.04118319 10.39573093 31.91275623 10.39900988 26.78427887 10.40500069 C22.85534772 10.40860602 18.92642907 10.40746784 14.99749756 10.40487289 C13.10596714 10.40420355 11.21443561 10.40503232 9.32290649 10.40735245 C6.68406649 10.40987851 4.04531245 10.40603904 1.40647888 10.40045166 C0.2220092 10.40348801 0.2220092 10.40348801 -0.98638916 10.40658569 C-6.37964923 10.38531964 -6.37964923 10.38531964 -7.49391174 9.27105713 C-7.68141174 5.83355713 -7.68141174 5.83355713 -7.49391174 2.27105713 C-4.9776864 -0.24516822 -3.43302237 0.02772859 0 0 Z " fill="#FEF6F9" transform="translate(83.49391174316406,397.72894287109375)"/>
<path d="M0 0 C2.95265112 1.32994383 5.02350216 2.77779316 7.29980469 5.07275391 C7.92014587 5.69324615 8.54048706 6.3137384 9.17962646 6.95303345 C9.83706848 7.62079803 10.4945105 8.28856262 11.171875 8.9765625 C11.8542926 9.66181 12.53671021 10.3470575 13.23980713 11.05307007 C15.41461598 13.23905845 17.58236072 15.43190429 19.75 17.625 C21.2247999 19.10983255 22.70005506 20.59421306 24.17578125 22.078125 C27.78915448 25.7135291 31.39620853 29.35509824 35 33 C31.6189962 37.13621084 28.33409466 40.81316569 24 44 C19.15091998 39.201479 14.30957901 34.39525288 9.47363281 29.58349609 C7.82633362 27.94627709 6.17724699 26.31085455 4.52636719 24.67724609 C2.15872596 22.33376447 -0.20248847 19.9839743 -2.5625 17.6328125 C-3.3062085 16.89942657 -4.04991699 16.16604065 -4.81616211 15.41043091 C-5.49686768 14.7298764 -6.17757324 14.0493219 -6.87890625 13.34814453 C-7.4829126 12.74857941 -8.08691895 12.14901428 -8.70922852 11.53128052 C-10 10 -10 10 -10 8 C-8.06640625 6.30859375 -8.06640625 6.30859375 -5.5625 4.4375 C-2.67307373 2.34532911 -2.67307373 2.34532911 0 0 Z " fill="#7B8C98" transform="translate(336,303)"/>
<path d="M0 0 C1.55170898 -0.00945648 1.55170898 -0.00945648 3.13476562 -0.019104 C4.81602539 -0.01303131 4.81602539 -0.01303131 6.53125 -0.00683594 C7.67787109 -0.00874939 8.82449219 -0.01066284 10.00585938 -0.01263428 C12.43359598 -0.01399715 14.86133984 -0.01029361 17.2890625 -0.00195312 C21.01579073 0.00874469 24.74203686 -0.00184525 28.46875 -0.01464844 C30.82291774 -0.01332686 33.17708517 -0.01076451 35.53125 -0.00683594 C36.65208984 -0.0108844 37.77292969 -0.01493286 38.92773438 -0.019104 C39.96220703 -0.01279968 40.99667969 -0.00649536 42.0625 0 C43.43245117 0.00238678 43.43245117 0.00238678 44.83007812 0.00482178 C47.03125 0.25878906 47.03125 0.25878906 49.03125 2.25878906 C49.21875 5.82128906 49.21875 5.82128906 49.03125 9.25878906 C47.35112658 10.93891248 45.28037808 10.38626245 42.9765625 10.38818359 C41.35983643 10.39291183 41.35983643 10.39291183 39.71044922 10.3977356 C38.53756348 10.39571136 37.36467773 10.39368713 36.15625 10.39160156 C34.9614502 10.39255829 33.76665039 10.39351501 32.53564453 10.39450073 C30.0035802 10.39518277 27.47151412 10.39332684 24.93945312 10.38916016 C21.0481374 10.38381227 17.15693711 10.38910439 13.265625 10.39550781 C10.81249974 10.39484704 8.35937456 10.39356588 5.90625 10.39160156 C4.73336426 10.39362579 3.56047852 10.39565002 2.35205078 10.3977356 C1.2742334 10.39458344 0.19641602 10.39143127 -0.9140625 10.38818359 C-1.86812988 10.387388 -2.82219727 10.38659241 -3.80517578 10.38577271 C-5.96875 10.25878906 -5.96875 10.25878906 -6.96875 9.25878906 C-7.15625 5.82128906 -7.15625 5.82128906 -6.96875 2.25878906 C-4.42601278 -0.28394815 -3.52435561 0.00614026 0 0 Z " fill="#FEF6F9" transform="translate(185.96875,397.7412109375)"/>
<path d="M0 0 C0.78955078 -0.01224609 1.57910156 -0.02449219 2.39257812 -0.03710938 C4.45057435 -0.04237279 6.50812009 0.06543715 8.5625 0.1875 C11.12198999 2.74698999 10.82318731 4.45957195 10.8359375 7.953125 C10.82820313 8.69046875 10.82046875 9.4278125 10.8125 10.1875 C10.82023437 10.92484375 10.82796875 11.6621875 10.8359375 12.421875 C10.8158196 17.9341804 10.8158196 17.9341804 8.5625 20.1875 C5.67117823 20.35929052 2.88807935 20.4197947 0 20.375 C-0.79341797 20.37435547 -1.58683594 20.37371094 -2.40429688 20.37304688 C-8.29724478 20.32775522 -8.29724478 20.32775522 -9.4375 19.1875 C-9.5358721 17.85706375 -9.56828592 16.52156656 -9.5703125 15.1875 C-9.57160156 14.383125 -9.57289063 13.57875 -9.57421875 12.75 C-9.57035156 11.904375 -9.56648438 11.05875 -9.5625 10.1875 C-9.56636719 9.341875 -9.57023437 8.49625 -9.57421875 7.625 C-9.57292969 6.820625 -9.57164062 6.01625 -9.5703125 5.1875 C-9.56918457 4.445 -9.56805664 3.7025 -9.56689453 2.9375 C-9.22671201 -1.6633082 -3.49415079 0.00283847 0 0 Z " fill="#08C388" transform="translate(354.4375,134.8125)"/>
</svg>
