<?xml version="1.0" encoding="UTF-8"?>
<svg version="1.1" xmlns="http://www.w3.org/2000/svg" width="512" height="512">
<path d="M0 0 C1.12280869 -0.00852997 2.24561737 -0.01705994 3.40245056 -0.02584839 C5.2361319 -0.02448883 5.2361319 -0.02448883 7.1068573 -0.02310181 C8.40171555 -0.02981903 9.69657379 -0.03653625 11.03067017 -0.04345703 C14.57627168 -0.06109577 18.12177661 -0.06581154 21.66741776 -0.0670886 C23.88517839 -0.06851212 26.10291462 -0.07278554 28.32066917 -0.07808304 C36.06516956 -0.09657721 43.80960119 -0.10475454 51.55412292 -0.10317993 C58.76088163 -0.10197912 65.96734057 -0.12307101 73.17402345 -0.15466726 C79.37123987 -0.18086458 85.56835861 -0.19154577 91.76562995 -0.19026911 C95.46257205 -0.18976043 99.15924771 -0.19539093 102.85613441 -0.21662521 C106.98288406 -0.23968206 111.10896705 -0.23046568 115.23576355 -0.21841431 C116.45214508 -0.22965332 117.66852661 -0.24089233 118.92176819 -0.25247192 C126.92725279 -0.19310684 132.41729127 0.80766978 138.60758972 6.23226929 C139.14641785 6.88324585 139.68524597 7.53422241 140.24040222 8.20492554 C140.7946991 8.85332397 141.34899597 9.50172241 141.92008972 10.16976929 C145.09358212 14.77562177 145.61967365 18.72807642 145.64628601 24.26872253 C145.65222826 24.96155403 145.6581705 25.65438553 145.66429281 26.36821193 C145.68159779 28.68338005 145.6846773 30.99834051 145.68766785 33.31356812 C145.69692904 34.97618549 145.70697901 36.63879863 145.71775818 38.30140686 C145.74396189 42.81389914 145.7568871 47.32633196 145.7657795 51.83888841 C145.77164749 54.65968195 145.77985828 57.48045934 145.78878784 60.30124474 C145.81612467 69.13147651 145.83546496 77.96167126 145.84319162 86.79194242 C145.85215342 96.97696699 145.8872565 107.16145479 145.94519281 117.34631616 C145.98845164 125.22504421 146.00860146 133.10362135 146.01127386 140.98246688 C146.01336797 145.68555619 146.02513963 150.38814047 146.06091309 155.09110451 C146.09391992 159.51626622 146.09816522 163.9405445 146.08063507 168.3657856 C146.07909672 169.98629883 146.0877489 171.60686 146.10755157 173.22725296 C146.27791959 188.04117998 146.27791959 188.04117998 140.90738869 193.81567478 C140.39853315 194.29475253 139.88967762 194.77383028 139.36540222 195.26742554 C138.71244675 196.00419022 138.05949127 196.7409549 137.38674927 197.50004578 C136.81114761 198.07723862 136.23554596 198.65443146 135.64250183 199.24911499 C134.97838791 199.91953323 134.31427399 200.58995148 133.6300354 201.28068542 C132.58445213 202.320196 132.58445213 202.320196 131.51774597 203.38070679 C130.7834285 204.11693771 130.04911102 204.85316864 129.2925415 205.61170959 C127.75116849 207.15443461 126.20730303 208.69467307 124.66105652 210.23251343 C122.2990853 212.58372507 119.94803873 214.94548425 117.5978241 217.30844116 C116.09260595 218.81233844 114.58676792 220.31561559 113.08024597 221.81820679 C112.38116623 222.52133499 111.68208649 223.2244632 110.96182251 223.94889832 C110.30086075 224.60355576 109.63989899 225.2582132 108.95890808 225.93270874 C108.38410202 226.50592361 107.80929596 227.07913849 107.21707153 227.66972351 C101.62274331 232.49675687 97.35824621 232.7050496 90.19425964 232.67147827 C89.17250137 232.67834152 88.1507431 232.68520477 87.09802246 232.692276 C83.72216368 232.71056854 80.34676866 232.70670213 76.97087097 232.70101929 C74.62063445 232.7055806 72.27039926 232.71088603 69.92016602 232.71690369 C64.9932463 232.72584017 60.06648862 232.72340627 55.13957214 232.71347046 C48.83465111 232.70199312 42.53029116 232.7221712 36.22544384 232.7513876 C31.37059999 232.76976244 26.51589019 232.7694543 21.66102028 232.76375008 C19.33706692 232.76359695 17.01310443 232.76963396 14.68918419 232.78204155 C11.43401137 232.79696955 8.17986963 232.78625937 4.92472839 232.76913452 C3.49288712 232.78363647 3.49288712 232.78363647 2.03211975 232.7984314 C-5.13015137 232.71979238 -10.44382873 231.06351758 -15.87678528 226.30258179 C-16.68502747 225.32611694 -16.68502747 225.32611694 -17.50959778 224.32992554 C-18.06389465 223.6815271 -18.61819153 223.03312866 -19.18928528 222.36508179 C-22.54967927 217.48796942 -22.92594191 212.99810629 -22.90202332 207.20314026 C-22.90655443 206.39596929 -22.91108554 205.58879833 -22.91575396 204.75716764 C-22.92840453 202.05504356 -22.92677717 199.35312086 -22.92512512 196.65097046 C-22.93110998 194.71249635 -22.93791543 192.77402462 -22.94548035 190.83555603 C-22.96315234 185.57100731 -22.96783625 180.3065236 -22.96911192 175.04194808 C-22.97053345 171.75212856 -22.97480309 168.46232557 -22.98010635 165.17251015 C-22.99861091 153.69331436 -23.00677647 142.21416504 -23.00520325 130.73495483 C-23.00400188 120.03821629 -23.02510231 109.34167954 -23.05669057 98.64499205 C-23.08285162 89.4584207 -23.0935706 80.27191526 -23.09229243 71.08530694 C-23.09178273 65.59987662 -23.09747053 60.1146256 -23.11864853 54.62923241 C-23.13802779 49.46881092 -23.13815737 44.30873982 -23.12361526 39.14830589 C-23.12152566 37.25690193 -23.12623708 35.36547606 -23.13833618 33.47410965 C-23.15381355 30.88655045 -23.14446456 28.30019572 -23.1290741 25.71266174 C-23.13936122 24.96896731 -23.14964835 24.22527288 -23.16024721 23.45904225 C-23.0758492 17.01230782 -20.92267504 11.87847196 -16.66975403 7.02523804 C-16.01877747 6.48640991 -15.3678009 5.94758179 -14.69709778 5.39242554 C-14.04869934 4.83812866 -13.4003009 4.28383179 -12.73225403 3.71273804 C-8.60268058 0.8674081 -4.97598265 0.01713788 0 0 Z " fill="#FEDA7F" transform="translate(366.6345977783203,139.73257446289063)"/>
<path d="M0 0 C1.12280869 -0.00852997 2.24561737 -0.01705994 3.40245056 -0.02584839 C5.2361319 -0.02448883 5.2361319 -0.02448883 7.1068573 -0.02310181 C8.40171555 -0.02981903 9.69657379 -0.03653625 11.03067017 -0.04345703 C14.57627168 -0.06109577 18.12177661 -0.06581154 21.66741776 -0.0670886 C23.88517839 -0.06851212 26.10291462 -0.07278554 28.32066917 -0.07808304 C36.06516956 -0.09657721 43.80960119 -0.10475454 51.55412292 -0.10317993 C58.76088163 -0.10197912 65.96734057 -0.12307101 73.17402345 -0.15466726 C79.37123987 -0.18086458 85.56835861 -0.19154577 91.76562995 -0.19026911 C95.46257205 -0.18976043 99.15924771 -0.19539093 102.85613441 -0.21662521 C106.98288406 -0.23968206 111.10896705 -0.23046568 115.23576355 -0.21841431 C116.45214508 -0.22965332 117.66852661 -0.24089233 118.92176819 -0.25247192 C126.92725279 -0.19310684 132.41729127 0.80766978 138.60758972 6.23226929 C139.14641785 6.88324585 139.68524597 7.53422241 140.24040222 8.20492554 C140.7946991 8.85332397 141.34899597 9.50172241 141.92008972 10.16976929 C145.09358212 14.77562177 145.61967365 18.72807642 145.64628601 24.26872253 C145.65222826 24.96155403 145.6581705 25.65438553 145.66429281 26.36821193 C145.68159779 28.68338005 145.6846773 30.99834051 145.68766785 33.31356812 C145.69692904 34.97618549 145.70697901 36.63879863 145.71775818 38.30140686 C145.74396189 42.81389914 145.7568871 47.32633196 145.7657795 51.83888841 C145.77164749 54.65968195 145.77985828 57.48045934 145.78878784 60.30124474 C145.81612467 69.13147651 145.83546496 77.96167126 145.84319162 86.79194242 C145.85215342 96.97696699 145.8872565 107.16145479 145.94519281 117.34631616 C145.98845164 125.22504421 146.00860146 133.10362135 146.01127386 140.98246688 C146.01336797 145.68555619 146.02513963 150.38814047 146.06091309 155.09110451 C146.09391992 159.51626622 146.09816522 163.9405445 146.08063507 168.3657856 C146.07909672 169.98629883 146.0877489 171.60686 146.10755157 173.22725296 C146.27791959 188.04117998 146.27791959 188.04117998 140.90738869 193.81567478 C140.39853315 194.29475253 139.88967762 194.77383028 139.36540222 195.26742554 C138.71244675 196.00419022 138.05949127 196.7409549 137.38674927 197.50004578 C136.81114761 198.07723862 136.23554596 198.65443146 135.64250183 199.24911499 C134.97838791 199.91953323 134.31427399 200.58995148 133.6300354 201.28068542 C132.58445213 202.320196 132.58445213 202.320196 131.51774597 203.38070679 C130.7834285 204.11693771 130.04911102 204.85316864 129.2925415 205.61170959 C127.75116849 207.15443461 126.20730303 208.69467307 124.66105652 210.23251343 C122.2990853 212.58372507 119.94803873 214.94548425 117.5978241 217.30844116 C116.09260595 218.81233844 114.58676792 220.31561559 113.08024597 221.81820679 C112.38116623 222.52133499 111.68208649 223.2244632 110.96182251 223.94889832 C110.30086075 224.60355576 109.63989899 225.2582132 108.95890808 225.93270874 C108.38410202 226.50592361 107.80929596 227.07913849 107.21707153 227.66972351 C101.62274331 232.49675687 97.35824621 232.7050496 90.19425964 232.67147827 C89.17250137 232.67834152 88.1507431 232.68520477 87.09802246 232.692276 C83.72216368 232.71056854 80.34676866 232.70670213 76.97087097 232.70101929 C74.62063445 232.7055806 72.27039926 232.71088603 69.92016602 232.71690369 C64.9932463 232.72584017 60.06648862 232.72340627 55.13957214 232.71347046 C48.83465111 232.70199312 42.53029116 232.7221712 36.22544384 232.7513876 C31.37059999 232.76976244 26.51589019 232.7694543 21.66102028 232.76375008 C19.33706692 232.76359695 17.01310443 232.76963396 14.68918419 232.78204155 C11.43401137 232.79696955 8.17986963 232.78625937 4.92472839 232.76913452 C3.49288712 232.78363647 3.49288712 232.78363647 2.03211975 232.7984314 C-5.13015137 232.71979238 -10.44382873 231.06351758 -15.87678528 226.30258179 C-16.68502747 225.32611694 -16.68502747 225.32611694 -17.50959778 224.32992554 C-18.06389465 223.6815271 -18.61819153 223.03312866 -19.18928528 222.36508179 C-22.54967927 217.48796942 -22.92594191 212.99810629 -22.90202332 207.20314026 C-22.90655443 206.39596929 -22.91108554 205.58879833 -22.91575396 204.75716764 C-22.92840453 202.05504356 -22.92677717 199.35312086 -22.92512512 196.65097046 C-22.93110998 194.71249635 -22.93791543 192.77402462 -22.94548035 190.83555603 C-22.96315234 185.57100731 -22.96783625 180.3065236 -22.96911192 175.04194808 C-22.97053345 171.75212856 -22.97480309 168.46232557 -22.98010635 165.17251015 C-22.99861091 153.69331436 -23.00677647 142.21416504 -23.00520325 130.73495483 C-23.00400188 120.03821629 -23.02510231 109.34167954 -23.05669057 98.64499205 C-23.08285162 89.4584207 -23.0935706 80.27191526 -23.09229243 71.08530694 C-23.09178273 65.59987662 -23.09747053 60.1146256 -23.11864853 54.62923241 C-23.13802779 49.46881092 -23.13815737 44.30873982 -23.12361526 39.14830589 C-23.12152566 37.25690193 -23.12623708 35.36547606 -23.13833618 33.47410965 C-23.15381355 30.88655045 -23.14446456 28.30019572 -23.1290741 25.71266174 C-23.13936122 24.96896731 -23.14964835 24.22527288 -23.16024721 23.45904225 C-23.0758492 17.01230782 -20.92267504 11.87847196 -16.66975403 7.02523804 C-16.01877747 6.48640991 -15.3678009 5.94758179 -14.69709778 5.39242554 C-14.04869934 4.83812866 -13.4003009 4.28383179 -12.73225403 3.71273804 C-8.60268058 0.8674081 -4.97598265 0.01713788 0 0 Z " fill="#FEDA7F" transform="translate(22.634597778320313,139.73257446289063)"/>
<path d="M0 0 C7.55435107 -0.09301622 15.10864214 -0.16392438 22.66343689 -0.20724869 C26.17215319 -0.22805108 29.68047533 -0.25623163 33.18896484 -0.30175781 C37.23017993 -0.35386357 41.27098629 -0.37300577 45.3125 -0.390625 C46.5617627 -0.41127014 47.81102539 -0.43191528 49.09814453 -0.45318604 C57.32322191 -0.45529086 62.88165655 0.39106837 69.2421875 5.96484375 C69.78101563 6.61582031 70.31984375 7.26679688 70.875 7.9375 C71.42929688 8.58589844 71.98359375 9.23429687 72.5546875 9.90234375 C75.7281799 14.50819624 76.25427143 18.46065088 76.28088379 24.001297 C76.28682603 24.6941285 76.29276828 25.38696 76.29889059 26.10078639 C76.31619557 28.41595452 76.31927508 30.73091498 76.32226562 33.04614258 C76.33152682 34.70875995 76.34157679 36.3713731 76.35235596 38.03398132 C76.37855966 42.5464736 76.39148488 47.05890642 76.40037727 51.57146287 C76.40624527 54.39225641 76.41445606 57.2130338 76.42338562 60.0338192 C76.45072245 68.86405097 76.47006274 77.69424573 76.4777894 86.52451688 C76.48675119 96.70954145 76.52185428 106.89402925 76.57979059 117.07889062 C76.62304942 124.95761867 76.64319924 132.83619581 76.64587164 140.71504134 C76.64796575 145.41813065 76.65973741 150.12071494 76.69551086 154.82367897 C76.7285177 159.24884068 76.732763 163.67311896 76.71523285 168.09836006 C76.71369449 169.71887329 76.72234668 171.33943446 76.74214935 172.95982742 C76.91251737 187.77375445 76.91251737 187.77375445 71.54198647 193.54824924 C71.03313093 194.02732699 70.5242754 194.50640474 70 195 C69.34704453 195.73676468 68.69408905 196.47352936 68.02134705 197.23262024 C67.44574539 197.80981308 66.87014374 198.38700592 66.27709961 198.98168945 C65.61298569 199.6521077 64.94887177 200.32252594 64.26463318 201.01325989 C63.21904991 202.05277046 63.21904991 202.05277046 62.15234375 203.11328125 C61.41802628 203.84951218 60.6837088 204.5857431 59.92713928 205.34428406 C58.38576627 206.88700907 56.84190081 208.42724753 55.2956543 209.96508789 C52.93368308 212.31629954 50.58263651 214.67805872 48.23242188 217.04101562 C46.72720373 218.5449129 45.2213657 220.04819005 43.71484375 221.55078125 C43.01576401 222.25390945 42.31668427 222.95703766 41.59642029 223.68147278 C40.93545853 224.33613022 40.27449677 224.99078766 39.59350586 225.6652832 C39.0186998 226.23849808 38.44389374 226.81171295 37.85166931 227.40229797 C32.25734109 232.22933133 27.99284399 232.43762406 20.82885742 232.40405273 C19.80709915 232.41091599 18.78534088 232.41777924 17.73262024 232.42485046 C14.35676146 232.443143 10.98136644 232.43927659 7.60546875 232.43359375 C5.25523223 232.43815507 2.90499704 232.44346049 0.55476379 232.44947815 C-4.37215592 232.45841463 -9.2989136 232.45598073 -14.22583008 232.44604492 C-20.53075111 232.43456758 -26.83511106 232.45474566 -33.13995838 232.48396206 C-37.99480223 232.5023369 -42.84951204 232.50202876 -47.70438194 232.49632454 C-50.0283353 232.49617141 -52.35229779 232.50220842 -54.67621803 232.51461601 C-57.93139085 232.52954402 -61.18553259 232.51883383 -64.44067383 232.50170898 C-65.87251511 232.51621094 -65.87251511 232.51621094 -67.33328247 232.53100586 C-74.49555359 232.45236684 -79.80923095 230.79609204 -85.2421875 226.03515625 C-86.05042969 225.05869141 -86.05042969 225.05869141 -86.875 224.0625 C-87.42929688 223.41410156 -87.98359375 222.76570312 -88.5546875 222.09765625 C-92.44548855 216.45073689 -92.27562501 211.24753147 -92.22705078 204.61010742 C-92.22734283 203.56574524 -92.22763489 202.52138306 -92.22793579 201.44537354 C-92.22654415 197.99865365 -92.21099052 194.55215081 -92.1953125 191.10546875 C-92.19158179 188.71364968 -92.18873509 186.32182908 -92.18673706 183.93000793 C-92.17910523 177.63847627 -92.15946049 171.34703713 -92.1373291 165.05554199 C-92.11686105 158.63404593 -92.10773328 152.21253491 -92.09765625 145.79101562 C-92.07621427 133.19397097 -92.04246876 120.59699041 -92 108 C-91.29504395 107.98018066 -90.59008789 107.96036133 -89.86376953 107.93994141 C-86.61718789 107.84368731 -83.3711635 107.73442124 -80.125 107.625 C-79.01640625 107.5940625 -77.9078125 107.563125 -76.765625 107.53125 C-58.27112679 106.878503 -49.06393212 101.79771741 -36 89 C-35.0263424 88.05210435 -34.05253628 87.10436125 -33.07861328 86.15673828 C-30.31210167 83.46110224 -27.55786477 80.75333364 -24.81027222 78.03842163 C-23.69943701 76.94198908 -22.58646604 75.84771552 -21.47122192 74.75576782 C-7.57114826 61.1198261 -1.07985185 50.23509263 -0.68359375 30.46875 C-0.6524221 29.15396667 -0.6524221 29.15396667 -0.62062073 27.81262207 C-0.55579117 25.04181958 -0.49655342 22.27093099 -0.4375 19.5 C-0.39425127 17.60936648 -0.35063507 15.71874132 -0.30664062 13.828125 C-0.20017915 9.21883584 -0.09872881 4.60946101 0 0 Z " fill="#FEDA7F" transform="translate(184,280)"/>
<path d="M0 0 C1.12280869 -0.00852997 2.24561737 -0.01705994 3.40245056 -0.02584839 C5.2361319 -0.02448883 5.2361319 -0.02448883 7.1068573 -0.02310181 C8.40171555 -0.02981903 9.69657379 -0.03653625 11.03067017 -0.04345703 C14.57627168 -0.06109577 18.12177661 -0.06581154 21.66741776 -0.0670886 C23.88517839 -0.06851212 26.10291462 -0.07278554 28.32066917 -0.07808304 C36.06516956 -0.09657721 43.80960119 -0.10475454 51.55412292 -0.10317993 C58.76088163 -0.10197912 65.96734057 -0.12307101 73.17402345 -0.15466726 C79.37123987 -0.18086458 85.56835861 -0.19154577 91.76562995 -0.19026911 C95.46257205 -0.18976043 99.15924771 -0.19539093 102.85613441 -0.21662521 C106.98288406 -0.23968206 111.10896705 -0.23046568 115.23576355 -0.21841431 C116.45214508 -0.22965332 117.66852661 -0.24089233 118.92176819 -0.25247192 C126.92725279 -0.19310684 132.41729127 0.80766978 138.60758972 6.23226929 C139.14641785 6.88324585 139.68524597 7.53422241 140.24040222 8.20492554 C140.7946991 8.85332397 141.34899597 9.50172241 141.92008972 10.16976929 C145.09358212 14.77562177 145.61967365 18.72807642 145.64628601 24.26872253 C145.65222826 24.96155403 145.6581705 25.65438553 145.66429281 26.36821193 C145.68159779 28.68338005 145.6846773 30.99834051 145.68766785 33.31356812 C145.69692904 34.97618549 145.70697901 36.63879863 145.71775818 38.30140686 C145.74396189 42.81389914 145.7568871 47.32633196 145.7657795 51.83888841 C145.77164749 54.65968195 145.77985828 57.48045934 145.78878784 60.30124474 C145.81612467 69.13147651 145.83546496 77.96167126 145.84319162 86.79194242 C145.85215342 96.97696699 145.8872565 107.16145479 145.94519281 117.34631616 C145.98845164 125.22504421 146.00860146 133.10362135 146.01127386 140.98246688 C146.01336797 145.68555619 146.02513963 150.38814047 146.06091309 155.09110451 C146.09391992 159.51626622 146.09816522 163.9405445 146.08063507 168.3657856 C146.07909672 169.98629883 146.0877489 171.60686 146.10755157 173.22725296 C146.27791959 188.04117998 146.27791959 188.04117998 140.90738869 193.81567478 C140.39853315 194.29475253 139.88967762 194.77383028 139.36540222 195.26742554 C138.71244675 196.00419022 138.05949127 196.7409549 137.38674927 197.50004578 C136.81114761 198.07723862 136.23554596 198.65443146 135.64250183 199.24911499 C134.97838791 199.91953323 134.31427399 200.58995148 133.6300354 201.28068542 C132.58445213 202.320196 132.58445213 202.320196 131.51774597 203.38070679 C130.7834285 204.11693771 130.04911102 204.85316864 129.2925415 205.61170959 C127.75116849 207.15443461 126.20730303 208.69467307 124.66105652 210.23251343 C122.2990853 212.58372507 119.94803873 214.94548425 117.5978241 217.30844116 C116.09260595 218.81233844 114.58676792 220.31561559 113.08024597 221.81820679 C112.38116623 222.52133499 111.68208649 223.2244632 110.96182251 223.94889832 C110.30086075 224.60355576 109.63989899 225.2582132 108.95890808 225.93270874 C108.38410202 226.50592361 107.80929596 227.07913849 107.21707153 227.66972351 C102.52927274 231.71456326 99.31022073 232.63711465 93.09587097 232.56039429 C92.41486832 232.55614944 91.73386566 232.5519046 91.03222656 232.54753113 C88.87203764 232.53083163 86.7128058 232.49319865 84.55290222 232.45492554 C83.08221264 232.43986728 81.61150833 232.42618087 80.14079285 232.41390991 C76.54868865 232.38095767 72.95713896 232.32923726 69.36540222 232.26742554 C69.35731537 231.4421637 69.34922852 230.61690186 69.34089661 229.76663208 C69.26254734 221.94125486 69.17513952 214.11604033 69.07787514 206.29087448 C69.02819662 202.26909498 68.9818673 198.24733819 68.94352722 194.22543335 C68.90631101 190.33493784 68.85985961 186.44464683 68.80733871 182.55432892 C68.78898563 181.0794259 68.7738095 179.60447937 68.76205826 178.12950897 C68.63152238 162.29321248 67.62227667 148.18195926 56.38493347 136.08773804 C45.05623127 125.87656739 31.71112452 125.17212493 17.20915222 124.95101929 C15.49484009 124.91984764 15.49484009 124.91984764 13.74589539 124.88804626 C10.11912155 124.82301213 6.49227944 124.76388154 2.86540222 124.70492554 C0.39664535 124.66169639 -2.07210479 124.61808073 -4.54084778 124.57406616 C-10.572027 124.46737842 -16.60327314 124.36552898 -22.63459778 124.26742554 C-22.72820674 110.45459141 -22.79839153 96.64180676 -22.84184647 82.82872009 C-22.86270462 76.41445907 -22.89099061 70.00041142 -22.93635559 63.58627319 C-22.97987547 57.39413358 -23.00374822 51.20219898 -23.01410675 45.00991821 C-23.021487 42.6496559 -23.0358989 40.28940457 -23.05751801 37.92922974 C-23.08663267 34.61853956 -23.09055028 31.30869227 -23.08869934 27.99789429 C-23.10308044 27.02612747 -23.11746155 26.05436066 -23.13227844 25.05314636 C-23.08865611 17.82346367 -21.47612208 12.51003975 -16.66975403 7.02523804 C-16.01877747 6.48640991 -15.3678009 5.94758179 -14.69709778 5.39242554 C-14.04869934 4.83812866 -13.4003009 4.28383179 -12.73225403 3.71273804 C-8.60268058 0.8674081 -4.97598265 0.01713788 0 0 Z " fill="#2D4356" transform="translate(114.63459777832031,-0.267425537109375)"/>
<path d="M0 0 C1.12280869 -0.00852997 2.24561737 -0.01705994 3.40245056 -0.02584839 C5.2361319 -0.02448883 5.2361319 -0.02448883 7.1068573 -0.02310181 C8.40171555 -0.02981903 9.69657379 -0.03653625 11.03067017 -0.04345703 C14.57627168 -0.06109577 18.12177661 -0.06581154 21.66741776 -0.0670886 C23.88517839 -0.06851212 26.10291462 -0.07278554 28.32066917 -0.07808304 C36.06516956 -0.09657721 43.80960119 -0.10475454 51.55412292 -0.10317993 C58.76088163 -0.10197912 65.96734057 -0.12307101 73.17402345 -0.15466726 C79.37123987 -0.18086458 85.56835861 -0.19154577 91.76562995 -0.19026911 C95.46257205 -0.18976043 99.15924771 -0.19539093 102.85613441 -0.21662521 C106.98288406 -0.23968206 111.10896705 -0.23046568 115.23576355 -0.21841431 C116.45214508 -0.22965332 117.66852661 -0.24089233 118.92176819 -0.25247192 C126.92725279 -0.19310684 132.41729127 0.80766978 138.60758972 6.23226929 C139.14641785 6.88324585 139.68524597 7.53422241 140.24040222 8.20492554 C140.7946991 8.85332397 141.34899597 9.50172241 141.92008972 10.16976929 C145.09358212 14.77562177 145.61967365 18.72807642 145.64628601 24.26872253 C145.65222826 24.96155403 145.6581705 25.65438553 145.66429281 26.36821193 C145.68159779 28.68338005 145.6846773 30.99834051 145.68766785 33.31356812 C145.69692904 34.97618549 145.70697901 36.63879863 145.71775818 38.30140686 C145.74396189 42.81389914 145.7568871 47.32633196 145.7657795 51.83888841 C145.77164749 54.65968195 145.77985828 57.48045934 145.78878784 60.30124474 C145.81612467 69.13147651 145.83546496 77.96167126 145.84319162 86.79194242 C145.85215342 96.97696699 145.8872565 107.16145479 145.94519281 117.34631616 C145.98845164 125.22504421 146.00860146 133.10362135 146.01127386 140.98246688 C146.01336797 145.68555619 146.02513963 150.38814047 146.06091309 155.09110451 C146.09391992 159.51626622 146.09816522 163.9405445 146.08063507 168.3657856 C146.07909672 169.98629883 146.0877489 171.60686 146.10755157 173.22725296 C146.27791959 188.04117998 146.27791959 188.04117998 140.90738869 193.81567478 C140.39853315 194.29475253 139.88967762 194.77383028 139.36540222 195.26742554 C138.71244675 196.00419022 138.05949127 196.7409549 137.38674927 197.50004578 C136.81114761 198.07723862 136.23554596 198.65443146 135.64250183 199.24911499 C134.97838791 199.91953323 134.31427399 200.58995148 133.6300354 201.28068542 C132.58445213 202.320196 132.58445213 202.320196 131.51774597 203.38070679 C130.7834285 204.11693771 130.04911102 204.85316864 129.2925415 205.61170959 C127.75116849 207.15443461 126.20730303 208.69467307 124.66105652 210.23251343 C122.2990853 212.58372507 119.94803873 214.94548425 117.5978241 217.30844116 C116.09260595 218.81233844 114.58676792 220.31561559 113.08024597 221.81820679 C112.38116623 222.52133499 111.68208649 223.2244632 110.96182251 223.94889832 C110.30086075 224.60355576 109.63989899 225.2582132 108.95890808 225.93270874 C108.38410202 226.50592361 107.80929596 227.07913849 107.21707153 227.66972351 C101.62274331 232.49675687 97.35824621 232.7050496 90.19425964 232.67147827 C89.17250137 232.67834152 88.1507431 232.68520477 87.09802246 232.692276 C83.72216368 232.71056854 80.34676866 232.70670213 76.97087097 232.70101929 C74.62063445 232.7055806 72.27039926 232.71088603 69.92016602 232.71690369 C64.9932463 232.72584017 60.06648862 232.72340627 55.13957214 232.71347046 C48.83465111 232.70199312 42.53029116 232.7221712 36.22544384 232.7513876 C31.37059999 232.76976244 26.51589019 232.7694543 21.66102028 232.76375008 C19.33706692 232.76359695 17.01310443 232.76963396 14.68918419 232.78204155 C11.43401137 232.79696955 8.17986963 232.78625937 4.92472839 232.76913452 C3.49288712 232.78363647 3.49288712 232.78363647 2.03211975 232.7984314 C-5.13015137 232.71979238 -10.44382873 231.06351758 -15.87678528 226.30258179 C-16.68502747 225.32611694 -16.68502747 225.32611694 -17.50959778 224.32992554 C-18.06389465 223.6815271 -18.61819153 223.03312866 -19.18928528 222.36508179 C-22.54967927 217.48796942 -22.92594191 212.99810629 -22.90202332 207.20314026 C-22.90655443 206.39596929 -22.91108554 205.58879833 -22.91575396 204.75716764 C-22.92840453 202.05504356 -22.92677717 199.35312086 -22.92512512 196.65097046 C-22.93110998 194.71249635 -22.93791543 192.77402462 -22.94548035 190.83555603 C-22.96315234 185.57100731 -22.96783625 180.3065236 -22.96911192 175.04194808 C-22.97053345 171.75212856 -22.97480309 168.46232557 -22.98010635 165.17251015 C-22.99861091 153.69331436 -23.00677647 142.21416504 -23.00520325 130.73495483 C-23.00400188 120.03821629 -23.02510231 109.34167954 -23.05669057 98.64499205 C-23.08285162 89.4584207 -23.0935706 80.27191526 -23.09229243 71.08530694 C-23.09178273 65.59987662 -23.09747053 60.1146256 -23.11864853 54.62923241 C-23.13802779 49.46881092 -23.13815737 44.30873982 -23.12361526 39.14830589 C-23.12152566 37.25690193 -23.12623708 35.36547606 -23.13833618 33.47410965 C-23.15381355 30.88655045 -23.14446456 28.30019572 -23.1290741 25.71266174 C-23.13936122 24.96896731 -23.14964835 24.22527288 -23.16024721 23.45904225 C-23.0758492 17.01230782 -20.92267504 11.87847196 -16.66975403 7.02523804 C-16.01877747 6.48640991 -15.3678009 5.94758179 -14.69709778 5.39242554 C-14.04869934 4.83812866 -13.4003009 4.28383179 -12.73225403 3.71273804 C-8.60268058 0.8674081 -4.97598265 0.01713788 0 0 Z M-6.63459778 64.26742554 C-6.78023865 90.27227042 -6.78023865 90.27227042 -6.8787384 116.27719116 C-6.9084223 126.87993441 -6.94334342 137.48247919 -7.01179504 148.08505249 C-7.06162145 155.80641604 -7.09388672 163.5276188 -7.10504025 171.24913865 C-7.11156038 175.33795311 -7.12688987 179.42630754 -7.16324806 183.51497459 C-7.19719588 187.36377932 -7.20765346 191.21193471 -7.20013618 195.06087494 C-7.20151131 196.47302339 -7.21145189 197.88519364 -7.23062515 199.2972126 C-7.45010895 207.31283179 -7.45010895 207.31283179 -4.6566925 214.61080933 C-0.54081333 216.86700338 2.66006319 216.93490039 7.2865448 216.83505249 C8.61900238 216.83614769 8.61900238 216.83614769 9.9783783 216.83726501 C12.90619068 216.83378947 15.83240001 216.79493004 18.75993347 216.75570679 C20.79302094 216.74637854 22.82611967 216.73926248 24.85922241 216.73426819 C30.20408794 216.7151994 35.54827151 216.66609912 40.89286804 216.61074829 C46.34911372 216.55955354 51.80546985 216.53675363 57.2618866 216.51156616 C67.9633577 216.45798069 78.6643232 216.37266891 89.36540222 216.26742554 C89.37474792 215.45588013 89.38409363 214.64433472 89.39372253 213.80819702 C89.44763452 210.10650507 89.53124421 206.40604834 89.61540222 202.70492554 C89.62958191 201.42810913 89.6437616 200.15129272 89.65837097 198.83578491 C89.97897756 186.49243139 89.97897756 186.49243139 94.36540222 181.26742554 C101.36540222 177.26742554 101.36540222 177.26742554 129.36540222 176.26742554 C129.36540222 139.30742554 129.36540222 102.34742554 129.36540222 64.26742554 C84.48540222 64.26742554 39.60540222 64.26742554 -6.63459778 64.26742554 Z " fill="#2D4356" transform="translate(366.6345977783203,139.73257446289063)"/>
<path d="M0 0 C1.12280869 -0.00852997 2.24561737 -0.01705994 3.40245056 -0.02584839 C5.2361319 -0.02448883 5.2361319 -0.02448883 7.1068573 -0.02310181 C8.40171555 -0.02981903 9.69657379 -0.03653625 11.03067017 -0.04345703 C14.57627168 -0.06109577 18.12177661 -0.06581154 21.66741776 -0.0670886 C23.88517839 -0.06851212 26.10291462 -0.07278554 28.32066917 -0.07808304 C36.06516956 -0.09657721 43.80960119 -0.10475454 51.55412292 -0.10317993 C58.76088163 -0.10197912 65.96734057 -0.12307101 73.17402345 -0.15466726 C79.37123987 -0.18086458 85.56835861 -0.19154577 91.76562995 -0.19026911 C95.46257205 -0.18976043 99.15924771 -0.19539093 102.85613441 -0.21662521 C106.98288406 -0.23968206 111.10896705 -0.23046568 115.23576355 -0.21841431 C116.45214508 -0.22965332 117.66852661 -0.24089233 118.92176819 -0.25247192 C126.92725279 -0.19310684 132.41729127 0.80766978 138.60758972 6.23226929 C139.14641785 6.88324585 139.68524597 7.53422241 140.24040222 8.20492554 C140.7946991 8.85332397 141.34899597 9.50172241 141.92008972 10.16976929 C145.09358212 14.77562177 145.61967365 18.72807642 145.64628601 24.26872253 C145.65222826 24.96155403 145.6581705 25.65438553 145.66429281 26.36821193 C145.68159779 28.68338005 145.6846773 30.99834051 145.68766785 33.31356812 C145.69692904 34.97618549 145.70697901 36.63879863 145.71775818 38.30140686 C145.74396189 42.81389914 145.7568871 47.32633196 145.7657795 51.83888841 C145.77164749 54.65968195 145.77985828 57.48045934 145.78878784 60.30124474 C145.81612467 69.13147651 145.83546496 77.96167126 145.84319162 86.79194242 C145.85215342 96.97696699 145.8872565 107.16145479 145.94519281 117.34631616 C145.98845164 125.22504421 146.00860146 133.10362135 146.01127386 140.98246688 C146.01336797 145.68555619 146.02513963 150.38814047 146.06091309 155.09110451 C146.09391992 159.51626622 146.09816522 163.9405445 146.08063507 168.3657856 C146.07909672 169.98629883 146.0877489 171.60686 146.10755157 173.22725296 C146.27791959 188.04117998 146.27791959 188.04117998 140.90738869 193.81567478 C140.39853315 194.29475253 139.88967762 194.77383028 139.36540222 195.26742554 C138.71244675 196.00419022 138.05949127 196.7409549 137.38674927 197.50004578 C136.81114761 198.07723862 136.23554596 198.65443146 135.64250183 199.24911499 C134.97838791 199.91953323 134.31427399 200.58995148 133.6300354 201.28068542 C132.58445213 202.320196 132.58445213 202.320196 131.51774597 203.38070679 C130.7834285 204.11693771 130.04911102 204.85316864 129.2925415 205.61170959 C127.75116849 207.15443461 126.20730303 208.69467307 124.66105652 210.23251343 C122.2990853 212.58372507 119.94803873 214.94548425 117.5978241 217.30844116 C116.09260595 218.81233844 114.58676792 220.31561559 113.08024597 221.81820679 C112.38116623 222.52133499 111.68208649 223.2244632 110.96182251 223.94889832 C110.30086075 224.60355576 109.63989899 225.2582132 108.95890808 225.93270874 C108.38410202 226.50592361 107.80929596 227.07913849 107.21707153 227.66972351 C101.62274331 232.49675687 97.35824621 232.7050496 90.19425964 232.67147827 C89.17250137 232.67834152 88.1507431 232.68520477 87.09802246 232.692276 C83.72216368 232.71056854 80.34676866 232.70670213 76.97087097 232.70101929 C74.62063445 232.7055806 72.27039926 232.71088603 69.92016602 232.71690369 C64.9932463 232.72584017 60.06648862 232.72340627 55.13957214 232.71347046 C48.83465111 232.70199312 42.53029116 232.7221712 36.22544384 232.7513876 C31.37059999 232.76976244 26.51589019 232.7694543 21.66102028 232.76375008 C19.33706692 232.76359695 17.01310443 232.76963396 14.68918419 232.78204155 C11.43401137 232.79696955 8.17986963 232.78625937 4.92472839 232.76913452 C3.49288712 232.78363647 3.49288712 232.78363647 2.03211975 232.7984314 C-5.13015137 232.71979238 -10.44382873 231.06351758 -15.87678528 226.30258179 C-16.68502747 225.32611694 -16.68502747 225.32611694 -17.50959778 224.32992554 C-18.06389465 223.6815271 -18.61819153 223.03312866 -19.18928528 222.36508179 C-22.54967927 217.48796942 -22.92594191 212.99810629 -22.90202332 207.20314026 C-22.90655443 206.39596929 -22.91108554 205.58879833 -22.91575396 204.75716764 C-22.92840453 202.05504356 -22.92677717 199.35312086 -22.92512512 196.65097046 C-22.93110998 194.71249635 -22.93791543 192.77402462 -22.94548035 190.83555603 C-22.96315234 185.57100731 -22.96783625 180.3065236 -22.96911192 175.04194808 C-22.97053345 171.75212856 -22.97480309 168.46232557 -22.98010635 165.17251015 C-22.99861091 153.69331436 -23.00677647 142.21416504 -23.00520325 130.73495483 C-23.00400188 120.03821629 -23.02510231 109.34167954 -23.05669057 98.64499205 C-23.08285162 89.4584207 -23.0935706 80.27191526 -23.09229243 71.08530694 C-23.09178273 65.59987662 -23.09747053 60.1146256 -23.11864853 54.62923241 C-23.13802779 49.46881092 -23.13815737 44.30873982 -23.12361526 39.14830589 C-23.12152566 37.25690193 -23.12623708 35.36547606 -23.13833618 33.47410965 C-23.15381355 30.88655045 -23.14446456 28.30019572 -23.1290741 25.71266174 C-23.13936122 24.96896731 -23.14964835 24.22527288 -23.16024721 23.45904225 C-23.0758492 17.01230782 -20.92267504 11.87847196 -16.66975403 7.02523804 C-16.01877747 6.48640991 -15.3678009 5.94758179 -14.69709778 5.39242554 C-14.04869934 4.83812866 -13.4003009 4.28383179 -12.73225403 3.71273804 C-8.60268058 0.8674081 -4.97598265 0.01713788 0 0 Z M-6.63459778 64.26742554 C-6.78023865 90.27227042 -6.78023865 90.27227042 -6.8787384 116.27719116 C-6.9084223 126.87993441 -6.94334342 137.48247919 -7.01179504 148.08505249 C-7.06162145 155.80641604 -7.09388672 163.5276188 -7.10504025 171.24913865 C-7.11156038 175.33795311 -7.12688987 179.42630754 -7.16324806 183.51497459 C-7.19719588 187.36377932 -7.20765346 191.21193471 -7.20013618 195.06087494 C-7.20151131 196.47302339 -7.21145189 197.88519364 -7.23062515 199.2972126 C-7.45010895 207.31283179 -7.45010895 207.31283179 -4.6566925 214.61080933 C-0.54081333 216.86700338 2.66006319 216.93490039 7.2865448 216.83505249 C8.61900238 216.83614769 8.61900238 216.83614769 9.9783783 216.83726501 C12.90619068 216.83378947 15.83240001 216.79493004 18.75993347 216.75570679 C20.79302094 216.74637854 22.82611967 216.73926248 24.85922241 216.73426819 C30.20408794 216.7151994 35.54827151 216.66609912 40.89286804 216.61074829 C46.34911372 216.55955354 51.80546985 216.53675363 57.2618866 216.51156616 C67.9633577 216.45798069 78.6643232 216.37266891 89.36540222 216.26742554 C89.37474792 215.45588013 89.38409363 214.64433472 89.39372253 213.80819702 C89.44763452 210.10650507 89.53124421 206.40604834 89.61540222 202.70492554 C89.62958191 201.42810913 89.6437616 200.15129272 89.65837097 198.83578491 C89.97897756 186.49243139 89.97897756 186.49243139 94.36540222 181.26742554 C101.36540222 177.26742554 101.36540222 177.26742554 129.36540222 176.26742554 C129.36540222 139.30742554 129.36540222 102.34742554 129.36540222 64.26742554 C84.48540222 64.26742554 39.60540222 64.26742554 -6.63459778 64.26742554 Z " fill="#2D4356" transform="translate(22.634597778320313,139.73257446289063)"/>
<path d="M0 0 C44.88 0 89.76 0 136 0 C136 36.96 136 73.92 136 112 C121.645 112.495 121.645 112.495 107 113 C100.75630732 117.11495659 100.75630732 117.11495659 97 123 C96.36775277 126.36877834 96.36775277 126.36877834 96.390625 129.9296875 C96.35839844 131.21875 96.32617188 132.5078125 96.29296875 133.8359375 C96.2782277 135.18228715 96.26391 136.5286415 96.25 137.875 C96.22181288 139.24482903 96.19188163 140.61462335 96.16015625 141.984375 C96.0896304 145.32259856 96.04253118 148.66130242 96 152 C89.4 152 82.8 152 76 152 C75.970271 149.73141113 75.970271 149.73141113 75.93994141 147.41699219 C75.86336337 141.75863134 75.77472975 136.10051032 75.68261719 130.44238281 C75.64454174 128.00232712 75.60965317 125.56221939 75.578125 123.12207031 C75.53200558 119.59681709 75.47409202 116.07191562 75.4140625 112.546875 C75.40251129 111.4713739 75.39096008 110.3958728 75.37905884 109.28778076 C75.10618815 95.00307652 73.03113048 82.59532343 63.01953125 71.8203125 C52.7439383 62.55836605 40.62483359 60.9807471 27.34375 60.68359375 C26.64411133 60.66494263 25.94447266 60.6462915 25.22363281 60.6270752 C22.64919766 60.5595843 20.07458702 60.49892544 17.5 60.4375 C11.725 60.293125 5.95 60.14875 0 60 C0 40.2 0 20.4 0 0 Z " fill="#FEDA7F" transform="translate(108,64)"/>
<path d="M0 0 C7.55435107 -0.09301622 15.10864214 -0.16392438 22.66343689 -0.20724869 C26.17215319 -0.22805108 29.68047533 -0.25623163 33.18896484 -0.30175781 C37.23017993 -0.35386357 41.27098629 -0.37300577 45.3125 -0.390625 C46.5617627 -0.41127014 47.81102539 -0.43191528 49.09814453 -0.45318604 C57.32322191 -0.45529086 62.88165655 0.39106837 69.2421875 5.96484375 C69.78101563 6.61582031 70.31984375 7.26679688 70.875 7.9375 C71.42929688 8.58589844 71.98359375 9.23429687 72.5546875 9.90234375 C75.7281799 14.50819624 76.25427143 18.46065088 76.28088379 24.001297 C76.28682603 24.6941285 76.29276828 25.38696 76.29889059 26.10078639 C76.31619557 28.41595452 76.31927508 30.73091498 76.32226562 33.04614258 C76.33152682 34.70875995 76.34157679 36.3713731 76.35235596 38.03398132 C76.37855966 42.5464736 76.39148488 47.05890642 76.40037727 51.57146287 C76.40624527 54.39225641 76.41445606 57.2130338 76.42338562 60.0338192 C76.45072245 68.86405097 76.47006274 77.69424573 76.4777894 86.52451688 C76.48675119 96.70954145 76.52185428 106.89402925 76.57979059 117.07889062 C76.62304942 124.95761867 76.64319924 132.83619581 76.64587164 140.71504134 C76.64796575 145.41813065 76.65973741 150.12071494 76.69551086 154.82367897 C76.7285177 159.24884068 76.732763 163.67311896 76.71523285 168.09836006 C76.71369449 169.71887329 76.72234668 171.33943446 76.74214935 172.95982742 C76.91251737 187.77375445 76.91251737 187.77375445 71.54198647 193.54824924 C71.03313093 194.02732699 70.5242754 194.50640474 70 195 C69.34704453 195.73676468 68.69408905 196.47352936 68.02134705 197.23262024 C67.44574539 197.80981308 66.87014374 198.38700592 66.27709961 198.98168945 C65.61298569 199.6521077 64.94887177 200.32252594 64.26463318 201.01325989 C63.21904991 202.05277046 63.21904991 202.05277046 62.15234375 203.11328125 C61.41802628 203.84951218 60.6837088 204.5857431 59.92713928 205.34428406 C58.38576627 206.88700907 56.84190081 208.42724753 55.2956543 209.96508789 C52.93368308 212.31629954 50.58263651 214.67805872 48.23242188 217.04101562 C46.72720373 218.5449129 45.2213657 220.04819005 43.71484375 221.55078125 C43.01576401 222.25390945 42.31668427 222.95703766 41.59642029 223.68147278 C40.93545853 224.33613022 40.27449677 224.99078766 39.59350586 225.6652832 C39.0186998 226.23849808 38.44389374 226.81171295 37.85166931 227.40229797 C32.25734109 232.22933133 27.99284399 232.43762406 20.82885742 232.40405273 C19.80709915 232.41091599 18.78534088 232.41777924 17.73262024 232.42485046 C14.35676146 232.443143 10.98136644 232.43927659 7.60546875 232.43359375 C5.25523223 232.43815507 2.90499704 232.44346049 0.55476379 232.44947815 C-4.37215592 232.45841463 -9.2989136 232.45598073 -14.22583008 232.44604492 C-20.53075111 232.43456758 -26.83511106 232.45474566 -33.13995838 232.48396206 C-37.99480223 232.5023369 -42.84951204 232.50202876 -47.70438194 232.49632454 C-50.0283353 232.49617141 -52.35229779 232.50220842 -54.67621803 232.51461601 C-57.93139085 232.52954402 -61.18553259 232.51883383 -64.44067383 232.50170898 C-65.87251511 232.51621094 -65.87251511 232.51621094 -67.33328247 232.53100586 C-74.49555359 232.45236684 -79.80923095 230.79609204 -85.2421875 226.03515625 C-86.05042969 225.05869141 -86.05042969 225.05869141 -86.875 224.0625 C-87.42929688 223.41410156 -87.98359375 222.76570312 -88.5546875 222.09765625 C-92.44548855 216.45073689 -92.27562501 211.24753147 -92.22705078 204.61010742 C-92.22734283 203.56574524 -92.22763489 202.52138306 -92.22793579 201.44537354 C-92.22654415 197.99865365 -92.21099052 194.55215081 -92.1953125 191.10546875 C-92.19158179 188.71364968 -92.18873509 186.32182908 -92.18673706 183.93000793 C-92.17910523 177.63847627 -92.15946049 171.34703713 -92.1373291 165.05554199 C-92.11686105 158.63404593 -92.10773328 152.21253491 -92.09765625 145.79101562 C-92.07621427 133.1939698 -92.04208365 120.5969926 -92 108 C-86.72 108 -81.44 108 -76 108 C-75.99635437 109.2815094 -75.99270874 110.5630188 -75.98895264 111.88336182 C-75.95204102 123.9495077 -75.89431028 136.01539747 -75.81609726 148.08134842 C-75.77655702 154.28487469 -75.74440058 160.48825762 -75.72900391 166.69189453 C-75.71388059 172.67670078 -75.67951174 178.66111312 -75.63169098 184.64574432 C-75.61683254 186.93109466 -75.60895644 189.21650123 -75.60811615 191.50189972 C-75.60575822 194.69863585 -75.57877231 197.8942729 -75.54589844 201.09082031 C-75.5509288 202.03956528 -75.55595917 202.98831024 -75.56114197 203.96580505 C-75.50082858 207.74668853 -75.41803238 210.27159044 -73.51635742 213.58520508 C-69.83013262 215.65774536 -66.31108075 215.57066551 -62.19238281 215.54589844 C-61.30422379 215.55623611 -60.41606476 215.56657379 -59.50099182 215.57722473 C-56.5681855 215.60669946 -53.63606792 215.60815289 -50.703125 215.609375 C-48.66858602 215.62435348 -46.63405921 215.64107993 -44.59954834 215.65948486 C-39.24675952 215.70320774 -33.89413473 215.72316848 -28.54119873 215.73822021 C-23.0781482 215.75777344 -17.61527528 215.79974547 -12.15234375 215.83984375 C-1.43495055 215.9151994 9.282403 215.9654585 20 216 C19.9685791 214.72938721 19.9685791 214.72938721 19.93652344 213.43310547 C19.86805945 210.26859607 19.81806013 207.10446609 19.78027344 203.93945312 C19.76024681 202.57376632 19.73301668 201.20816431 19.69824219 199.84277344 C19.64933568 197.87212898 19.62908653 195.90084017 19.609375 193.9296875 C19.5779541 192.15440674 19.5779541 192.15440674 19.54589844 190.34326172 C20.25193242 185.14518142 22.75961124 182.09272343 26.625 178.6875 C37.23279894 171.1503797 39.40673716 176 60 176 C60 139.04 60 102.08 60 64 C36.9 64 13.8 64 -10 64 C-8 60 -8 60 -6 57.125 C-0.83044875 49.04757617 -0.87004731 39.76951893 -0.68359375 30.46875 C-0.6524221 29.15396667 -0.6524221 29.15396667 -0.62062073 27.81262207 C-0.55579117 25.04181958 -0.49655342 22.27093099 -0.4375 19.5 C-0.39425127 17.60936648 -0.35063507 15.71874132 -0.30664062 13.828125 C-0.20017915 9.21883584 -0.09872881 4.60946101 0 0 Z " fill="#2D4356" transform="translate(184,280)"/>
<path d="M0 0 C1.05983093 -0.01409912 2.11966187 -0.02819824 3.21160889 -0.04272461 C4.36397034 -0.03260345 5.51633179 -0.0224823 6.70361328 -0.01205444 C7.92526184 -0.02081604 9.1469104 -0.02957764 10.40557861 -0.03860474 C13.74903258 -0.05682384 17.09093664 -0.05257975 20.43430328 -0.03670931 C23.93669177 -0.02402968 27.43901509 -0.03579612 30.94140625 -0.04364014 C36.82254902 -0.05273079 42.70337761 -0.0407645 48.58447266 -0.01693726 C55.37902695 0.01027337 62.17283105 0.00145876 68.96736717 -0.02606928 C74.80620421 -0.04877637 80.6448157 -0.05195277 86.48368263 -0.03887594 C89.96871865 -0.03109003 93.4534023 -0.03001557 96.93841553 -0.04655838 C100.82398526 -0.063715 104.70871811 -0.03992118 108.59423828 -0.01205444 C109.74659973 -0.0221756 110.89896118 -0.03229675 112.08624268 -0.04272461 C113.67598907 -0.02157593 113.67598907 -0.02157593 115.29785156 0 C116.67494797 0.00282769 116.67494797 0.00282769 118.0798645 0.00571251 C120.64892578 0.63491821 120.64892578 0.63491821 125.64892578 5.63491821 C125.64892578 14.54491821 125.64892578 23.45491821 125.64892578 32.63491821 C80.76892578 32.63491821 35.88892578 32.63491821 -10.35107422 32.63491821 C-10.35107422 0.02125461 -10.35107422 0.02125461 0 0 Z " fill="#FB785E" transform="translate(370.35107421875,155.36508178710938)"/>
<path d="M0 0 C1.05983093 -0.01409912 2.11966187 -0.02819824 3.21160889 -0.04272461 C4.36397034 -0.03260345 5.51633179 -0.0224823 6.70361328 -0.01205444 C7.92526184 -0.02081604 9.1469104 -0.02957764 10.40557861 -0.03860474 C13.74903258 -0.05682384 17.09093664 -0.05257975 20.43430328 -0.03670931 C23.93669177 -0.02402968 27.43901509 -0.03579612 30.94140625 -0.04364014 C36.82254902 -0.05273079 42.70337761 -0.0407645 48.58447266 -0.01693726 C55.37902695 0.01027337 62.17283105 0.00145876 68.96736717 -0.02606928 C74.80620421 -0.04877637 80.6448157 -0.05195277 86.48368263 -0.03887594 C89.96871865 -0.03109003 93.4534023 -0.03001557 96.93841553 -0.04655838 C100.82398526 -0.063715 104.70871811 -0.03992118 108.59423828 -0.01205444 C109.74659973 -0.0221756 110.89896118 -0.03229675 112.08624268 -0.04272461 C113.67598907 -0.02157593 113.67598907 -0.02157593 115.29785156 0 C116.67494797 0.00282769 116.67494797 0.00282769 118.0798645 0.00571251 C120.64892578 0.63491821 120.64892578 0.63491821 125.64892578 5.63491821 C125.64892578 14.54491821 125.64892578 23.45491821 125.64892578 32.63491821 C80.76892578 32.63491821 35.88892578 32.63491821 -10.35107422 32.63491821 C-10.35107422 0.02125461 -10.35107422 0.02125461 0 0 Z " fill="#FB785E" transform="translate(26.35107421875,155.36508178710938)"/>
<path d="M0 0 C1.05983093 -0.01409912 2.11966187 -0.02819824 3.21160889 -0.04272461 C4.36397034 -0.03260345 5.51633179 -0.0224823 6.70361328 -0.01205444 C7.92526184 -0.02081604 9.1469104 -0.02957764 10.40557861 -0.03860474 C13.74903258 -0.05682384 17.09093664 -0.05257975 20.43430328 -0.03670931 C23.93669177 -0.02402968 27.43901509 -0.03579612 30.94140625 -0.04364014 C36.82254902 -0.05273079 42.70337761 -0.0407645 48.58447266 -0.01693726 C55.37902695 0.01027337 62.17283105 0.00145876 68.96736717 -0.02606928 C74.80620421 -0.04877637 80.6448157 -0.05195277 86.48368263 -0.03887594 C89.96871865 -0.03109003 93.4534023 -0.03001557 96.93841553 -0.04655838 C100.82398526 -0.063715 104.70871811 -0.03992118 108.59423828 -0.01205444 C109.74659973 -0.0221756 110.89896118 -0.03229675 112.08624268 -0.04272461 C113.67598907 -0.02157593 113.67598907 -0.02157593 115.29785156 0 C116.67494797 0.00282769 116.67494797 0.00282769 118.0798645 0.00571251 C120.64892578 0.63491821 120.64892578 0.63491821 125.64892578 5.63491821 C125.64892578 14.54491821 125.64892578 23.45491821 125.64892578 32.63491821 C80.76892578 32.63491821 35.88892578 32.63491821 -10.35107422 32.63491821 C-10.35107422 0.02125461 -10.35107422 0.02125461 0 0 Z " fill="#FB785E" transform="translate(118.35107421875,15.365081787109375)"/>
<path d="M0 0 C7.74221871 -0.11479402 15.4814852 -0.21434041 23.22387695 -0.2746582 C25.85744227 -0.29980157 28.49093782 -0.33392084 31.12426758 -0.37719727 C34.90984309 -0.4378521 38.69449598 -0.4662127 42.48046875 -0.48828125 C44.2463459 -0.52699089 44.2463459 -0.52699089 46.04789734 -0.56648254 C47.69904289 -0.56704903 47.69904289 -0.56704903 49.38354492 -0.56762695 C50.83249397 -0.58428154 50.83249397 -0.58428154 52.31071472 -0.60127258 C55 0 55 0 60 5 C60 13.91 60 22.82 60 32 C39.87 32 19.74 32 -1 32 C-0.67 21.44 -0.34 10.88 0 0 Z " fill="#FC775D" transform="translate(184,296)"/>
<path d="M0 0 C0.9095343 -0.0087616 1.8190686 -0.01752319 2.75616455 -0.02655029 C5.75720176 -0.04852422 8.75676079 -0.0339985 11.7578125 -0.01708984 C13.84619428 -0.02045855 15.93457415 -0.02531162 18.02294922 -0.03158569 C22.39765101 -0.03895432 26.771842 -0.02825152 31.14648438 -0.00488281 C36.75239723 0.02360458 42.35711323 0.00720061 47.96298218 -0.02274513 C52.27474984 -0.04081815 56.58623402 -0.03505997 60.89801025 -0.02210617 C62.96486554 -0.01877219 65.03174661 -0.02285894 67.09857178 -0.03450394 C69.98828233 -0.04721243 72.87605845 -0.02783536 75.765625 0 C77.04533173 -0.01518173 77.04533173 -0.01518173 78.35089111 -0.03067017 C82.67767077 0.04649337 84.38391678 0.25965432 87.91357422 2.99990845 C89.8828125 5.64697266 89.8828125 5.64697266 90.5078125 8.64697266 C89.64684241 12.7796291 88.20856319 14.06502179 84.8828125 16.64697266 C81.84164874 17.37164768 78.88075436 17.33090148 75.765625 17.29394531 C74.8560907 17.30270691 73.9465564 17.31146851 73.00946045 17.32049561 C70.00842324 17.34246953 67.00886421 17.32794381 64.0078125 17.31103516 C61.91943072 17.31440386 59.83105085 17.31925693 57.74267578 17.32553101 C53.36797399 17.33289963 48.993783 17.32219683 44.61914062 17.29882812 C39.01322777 17.27034073 33.40851177 17.2867447 27.80264282 17.31669044 C23.49087516 17.33476346 19.17939098 17.32900529 14.86761475 17.31605148 C12.80075946 17.3127175 10.73387839 17.31680425 8.66705322 17.32844925 C5.77734267 17.34115774 2.88956655 17.32178067 0 17.29394531 C-1.27970673 17.30912704 -1.27970673 17.30912704 -2.58526611 17.32461548 C-6.91204577 17.24745195 -8.61829178 17.034291 -12.14794922 14.29403687 C-14.1171875 11.64697266 -14.1171875 11.64697266 -14.7421875 8.64697266 C-13.04020949 0.47747821 -7.06934965 -0.08386685 0 0 Z " fill="#2D4356" transform="translate(390.1171875,251.35302734375)"/>
<path d="M0 0 C0.9095343 -0.0087616 1.8190686 -0.01752319 2.75616455 -0.02655029 C5.75720176 -0.04852422 8.75676079 -0.0339985 11.7578125 -0.01708984 C13.84619428 -0.02045855 15.93457415 -0.02531162 18.02294922 -0.03158569 C22.39765101 -0.03895432 26.771842 -0.02825152 31.14648438 -0.00488281 C36.75239723 0.02360458 42.35711323 0.00720061 47.96298218 -0.02274513 C52.27474984 -0.04081815 56.58623402 -0.03505997 60.89801025 -0.02210617 C62.96486554 -0.01877219 65.03174661 -0.02285894 67.09857178 -0.03450394 C69.98828233 -0.04721243 72.87605845 -0.02783536 75.765625 0 C77.04533173 -0.01518173 77.04533173 -0.01518173 78.35089111 -0.03067017 C82.67767077 0.04649337 84.38391678 0.25965432 87.91357422 2.99990845 C89.8828125 5.64697266 89.8828125 5.64697266 90.5078125 8.64697266 C89.64684241 12.7796291 88.20856319 14.06502179 84.8828125 16.64697266 C81.84164874 17.37164768 78.88075436 17.33090148 75.765625 17.29394531 C74.8560907 17.30270691 73.9465564 17.31146851 73.00946045 17.32049561 C70.00842324 17.34246953 67.00886421 17.32794381 64.0078125 17.31103516 C61.91943072 17.31440386 59.83105085 17.31925693 57.74267578 17.32553101 C53.36797399 17.33289963 48.993783 17.32219683 44.61914062 17.29882812 C39.01322777 17.27034073 33.40851177 17.2867447 27.80264282 17.31669044 C23.49087516 17.33476346 19.17939098 17.32900529 14.86761475 17.31605148 C12.80075946 17.3127175 10.73387839 17.31680425 8.66705322 17.32844925 C5.77734267 17.34115774 2.88956655 17.32178067 0 17.29394531 C-1.27970673 17.30912704 -1.27970673 17.30912704 -2.58526611 17.32461548 C-6.91204577 17.24745195 -8.61829178 17.034291 -12.14794922 14.29403687 C-14.1171875 11.64697266 -14.1171875 11.64697266 -14.7421875 8.64697266 C-13.04020949 0.47747821 -7.06934965 -0.08386685 0 0 Z " fill="#2D4356" transform="translate(390.1171875,219.35302734375)"/>
<path d="M0 0 C0.89978073 -0.00554901 1.79956146 -0.01109802 2.72660828 -0.01681519 C5.69523695 -0.02860769 8.66233789 -0.00434019 11.63085938 0.02148438 C13.69681733 0.02319565 15.76277745 0.02312963 17.82873535 0.0213623 C22.15638023 0.02301533 26.48350697 0.04171049 30.81103516 0.07324219 C36.35618814 0.11291946 41.90066248 0.11728726 47.44593048 0.10977936 C51.71134652 0.10670872 55.97661021 0.11883359 60.24198914 0.13591003 C62.28650456 0.1429376 64.33103725 0.14606486 66.37556458 0.1452179 C69.23376629 0.14701712 72.09115734 0.16840986 74.94921875 0.1953125 C75.79300583 0.1923819 76.63679291 0.18945129 77.50614929 0.18643188 C82.13766626 0.25363872 85.21429275 0.60693514 88.97460938 3.61523438 C90.37918674 6.42438911 90.22356095 8.50333972 89.97460938 11.61523438 C88.19476533 14.75115008 87.45152731 15.45626173 83.97460938 16.61523438 C81.03448576 16.73252673 78.1172141 16.79338326 75.17626953 16.80810547 C74.27678085 16.81628296 73.37729218 16.82446045 72.45054626 16.83288574 C69.4715949 16.85771496 66.49269104 16.8742475 63.51367188 16.88867188 C62.49663555 16.89399555 61.47959923 16.89931923 60.43174362 16.90480423 C55.05085758 16.93152225 49.66999466 16.95090339 44.2890625 16.96533203 C38.72807442 16.9819966 33.16767704 17.02679358 27.60691261 17.07770348 C23.33297023 17.11132992 19.05916907 17.12290427 14.78510666 17.12855911 C12.73495329 17.13528192 10.68480955 17.15053061 8.6347847 17.17444992 C5.76660934 17.20601182 2.90004116 17.20615198 0.03173828 17.19873047 C-0.81519089 17.2151358 -1.66212006 17.23154114 -2.53471375 17.2484436 C-6.85367877 17.20267959 -8.52616618 17.00263424 -12.05239868 14.26626587 C-14.02539062 11.61523438 -14.02539062 11.61523438 -14.65039062 8.61523438 C-12.95578746 0.48113918 -7.04520536 -0.11074154 0 0 Z " fill="#2E4356" transform="translate(138.025390625,423.384765625)"/>
<path d="M0 0 C0.89978073 -0.00554901 1.79956146 -0.01109802 2.72660828 -0.01681519 C5.69523695 -0.02860769 8.66233789 -0.00434019 11.63085938 0.02148438 C13.69681733 0.02319565 15.76277745 0.02312963 17.82873535 0.0213623 C22.15638023 0.02301533 26.48350697 0.04171049 30.81103516 0.07324219 C36.35618814 0.11291946 41.90066248 0.11728726 47.44593048 0.10977936 C51.71134652 0.10670872 55.97661021 0.11883359 60.24198914 0.13591003 C62.28650456 0.1429376 64.33103725 0.14606486 66.37556458 0.1452179 C69.23376629 0.14701712 72.09115734 0.16840986 74.94921875 0.1953125 C75.79300583 0.1923819 76.63679291 0.18945129 77.50614929 0.18643188 C82.13766626 0.25363872 85.21429275 0.60693514 88.97460938 3.61523438 C90.37918674 6.42438911 90.22356095 8.50333972 89.97460938 11.61523438 C88.19476533 14.75115008 87.45152731 15.45626173 83.97460938 16.61523438 C81.03448576 16.73252673 78.1172141 16.79338326 75.17626953 16.80810547 C74.27678085 16.81628296 73.37729218 16.82446045 72.45054626 16.83288574 C69.4715949 16.85771496 66.49269104 16.8742475 63.51367188 16.88867188 C62.49663555 16.89399555 61.47959923 16.89931923 60.43174362 16.90480423 C55.05085758 16.93152225 49.66999466 16.95090339 44.2890625 16.96533203 C38.72807442 16.9819966 33.16767704 17.02679358 27.60691261 17.07770348 C23.33297023 17.11132992 19.05916907 17.12290427 14.78510666 17.12855911 C12.73495329 17.13528192 10.68480955 17.15053061 8.6347847 17.17444992 C5.76660934 17.20601182 2.90004116 17.20615198 0.03173828 17.19873047 C-0.81519089 17.2151358 -1.66212006 17.23154114 -2.53471375 17.2484436 C-6.85367877 17.20267959 -8.52616618 17.00263424 -12.05239868 14.26626587 C-14.02539062 11.61523438 -14.02539062 11.61523438 -14.65039062 8.61523438 C-12.95578746 0.48113918 -7.04520536 -0.11074154 0 0 Z " fill="#2E4356" transform="translate(138.025390625,391.384765625)"/>
<path d="M0 0 C0.89978073 -0.00554901 1.79956146 -0.01109802 2.72660828 -0.01681519 C5.69523695 -0.02860769 8.66233789 -0.00434019 11.63085938 0.02148438 C13.69681733 0.02319565 15.76277745 0.02312963 17.82873535 0.0213623 C22.15638023 0.02301533 26.48350697 0.04171049 30.81103516 0.07324219 C36.35618814 0.11291946 41.90066248 0.11728726 47.44593048 0.10977936 C51.71134652 0.10670872 55.97661021 0.11883359 60.24198914 0.13591003 C62.28650456 0.1429376 64.33103725 0.14606486 66.37556458 0.1452179 C69.23376629 0.14701712 72.09115734 0.16840986 74.94921875 0.1953125 C75.79300583 0.1923819 76.63679291 0.18945129 77.50614929 0.18643188 C82.13766626 0.25363872 85.21429275 0.60693514 88.97460938 3.61523438 C90.37918674 6.42438911 90.22356095 8.50333972 89.97460938 11.61523438 C88.19476533 14.75115008 87.45152731 15.45626173 83.97460938 16.61523438 C81.03448576 16.73252673 78.1172141 16.79338326 75.17626953 16.80810547 C74.27678085 16.81628296 73.37729218 16.82446045 72.45054626 16.83288574 C69.4715949 16.85771496 66.49269104 16.8742475 63.51367188 16.88867188 C62.49663555 16.89399555 61.47959923 16.89931923 60.43174362 16.90480423 C55.05085758 16.93152225 49.66999466 16.95090339 44.2890625 16.96533203 C38.72807442 16.9819966 33.16767704 17.02679358 27.60691261 17.07770348 C23.33297023 17.11132992 19.05916907 17.12290427 14.78510666 17.12855911 C12.73495329 17.13528192 10.68480955 17.15053061 8.6347847 17.17444992 C5.76660934 17.20601182 2.90004116 17.20615198 0.03173828 17.19873047 C-0.81519089 17.2151358 -1.66212006 17.23154114 -2.53471375 17.2484436 C-6.85367877 17.20267959 -8.52616618 17.00263424 -12.05239868 14.26626587 C-14.02539062 11.61523438 -14.02539062 11.61523438 -14.65039062 8.61523438 C-12.95578746 0.48113918 -7.04520536 -0.11074154 0 0 Z " fill="#2E4356" transform="translate(390.025390625,283.384765625)"/>
<path d="M0 0 C0.89978073 -0.00554901 1.79956146 -0.01109802 2.72660828 -0.01681519 C5.69523695 -0.02860769 8.66233789 -0.00434019 11.63085938 0.02148438 C13.69681733 0.02319565 15.76277745 0.02312963 17.82873535 0.0213623 C22.15638023 0.02301533 26.48350697 0.04171049 30.81103516 0.07324219 C36.35618814 0.11291946 41.90066248 0.11728726 47.44593048 0.10977936 C51.71134652 0.10670872 55.97661021 0.11883359 60.24198914 0.13591003 C62.28650456 0.1429376 64.33103725 0.14606486 66.37556458 0.1452179 C69.23376629 0.14701712 72.09115734 0.16840986 74.94921875 0.1953125 C75.79300583 0.1923819 76.63679291 0.18945129 77.50614929 0.18643188 C82.13766626 0.25363872 85.21429275 0.60693514 88.97460938 3.61523438 C90.37918674 6.42438911 90.22356095 8.50333972 89.97460938 11.61523438 C88.19476533 14.75115008 87.45152731 15.45626173 83.97460938 16.61523438 C81.03448576 16.73252673 78.1172141 16.79338326 75.17626953 16.80810547 C74.27678085 16.81628296 73.37729218 16.82446045 72.45054626 16.83288574 C69.4715949 16.85771496 66.49269104 16.8742475 63.51367188 16.88867188 C62.49663555 16.89399555 61.47959923 16.89931923 60.43174362 16.90480423 C55.05085758 16.93152225 49.66999466 16.95090339 44.2890625 16.96533203 C38.72807442 16.9819966 33.16767704 17.02679358 27.60691261 17.07770348 C23.33297023 17.11132992 19.05916907 17.12290427 14.78510666 17.12855911 C12.73495329 17.13528192 10.68480955 17.15053061 8.6347847 17.17444992 C5.76660934 17.20601182 2.90004116 17.20615198 0.03173828 17.19873047 C-0.81519089 17.2151358 -1.66212006 17.23154114 -2.53471375 17.2484436 C-6.85367877 17.20267959 -8.52616618 17.00263424 -12.05239868 14.26626587 C-14.02539062 11.61523438 -14.02539062 11.61523438 -14.65039062 8.61523438 C-12.95578746 0.48113918 -7.04520536 -0.11074154 0 0 Z " fill="#2E4356" transform="translate(46.025390625,283.384765625)"/>
<path d="M0 0 C0.89978073 -0.00554901 1.79956146 -0.01109802 2.72660828 -0.01681519 C5.69523695 -0.02860769 8.66233789 -0.00434019 11.63085938 0.02148438 C13.69681733 0.02319565 15.76277745 0.02312963 17.82873535 0.0213623 C22.15638023 0.02301533 26.48350697 0.04171049 30.81103516 0.07324219 C36.35618814 0.11291946 41.90066248 0.11728726 47.44593048 0.10977936 C51.71134652 0.10670872 55.97661021 0.11883359 60.24198914 0.13591003 C62.28650456 0.1429376 64.33103725 0.14606486 66.37556458 0.1452179 C69.23376629 0.14701712 72.09115734 0.16840986 74.94921875 0.1953125 C75.79300583 0.1923819 76.63679291 0.18945129 77.50614929 0.18643188 C82.13766626 0.25363872 85.21429275 0.60693514 88.97460938 3.61523438 C90.37918674 6.42438911 90.22356095 8.50333972 89.97460938 11.61523438 C88.19476533 14.75115008 87.45152731 15.45626173 83.97460938 16.61523438 C81.03448576 16.73252673 78.1172141 16.79338326 75.17626953 16.80810547 C74.27678085 16.81628296 73.37729218 16.82446045 72.45054626 16.83288574 C69.4715949 16.85771496 66.49269104 16.8742475 63.51367188 16.88867188 C62.49663555 16.89399555 61.47959923 16.89931923 60.43174362 16.90480423 C55.05085758 16.93152225 49.66999466 16.95090339 44.2890625 16.96533203 C38.72807442 16.9819966 33.16767704 17.02679358 27.60691261 17.07770348 C23.33297023 17.11132992 19.05916907 17.12290427 14.78510666 17.12855911 C12.73495329 17.13528192 10.68480955 17.15053061 8.6347847 17.17444992 C5.76660934 17.20601182 2.90004116 17.20615198 0.03173828 17.19873047 C-0.81519089 17.2151358 -1.66212006 17.23154114 -2.53471375 17.2484436 C-6.85367877 17.20267959 -8.52616618 17.00263424 -12.05239868 14.26626587 C-14.02539062 11.61523438 -14.02539062 11.61523438 -14.65039062 8.61523438 C-12.95578746 0.48113918 -7.04520536 -0.11074154 0 0 Z " fill="#2E4356" transform="translate(46.025390625,251.384765625)"/>
<path d="M0 0 C0.89978073 -0.00554901 1.79956146 -0.01109802 2.72660828 -0.01681519 C5.69523695 -0.02860769 8.66233789 -0.00434019 11.63085938 0.02148438 C13.69681733 0.02319565 15.76277745 0.02312963 17.82873535 0.0213623 C22.15638023 0.02301533 26.48350697 0.04171049 30.81103516 0.07324219 C36.35618814 0.11291946 41.90066248 0.11728726 47.44593048 0.10977936 C51.71134652 0.10670872 55.97661021 0.11883359 60.24198914 0.13591003 C62.28650456 0.1429376 64.33103725 0.14606486 66.37556458 0.1452179 C69.23376629 0.14701712 72.09115734 0.16840986 74.94921875 0.1953125 C75.79300583 0.1923819 76.63679291 0.18945129 77.50614929 0.18643188 C82.13766626 0.25363872 85.21429275 0.60693514 88.97460938 3.61523438 C90.37918674 6.42438911 90.22356095 8.50333972 89.97460938 11.61523438 C88.19476533 14.75115008 87.45152731 15.45626173 83.97460938 16.61523438 C81.03448576 16.73252673 78.1172141 16.79338326 75.17626953 16.80810547 C74.27678085 16.81628296 73.37729218 16.82446045 72.45054626 16.83288574 C69.4715949 16.85771496 66.49269104 16.8742475 63.51367188 16.88867188 C62.49663555 16.89399555 61.47959923 16.89931923 60.43174362 16.90480423 C55.05085758 16.93152225 49.66999466 16.95090339 44.2890625 16.96533203 C38.72807442 16.9819966 33.16767704 17.02679358 27.60691261 17.07770348 C23.33297023 17.11132992 19.05916907 17.12290427 14.78510666 17.12855911 C12.73495329 17.13528192 10.68480955 17.15053061 8.6347847 17.17444992 C5.76660934 17.20601182 2.90004116 17.20615198 0.03173828 17.19873047 C-0.81519089 17.2151358 -1.66212006 17.23154114 -2.53471375 17.2484436 C-6.85367877 17.20267959 -8.52616618 17.00263424 -12.05239868 14.26626587 C-14.02539062 11.61523438 -14.02539062 11.61523438 -14.65039062 8.61523438 C-12.95578746 0.48113918 -7.04520536 -0.11074154 0 0 Z " fill="#2E4356" transform="translate(46.025390625,219.384765625)"/>
<path d="M0 0 C0.89978073 -0.00554901 1.79956146 -0.01109802 2.72660828 -0.01681519 C5.69523695 -0.02860769 8.66233789 -0.00434019 11.63085938 0.02148438 C13.69681733 0.02319565 15.76277745 0.02312963 17.82873535 0.0213623 C22.15638023 0.02301533 26.48350697 0.04171049 30.81103516 0.07324219 C36.35618814 0.11291946 41.90066248 0.11728726 47.44593048 0.10977936 C51.71134652 0.10670872 55.97661021 0.11883359 60.24198914 0.13591003 C62.28650456 0.1429376 64.33103725 0.14606486 66.37556458 0.1452179 C69.23376629 0.14701712 72.09115734 0.16840986 74.94921875 0.1953125 C75.79300583 0.1923819 76.63679291 0.18945129 77.50614929 0.18643188 C82.13766626 0.25363872 85.21429275 0.60693514 88.97460938 3.61523438 C90.37918674 6.42438911 90.22356095 8.50333972 89.97460938 11.61523438 C88.19476533 14.75115008 87.45152731 15.45626173 83.97460938 16.61523438 C81.03448576 16.73252673 78.1172141 16.79338326 75.17626953 16.80810547 C74.27678085 16.81628296 73.37729218 16.82446045 72.45054626 16.83288574 C69.4715949 16.85771496 66.49269104 16.8742475 63.51367188 16.88867188 C62.49663555 16.89399555 61.47959923 16.89931923 60.43174362 16.90480423 C55.05085758 16.93152225 49.66999466 16.95090339 44.2890625 16.96533203 C38.72807442 16.9819966 33.16767704 17.02679358 27.60691261 17.07770348 C23.33297023 17.11132992 19.05916907 17.12290427 14.78510666 17.12855911 C12.73495329 17.13528192 10.68480955 17.15053061 8.6347847 17.17444992 C5.76660934 17.20601182 2.90004116 17.20615198 0.03173828 17.19873047 C-0.81519089 17.2151358 -1.66212006 17.23154114 -2.53471375 17.2484436 C-6.85367877 17.20267959 -8.52616618 17.00263424 -12.05239868 14.26626587 C-14.02539062 11.61523438 -14.02539062 11.61523438 -14.65039062 8.61523438 C-12.95578746 0.48113918 -7.04520536 -0.11074154 0 0 Z " fill="#2E4356" transform="translate(138.025390625,79.384765625)"/>
<path d="M0 0 C0.89978073 -0.00554901 1.79956146 -0.01109802 2.72660828 -0.01681519 C5.69523695 -0.02860769 8.66233789 -0.00434019 11.63085938 0.02148438 C13.69681733 0.02319565 15.76277745 0.02312963 17.82873535 0.0213623 C22.15638023 0.02301533 26.48350697 0.04171049 30.81103516 0.07324219 C36.35618814 0.11291946 41.90066248 0.11728726 47.44593048 0.10977936 C51.71134652 0.10670872 55.97661021 0.11883359 60.24198914 0.13591003 C62.28650456 0.1429376 64.33103725 0.14606486 66.37556458 0.1452179 C69.23376629 0.14701712 72.09115734 0.16840986 74.94921875 0.1953125 C75.79300583 0.1923819 76.63679291 0.18945129 77.50614929 0.18643188 C82.13766626 0.25363872 85.21429275 0.60693514 88.97460938 3.61523438 C90.37918674 6.42438911 90.22356095 8.50333972 89.97460938 11.61523438 C88.19476533 14.75115008 87.45152731 15.45626173 83.97460938 16.61523438 C81.97223698 16.71420104 79.96671844 16.7534962 77.96191406 16.76049805 C76.72342712 16.7668779 75.48494019 16.77325775 74.20892334 16.77983093 C72.85477742 16.7813601 71.50063097 16.7824738 70.14648438 16.78320312 C68.75506557 16.7864177 67.3636471 16.78978193 65.972229 16.79328918 C63.05358091 16.79927798 60.1349624 16.80112945 57.21630859 16.80053711 C53.48967092 16.80043575 49.7632249 16.81406165 46.03663254 16.83130932 C43.16087994 16.84247157 40.28517297 16.84445499 37.40940094 16.84392738 C36.03638298 16.84510215 34.66336364 16.84949548 33.29036713 16.85725975 C20.38659223 16.92337188 20.38659223 16.92337188 13.97460938 14.61523438 C7.14757576 13.55309608 0.32204925 13.28829851 -6.57421875 13.00976562 C-12.92093795 12.71968705 -12.92093795 12.71968705 -14.02539062 11.61523438 C-14.55197534 7.75361315 -14.40386473 6.12995067 -12.06604004 2.95056152 C-7.94735977 -0.21273175 -5.05567513 -0.07946869 0 0 Z " fill="#2E4456" transform="translate(138.025390625,111.384765625)"/>
<path d="M0 0 C2.96283257 2.03887231 5.44079104 4.48368281 8 7 C8.74378906 7.66 9.48757813 8.32 10.25390625 9 C13.68978671 12.14699606 15.73887831 14.18914844 17.1875 18.6875 C16.82140564 25.15516699 12.33299706 28.95452024 7.9375 33.25 C7.39544922 33.79140625 6.85339844 34.3328125 6.29492188 34.890625 C1.27086186 39.85879313 1.27086186 39.85879313 -2.8125 40.3125 C-6.8794044 39.91378388 -8.35296205 39.11416229 -11 36 C-11.28040441 33.30547856 -11.09388607 30.71717333 -11 28 C-11.94842773 28.02094727 -12.89685547 28.04189453 -13.87402344 28.06347656 C-17.40016425 28.1317356 -20.92560099 28.18183929 -24.45214844 28.21972656 C-25.97700085 28.23981599 -27.50177648 28.26709316 -29.02636719 28.30175781 C-31.22089598 28.35039796 -33.41440469 28.37299396 -35.609375 28.390625 C-36.92905273 28.41157227 -38.24873047 28.43251953 -39.60839844 28.45410156 C-43 28 -43 28 -45.42871094 26.10058594 C-47.1314967 23.82420796 -47.54382814 22.80500068 -47.5 20 C-47.51546875 19.01 -47.51546875 19.01 -47.53125 18 C-46.73716585 15.01050671 -45.42942996 13.89997639 -43 12 C-39.60839844 11.54589844 -39.60839844 11.54589844 -35.609375 11.609375 C-34.55245453 11.61786469 -34.55245453 11.61786469 -33.47418213 11.62652588 C-31.23208572 11.64884922 -28.99161012 11.69903246 -26.75 11.75 C-25.22658565 11.77007048 -23.70314614 11.7883203 -22.1796875 11.8046875 C-18.4526017 11.84869882 -14.72645913 11.91769628 -11 12 C-11.04382813 10.7315625 -11.08765625 9.463125 -11.1328125 8.15625 C-11.25145521 4.72259031 -11.23311861 4.27425719 -8.875 1.5 C-5.3405323 -0.3440701 -3.92618718 -0.84682469 0 0 Z " fill="#2C4255" transform="translate(307,228)"/>
<path d="M0 0 C1.43245652 0.00919304 2.86494002 0.01480598 4.29742432 0.01702881 C7.28381792 0.03076196 10.26774926 0.0737281 13.25341797 0.140625 C17.07227752 0.22578125 20.88921566 0.25829683 24.70893478 0.2716713 C28.36870112 0.28715722 32.02799005 0.33073857 35.6875 0.375 C36.72666691 0.38346325 36.72666691 0.38346325 37.78682709 0.39209747 C39.75361837 0.41280764 41.72012794 0.45641668 43.68652344 0.50097656 C44.80299255 0.52146057 45.91946167 0.54194458 47.06976318 0.56304932 C50.43504538 1.03436225 52.3575705 1.97852358 55.078125 3.984375 C56.48270237 6.79352974 56.32707657 8.87248034 56.078125 11.984375 C54.29828095 15.1202907 53.55504293 15.82540236 50.078125 16.984375 C47.50735971 17.07535725 44.96431465 17.11043538 42.39379883 17.09790039 C41.6130751 17.09804642 40.83235138 17.09819244 40.02796936 17.0983429 C37.44700341 17.09764614 34.8661096 17.08986482 32.28515625 17.08203125 C30.49582458 17.08016623 28.7064924 17.07874272 26.91716003 17.07774353 C22.20714916 17.07392499 17.49716911 17.06410033 12.78717041 17.05303955 C7.98116472 17.04281121 3.17515406 17.03824286 -1.63085938 17.03320312 C-11.06121146 17.02247749 -20.49154067 17.00540899 -29.921875 16.984375 C-28.56705277 15.35164051 -27.20175464 13.72691681 -25.79718018 12.13677979 C-24.49949117 10.64734112 -23.25073501 9.11436902 -22.04412842 7.55023193 C-15.5849533 -0.08899764 -9.56787087 -0.27019538 0 0 Z " fill="#2E4456" transform="translate(171.921875,359.015625)"/>
<path d="M0 0 C44.88 0 89.76 0 136 0 C136 2.64 136 5.28 136 8 C91.12 8 46.24 8 0 8 C0 5.36 0 2.72 0 0 Z " fill="#FCE4A9" transform="translate(360,204)"/>
<path d="M0 0 C44.88 0 89.76 0 136 0 C136 2.64 136 5.28 136 8 C91.12 8 46.24 8 0 8 C0 5.36 0 2.72 0 0 Z " fill="#FCE4A9" transform="translate(16,204)"/>
<path d="M0 0 C1.22164856 -0.0087616 2.44329712 -0.01752319 3.70196533 -0.02655029 C7.0454193 -0.04476939 10.38732336 -0.04052531 13.73069 -0.02465487 C17.23307849 -0.01197523 20.73540181 -0.02374167 24.23779297 -0.03158569 C30.11893574 -0.04067634 35.99976433 -0.02871005 41.88085938 -0.00488281 C48.67541367 0.02232782 55.46921777 0.01351321 62.26375389 -0.01401484 C68.10259092 -0.03672193 73.94120242 -0.03989833 79.78006935 -0.02682149 C83.26510537 -0.01903558 86.74978902 -0.01796112 90.23480225 -0.03450394 C94.12037198 -0.05166055 98.00510483 -0.02786674 101.890625 0 C103.04298645 -0.01012115 104.1953479 -0.02024231 105.38262939 -0.03067017 C114.05985724 0.08476455 114.05985724 0.08476455 117.16821289 3.04751587 C119.83107287 6.9426208 119.33503883 9.04820196 118.9453125 13.64697266 C118.36894043 12.99764771 117.79256836 12.34832275 117.19873047 11.67932129 C112.25790517 8.59288123 107.60650988 9.08923258 101.890625 9.12939453 C100.05815216 9.11888062 100.05815216 9.11888062 98.18865967 9.1081543 C94.84540213 9.09357987 91.50313664 9.09697491 88.159935 9.10967064 C84.65755401 9.11981432 81.15521473 9.11040118 77.65283203 9.10412598 C71.77173269 9.09685351 65.89083442 9.10642657 60.00976562 9.12548828 C53.21530353 9.14725649 46.42132157 9.14020482 39.62687111 9.11818266 C33.78805755 9.10001706 27.94938834 9.09747593 22.11055565 9.10793734 C18.62556465 9.11416598 15.14079917 9.11502549 11.65582275 9.10179138 C7.77035938 9.08806646 3.88543165 9.10710165 0 9.12939453 C-1.15236145 9.12129761 -2.3047229 9.11320068 -3.49200439 9.1048584 C-9.73184399 9.12584978 -9.73184399 9.12584978 -15.30810547 11.67932129 C-15.88447754 12.32864624 -16.46084961 12.97797119 -17.0546875 13.64697266 C-17.65788054 6.52929475 -17.65788054 6.52929475 -15.27758789 3.04751587 C-11.10451512 -0.93007816 -5.40888312 -0.04750605 0 0 Z " fill="#FA9481" transform="translate(377.0546875,155.35302734375)"/>
<path d="M0 0 C1.22164856 -0.0087616 2.44329712 -0.01752319 3.70196533 -0.02655029 C7.0454193 -0.04476939 10.38732336 -0.04052531 13.73069 -0.02465487 C17.23307849 -0.01197523 20.73540181 -0.02374167 24.23779297 -0.03158569 C30.11893574 -0.04067634 35.99976433 -0.02871005 41.88085938 -0.00488281 C48.67541367 0.02232782 55.46921777 0.01351321 62.26375389 -0.01401484 C68.10259092 -0.03672193 73.94120242 -0.03989833 79.78006935 -0.02682149 C83.26510537 -0.01903558 86.74978902 -0.01796112 90.23480225 -0.03450394 C94.12037198 -0.05166055 98.00510483 -0.02786674 101.890625 0 C103.04298645 -0.01012115 104.1953479 -0.02024231 105.38262939 -0.03067017 C114.05985724 0.08476455 114.05985724 0.08476455 117.16821289 3.04751587 C119.83107287 6.9426208 119.33503883 9.04820196 118.9453125 13.64697266 C118.36894043 12.99764771 117.79256836 12.34832275 117.19873047 11.67932129 C112.25790517 8.59288123 107.60650988 9.08923258 101.890625 9.12939453 C100.05815216 9.11888062 100.05815216 9.11888062 98.18865967 9.1081543 C94.84540213 9.09357987 91.50313664 9.09697491 88.159935 9.10967064 C84.65755401 9.11981432 81.15521473 9.11040118 77.65283203 9.10412598 C71.77173269 9.09685351 65.89083442 9.10642657 60.00976562 9.12548828 C53.21530353 9.14725649 46.42132157 9.14020482 39.62687111 9.11818266 C33.78805755 9.10001706 27.94938834 9.09747593 22.11055565 9.10793734 C18.62556465 9.11416598 15.14079917 9.11502549 11.65582275 9.10179138 C7.77035938 9.08806646 3.88543165 9.10710165 0 9.12939453 C-1.15236145 9.12129761 -2.3047229 9.11320068 -3.49200439 9.1048584 C-9.73184399 9.12584978 -9.73184399 9.12584978 -15.30810547 11.67932129 C-15.88447754 12.32864624 -16.46084961 12.97797119 -17.0546875 13.64697266 C-17.65788054 6.52929475 -17.65788054 6.52929475 -15.27758789 3.04751587 C-11.10451512 -0.93007816 -5.40888312 -0.04750605 0 0 Z " fill="#FA9481" transform="translate(33.0546875,155.35302734375)"/>
<path d="M0 0 C44.88 0 89.76 0 136 0 C136 2.64 136 5.28 136 8 C91.12 8 46.24 8 0 8 C0 5.36 0 2.72 0 0 Z " fill="#FCE4A9" transform="translate(108,64)"/>
<path d="M0 0 C1.22164856 -0.0087616 2.44329712 -0.01752319 3.70196533 -0.02655029 C7.0454193 -0.04476939 10.38732336 -0.04052531 13.73069 -0.02465487 C17.23307849 -0.01197523 20.73540181 -0.02374167 24.23779297 -0.03158569 C30.11893574 -0.04067634 35.99976433 -0.02871005 41.88085938 -0.00488281 C48.67541367 0.02232782 55.46921777 0.01351321 62.26375389 -0.01401484 C68.10259092 -0.03672193 73.94120242 -0.03989833 79.78006935 -0.02682149 C83.26510537 -0.01903558 86.74978902 -0.01796112 90.23480225 -0.03450394 C94.12037198 -0.05166055 98.00510483 -0.02786674 101.890625 0 C103.04298645 -0.01012115 104.1953479 -0.02024231 105.38262939 -0.03067017 C114.05985724 0.08476455 114.05985724 0.08476455 117.16821289 3.04751587 C119.83107287 6.9426208 119.33503883 9.04820196 118.9453125 13.64697266 C118.36894043 12.99764771 117.79256836 12.34832275 117.19873047 11.67932129 C112.25790517 8.59288123 107.60650988 9.08923258 101.890625 9.12939453 C100.05815216 9.11888062 100.05815216 9.11888062 98.18865967 9.1081543 C94.84540213 9.09357987 91.50313664 9.09697491 88.159935 9.10967064 C84.65755401 9.11981432 81.15521473 9.11040118 77.65283203 9.10412598 C71.77173269 9.09685351 65.89083442 9.10642657 60.00976562 9.12548828 C53.21530353 9.14725649 46.42132157 9.14020482 39.62687111 9.11818266 C33.78805755 9.10001706 27.94938834 9.09747593 22.11055565 9.10793734 C18.62556465 9.11416598 15.14079917 9.11502549 11.65582275 9.10179138 C7.77035938 9.08806646 3.88543165 9.10710165 0 9.12939453 C-1.15236145 9.12129761 -2.3047229 9.11320068 -3.49200439 9.1048584 C-9.73184399 9.12584978 -9.73184399 9.12584978 -15.30810547 11.67932129 C-15.88447754 12.32864624 -16.46084961 12.97797119 -17.0546875 13.64697266 C-17.65788054 6.52929475 -17.65788054 6.52929475 -15.27758789 3.04751587 C-11.10451512 -0.93007816 -5.40888312 -0.04750605 0 0 Z " fill="#FA9481" transform="translate(125.0546875,15.35302734375)"/>
<path d="M0 0 C0.64100143 0.81139938 1.28200287 1.62279877 1.94242859 2.45878601 C6.03591365 5.86097033 8.76053277 5.71286528 13.92114258 5.65942383 C14.80944763 5.66990753 15.69775269 5.68039124 16.61297607 5.69119263 C19.54051717 5.71992638 22.46687449 5.71365306 25.39453125 5.70703125 C27.42764263 5.72014729 29.46074098 5.73545122 31.49382019 5.75285339 C36.83843857 5.7927271 42.18271624 5.8028954 47.52746582 5.80688477 C52.98391063 5.81621168 58.44015489 5.85362249 63.89648438 5.88867188 C74.59764686 5.95327197 85.29865959 5.98649224 96 6 C96 8.64 96 11.28 96 14 C84.221533 14.11583931 72.44320147 14.20468797 60.66428089 14.25906086 C55.19484655 14.28515697 49.72580187 14.32055588 44.2565918 14.37719727 C38.97867184 14.43151563 33.70112673 14.46142043 28.42294884 14.47438622 C26.40906561 14.48362635 24.39520295 14.5016703 22.38147926 14.52865028 C19.56091576 14.56493813 16.74190187 14.56994545 13.92114258 14.56762695 C12.67173134 14.59459152 12.67173134 14.59459152 11.39707947 14.62210083 C7.08419398 14.58372996 5.4833194 14.38031183 1.97294617 11.61808777 C-0.17233911 8.77130703 -0.57278429 7.67530945 -0.3125 4.1875 C-0.26738281 3.39730469 -0.22226563 2.60710937 -0.17578125 1.79296875 C-0.11777344 1.20128906 -0.05976562 0.60960937 0 0 Z " fill="#D9B96D" transform="translate(108,482)"/>
<path d="M0 0 C0.64100143 0.81139938 1.28200287 1.62279877 1.94242859 2.45878601 C6.03591365 5.86097033 8.76053277 5.71286528 13.92114258 5.65942383 C14.80944763 5.66990753 15.69775269 5.68039124 16.61297607 5.69119263 C19.54051717 5.71992638 22.46687449 5.71365306 25.39453125 5.70703125 C27.42764263 5.72014729 29.46074098 5.73545122 31.49382019 5.75285339 C36.83843857 5.7927271 42.18271624 5.8028954 47.52746582 5.80688477 C52.98391063 5.81621168 58.44015489 5.85362249 63.89648438 5.88867188 C74.59764686 5.95327197 85.29865959 5.98649224 96 6 C96 8.64 96 11.28 96 14 C84.221533 14.11583931 72.44320147 14.20468797 60.66428089 14.25906086 C55.19484655 14.28515697 49.72580187 14.32055588 44.2565918 14.37719727 C38.97867184 14.43151563 33.70112673 14.46142043 28.42294884 14.47438622 C26.40906561 14.48362635 24.39520295 14.5016703 22.38147926 14.52865028 C19.56091576 14.56493813 16.74190187 14.56994545 13.92114258 14.56762695 C12.67173134 14.59459152 12.67173134 14.59459152 11.39707947 14.62210083 C7.08419398 14.58372996 5.4833194 14.38031183 1.97294617 11.61808777 C-0.17233911 8.77130703 -0.57278429 7.67530945 -0.3125 4.1875 C-0.26738281 3.39730469 -0.22226562 2.60710937 -0.17578125 1.79296875 C-0.11777344 1.20128906 -0.05976563 0.60960937 0 0 Z " fill="#D9B96E" transform="translate(360,342)"/>
<path d="M0 0 C0.64100143 0.81139938 1.28200287 1.62279877 1.94242859 2.45878601 C6.03591365 5.86097033 8.76053277 5.71286528 13.92114258 5.65942383 C14.80944763 5.66990753 15.69775269 5.68039124 16.61297607 5.69119263 C19.54051717 5.71992638 22.46687449 5.71365306 25.39453125 5.70703125 C27.42764263 5.72014729 29.46074098 5.73545122 31.49382019 5.75285339 C36.83843857 5.7927271 42.18271624 5.8028954 47.52746582 5.80688477 C52.98391063 5.81621168 58.44015489 5.85362249 63.89648438 5.88867188 C74.59764686 5.95327197 85.29865959 5.98649224 96 6 C96 8.64 96 11.28 96 14 C84.221533 14.11583931 72.44320147 14.20468797 60.66428089 14.25906086 C55.19484655 14.28515697 49.72580187 14.32055588 44.2565918 14.37719727 C38.97867184 14.43151563 33.70112673 14.46142043 28.42294884 14.47438622 C26.40906561 14.48362635 24.39520295 14.5016703 22.38147926 14.52865028 C19.56091576 14.56493813 16.74190187 14.56994545 13.92114258 14.56762695 C12.67173134 14.59459152 12.67173134 14.59459152 11.39707947 14.62210083 C7.08419398 14.58372996 5.4833194 14.38031183 1.97294617 11.61808777 C-0.17233911 8.77130703 -0.57278429 7.67530945 -0.3125 4.1875 C-0.26738281 3.39730469 -0.22226563 2.60710937 -0.17578125 1.79296875 C-0.11777344 1.20128906 -0.05976563 0.60960937 0 0 Z " fill="#D9B96E" transform="translate(16,342)"/>
<path d="M0 0 C6.17469663 -0.07423798 12.34913261 -0.12864413 18.52416992 -0.16479492 C20.62415086 -0.17986772 22.7241004 -0.20032941 24.82397461 -0.22631836 C27.84496824 -0.26276754 30.86554511 -0.27974159 33.88671875 -0.29296875 C34.82335861 -0.30845261 35.75999847 -0.32393646 36.72502136 -0.33988953 C41.61737073 -0.3411485 45.06757863 -0.27295624 49 3 C50.40457737 5.80915474 50.24895157 7.88810534 50 11 C48.22015595 14.1359157 47.47691793 14.84102736 44 16 C41.05035887 16.085409 38.12496981 16.11582927 35.17578125 16.09765625 C34.31438034 16.0962413 33.45297943 16.09482635 32.56547546 16.09336853 C29.81444831 16.0877714 27.06350256 16.07521946 24.3125 16.0625 C22.4472668 16.05748463 20.58203233 16.05292179 18.71679688 16.04882812 C14.14449989 16.03780292 9.57226375 16.02054027 5 16 C4.72285156 15.09636719 4.44570312 14.19273437 4.16015625 13.26171875 C3.79792969 12.08222656 3.43570313 10.90273437 3.0625 9.6875 C2.70285156 8.51574219 2.34320313 7.34398437 1.97265625 6.13671875 C1.33627721 4.08446023 0.67946621 2.03839863 0 0 Z " fill="#2F4556" transform="translate(178,144)"/>
<path d="M0 0 C1.25908676 0.00222061 2.51817352 0.00444122 3.81541443 0.00672913 C4.50806396 0.0065831 5.2007135 0.00643707 5.91435242 0.00628662 C8.21400537 0.00698577 10.51357828 0.01477823 12.81321716 0.02259827 C14.40362504 0.02446244 15.99403349 0.02588635 17.58444214 0.02688599 C21.77827021 0.03071123 25.97206386 0.04054156 30.1658783 0.05158997 C34.44220006 0.06180395 38.71852736 0.06638358 42.99485779 0.07142639 C51.39135799 0.08216383 59.78783017 0.09924032 68.18431091 0.12025452 C68.18431091 2.76025452 68.18431091 5.40025452 68.18431091 8.12025452 C42.44431091 8.12025452 16.70431091 8.12025452 -9.81568909 8.12025452 C-2.96397459 0.1265876 -2.96397459 0.1265876 0 0 Z " fill="#FCE3A8" transform="translate(175.81568908691406,343.87974548339844)"/>
<path d="M0 0 C7.74111444 -0.12678098 15.48196116 -0.21434412 23.22387695 -0.2746582 C25.85744227 -0.29980157 28.49093782 -0.33392084 31.12426758 -0.37719727 C34.90984309 -0.4378521 38.69449598 -0.4662127 42.48046875 -0.48828125 C44.2463459 -0.52699089 44.2463459 -0.52699089 46.04789734 -0.56648254 C55.15459978 -0.56960691 55.15459978 -0.56960691 58.25195312 2.390625 C60.87009194 6.2988188 60.3888849 8.41115812 60 13 C59.43321533 12.35256836 58.86643066 11.70513672 58.2824707 11.03808594 C53.23131105 7.90182109 48.3153251 8.39671454 42.48046875 8.390625 C41.26676102 8.37408875 40.05305328 8.35755249 38.80256653 8.34051514 C34.93082649 8.29197917 31.05947942 8.27065056 27.1875 8.25 C24.56052705 8.22184519 21.93357244 8.19191847 19.30664062 8.16015625 C12.87116522 8.08621834 6.43580059 8.03460853 0 8 C0 5.36 0 2.72 0 0 Z " fill="#F99481" transform="translate(184,296)"/>
<path d="M0 0 C6.6 0 13.2 0 20 0 C20 2.64 20 5.28 20 8 C13.4 8 6.8 8 0 8 C0 5.36 0 2.72 0 0 Z " fill="#DABA6E" transform="translate(184,208)"/>
<path d="M0 0 C3.96 0 7.92 0 12 0 C8.26704728 4.53287116 4.61513452 8.37382288 0 12 C0 8.04 0 4.08 0 0 Z " fill="#80D8E2" transform="translate(220,472)"/>
<path d="M0 0 C3.96 0 7.92 0 12 0 C8.26704728 4.53287116 4.61513452 8.37382288 0 12 C0 8.04 0 4.08 0 0 Z " fill="#81D9E3" transform="translate(472,332)"/>
<path d="M0 0 C3.96 0 7.92 0 12 0 C8.26704728 4.53287116 4.61513452 8.37382288 0 12 C0 8.04 0 4.08 0 0 Z " fill="#81D9E3" transform="translate(128,332)"/>
<path d="M0 0 C3.96 0 7.92 0 12 0 C8.26704728 4.53287116 4.61513452 8.37382288 0 12 C0 8.04 0 4.08 0 0 Z " fill="#80D8E2" transform="translate(220,192)"/>
</svg>
