<?xml version="1.0" encoding="UTF-8"?>
<svg version="1.1" xmlns="http://www.w3.org/2000/svg" width="512" height="512">
<path d="M0 0 C4.99559505 3.66629508 7.52995238 7.61003719 9.8203125 13.3359375 C9.8203125 17.9559375 9.8203125 22.5759375 9.8203125 27.3359375 C91.0003125 27.3359375 172.1803125 27.3359375 255.8203125 27.3359375 C255.8203125 22.7159375 255.8203125 18.0959375 255.8203125 13.3359375 C258.35224807 6.04396306 262.55208116 1.87380478 269.1328125 -2.0390625 C275.80976982 -3.59184327 281.97287665 -3.44058458 288 0 C292.72711965 3.46925948 296.08635881 7.71664315 297.8203125 13.3359375 C298.015625 16.88671875 298.015625 16.88671875 297.9453125 20.6484375 C297.92726563 21.90269531 297.90921875 23.15695313 297.890625 24.44921875 C297.85582031 25.87814453 297.85582031 25.87814453 297.8203125 27.3359375 C298.81289063 27.31273438 299.80546875 27.28953125 300.828125 27.265625 C325.64521323 26.85959431 348.20700911 33.34878417 366.34326172 50.83544922 C374.67506527 59.2994599 380.84105102 69.13296252 384.8203125 80.3359375 C385.15366356 81.1972355 385.48701462 82.0585335 385.83046722 82.94593143 C390.19758706 96.26727633 389.3911494 110.2104652 389.34321117 124.06521976 C389.33408451 127.97330192 389.34816784 131.88131495 389.35913086 135.78938293 C389.37684066 143.42688189 389.37310978 151.06422287 389.3614803 158.7017278 C389.35241573 164.91406029 389.35123499 171.12634877 389.35557556 177.33868599 C389.35618849 178.22570039 389.35680143 179.1127148 389.35743293 180.02660843 C389.35871194 181.82904773 389.3600088 183.63148702 389.3613233 185.43392629 C389.37270718 202.30317055 389.35965023 219.17232761 389.33812183 236.04155756 C389.32025595 250.48762825 389.32335502 264.93357031 389.34179688 279.37963867 C389.36324777 296.19043563 389.3716055 313.00115631 389.35934782 329.81196505 C389.35807374 331.60776777 389.35681626 333.4035705 389.35557556 335.19937325 C389.35495846 336.08274054 389.35434136 336.96610784 389.35370556 337.87624384 C389.35026506 344.07406412 389.35605289 350.27183564 389.36549377 356.46964836 C389.37676229 364.03292251 389.37357258 371.59603081 389.3523708 379.15928619 C389.34192471 383.0114972 389.33762701 386.86343263 389.35096741 390.71564102 C389.44163462 419.33477956 385.45474583 441.61263102 365.2265625 463.08984375 C347.8311093 479.84575823 326.22198344 485.65888741 302.57200623 485.60336304 C301.04916267 485.60710584 299.52632104 485.61170985 298.0034824 485.61709368 C293.84448167 485.62926155 289.68556175 485.62907059 285.52654731 485.62670493 C281.03077272 485.62629518 276.5350235 485.63735106 272.03926086 485.64682007 C263.24019508 485.66339749 254.4411561 485.66892816 245.64207601 485.67004482 C238.48478471 485.67099696 231.32750221 485.67511549 224.1702137 485.68144608 C203.85149529 485.69905049 183.53279796 485.70828633 163.21407186 485.70678513 C162.11983196 485.70670522 161.02559205 485.7066253 159.89819336 485.70654297 C158.802608 485.70646121 157.70702264 485.70637945 156.57823772 485.70629521 C138.83397905 485.70548279 121.08980537 485.72461136 103.34557127 485.7528197 C85.09994985 485.78159481 66.85436981 485.79535742 48.60872513 485.79363215 C38.37568926 485.79296979 28.14274245 485.79839421 17.9097271 485.81998825 C9.19506835 485.83826114 0.48053905 485.84249755 -8.23413063 485.8289694 C-12.67388683 485.82247013 -17.11339516 485.82221147 -21.55312729 485.8396759 C-63.52445158 485.99453383 -63.52445158 485.99453383 -78.6171875 477.5859375 C-79.58773071 477.07268921 -79.58773071 477.07268921 -80.57788086 476.54907227 C-99.53489768 466.2608066 -112.79218523 450.51143075 -120.29894257 430.3263483 C-124.34837794 416.65616782 -123.75148844 402.59707917 -123.70258617 388.47593057 C-123.69345108 384.56652191 -123.70754681 380.65718199 -123.71850586 376.74778748 C-123.73620586 369.1100927 -123.73248951 361.47255598 -123.7208553 353.83485525 C-123.71178814 347.62301482 -123.7106111 341.41121841 -123.71495056 335.19937325 C-123.71556349 334.31220561 -123.71617643 333.42503797 -123.71680793 332.51098647 C-123.71808695 330.70822297 -123.7193838 328.90545948 -123.7206983 327.10269601 C-123.73207896 310.23538519 -123.71902963 293.36816162 -123.69749683 276.50086511 C-123.67962504 262.05448818 -123.68273551 247.60823985 -123.70117188 233.16186523 C-123.72261779 216.3496057 -123.7309838 199.53742243 -123.71872282 182.72515112 C-123.71744874 180.92966276 -123.71619125 179.13417438 -123.71495056 177.33868599 C-123.71433346 176.45547297 -123.71371636 175.57225995 -123.71308056 174.6622829 C-123.70963903 168.46348028 -123.71542998 162.26472639 -123.72486877 156.06593132 C-123.73613147 148.50375072 -123.73295938 140.94173603 -123.7117458 133.37957423 C-123.70129294 129.52748013 -123.69701395 125.6756618 -123.71034241 121.82357025 C-123.80460268 92.13390017 -123.80460268 92.13390017 -119.1796875 80.3359375 C-118.8601133 79.50955749 -118.54053909 78.68317747 -118.21128082 77.83175564 C-117.41732378 75.89331006 -116.53222142 74.06275904 -115.5546875 72.2109375 C-115.21405273 71.55335449 -114.87341797 70.89577148 -114.52246094 70.21826172 C-103.17924391 49.06842006 -85.63451655 36.57754371 -62.82421875 29.6171875 C-52.75126338 26.88281239 -42.51787407 27.22177348 -32.1796875 27.3359375 C-32.22609375 26.418125 -32.2725 25.5003125 -32.3203125 24.5546875 C-32.71775351 11.04169302 -32.71775351 11.04169302 -28.1796875 5.3359375 C-20.43420332 -2.85004815 -10.26569581 -5.86017453 0 0 Z " fill="#DDDAED" transform="translate(123.1796875,14.6640625)"/>
<path d="M0 0 C52.47 0 104.94 0 159 0 C159.1613254 71.62847594 159.1613254 71.62847594 159.1953125 101.59375 C159.20314325 108.4518233 159.21122496 115.30989624 159.21972656 122.16796875 C159.22078156 123.02744205 159.22183655 123.88691534 159.22292352 124.77243328 C159.24029103 138.62349524 159.27180979 152.47449036 159.30861118 166.32551277 C159.34610027 180.55470201 159.36825265 194.7838564 159.37635398 209.01309299 C159.38182528 217.7837522 159.39906629 226.55422249 159.43166587 235.3248235 C159.45291229 241.35019564 159.4591773 247.37547101 159.45400551 253.40087783 C159.45145935 256.87024582 159.45518737 260.33928515 159.4768219 263.80859375 C159.62448396 291.58591221 154.91387602 313.04174308 135.40625 333.75390625 C116.29432325 352.16318863 93.23593161 356.34088246 67.67578125 356.1953125 C65.9395765 356.19236608 64.20336997 356.19032933 62.46716309 356.18920898 C56.08224802 356.17879107 49.69737116 356.15086868 43.3125 356.125 C29.019375 356.08375 14.72625 356.0425 0 356 C0 308.15 0 260.3 0 211 C12.21 210.67 24.42 210.34 37 210 C47.98833071 204.62957507 47.98833071 204.62957507 53.09765625 194.94921875 C55.63648096 185.52286466 56.04465103 171.75187023 51.8125 162.875 C48.17298645 157.20103926 44.03459964 155.01729982 38 152 C25.46 151.67 12.92 151.34 0 151 C0 101.17 0 51.34 0 0 Z " fill="#F8F6F7" transform="translate(353,144)"/>
<path d="M0 0 C4.99559505 3.66629508 7.52995238 7.61003719 9.8203125 13.3359375 C9.8203125 17.9559375 9.8203125 22.5759375 9.8203125 27.3359375 C91.0003125 27.3359375 172.1803125 27.3359375 255.8203125 27.3359375 C255.8203125 22.7159375 255.8203125 18.0959375 255.8203125 13.3359375 C258.35224807 6.04396306 262.55208116 1.87380478 269.1328125 -2.0390625 C275.80976982 -3.59184327 281.97287665 -3.44058458 288 0 C292.72711965 3.46925948 296.08635881 7.71664315 297.8203125 13.3359375 C298.015625 16.88671875 298.015625 16.88671875 297.9453125 20.6484375 C297.92726563 21.90269531 297.90921875 23.15695313 297.890625 24.44921875 C297.85582031 25.87814453 297.85582031 25.87814453 297.8203125 27.3359375 C298.81289063 27.31273438 299.80546875 27.28953125 300.828125 27.265625 C325.64521323 26.85959431 348.20700911 33.34878417 366.34326172 50.83544922 C387.98711729 72.82274448 388.8203125 98.30468651 388.8203125 129.3359375 C219.8603125 129.3359375 50.9003125 129.3359375 -123.1796875 129.3359375 C-123.1796875 86.65559151 -123.1796875 86.65559151 -115.5546875 72.2109375 C-115.21405273 71.55335449 -114.87341797 70.89577148 -114.52246094 70.21826172 C-103.17924391 49.06842006 -85.63451655 36.57754371 -62.82421875 29.6171875 C-52.75126338 26.88281239 -42.51787407 27.22177348 -32.1796875 27.3359375 C-32.22609375 26.418125 -32.2725 25.5003125 -32.3203125 24.5546875 C-32.71775351 11.04169302 -32.71775351 11.04169302 -28.1796875 5.3359375 C-20.43420332 -2.85004815 -10.26569581 -5.86017453 0 0 Z " fill="#82AEE2" transform="translate(123.1796875,14.6640625)"/>
<path d="M0 0 C52.47 0 104.94 0 159 0 C159 19.47 159 38.94 159 59 C149.21214844 59.03867188 149.21214844 59.03867188 139.2265625 59.078125 C135.07938842 59.10330749 130.93228626 59.12965125 126.78515625 59.16015625 C120.21044695 59.20840785 113.63590423 59.25248397 107.06103516 59.27099609 C101.75698492 59.28620007 96.45337203 59.32071222 91.14951706 59.36830902 C89.13149198 59.38308424 87.11340446 59.39103879 85.09532547 59.39188385 C68.57655642 59.13326519 68.57655642 59.13326519 54.125 66.3125 C47.84110472 74.25977932 47.34857694 79.8682709 47.4375 89.9375 C47.41365234 91.17435547 47.38980469 92.41121094 47.36523438 93.68554688 C47.37876466 102.12393428 48.59416351 107.38617224 54.44287109 113.51098633 C60.40429752 118.95144524 66.6655182 119.29951782 74.31005859 119.31884766 C75.70876159 119.33407754 75.70876159 119.33407754 77.13572121 119.3496151 C80.13995628 119.38013537 83.14409713 119.39737425 86.1484375 119.4140625 C88.00887865 119.43100604 89.86931206 119.44882367 91.72973633 119.4675293 C98.61140199 119.53060675 105.49321415 119.57678614 112.375 119.625 C135.454375 119.810625 135.454375 119.810625 159 120 C159 160.26 159 200.52 159 242 C112.5 242.3125 112.5 242.3125 97.84960938 242.38793945 C93.49345155 242.4245293 93.49345155 242.4245293 89.1373291 242.4650116 C87.20605135 242.48109855 85.27472017 242.4914291 83.34338379 242.49711609 C80.40767096 242.50690121 77.47264931 242.535292 74.53710938 242.56762695 C73.68526817 242.56620099 72.83342697 242.56477503 71.9557724 242.56330585 C65.20321166 242.66902074 59.61569053 243.85988957 54.25 248.25 C47.79104543 256.14427781 47.34828283 261.83496741 47.4375 271.9375 C47.41365234 273.17435547 47.38980469 274.41121094 47.36523438 275.68554688 C47.3760255 282.41561272 47.73219571 287.13618309 51.92602539 292.54907227 C53 294 53 294 53 296 C60.2527126 299.92855266 66.38849415 301.44612733 74.53710938 301.43237305 C75.45511322 301.4425647 76.37311707 301.45275635 77.31893921 301.46325684 C80.32727271 301.49324362 83.33528705 301.50263087 86.34375 301.51171875 C88.43982998 301.52857604 90.53589991 301.54672769 92.63195801 301.56611633 C98.12932191 301.61350824 103.62664507 301.64338755 109.12414551 301.66955566 C115.73063423 301.70467242 122.33696657 301.76165438 128.94332886 301.81494904 C138.9621991 301.89333612 148.98086639 301.94403797 159 302 C159 319.82 159 337.64 159 356 C137.76015719 356.16043524 137.76015719 356.16043524 128.59765625 356.1953125 C122.38348461 356.21908033 116.16955215 356.24697425 109.95556641 356.30175781 C104.93695355 356.345718 99.91859774 356.36924118 94.89980698 356.37950897 C92.99995765 356.38681147 91.1001199 356.40106663 89.20038223 356.42292023 C74.06857783 356.58981799 58.10855535 355.79689619 44.5625 348.25 C43.59195679 347.73675171 43.59195679 347.73675171 42.60180664 347.21313477 C23.71653218 336.96380478 10.17260749 321.12249753 2.87851334 300.88905334 C-0.86302684 287.99009118 -0.54745002 275.13450353 -0.46426249 261.79456902 C-0.44678963 258.2719839 -0.45284801 254.74942297 -0.45587158 251.22680664 C-0.45795657 245.14176329 -0.44553765 239.05689311 -0.42292023 232.97189331 C-0.39024191 224.17432186 -0.37997714 215.3768331 -0.37496826 206.57920754 C-0.36624026 192.30145563 -0.33969287 178.02379576 -0.30175781 163.74609375 C-0.26497281 149.88672332 -0.23673885 136.02737813 -0.21972656 122.16796875 C-0.21865457 121.30321584 -0.21758258 120.43846292 -0.21647811 119.54750538 C-0.20815913 112.78333835 -0.20033188 106.01917077 -0.19265985 99.25500298 C-0.15500862 66.16991747 -0.07451591 33.08506271 0 0 Z " fill="#F8F6F7" transform="translate(0,144)"/>
<path d="M0 0 C0.82572866 -0.00384115 1.65145732 -0.00768229 2.50220805 -0.01163983 C3.40404565 -0.01077335 4.30588324 -0.00990687 5.23504925 -0.00901413 C6.19724634 -0.01198525 7.15944344 -0.01495637 8.15079802 -0.01801753 C11.38345493 -0.02670739 14.61607482 -0.02821302 17.84874249 -0.02970505 C20.16306926 -0.03433298 22.47739527 -0.03935761 24.79172039 -0.04475021 C31.08514097 -0.05787778 37.37855087 -0.06431977 43.671983 -0.06876087 C47.60250858 -0.07169076 51.53303123 -0.07579539 55.46355534 -0.08026505 C66.3487824 -0.09237341 77.23400624 -0.10275585 88.11923981 -0.10614014 C88.81569464 -0.1063597 89.51214948 -0.10657927 90.22970901 -0.10680549 C90.92781612 -0.10702377 91.62592323 -0.10724204 92.3451851 -0.10746694 C93.75978236 -0.1079104 95.17437961 -0.10835696 96.58897686 -0.10880661 C97.64150722 -0.10913875 97.64150722 -0.10913875 98.71530082 -0.10947761 C110.08496722 -0.11342558 121.45456952 -0.13088037 132.82421116 -0.15416613 C144.50079339 -0.17788728 156.17734029 -0.1900844 167.85394686 -0.19150805 C174.40852726 -0.19255701 180.96301723 -0.19848418 187.51757526 -0.21632767 C193.68254552 -0.23278407 199.84735714 -0.23497559 206.0123415 -0.22618866 C208.27505194 -0.22541701 210.53777082 -0.22977777 212.80045986 -0.23964691 C215.88960443 -0.25233065 218.97818412 -0.24650875 222.06732464 -0.23606491 C223.41004278 -0.24814952 223.41004278 -0.24814952 224.77988654 -0.26047826 C232.50909508 -0.19937315 238.42859732 1.90844266 244.15025616 7.277668 C249.96293586 13.64829112 250.47229777 21.32257069 250.34166241 29.56892776 C250.35713116 30.54152542 250.37259991 31.51412308 250.38853741 32.51619339 C250.34663176 40.3577869 248.86205347 47.31619694 243.91197491 53.56892776 C243.27002178 54.08455276 242.62806866 54.60017776 241.96666241 55.13142776 C241.32986553 55.66767776 240.69306866 56.20392776 240.03697491 56.75642776 C234.31022952 60.34328608 228.74883975 60.41970664 222.21449566 60.39212418 C220.76969509 60.3978625 220.76969509 60.3978625 219.29570663 60.40371674 C216.07154897 60.41402689 212.84757005 60.41005832 209.62340069 60.40608597 C207.31040056 60.41043354 204.99740187 60.41561684 202.68440533 60.42157364 C196.40341584 60.43497017 190.1224865 60.43554155 183.8414855 60.43301034 C178.59789097 60.43194104 173.35430862 60.43682297 168.1107167 60.44161576 C155.03256674 60.45334785 141.95445106 60.45248457 128.87629889 60.44605895 C117.52683013 60.44089076 106.17744722 60.45214327 94.82799543 60.47115717 C83.16602951 60.4905444 71.50410786 60.4984987 59.84212577 60.49503392 C53.29816973 60.49322054 46.75429231 60.4958628 40.21034908 60.50974846 C34.05600929 60.5223186 27.90184137 60.52039022 21.74750423 60.50733757 C19.49005354 60.50497046 17.23259078 60.50771127 14.97515392 60.51596069 C11.89083529 60.5264182 8.8070944 60.51833506 5.72279644 60.50564957 C4.83192809 60.51302385 3.94105974 60.52039814 3.02319539 60.52799588 C-3.79297792 60.4691196 -9.41037219 59.36814379 -14.84583759 54.94392776 C-15.60896259 54.01580276 -16.37208759 53.08767776 -17.15833759 52.13142776 C-17.79956562 51.37067947 -17.79956562 51.37067947 -18.45374775 50.59456253 C-23.14619233 44.22950266 -22.93888432 37.93480567 -22.84583759 30.25642776 C-22.87355244 29.04084183 -22.90126728 27.82525589 -22.92982197 26.57283401 C-22.90776148 18.39280405 -21.53446205 12.45751272 -16.15833759 6.13142776 C-11.14401727 2.07676136 -6.48218905 0.01135476 0 0 Z " fill="#A2E62E" transform="translate(69.15833759307861,385.8685722351074)"/>
<path d="M0 0 C11.55 0 23.1 0 35 0 C35.00586624 3.49960831 35.01173248 6.99921661 35.01777649 10.60487366 C35.07301966 42.73976484 35.14301699 74.87459621 35.22898628 107.00942028 C35.24025367 111.22608783 35.25139224 115.44275572 35.26245117 119.65942383 C35.26465486 120.49884254 35.26685854 121.33826125 35.269129 122.20311689 C35.30444573 135.77267937 35.32934156 149.3422418 35.35034702 162.91183311 C35.37215397 176.8483851 35.40525062 190.78487775 35.44870156 204.72137922 C35.47513419 213.31232033 35.49289123 221.90318759 35.49934604 230.49416732 C35.50462571 236.3952792 35.52092851 242.29629837 35.54566566 248.19736046 C35.5595931 251.59567638 35.56724332 254.99368659 35.56500816 258.3920517 C35.55353509 283.89567345 37.77013513 308.86682533 56.4609375 328.22265625 C58 330 58 330 58 332 C58.59167969 332.26554687 59.18335938 332.53109375 59.79296875 332.8046875 C62.0568542 334.03079183 63.4889407 335.32240115 65.3125 337.125 C78.55373298 348.95548479 95.04449088 352.22653505 112 355 C112 355.33 112 355.66 112 356 C106.49061116 356.10055041 100.98178189 356.17224206 95.47167969 356.21972656 C93.60602491 356.23956715 91.74042991 356.26664851 89.875 356.30175781 C74.43477698 356.58460673 58.40416211 355.9615872 44.5625 348.25 C43.59195679 347.73675171 43.59195679 347.73675171 42.60180664 347.21313477 C23.71653218 336.96380478 10.17260749 321.12249753 2.87851334 300.88905334 C-0.86302684 287.99009118 -0.54745002 275.13450353 -0.46426249 261.79456902 C-0.44678963 258.2719839 -0.45284801 254.74942297 -0.45587158 251.22680664 C-0.45795657 245.14176329 -0.44553765 239.05689311 -0.42292023 232.97189331 C-0.39024191 224.17432186 -0.37997714 215.3768331 -0.37496826 206.57920754 C-0.36624026 192.30145563 -0.33969287 178.02379576 -0.30175781 163.74609375 C-0.26497281 149.88672339 -0.23669292 136.02737815 -0.21972656 122.16796875 C-0.21867567 121.3119176 -0.21762477 120.45586645 -0.21654204 119.57387435 C-0.21132142 115.27879214 -0.2062667 110.98370975 -0.20129442 106.68862724 C-0.15991019 71.12568323 -0.08841993 35.56285634 0 0 Z " fill="#DEDBEE" transform="translate(0,144)"/>
<path d="M0 0 C1.21124039 -0.0071553 2.42248077 -0.01431061 3.67042542 -0.02168274 C5.02001928 -0.02452317 6.36961341 -0.02723488 7.71920776 -0.02983093 C9.13507759 -0.03609488 10.55094577 -0.04274162 11.96681213 -0.04974365 C16.62498832 -0.0708012 21.28316489 -0.08115014 25.94137573 -0.09111023 C27.54531751 -0.09515767 29.14925911 -0.09927459 30.75320053 -0.10346031 C38.29131508 -0.12251863 45.82941981 -0.13674621 53.36755383 -0.14507228 C62.06394675 -0.15483636 70.76008457 -0.18113135 79.45638764 -0.22157317 C86.18006641 -0.25176581 92.90367221 -0.26654428 99.62741745 -0.26985329 C103.64187484 -0.27220095 107.65605993 -0.28112345 111.67044449 -0.30631447 C115.45112172 -0.32965438 119.23134854 -0.33380495 123.01207924 -0.32355309 C124.39553516 -0.32305898 125.77901369 -0.3293424 127.1624012 -0.34310913 C135.95995581 -0.42571823 142.35302756 -0.02949853 149.29684448 5.82295227 C149.73383667 6.36306946 150.17082886 6.90318665 150.62106323 7.45967102 C151.29588745 8.25824524 151.29588745 8.25824524 151.98434448 9.07295227 C156.36835965 15.93994948 156.77637025 21.5671763 156.68356323 29.58467102 C156.69516479 30.58304993 156.70676636 31.58142883 156.71871948 32.61006165 C156.68530093 41.08166375 155.2151585 48.19709309 149.15258694 54.48506832 C142.03677352 60.89887562 133.47562557 60.71743632 124.37863159 60.64888 C122.99128167 60.65266983 121.60393555 60.65817531 120.21659851 60.66525269 C116.472749 60.67913709 112.72936267 60.66808807 108.9855392 60.65154147 C105.05484513 60.63762134 101.12417606 60.64415884 97.19346619 60.64767456 C90.59560746 60.65037089 83.99793125 60.63694987 77.40011597 60.61372375 C69.78659293 60.58710656 62.1733747 60.58537255 54.55982107 60.59711212 C47.21550111 60.60791334 39.87129073 60.60168519 32.52697945 60.58755684 C29.41033887 60.58181843 26.29377906 60.58186271 23.17713737 60.58662224 C19.50388992 60.59141553 15.83097375 60.58119387 12.15778923 60.55966759 C10.17702692 60.55150372 8.19622108 60.55792551 6.2154541 60.56486511 C-1.34557545 60.50208076 -7.60499606 60.13425069 -13.89846802 55.53388977 C-14.42827271 54.97314758 -14.95807739 54.4124054 -15.50393677 53.83467102 C-16.04663208 53.28166321 -16.58932739 52.7286554 -17.14846802 52.15888977 C-22.46750896 45.22393766 -22.20882524 38.72895646 -22.19143677 30.33467102 C-22.21979614 29.10168274 -22.24815552 27.86869446 -22.27737427 26.5983429 C-22.29370582 18.95109172 -21.57815162 13.2208066 -16.69143677 7.14717102 C-14.30471802 4.99092102 -14.30471802 4.99092102 -12.00393677 3.64717102 C-10.85344849 2.95107727 -10.85344849 2.95107727 -9.67971802 2.24092102 C-6.14319837 0.29548782 -4.0754541 0.01647647 0 0 Z " fill="#FD646F" transform="translate(68.69143676757813,203.8528289794922)"/>
<path d="M0 0 C1.21116989 -0.00860046 2.42233978 -0.01720093 3.67021179 -0.02606201 C5.01458697 -0.03049715 6.35896261 -0.03479552 7.70333862 -0.03897095 C9.11773377 -0.04687386 10.53212691 -0.05514292 11.94651794 -0.06375122 C16.59444253 -0.08995561 21.24237605 -0.10528005 25.89035034 -0.11953735 C27.4921049 -0.12489821 29.09385941 -0.13027572 30.69561386 -0.13566971 C37.36109449 -0.15729859 44.02657271 -0.1760332 50.69207954 -0.1872921 C60.23402766 -0.20351708 69.77556767 -0.23665912 79.31736195 -0.29369295 C86.03173258 -0.33245278 92.74599435 -0.35193207 99.4604739 -0.35721266 C103.46775301 -0.36085868 107.47459668 -0.37279886 111.4817543 -0.4053154 C115.25594983 -0.43550198 119.02944889 -0.44167078 122.80373955 -0.42993164 C124.83812376 -0.42960746 126.87246566 -0.45400387 128.9066925 -0.47930908 C137.67312874 -0.41992947 143.92502683 1.00184524 150.31613159 7.21640015 C150.96775269 8.17546265 150.96775269 8.17546265 151.63253784 9.15390015 C152.08499878 9.79327515 152.53745972 10.43265015 153.00363159 11.09140015 C156.44566348 17.05006519 156.5300955 22.13660164 156.50753784 28.90390015 C156.52365112 29.85522827 156.5397644 30.8065564 156.55636597 31.78671265 C156.56180526 39.72808535 155.48102402 47.77866324 149.80340576 53.81762218 C141.95607896 60.33740521 133.85413915 60.88181262 123.99972534 60.81674194 C122.59576058 60.82517187 121.19180713 60.83570435 119.78787231 60.84815979 C116.00258627 60.87504735 112.21796364 60.87055067 108.43262482 60.85845923 C105.26174369 60.85129185 102.09098247 60.85985142 98.9201107 60.86836463 C91.4354698 60.88826598 83.9511487 60.88280484 76.46652222 60.86068726 C68.76703006 60.83832016 61.06837626 60.85593714 53.36896324 60.89373654 C46.73589921 60.92504648 40.10309366 60.93286389 33.46996498 60.92178279 C29.51809617 60.91532083 25.5667108 60.91717682 21.61489868 60.9411068 C17.89784572 60.96247276 14.18196883 60.95423618 10.46498871 60.92401314 C8.46551333 60.91474654 6.46596792 60.93478341 4.46658325 60.95596313 C-3.64206057 60.85234767 -9.52853578 59.5056271 -15.80496216 54.15390015 C-21.92847902 46.47728334 -22.06904297 39.58811756 -22.17996216 30.02890015 C-22.21734497 28.83007202 -22.25472778 27.6312439 -22.29324341 26.39608765 C-22.36874632 18.74512631 -21.58855313 13.2747652 -16.80496216 7.15390015 C-14.67214966 4.99765015 -14.67214966 4.99765015 -12.67996216 3.65390015 C-12.01738403 3.18983765 -11.35480591 2.72577515 -10.67214966 2.24765015 C-7.07371164 0.1397785 -4.08097709 0.02155848 0 0 Z " fill="#528FD8" transform="translate(251.80496215820313,294.8460998535156)"/>
<path d="M0 0 C0.79642914 -0.00137466 1.59285828 -0.00274933 2.41342163 -0.00416565 C3.27800995 -0.00057037 4.14259827 0.0030249 5.03338623 0.00672913 C6.40951584 0.00651009 6.40951584 0.00651009 7.81344604 0.00628662 C10.84348928 0.00698286 13.87347093 0.01476177 16.90350342 0.02259827 C19.00528937 0.02446347 21.10707576 0.02588689 23.2088623 0.02688599 C28.739209 0.03070308 34.26952941 0.0405265 39.79986572 0.05158997 C46.43619239 0.0636205 53.07252785 0.06821017 59.7088623 0.07404327 C69.78938595 0.08373866 79.86985193 0.10290089 89.95037842 0.12025452 C89.95037842 19.92025452 89.95037842 39.72025452 89.95037842 60.12025452 C66.81205197 60.24058094 66.81205197 60.24058094 56.92694092 60.26673889 C50.18956387 60.28465197 43.45230947 60.30581282 36.71502686 60.34657288 C31.28150592 60.37923847 25.84811658 60.3971228 20.414505 60.40488625 C18.34452748 60.41041681 16.27455692 60.42121664 14.20463562 60.43744469 C11.29876301 60.45931448 8.39342985 60.46221743 5.48748779 60.46083069 C4.21217697 60.47700943 4.21217697 60.47700943 2.91110229 60.49351501 C-3.81693445 60.45891542 -9.37819362 59.29467263 -14.73712158 54.93275452 C-15.50024658 54.00462952 -16.26337158 53.07650452 -17.04962158 52.12025452 C-17.69084961 51.35950623 -17.69084961 51.35950623 -18.34503174 50.58338928 C-23.03747631 44.21832941 -22.83016831 37.92363243 -22.73712158 30.24525452 C-22.76483643 29.02966858 -22.79255127 27.81408264 -22.82110596 26.56166077 C-22.79904547 18.38163081 -21.42574604 12.44633947 -16.04962158 6.12025452 C-11.08284601 2.10403362 -6.42991103 -0.00859614 0 0 Z " fill="#BBEC6C" transform="translate(69.04962158203125,385.87974548339844)"/>
<path d="M0 0 C1.1933194 -0.00428513 2.38663879 -0.00857025 3.61611938 -0.01298523 C6.13600023 -0.01871864 8.65589762 -0.0192361 11.17578125 -0.01489258 C15.01851838 -0.01173563 18.86048313 -0.03519509 22.703125 -0.06054688 C25.15624903 -0.06282034 27.60937513 -0.06352314 30.0625 -0.0625 C31.20544525 -0.07170975 32.3483905 -0.08091949 33.52597046 -0.09040833 C40.80105064 -0.04849548 46.81895977 0.49011324 52.87109375 4.9140625 C53.40089844 5.47480469 53.93070312 6.03554688 54.4765625 6.61328125 C55.01925781 7.16628906 55.56195313 7.71929687 56.12109375 8.2890625 C61.45201564 15.23950497 61.18142638 21.7629801 61.1640625 30.17578125 C61.19242187 31.41714844 61.22078125 32.65851563 61.25 33.9375 C61.26904901 42.88101145 59.74123355 47.73928103 53.85546875 54.32421875 C53.04916016 54.99324219 53.04916016 54.99324219 52.2265625 55.67578125 C51.69160156 56.13726562 51.15664063 56.59875 50.60546875 57.07421875 C44.24321379 61.09383255 37.37060603 60.6228926 30.109375 60.63671875 C28.89385956 60.64337555 27.67834412 60.65003235 26.42599487 60.65689087 C23.85904449 60.66699981 21.29206792 60.67170843 18.72509766 60.67138672 C14.80977852 60.67575812 10.89558851 60.71209428 6.98046875 60.75 C4.48177467 60.75586891 1.98307526 60.75983781 -0.515625 60.76171875 C-1.68044403 60.77608978 -2.84526306 60.79046082 -4.04537964 60.80526733 C-11.81651304 60.76184365 -17.22240432 59.76778662 -23.32421875 54.625 C-23.76121094 54.08488281 -24.19820313 53.54476562 -24.6484375 52.98828125 C-25.09832031 52.45589844 -25.54820312 51.92351562 -26.01171875 51.375 C-30.57278972 44.23066759 -30.82737259 38.21341392 -30.7734375 29.86328125 C-30.79341797 28.76951172 -30.81339844 27.67574219 -30.83398438 26.54882812 C-30.82919899 18.60030646 -29.63042693 13.12879124 -24.40625 7.05859375 C-23.76429688 6.51976562 -23.12234375 5.9809375 -22.4609375 5.42578125 C-21.82414062 4.87148438 -21.18734375 4.3171875 -20.53125 3.74609375 C-14.1504663 -0.45477808 -7.3623779 -0.00585019 0 0 Z " fill="#FD646F" transform="translate(417.3359375,385.69921875)"/>
<path d="M0 0 C11.88 -0.12375 11.88 -0.12375 24 -0.25 C26.4853125 -0.28641602 28.970625 -0.32283203 31.53125 -0.36035156 C33.52082457 -0.37204379 35.51040877 -0.38223435 37.5 -0.390625 C39.02560547 -0.4213208 39.02560547 -0.4213208 40.58203125 -0.45263672 C47.98174277 -0.4562358 53.1821741 0.78222532 58.98828125 5.67578125 C59.42527344 6.21589844 59.86226562 6.75601563 60.3125 7.3125 C60.76238281 7.84488281 61.21226562 8.37726563 61.67578125 8.92578125 C66.05979642 15.79277846 66.46780701 21.42000528 66.375 29.4375 C66.38660156 30.43587891 66.39820313 31.43425781 66.41015625 32.46289062 C66.37670938 40.94167142 64.89762727 48.029782 58.85398865 54.33746338 C52.40706341 60.11864727 44.90219103 60.56173736 36.62109375 60.390625 C35.68656372 60.38659668 34.75203369 60.38256836 33.78918457 60.37841797 C30.33841986 60.35768003 26.88793768 60.30183627 23.4375 60.25 C11.8359375 60.12625 11.8359375 60.12625 0 60 C0 40.2 0 20.4 0 0 Z " fill="#FC4755" transform="translate(159,204)"/>
<path d="M0 0 C0 1.65 0 3.3 0 5 C-1.28970703 5.49306641 -1.28970703 5.49306641 -2.60546875 5.99609375 C-23.91849645 14.5724375 -38.82888584 28.99045727 -48.875 49.5625 C-53.78712335 61.4480022 -54.49724839 73.15184023 -54.6875 85.8125 C-54.790625 91.154375 -54.89375 96.49625 -55 102 C-66.88 102 -78.76 102 -91 102 C-91.0825 96.699375 -91.165 91.39875 -91.25 85.9375 C-91.30462402 83.47978149 -91.30462402 83.47978149 -91.36035156 80.97241211 C-91.52597184 68.17356118 -89.42539681 56.33675587 -83.375 44.875 C-83.03436523 44.21741699 -82.69373047 43.55983398 -82.34277344 42.88232422 C-70.99955641 21.73248256 -53.45482905 9.24160621 -30.64453125 2.28125 C-20.57157588 -0.45312511 -10.33818657 -0.11416402 0 0 Z " fill="#528FD8" transform="translate(91,42)"/>
<path d="M0 0 C4.82821281 3.54345232 7.85117078 7.70928945 9.8203125 13.3359375 C10.08773804 15.73687744 10.08773804 15.73687744 10.11083984 18.25878906 C10.12359955 19.21037903 10.13635925 20.16196899 10.14950562 21.14239502 C10.15173126 22.16017029 10.15395691 23.17794556 10.15625 24.2265625 C10.1629068 25.2857489 10.1695636 26.3449353 10.17642212 27.43621826 C10.18653523 29.67539741 10.19123955 31.91460663 10.19091797 34.15380859 C10.1952794 37.56008316 10.23158227 40.96504926 10.26953125 44.37109375 C10.27540219 46.55207893 10.27936973 48.73307023 10.28125 50.9140625 C10.29562103 51.92374084 10.30999207 52.93341919 10.32479858 53.97369385 C10.27430216 61.88634222 8.21890396 67.48105837 4.0703125 74.1484375 C-0.37481698 78.47009116 -4.95887086 80.55839337 -11.1796875 80.8359375 C-17.12448006 80.55328632 -21.58767565 78.76666862 -25.9375 74.6875 C-30.19716121 69.97512118 -32.41364865 65.6746853 -32.47021484 59.21362305 C-32.48297455 58.21876389 -32.49573425 57.22390472 -32.50888062 56.19889832 C-32.51110626 55.13423843 -32.51333191 54.06957855 -32.515625 52.97265625 C-32.5222818 51.86670609 -32.5289386 50.76075592 -32.53579712 49.62129211 C-32.54591118 47.28375916 -32.55061453 44.9461974 -32.55029297 42.60864258 C-32.55465917 39.04654912 -32.59097467 35.48570194 -32.62890625 31.92382812 C-32.63477615 29.64844172 -32.63874438 27.37304945 -32.640625 25.09765625 C-32.65499603 24.03906906 -32.66936707 22.98048187 -32.68417358 21.88981628 C-32.6384857 14.43278334 -31.44168835 9.11606376 -26.43359375 3.3125 C-18.3749285 -3.12698771 -9.46318602 -5.40206165 0 0 Z " fill="#FDE077" transform="translate(123.1796875,14.6640625)"/>
<path d="M0 0 C4.82851144 3.54367149 7.85044581 7.70929305 9.8203125 13.3359375 C10.08773804 15.73014832 10.08773804 15.73014832 10.11083984 18.24291992 C10.12359955 19.1912822 10.13635925 20.13964447 10.14950562 21.116745 C10.15173126 22.13138321 10.15395691 23.14602142 10.15625 24.19140625 C10.1629068 25.24822098 10.1695636 26.30503571 10.17642212 27.39387512 C10.18653605 29.62885807 10.19123953 31.86387114 10.19091797 34.09887695 C10.19527494 37.49416857 10.23156456 40.88814271 10.26953125 44.28320312 C10.27540311 46.46093309 10.27937003 48.63866918 10.28125 50.81640625 C10.29562103 51.82092331 10.30999207 52.82544037 10.32479858 53.86039734 C10.27913963 61.01446742 9.24186034 68.31240082 4.44369507 73.95475769 C-1.10231871 78.8356316 -6.35119 80.94293291 -13.65625 80.6796875 C-20.30652699 79.77376741 -24.65153048 76.37261027 -28.953125 71.41015625 C-32.67997193 65.10774951 -32.49997596 58.32053679 -32.515625 51.21484375 C-32.5222818 50.15611557 -32.5289386 49.09738739 -32.53579712 48.00657654 C-32.5458888 45.7751539 -32.55061522 43.54370129 -32.55029297 41.31225586 C-32.55466909 37.91274031 -32.5910353 34.5145209 -32.62890625 31.11523438 C-32.63477466 28.94010858 -32.63874389 26.76497665 -32.640625 24.58984375 C-32.65499603 23.58127823 -32.66936707 22.57271271 -32.68417358 21.53358459 C-32.63755871 14.27749435 -31.2304397 8.87126107 -26.43359375 3.3125 C-18.3749285 -3.12698771 -9.46318602 -5.40206165 0 0 Z " fill="#FDE077" transform="translate(411.1796875,14.6640625)"/>
<path d="M0 0 C9.1265625 -0.1546875 9.1265625 -0.1546875 18.4375 -0.3125 C20.33943115 -0.35802002 22.2413623 -0.40354004 24.20092773 -0.45043945 C40.55382902 -0.68104074 40.55382902 -0.68104074 47 5 C49.12109375 7.0625 49.12109375 7.0625 50.4375 9 C50.88996094 9.639375 51.34242188 10.27875 51.80859375 10.9375 C55.25062564 16.89616504 55.33505766 21.98270149 55.3125 28.75 C55.32861328 29.70132812 55.34472656 30.65265625 55.36132812 31.6328125 C55.36675084 39.54997475 54.30605237 47.6742123 48.58911133 53.66235352 C39.32137502 61.46354068 29.30493846 60.59517159 17.875 60.3125 C11.97625 60.209375 6.0775 60.10625 0 60 C0 40.2 0 20.4 0 0 Z " fill="#82AEE3" transform="translate(353,295)"/>
<path d="M0 0 C0.66 0.66 1.32 1.32 2 2 C1.20335937 2.52787109 1.20335937 2.52787109 0.390625 3.06640625 C-0.66898437 3.80697266 -0.66898437 3.80697266 -1.75 4.5625 C-2.44609375 5.03816406 -3.1421875 5.51382812 -3.859375 6.00390625 C-8.4430209 10.27807241 -10.21374137 14.27596695 -10.51757812 20.44116211 C-10.54381984 22.55306454 -10.54713977 24.66533806 -10.53125 26.77734375 C-10.5350769 27.90266006 -10.53890381 29.02797638 -10.54284668 30.18739319 C-10.54556077 32.5600779 -10.53823498 34.93279279 -10.52148438 37.30541992 C-10.50008934 40.92239647 -10.52129464 44.53738215 -10.546875 48.15429688 C-10.54423125 50.46615019 -10.53910529 52.77800227 -10.53125 55.08984375 C-10.54339539 56.70112404 -10.54339539 56.70112404 -10.55578613 58.34495544 C-10.46275509 65.85524323 -9.32394902 71.37878724 -4.078125 77.09375 C-3.17320312 77.78984375 -3.17320312 77.78984375 -2.25 78.5 C-1.63640625 78.9846875 -1.0228125 79.469375 -0.390625 79.96875 C0.06828125 80.3090625 0.5271875 80.649375 1 81 C0.67 81.66 0.34 82.32 0 83 C-6.92994821 83.51122569 -12.26971169 83.18089705 -18 79 C-23.17767487 74.35159856 -25.63232214 69.49866475 -26.20144653 62.53523254 C-26.29666246 59.6482067 -26.32957587 56.76750432 -26.3359375 53.87890625 C-26.3425943 52.82017807 -26.3492511 51.76144989 -26.35610962 50.67063904 C-26.3662013 48.4392164 -26.37092772 46.20776379 -26.37060547 43.97631836 C-26.37498159 40.57680281 -26.4113478 37.1785834 -26.44921875 33.77929688 C-26.45508716 31.60417108 -26.45905639 29.42903915 -26.4609375 27.25390625 C-26.47530853 26.24534073 -26.48967957 25.23677521 -26.50448608 24.19764709 C-26.45787121 16.94155685 -25.0507522 11.53532357 -20.25390625 5.9765625 C-13.75886611 0.78653043 -8.42527249 -1.0140151 0 0 Z " fill="#FDC266" transform="translate(405,12)"/>
<path d="M0 0 C0.66 0.66 1.32 1.32 2 2 C1.20335937 2.52787109 1.20335937 2.52787109 0.390625 3.06640625 C-0.66898438 3.80697266 -0.66898438 3.80697266 -1.75 4.5625 C-2.44609375 5.03816406 -3.1421875 5.51382812 -3.859375 6.00390625 C-8.45391248 10.28822861 -10.21743958 14.27586491 -10.50170898 20.45703125 C-10.52123105 22.57543171 -10.51814204 24.69412433 -10.49609375 26.8125 C-10.49754898 27.94018799 -10.49900421 29.06787598 -10.50050354 30.22973633 C-10.49884846 32.60663444 -10.48733128 34.9835437 -10.46655273 37.36035156 C-10.43759502 40.9880957 -10.44595415 44.61437736 -10.45898438 48.2421875 C-10.45274642 50.55729873 -10.44435504 52.87240537 -10.43359375 55.1875 C-10.43652939 56.26684814 -10.43946503 57.34619629 -10.44248962 58.45825195 C-10.36778293 64.45376819 -9.77336833 68.67287496 -7 74 C-6.67 74.99 -6.34 75.98 -6 77 C-4.6846659 77.70151152 -3.34882408 78.36525925 -2 79 C-0.25 80.625 -0.25 80.625 1 82 C-0.61253453 83.61253453 -2.33599043 83.24791423 -4.5625 83.3125 C-10.78213622 83.2237748 -15.20127351 81.62458351 -19.7578125 77.3515625 C-24.01747371 72.63918368 -26.23396115 68.3387478 -26.29052734 61.87768555 C-26.30328705 60.88282639 -26.31604675 59.88796722 -26.32919312 58.86296082 C-26.33141876 57.79830093 -26.33364441 56.73364105 -26.3359375 55.63671875 C-26.3425943 54.53076859 -26.3492511 53.42481842 -26.35610962 52.28535461 C-26.36622368 49.94782166 -26.37092703 47.6102599 -26.37060547 45.27270508 C-26.37497167 41.71061162 -26.41128717 38.14976444 -26.44921875 34.58789062 C-26.45508865 32.31250422 -26.45905688 30.03711195 -26.4609375 27.76171875 C-26.47530853 26.70313156 -26.48967957 25.64454437 -26.50448608 24.55387878 C-26.4587982 17.09684584 -25.26200085 11.78012626 -20.25390625 5.9765625 C-13.75886611 0.78653043 -8.42527249 -1.0140151 0 0 Z " fill="#FCC266" transform="translate(117,12)"/>
<path d="M0 0 C0.91471573 -0.00619858 1.82943146 -0.01239716 2.77186584 -0.01878357 C4.70426368 -0.02587983 6.63672268 -0.02271109 8.5690918 -0.01000977 C11.52181907 0.00384368 14.47136913 -0.03020119 17.42382812 -0.06835938 C19.30338619 -0.06931073 21.18294821 -0.06745089 23.0625 -0.0625 C23.94284409 -0.07575821 24.82318817 -0.08901642 25.73020935 -0.10267639 C30.14924044 -0.03575356 32.04923999 0.15620908 35.68969727 2.87915039 C37.59765625 5.56640625 37.59765625 5.56640625 37.66015625 9.19140625 C36.44828868 13.04086796 36.10130369 13.73594029 32.59765625 15.56640625 C29.45349044 16.03138023 26.33437671 16.03443425 23.16015625 16.03515625 C22.24306885 16.04276978 21.32598145 16.0503833 20.38110352 16.05822754 C18.44452637 16.06902017 16.50789105 16.07188504 14.57128906 16.06738281 C11.60773907 16.06640956 8.64677056 16.10805848 5.68359375 16.15234375 C3.80078665 16.15755019 1.91797055 16.16023895 0.03515625 16.16015625 C-0.85034912 16.17655151 -1.73585449 16.19294678 -2.64819336 16.20983887 C-8.77565859 16.14094738 -8.77565859 16.14094738 -11.9609375 13.22070312 C-13.72270394 9.97647467 -14.02164699 8.20481276 -13.40234375 4.56640625 C-9.95369353 -0.56545124 -5.63914576 -0.03169813 0 0 Z " fill="#7B6E7A" transform="translate(426.40234375,161.43359375)"/>
<path d="M0 0 C1.3756311 -0.00574036 1.3756311 -0.00574036 2.77905273 -0.01159668 C4.71566873 -0.01431549 6.65232147 -0.00695646 8.58886719 0.00976562 C11.55226553 0.03117606 14.51323951 0.00996331 17.4765625 -0.015625 C19.35938035 -0.01298172 21.24219669 -0.00785673 23.125 0 C24.01050537 -0.00809692 24.89601074 -0.01619385 25.80834961 -0.02453613 C31.90984749 0.06841475 31.90984749 0.06841475 35.12109375 2.34570312 C37.24561216 5.56702576 37.10085687 7.76275188 36.5625 11.53125 C35.12109375 13.71679688 35.12109375 13.71679688 32.5625 15.53125 C29.41782831 16.12749104 26.31799253 16.09169623 23.125 16.0625 C22.2079126 16.0663269 21.2908252 16.07015381 20.34594727 16.07409668 C18.40933127 16.07681549 16.47267853 16.06945646 14.53613281 16.05273438 C11.57273447 16.03132394 8.61176049 16.05253669 5.6484375 16.078125 C3.76561965 16.07548172 1.88280331 16.07035673 0 16.0625 C-1.32825806 16.07464539 -1.32825806 16.07464539 -2.68334961 16.08703613 C-8.78484749 15.99408525 -8.78484749 15.99408525 -11.99609375 13.71679688 C-14.12061216 10.49547424 -13.97585687 8.29974812 -13.4375 4.53125 C-10.03081785 -0.63416644 -5.62553316 -0.051439 0 0 Z " fill="#7A6D79" transform="translate(244.4375,161.46875)"/>
<path d="M0 0 C1.3756311 -0.00574036 1.3756311 -0.00574036 2.77905273 -0.01159668 C4.71566873 -0.01431549 6.65232147 -0.00695646 8.58886719 0.00976562 C11.55226553 0.03117606 14.51323951 0.00996331 17.4765625 -0.015625 C19.35938035 -0.01298172 21.24219669 -0.00785673 23.125 0 C24.01050537 -0.00809692 24.89601074 -0.01619385 25.80834961 -0.02453613 C31.90984749 0.06841475 31.90984749 0.06841475 35.12109375 2.34570312 C37.24561216 5.56702576 37.10085687 7.76275188 36.5625 11.53125 C35.12109375 13.71679688 35.12109375 13.71679688 32.5625 15.53125 C29.41782831 16.12749104 26.31799253 16.09169623 23.125 16.0625 C22.2079126 16.0663269 21.2908252 16.07015381 20.34594727 16.07409668 C18.40933127 16.07681549 16.47267853 16.06945646 14.53613281 16.05273438 C11.57273447 16.03132394 8.61176049 16.05253669 5.6484375 16.078125 C3.76561965 16.07548172 1.88280331 16.07035673 0 16.0625 C-1.32825806 16.07464539 -1.32825806 16.07464539 -2.68334961 16.08703613 C-8.78484749 15.99408525 -8.78484749 15.99408525 -11.99609375 13.71679688 C-14.12061216 10.49547424 -13.97585687 8.29974812 -13.4375 4.53125 C-10.03081785 -0.63416644 -5.62553316 -0.051439 0 0 Z " fill="#7A6D79" transform="translate(68.4375,161.46875)"/>
<path d="M0 0 C0.66 0.33 1.32 0.66 2 1 C-3.28 6.28 -8.56 11.56 -14 17 C-14 11.79027084 -9.49956486 8.58109594 -6 5 C-4.05399166 3.22905099 -2.08162714 1.61326103 0 0 Z " fill="#62A4E1" transform="translate(31,58)"/>
</svg>
